<?xml version="1.0" encoding="utf-8"?>
<!-- Generator: Adobe Illustrator 17.0.0, SVG Export Plug-In . SVG Version: 6.00 Build 0)  -->
<!DOCTYPE svg PUBLIC "-//W3C//DTD SVG 1.1//EN" "http://www.w3.org/Graphics/SVG/1.1/DTD/svg11.dtd">
<svg version="1.1" id="Layer_1" xmlns="http://www.w3.org/2000/svg" xmlns:xlink="http://www.w3.org/1999/xlink" x="0px" y="0px"
	 width="300px" height="150px" viewBox="455 0 300 150" enable-background="new 455 0 300 150" xml:space="preserve">
<path fill="#EDEDED" d="M20.667,135.338c0-0.418,0.26-0.792,0.651-0.937C46.249,125.122,63,101.013,63,74.408
	c0-4.302-0.436-8.615-1.296-12.833H56c-0.552,0-1-0.448-1-1V25.692c0-0.418,0.261-0.796,0.654-0.941
	c0.393-0.145,0.834-0.033,1.106,0.285c0.669,0.783,1.318,1.583,1.956,2.393l0.309,0.398c0.54,0.694,1.069,1.399,1.585,2.114
	l0.302,0.417c1.172,1.644,2.294,3.36,3.336,5.101l0.378,0.643c0.391,0.668,0.771,1.342,1.141,2.022l0.389,0.713
	c0.458,0.864,0.905,1.734,1.331,2.617l0.229,0.493c0.338,0.715,0.667,1.437,0.984,2.165c0.157,0.359,0.308,0.72,0.458,1.082
	c0.231,0.556,0.454,1.11,0.671,1.667l0.08,0.204c0.127,0.325,0.253,0.65,0.375,0.978c0.245,0.663,0.478,1.332,0.705,2.002
	c0.208,0.612,0.405,1.23,0.597,1.85c0.167,0.54,0.309,0.999,0.442,1.461c0.148,0.514,0.288,1.031,0.425,1.548
	c0.111,0.419,0.217,0.84,0.321,1.261l0.033,0.132c0.124,0.505,0.249,1.01,0.362,1.519c0.047,0.212,0.205,0.988,0.205,0.988
	C74.453,63.962,75,69.211,75,74.408c0,33.293-21.312,62.413-53.032,72.459c-0.304,0.097-0.635,0.042-0.893-0.146
	c-0.257-0.188-0.409-0.488-0.409-0.807V135.338z"/>
<path fill="#EDEDED" d="M-20.667,14.662c0,0.418-0.26,0.792-0.651,0.937C-46.249,24.878-63,48.987-63,75.592
	c0,4.302,0.436,8.615,1.296,12.833H-56c0.552,0,1,0.448,1,1v34.882c0,0.418-0.261,0.796-0.654,0.941
	c-0.393,0.145-0.834,0.033-1.106-0.285c-0.669-0.783-1.318-1.583-1.956-2.393l-0.309-0.398c-0.54-0.694-1.069-1.399-1.585-2.114
	l-0.302-0.417c-1.172-1.644-2.294-3.36-3.336-5.101l-0.378-0.643c-0.391-0.668-0.771-1.342-1.141-2.022l-0.389-0.713
	c-0.458-0.864-0.905-1.734-1.331-2.617l-0.229-0.493c-0.338-0.715-0.667-1.437-0.984-2.165c-0.157-0.359-0.308-0.72-0.458-1.082
	c-0.231-0.556-0.454-1.11-0.671-1.667l-0.08-0.204c-0.127-0.325-0.253-0.65-0.375-0.978c-0.245-0.663-0.478-1.332-0.705-2.002
	c-0.208-0.612-0.405-1.23-0.597-1.85c-0.167-0.54-0.309-0.999-0.442-1.461c-0.148-0.514-0.288-1.031-0.425-1.548
	c-0.111-0.419-0.217-0.84-0.321-1.261l-0.033-0.132c-0.124-0.505-0.249-1.01-0.362-1.519c-0.047-0.212-0.205-0.988-0.205-0.988
	C-74.453,86.038-75,80.789-75,75.592c0-33.293,21.312-62.413,53.032-72.458c0.304-0.097,0.635-0.042,0.893,0.146
	c0.257,0.188,0.409,0.488,0.409,0.807V14.662z"/>
<path fill="#20D298" d="M170.638,135.338c0-0.418,0.26-0.792,0.651-0.937c24.931-9.279,41.682-33.388,41.682-59.994
	c0-4.302-0.436-8.615-1.296-12.833h-5.704c-0.552,0-1-0.448-1-1V25.692c0-0.418,0.261-0.796,0.654-0.941
	c0.393-0.145,0.834-0.033,1.106,0.285c0.669,0.783,1.318,1.583,1.956,2.393l0.309,0.398c0.54,0.694,1.069,1.399,1.585,2.114
	l0.302,0.417c1.172,1.644,2.294,3.36,3.336,5.101l0.378,0.643c0.391,0.668,0.771,1.342,1.141,2.022l0.389,0.713
	c0.458,0.864,0.905,1.734,1.331,2.617l0.229,0.493c0.338,0.715,0.667,1.437,0.984,2.165c0.157,0.359,0.308,0.72,0.458,1.082
	c0.231,0.556,0.454,1.11,0.671,1.667l0.08,0.204c0.127,0.325,0.253,0.65,0.375,0.978c0.245,0.663,0.478,1.332,0.705,2.002
	c0.208,0.612,0.405,1.23,0.597,1.85c0.167,0.54,0.309,0.999,0.442,1.461c0.148,0.514,0.288,1.031,0.425,1.548
	c0.111,0.419,0.217,0.84,0.321,1.261l0.033,0.132c0.124,0.505,0.249,1.01,0.362,1.519c0.047,0.212,0.205,0.988,0.205,0.988
	c1.079,5.157,1.626,10.407,1.626,15.603c0,33.293-21.312,62.413-53.032,72.458c-0.304,0.097-0.635,0.042-0.893-0.146
	c-0.257-0.188-0.409-0.488-0.409-0.807V135.338z"/>
<path fill="#EDEDED" d="M129.305,14.662c0,0.418-0.26,0.792-0.651,0.937c-24.931,9.279-41.682,33.388-41.682,59.994
	c0,4.302,0.436,8.615,1.296,12.833h5.704c0.552,0,1,0.448,1,1v34.882c0,0.418-0.261,0.796-0.654,0.941
	c-0.393,0.145-0.834,0.033-1.106-0.285c-0.669-0.783-1.318-1.583-1.956-2.393l-0.309-0.398c-0.54-0.694-1.069-1.399-1.585-2.114
	l-0.302-0.417c-1.172-1.644-2.294-3.36-3.336-5.101l-0.378-0.643c-0.391-0.668-0.771-1.342-1.141-2.022l-0.389-0.713
	c-0.458-0.864-0.905-1.734-1.331-2.617l-0.229-0.493c-0.338-0.715-0.667-1.437-0.984-2.165c-0.157-0.359-0.308-0.72-0.458-1.082
	c-0.231-0.556-0.454-1.11-0.671-1.667l-0.08-0.204c-0.127-0.325-0.253-0.65-0.375-0.978c-0.245-0.663-0.478-1.332-0.705-2.002
	c-0.208-0.612-0.405-1.23-0.597-1.85c-0.167-0.54-0.309-0.999-0.442-1.461c-0.148-0.514-0.288-1.031-0.425-1.548
	c-0.111-0.419-0.217-0.84-0.321-1.261l-0.033-0.132c-0.124-0.505-0.249-1.01-0.362-1.519c-0.047-0.212-0.205-0.988-0.205-0.988
	c-1.079-5.157-1.626-10.407-1.626-15.603c0-33.293,21.312-62.413,53.032-72.458c0.304-0.097,0.635-0.042,0.893,0.146
	c0.257,0.188,0.409,0.488,0.409,0.807V14.662z"/>
<path fill="#20D298" d="M279.276,135.338c0-0.418-0.26-0.792-0.651-0.937c-24.931-9.279-41.682-33.388-41.682-59.994
	c0-4.302,0.436-8.615,1.296-12.833h5.704c0.552,0,1-0.448,1-1V25.692c0-0.418-0.261-0.796-0.654-0.941
	c-0.393-0.145-0.834-0.033-1.106,0.285c-0.669,0.783-1.318,1.583-1.956,2.393l-0.309,0.398c-0.54,0.694-1.069,1.399-1.585,2.114
	l-0.302,0.417c-1.172,1.644-2.294,3.36-3.336,5.101l-0.378,0.643c-0.391,0.668-0.771,1.342-1.141,2.022l-0.389,0.713
	c-0.458,0.864-0.905,1.734-1.331,2.617l-0.229,0.493c-0.338,0.715-0.667,1.437-0.984,2.165c-0.157,0.359-0.308,0.72-0.458,1.082
	c-0.231,0.556-0.454,1.11-0.671,1.667l-0.08,0.204c-0.127,0.325-0.253,0.65-0.375,0.978c-0.245,0.663-0.478,1.332-0.705,2.002
	c-0.208,0.612-0.405,1.23-0.597,1.85c-0.167,0.54-0.309,0.999-0.442,1.461c-0.148,0.514-0.288,1.031-0.425,1.548
	c-0.111,0.419-0.217,0.84-0.321,1.261l-0.033,0.132c-0.124,0.505-0.249,1.01-0.362,1.519c-0.047,0.212-0.205,0.988-0.205,0.988
	c-1.079,5.157-1.626,10.407-1.626,15.603c0,33.293,21.312,62.413,53.032,72.459c0.304,0.097,0.635,0.042,0.893-0.146
	c0.257-0.188,0.409-0.488,0.409-0.807V135.338z"/>
<path fill="#EDEDED" d="M320.609,14.662c0,0.418,0.26,0.792,0.651,0.937c24.931,9.279,41.682,33.388,41.682,59.994
	c0,4.302-0.436,8.615-1.296,12.833h-5.704c-0.552,0-1,0.448-1,1v34.882c0,0.418,0.261,0.796,0.654,0.941
	c0.393,0.145,0.834,0.033,1.106-0.285c0.669-0.783,1.318-1.583,1.956-2.393l0.309-0.398c0.54-0.694,1.069-1.399,1.585-2.114
	l0.302-0.417c1.172-1.644,2.294-3.36,3.336-5.101l0.378-0.643c0.391-0.668,0.771-1.342,1.141-2.022l0.389-0.713
	c0.458-0.864,0.905-1.734,1.331-2.617l0.229-0.493c0.338-0.715,0.667-1.437,0.984-2.165c0.157-0.359,0.308-0.72,0.458-1.082
	c0.231-0.556,0.454-1.11,0.671-1.667l0.08-0.204c0.127-0.325,0.253-0.65,0.375-0.978c0.245-0.663,0.478-1.332,0.705-2.002
	c0.208-0.612,0.405-1.23,0.597-1.85c0.167-0.54,0.309-0.999,0.442-1.461c0.148-0.514,0.288-1.031,0.425-1.548
	c0.111-0.419,0.217-0.84,0.321-1.261l0.033-0.132c0.124-0.505,0.249-1.01,0.362-1.519c0.047-0.212,0.205-0.988,0.205-0.988
	c1.079-5.157,1.626-10.407,1.626-15.603c0-33.293-21.312-62.413-53.032-72.458c-0.304-0.097-0.635-0.042-0.893,0.146
	c-0.257,0.188-0.409,0.488-0.409,0.807V14.662z"/>
<path fill="#EDEDED" d="M455,75c0-19.661,7.549-38.239,21.256-52.313c0.188-0.191,0.442-0.3,0.71-0.302s0.524,0.104,0.714,0.293
	l7.307,7.308c0.195,0.195,0.293,0.451,0.293,0.707c0,0.251-0.094,0.502-0.282,0.696C473.606,43.134,467.334,58.621,467.334,75
	c0,16.377,6.272,31.865,17.663,43.61c0.188,0.194,0.282,0.445,0.282,0.696c0,0.256-0.098,0.512-0.293,0.707l-7.307,7.308
	c-0.189,0.189-0.446,0.295-0.714,0.293s-0.522-0.11-0.71-0.302C462.549,113.239,455,94.661,455,75z"/>
<path fill="#EDEDED" d="M574.722,30.693c0-0.256,0.098-0.512,0.293-0.707l7.307-7.308c0.189-0.189,0.446-0.295,0.714-0.293
	s0.522,0.11,0.71,0.303C597.451,36.761,605,55.339,605,75s-7.549,38.239-21.255,52.312c-0.188,0.192-0.442,0.301-0.71,0.303
	s-0.524-0.104-0.714-0.293l-7.307-7.308c-0.195-0.195-0.293-0.451-0.293-0.707c0-0.251,0.094-0.502,0.282-0.696
	c11.391-11.745,17.663-27.233,17.663-43.61c0-16.379-6.272-31.866-17.663-43.61C574.815,31.195,574.722,30.944,574.722,30.693z"/>
<path fill="#20D298" d="M605,75c0-19.661,7.549-38.239,21.256-52.313c0.188-0.191,0.442-0.3,0.71-0.302s0.524,0.104,0.714,0.293
	l7.307,7.308c0.195,0.195,0.293,0.451,0.293,0.707c0,0.251-0.094,0.502-0.282,0.696C623.606,43.134,617.334,58.621,617.334,75
	c0,16.377,6.272,31.865,17.663,43.61c0.188,0.194,0.282,0.445,0.282,0.696c0,0.256-0.098,0.512-0.293,0.707l-7.307,7.308
	c-0.189,0.189-0.446,0.295-0.714,0.293s-0.522-0.11-0.71-0.302C612.549,113.239,605,94.661,605,75z"/>
<path fill="#20D298" d="M724.722,30.693c0-0.256,0.098-0.512,0.293-0.707l7.307-7.308c0.189-0.189,0.446-0.295,0.714-0.293
	s0.522,0.11,0.71,0.303C747.451,36.761,755,55.339,755,75s-7.549,38.239-21.255,52.312c-0.188,0.192-0.442,0.301-0.71,0.303
	s-0.524-0.104-0.714-0.293l-7.307-7.308c-0.195-0.195-0.293-0.451-0.293-0.707c0-0.251,0.094-0.502,0.282-0.696
	c11.391-11.745,17.663-27.233,17.663-43.61c0-16.379-6.272-31.866-17.663-43.61C724.815,31.195,724.722,30.944,724.722,30.693z"/>
<path fill="#EDEDED" d="M984.982,148c0,1.105-0.895,2-2,2h-146c-1.105,0-2-0.895-2-2v-8c0-1.105,0.895-2,2-2h146
	c1.105,0,2,0.895,2,2V148z"/>
<path fill="#20D298" d="M1135,148c0,1.105-0.895,2-2,2H987c-1.105,0-2-0.895-2-2v-8c0-1.105,0.895-2,2-2h146c1.105,0,2,0.895,2,2
	V148z"/>
<path fill="#56646D" d="M4.885,38.122h-9.77c-0.751,0-1.36-0.609-1.36-1.36c0-0.751,0.609-1.36,1.36-1.36h9.77
	c0.751,0,1.36,0.609,1.36,1.36C6.244,37.513,5.636,38.122,4.885,38.122z M4.715,111.952c0-0.751-0.609-1.36-1.36-1.36h-6.712
	c-0.751,0-1.36,0.609-1.36,1.36s0.609,1.36,1.36,1.36h6.712C4.106,113.312,4.715,112.703,4.715,111.952z M26.482,113.646V36.354
	c0-3.237-2.634-5.871-5.871-5.871h-41.223c-3.237,0-5.871,2.634-5.871,5.871v77.292c0,3.237,2.634,5.871,5.871,5.871h41.223
	C23.848,119.516,26.482,116.883,26.482,113.646z M20.611,33.203c1.738,0,3.152,1.414,3.152,3.152v77.292
	c0,1.738-1.414,3.152-3.152,3.152h-41.223c-1.738,0-3.152-1.414-3.152-3.152V36.354c0-1.738,1.414-3.152,3.152-3.152H20.611z
	 M21.792,103.177V44.962c0-2.316-1.884-4.199-4.199-4.199h-35.185c-2.316,0-4.199,1.884-4.199,4.199v58.215
	c0,2.316,1.884,4.199,4.199,4.199h35.185C19.908,107.376,21.792,105.493,21.792,103.177z M17.593,42.003
	c1.631,0,2.958,1.327,2.958,2.958v58.215c0,1.631-1.327,2.958-2.958,2.958h-35.185c-1.631,0-2.958-1.327-2.958-2.958V44.962
	c0-1.631,1.327-2.958,2.958-2.958H17.593z M-5.646,71.608L6.787,59.175c0.315-0.315,0.315-0.826,0-1.141
	c-0.315-0.314-0.825-0.314-1.14,0L-6.787,70.467c-0.315,0.315-0.315,0.826,0,1.141c0.158,0.157,0.364,0.236,0.57,0.236
	S-5.804,71.765-5.646,71.608z M-3.785,86.833l8.711-8.711c0.315-0.315,0.315-0.826,0-1.141c-0.315-0.314-0.825-0.314-1.14,0
	l-8.711,8.711c-0.315,0.315-0.315,0.826,0,1.141c0.158,0.157,0.364,0.236,0.57,0.236S-3.943,86.99-3.785,86.833z M-14.784,88.979
	L15.925,58.27c0.315-0.315,0.315-0.826,0-1.141c-0.315-0.314-0.825-0.314-1.14,0l-30.709,30.709c-0.315,0.315-0.315,0.826,0,1.141
	c0.158,0.157,0.364,0.236,0.57,0.236C-15.148,89.215-14.942,89.136-14.784,88.979z"/>
<path fill="#56646D" d="M154.885,38.122h-9.77c-0.751,0-1.36-0.609-1.36-1.36c0-0.751,0.609-1.36,1.36-1.36h9.77
	c0.751,0,1.36,0.609,1.36,1.36C156.244,37.513,155.636,38.122,154.885,38.122z M154.715,111.952c0-0.751-0.609-1.36-1.36-1.36
	h-6.712c-0.751,0-1.36,0.609-1.36,1.36s0.609,1.36,1.36,1.36h6.712C154.106,113.312,154.715,112.703,154.715,111.952z
	 M176.482,113.646V36.354c0-3.237-2.634-5.871-5.871-5.871h-41.223c-3.237,0-5.871,2.634-5.871,5.871v77.292
	c0,3.237,2.634,5.871,5.871,5.871h41.223C173.848,119.516,176.482,116.883,176.482,113.646z M170.611,33.203
	c1.738,0,3.152,1.414,3.152,3.152v77.292c0,1.738-1.414,3.152-3.152,3.152h-41.223c-1.738,0-3.152-1.414-3.152-3.152V36.354
	c0-1.738,1.414-3.152,3.152-3.152H170.611z M171.792,103.177V44.962c0-2.316-1.884-4.199-4.199-4.199h-35.185
	c-2.316,0-4.199,1.884-4.199,4.199v58.215c0,2.316,1.884,4.199,4.199,4.199h35.185C169.908,107.376,171.792,105.493,171.792,103.177
	z M167.593,42.003c1.631,0,2.958,1.327,2.958,2.958v58.215c0,1.631-1.327,2.958-2.958,2.958h-35.185
	c-1.631,0-2.958-1.327-2.958-2.958V44.962c0-1.631,1.327-2.958,2.958-2.958H167.593z M144.354,71.608l12.433-12.433
	c0.315-0.315,0.315-0.826,0-1.141c-0.315-0.314-0.825-0.314-1.14,0l-12.433,12.433c-0.315,0.315-0.315,0.826,0,1.141
	c0.158,0.157,0.364,0.236,0.57,0.236S144.196,71.765,144.354,71.608z M146.215,86.833l8.711-8.711c0.315-0.315,0.315-0.826,0-1.141
	c-0.315-0.314-0.825-0.314-1.14,0l-8.711,8.711c-0.315,0.315-0.315,0.826,0,1.141c0.158,0.157,0.363,0.236,0.57,0.236
	C145.851,87.069,146.057,86.99,146.215,86.833z M135.216,88.979l30.709-30.709c0.315-0.315,0.315-0.826,0-1.141
	c-0.315-0.314-0.825-0.314-1.14,0l-30.709,30.709c-0.315,0.315-0.315,0.826,0,1.141c0.158,0.157,0.364,0.236,0.57,0.236
	C134.852,89.215,135.058,89.136,135.216,88.979z"/>
<path fill="#56646D" d="M304.885,38.122h-9.77c-0.751,0-1.359-0.609-1.359-1.36c0-0.751,0.609-1.36,1.359-1.36h9.77
	c0.751,0,1.36,0.609,1.36,1.36C306.244,37.513,305.636,38.122,304.885,38.122z M304.715,111.952c0-0.751-0.609-1.36-1.359-1.36
	h-6.712c-0.751,0-1.36,0.609-1.36,1.36s0.609,1.36,1.36,1.36h6.712C304.106,113.312,304.715,112.703,304.715,111.952z
	 M326.482,113.646V36.354c0-3.237-2.634-5.871-5.871-5.871h-41.223c-3.237,0-5.871,2.634-5.871,5.871v77.292
	c0,3.237,2.634,5.871,5.871,5.871h41.223C323.848,119.516,326.482,116.883,326.482,113.646z M320.611,33.203
	c1.738,0,3.152,1.414,3.152,3.152v77.292c0,1.738-1.414,3.152-3.152,3.152h-41.223c-1.738,0-3.152-1.414-3.152-3.152V36.354
	c0-1.738,1.414-3.152,3.152-3.152H320.611z M321.792,103.177V44.962c0-2.316-1.884-4.199-4.199-4.199h-35.185
	c-2.316,0-4.199,1.884-4.199,4.199v58.215c0,2.316,1.884,4.199,4.199,4.199h35.185C319.908,107.376,321.792,105.493,321.792,103.177
	z M317.593,42.003c1.631,0,2.958,1.327,2.958,2.958v58.215c0,1.631-1.327,2.958-2.958,2.958h-35.185
	c-1.631,0-2.958-1.327-2.958-2.958V44.962c0-1.631,1.327-2.958,2.958-2.958H317.593z M294.354,71.608l12.433-12.433
	c0.315-0.315,0.315-0.826,0-1.141c-0.315-0.314-0.825-0.314-1.14,0l-12.433,12.433c-0.315,0.315-0.315,0.826,0,1.141
	c0.158,0.157,0.363,0.236,0.57,0.236S294.196,71.765,294.354,71.608z M296.215,86.833l8.711-8.711c0.315-0.315,0.315-0.826,0-1.141
	c-0.315-0.314-0.825-0.314-1.14,0l-8.711,8.711c-0.315,0.315-0.315,0.826,0,1.141c0.158,0.157,0.364,0.236,0.57,0.236
	C295.851,87.069,296.057,86.99,296.215,86.833z M285.216,88.979l30.709-30.709c0.315-0.315,0.315-0.826,0-1.141
	c-0.315-0.314-0.825-0.314-1.14,0l-30.709,30.709c-0.315,0.315-0.315,0.826,0,1.141c0.158,0.157,0.364,0.236,0.57,0.236
	C284.852,89.215,285.058,89.136,285.216,88.979z"/>
<path fill="#56646D" d="M534.885,38.122h-9.77c-0.751,0-1.359-0.609-1.359-1.36c0-0.751,0.609-1.36,1.359-1.36h9.77
	c0.751,0,1.359,0.609,1.359,1.36C536.244,37.513,535.636,38.122,534.885,38.122z M534.715,111.952c0-0.751-0.609-1.36-1.359-1.36
	h-6.712c-0.751,0-1.359,0.609-1.359,1.36s0.609,1.36,1.359,1.36h6.712C534.106,113.312,534.715,112.703,534.715,111.952z
	 M556.482,113.646V36.354c0-3.237-2.634-5.871-5.871-5.871h-41.223c-3.237,0-5.871,2.634-5.871,5.871v77.292
	c0,3.237,2.634,5.871,5.871,5.871h41.223C553.848,119.516,556.482,116.883,556.482,113.646z M550.611,33.203
	c1.738,0,3.152,1.414,3.152,3.152v77.292c0,1.738-1.414,3.152-3.152,3.152h-41.223c-1.738,0-3.152-1.414-3.152-3.152V36.354
	c0-1.738,1.414-3.152,3.152-3.152H550.611z M551.792,103.177V44.962c0-2.316-1.884-4.199-4.199-4.199h-35.185
	c-2.316,0-4.199,1.884-4.199,4.199v58.215c0,2.316,1.884,4.199,4.199,4.199h35.185C549.908,107.376,551.792,105.493,551.792,103.177
	z M547.593,42.003c1.631,0,2.958,1.327,2.958,2.958v58.215c0,1.631-1.327,2.958-2.958,2.958h-35.185
	c-1.631,0-2.958-1.327-2.958-2.958V44.962c0-1.631,1.327-2.958,2.958-2.958H547.593z M524.354,71.608l12.433-12.433
	c0.315-0.315,0.315-0.826,0-1.141c-0.315-0.314-0.825-0.314-1.14,0l-12.433,12.433c-0.315,0.315-0.315,0.826,0,1.141
	c0.158,0.157,0.364,0.236,0.57,0.236C523.99,71.844,524.196,71.765,524.354,71.608z M526.215,86.833l8.711-8.711
	c0.315-0.315,0.315-0.826,0-1.141c-0.315-0.314-0.825-0.314-1.14,0l-8.711,8.711c-0.315,0.315-0.315,0.826,0,1.141
	c0.158,0.157,0.364,0.236,0.57,0.236C525.851,87.069,526.057,86.99,526.215,86.833z M515.216,88.979l30.709-30.709
	c0.315-0.315,0.315-0.826,0-1.141c-0.315-0.314-0.825-0.314-1.14,0l-30.709,30.709c-0.315,0.315-0.315,0.826,0,1.141
	c0.157,0.157,0.363,0.236,0.57,0.236S515.058,89.136,515.216,88.979z"/>
<path fill="#56646D" d="M684.885,38.122h-9.77c-0.751,0-1.359-0.609-1.359-1.36c0-0.751,0.609-1.36,1.359-1.36h9.77
	c0.751,0,1.359,0.609,1.359,1.36C686.244,37.513,685.636,38.122,684.885,38.122z M684.715,111.952c0-0.751-0.609-1.36-1.359-1.36
	h-6.712c-0.751,0-1.359,0.609-1.359,1.36s0.609,1.36,1.359,1.36h6.712C684.106,113.312,684.715,112.703,684.715,111.952z
	 M706.482,113.646V36.354c0-3.237-2.634-5.871-5.871-5.871h-41.223c-3.237,0-5.871,2.634-5.871,5.871v77.292
	c0,3.237,2.634,5.871,5.871,5.871h41.223C703.848,119.516,706.482,116.883,706.482,113.646z M700.611,33.203
	c1.738,0,3.152,1.414,3.152,3.152v77.292c0,1.738-1.414,3.152-3.152,3.152h-41.223c-1.738,0-3.152-1.414-3.152-3.152V36.354
	c0-1.738,1.414-3.152,3.152-3.152H700.611z M701.792,103.177V44.962c0-2.316-1.884-4.199-4.199-4.199h-35.185
	c-2.316,0-4.199,1.884-4.199,4.199v58.215c0,2.316,1.884,4.199,4.199,4.199h35.185C699.908,107.376,701.792,105.493,701.792,103.177
	z M697.593,42.003c1.631,0,2.958,1.327,2.958,2.958v58.215c0,1.631-1.327,2.958-2.958,2.958h-35.185
	c-1.631,0-2.958-1.327-2.958-2.958V44.962c0-1.631,1.327-2.958,2.958-2.958H697.593z M674.354,71.608l12.433-12.433
	c0.315-0.315,0.315-0.826,0-1.141c-0.315-0.314-0.825-0.314-1.14,0l-12.433,12.433c-0.315,0.315-0.315,0.826,0,1.141
	c0.158,0.157,0.364,0.236,0.57,0.236C673.99,71.844,674.196,71.765,674.354,71.608z M676.215,86.833l8.711-8.711
	c0.315-0.315,0.315-0.826,0-1.141c-0.315-0.314-0.825-0.314-1.14,0l-8.711,8.711c-0.315,0.315-0.315,0.826,0,1.141
	c0.158,0.157,0.364,0.236,0.57,0.236C675.851,87.069,676.057,86.99,676.215,86.833z M665.216,88.979l30.709-30.709
	c0.315-0.315,0.315-0.826,0-1.141c-0.315-0.314-0.825-0.314-1.14,0l-30.709,30.709c-0.315,0.315-0.315,0.826,0,1.141
	c0.157,0.157,0.363,0.236,0.57,0.236S665.058,89.136,665.216,88.979z"/>
<path fill="#56646D" d="M914.885,38.122h-9.77c-0.751,0-1.359-0.609-1.359-1.36c0-0.751,0.609-1.36,1.359-1.36h9.77
	c0.751,0,1.359,0.609,1.359,1.36C916.244,37.513,915.636,38.122,914.885,38.122z M914.715,111.952c0-0.751-0.609-1.36-1.359-1.36
	h-6.712c-0.751,0-1.359,0.609-1.359,1.36s0.609,1.36,1.359,1.36h6.712C914.106,113.312,914.715,112.703,914.715,111.952z
	 M936.482,113.646V36.354c0-3.237-2.634-5.871-5.871-5.871h-41.223c-3.237,0-5.871,2.634-5.871,5.871v77.292
	c0,3.237,2.634,5.871,5.871,5.871h41.223C933.848,119.516,936.482,116.883,936.482,113.646z M930.611,33.203
	c1.738,0,3.152,1.414,3.152,3.152v77.292c0,1.738-1.414,3.152-3.152,3.152h-41.223c-1.738,0-3.152-1.414-3.152-3.152V36.354
	c0-1.738,1.414-3.152,3.152-3.152H930.611z M931.792,103.177V44.962c0-2.316-1.884-4.199-4.199-4.199h-35.185
	c-2.316,0-4.199,1.884-4.199,4.199v58.215c0,2.316,1.884,4.199,4.199,4.199h35.185C929.908,107.376,931.792,105.493,931.792,103.177
	z M927.593,42.003c1.631,0,2.958,1.327,2.958,2.958v58.215c0,1.631-1.327,2.958-2.958,2.958h-35.185
	c-1.631,0-2.958-1.327-2.958-2.958V44.962c0-1.631,1.327-2.958,2.958-2.958H927.593z M904.354,71.608l12.433-12.433
	c0.315-0.315,0.315-0.826,0-1.141c-0.315-0.314-0.825-0.314-1.14,0l-12.433,12.433c-0.315,0.315-0.315,0.826,0,1.141
	c0.158,0.157,0.364,0.236,0.57,0.236C903.99,71.844,904.196,71.765,904.354,71.608z M906.215,86.833l8.711-8.711
	c0.315-0.315,0.315-0.826,0-1.141c-0.315-0.314-0.825-0.314-1.14,0l-8.711,8.711c-0.315,0.315-0.315,0.826,0,1.141
	c0.158,0.157,0.364,0.236,0.57,0.236C905.851,87.069,906.057,86.99,906.215,86.833z M895.216,88.979l30.709-30.709
	c0.315-0.315,0.315-0.826,0-1.141c-0.315-0.314-0.825-0.314-1.14,0l-30.709,30.709c-0.315,0.315-0.315,0.826,0,1.141
	c0.157,0.157,0.363,0.236,0.57,0.236S895.058,89.136,895.216,88.979z"/>
<path fill="#56646D" d="M1064.885,38.122h-9.77c-0.751,0-1.36-0.609-1.36-1.36c0-0.751,0.609-1.36,1.36-1.36h9.77
	c0.751,0,1.359,0.609,1.359,1.36C1066.244,37.513,1065.636,38.122,1064.885,38.122z M1064.715,111.952c0-0.751-0.609-1.36-1.36-1.36
	h-6.712c-0.751,0-1.359,0.609-1.359,1.36s0.609,1.36,1.359,1.36h6.712C1064.106,113.312,1064.715,112.703,1064.715,111.952z
	 M1086.482,113.646V36.354c0-3.237-2.634-5.871-5.871-5.871h-41.223c-3.237,0-5.871,2.634-5.871,5.871v77.292
	c0,3.237,2.634,5.871,5.871,5.871h41.223C1083.849,119.516,1086.482,116.883,1086.482,113.646z M1080.611,33.203
	c1.738,0,3.152,1.414,3.152,3.152v77.292c0,1.738-1.414,3.152-3.152,3.152h-41.223c-1.738,0-3.152-1.414-3.152-3.152V36.354
	c0-1.738,1.414-3.152,3.152-3.152H1080.611z M1081.792,103.177V44.962c0-2.316-1.884-4.199-4.199-4.199h-35.185
	c-2.316,0-4.199,1.884-4.199,4.199v58.215c0,2.316,1.884,4.199,4.199,4.199h35.185
	C1079.908,107.376,1081.792,105.493,1081.792,103.177z M1077.593,42.003c1.631,0,2.958,1.327,2.958,2.958v58.215
	c0,1.631-1.327,2.958-2.958,2.958h-35.185c-1.631,0-2.958-1.327-2.958-2.958V44.962c0-1.631,1.327-2.958,2.958-2.958H1077.593z
	 M1054.354,71.608l12.433-12.433c0.315-0.315,0.315-0.826,0-1.141c-0.315-0.314-0.825-0.314-1.14,0l-12.433,12.433
	c-0.315,0.315-0.315,0.826,0,1.141c0.158,0.157,0.364,0.236,0.57,0.236C1053.99,71.844,1054.196,71.765,1054.354,71.608z
	 M1056.215,86.833l8.711-8.711c0.315-0.315,0.315-0.826,0-1.141c-0.315-0.314-0.825-0.314-1.14,0l-8.711,8.711
	c-0.315,0.315-0.315,0.826,0,1.141c0.157,0.157,0.364,0.236,0.57,0.236C1055.851,87.069,1056.057,86.99,1056.215,86.833z
	 M1045.216,88.979l30.709-30.709c0.315-0.315,0.315-0.826,0-1.141c-0.315-0.314-0.825-0.314-1.14,0l-30.709,30.709
	c-0.315,0.315-0.315,0.826,0,1.141c0.158,0.157,0.364,0.236,0.57,0.236C1044.852,89.215,1045.058,89.136,1045.216,88.979z"/>
</svg>
