<?xml version="1.0" encoding="utf-8"?>
<!-- Generator: Adobe Illustrator 17.0.0, SVG Export Plug-In . SVG Version: 6.00 Build 0)  -->
<!DOCTYPE svg PUBLIC "-//W3C//DTD SVG 1.1//EN" "http://www.w3.org/Graphics/SVG/1.1/DTD/svg11.dtd">
<svg version="1.1" id="Layer_1" xmlns="http://www.w3.org/2000/svg" xmlns:xlink="http://www.w3.org/1999/xlink" x="0px" y="0px"
	 width="450px" height="150px" viewBox="0 0 450 150" enable-background="new 0 0 450 150" xml:space="preserve">
<g>
	<g>
		<circle fill="#EDEDED" cx="75" cy="75" r="75"/>
	</g>
	<circle opacity="0.3" fill="#35363A" cx="75" cy="76.282" r="56.163"/>
	<circle fill="#35363A" cx="75" cy="73.743" r="53.859"/>
	<g>
		<circle fill="#F75959" cx="75" cy="71.089" r="51.75"/>
		<linearGradient id="SVGID_1_" gradientUnits="userSpaceOnUse" x1="75" y1="19.3388" x2="75" y2="122.8393">
			<stop  offset="0.1746" style="stop-color:#FFFFFF"/>
			<stop  offset="0.8026" style="stop-color:#000000"/>
		</linearGradient>
		<path opacity="0.2" fill="url(#SVGID_1_)" d="M126.75,71.089c0,28.581-23.169,51.75-51.75,51.75S23.25,99.67,23.25,71.089
			S46.419,19.339,75,19.339S126.75,42.508,126.75,71.089z M75,26.11c-24.841,0-44.979,20.138-44.979,44.979
			S50.159,116.068,75,116.068s44.979-20.138,44.979-44.979S99.841,26.11,75,26.11z"/>
	</g>
</g>
<g>
	<g>
		<circle fill="#EDEDED" cx="375" cy="75" r="75"/>
	</g>
	<g>
		<circle opacity="0.3" fill="#35363A" cx="375" cy="75" r="56.163"/>
		<circle fill="#35363A" cx="375" cy="75" r="53.859"/>
		<g>
			<circle fill="#E55555" cx="375" cy="75" r="51.75"/>
			
				<linearGradient id="SVGID_2_" gradientUnits="userSpaceOnUse" x1="375" y1="23.2497" x2="375" y2="126.7503" gradientTransform="matrix(-1 0 0 -1 750 150)">
				<stop  offset="0.1746" style="stop-color:#FFFFFF"/>
				<stop  offset="0.8026" style="stop-color:#000000"/>
			</linearGradient>
			<path opacity="0.2" fill="url(#SVGID_2_)" d="M323.25,75c0-28.581,23.169-51.75,51.75-51.75S426.75,46.419,426.75,75
				s-23.169,51.75-51.75,51.75S323.25,103.581,323.25,75z M375,119.979c24.841,0,44.979-20.138,44.979-44.979
				S399.841,30.021,375,30.021S330.021,50.159,330.021,75S350.159,119.979,375,119.979z"/>
		</g>
	</g>
</g>
<g>
	<g>
		<circle fill="#EDEDED" cx="225" cy="75" r="75"/>
	</g>
	<circle opacity="0.3" fill="#35363A" cx="225" cy="76.282" r="56.163"/>
	<circle fill="#35363A" cx="225" cy="73.743" r="53.859"/>
	<g>
		<circle fill="#E55555" cx="225" cy="71.089" r="51.75"/>
		<linearGradient id="SVGID_3_" gradientUnits="userSpaceOnUse" x1="225" y1="19.3388" x2="225" y2="122.8393">
			<stop  offset="0.1746" style="stop-color:#FFFFFF"/>
			<stop  offset="0.8026" style="stop-color:#000000"/>
		</linearGradient>
		<path opacity="0.2" fill="url(#SVGID_3_)" d="M276.75,71.089c0,28.581-23.169,51.75-51.75,51.75s-51.75-23.169-51.75-51.75
			s23.169-51.75,51.75-51.75S276.75,42.508,276.75,71.089z M225,26.11c-24.841,0-44.979,20.138-44.979,44.979
			s20.138,44.979,44.979,44.979s44.979-20.138,44.979-44.979S249.841,26.11,225,26.11z"/>
	</g>
</g>
</svg>
