<?xml version="1.0" encoding="utf-8"?>
<!-- Generator: Adobe Illustrator 17.0.0, SVG Export Plug-In . SVG Version: 6.00 Build 0)  -->
<!DOCTYPE svg PUBLIC "-//W3C//DTD SVG 1.1//EN" "http://www.w3.org/Graphics/SVG/1.1/DTD/svg11.dtd">
<svg version="1.1" id="Layer_1" xmlns="http://www.w3.org/2000/svg" xmlns:xlink="http://www.w3.org/1999/xlink" x="0px" y="0px"
	 width="77.547px" height="70px" viewBox="0 0 77.547 70" enable-background="new 0 0 77.547 70" xml:space="preserve">
<path fill="#FFFFFF" d="M6.74,44.519H2.505V24.242h8.742c1.931,0,3.464,0.579,4.6,1.738s1.703,2.745,1.703,4.759
	c0,1.738-0.557,3.251-1.669,4.539c-1.113,1.287-2.712,1.931-4.8,1.931H6.74V44.519z M10.157,33.705c1.076,0,1.871-0.25,2.387-0.752
	c0.515-0.501,0.772-1.276,0.772-2.325c0-1.057-0.292-1.804-0.876-2.241c-0.584-0.437-1.451-0.655-2.6-0.655h-3.1v5.973H10.157z"/>
<path fill="#FFFFFF" d="M24.89,40.85h7.899v3.669H20.655V24.242h4.235C24.89,24.242,24.89,40.85,24.89,40.85z"/>
<path fill="#FFFFFF" d="M48.679,27.829h-7.901v4.776h6.55v3.586h-6.55v4.742h8.415v3.586H36.626V24.242h12.053V27.829z"/>
<path fill="#FFFFFF" d="M71.484,40.764c1.292-1.794,2.055-3.993,2.055-6.373c0-3.025-1.231-5.763-3.218-7.74
	c-1.974-1.965-4.696-3.179-7.701-3.179c-6.031,0-10.919,4.889-10.919,10.919c0,6.031,4.889,10.919,10.919,10.919
	c2.31,0,4.452-0.719,6.216-1.944l3.192,3.192l2.625-2.625L71.484,40.764z M62.62,41.456c-3.902,0-7.065-3.163-7.065-7.065
	s3.163-7.065,7.065-7.065c1.945,0,3.705,0.786,4.983,2.057c1.286,1.28,2.082,3.051,2.082,5.008
	C69.685,38.293,66.522,41.456,62.62,41.456z"/>
</svg>
