<?xml version="1.0" encoding="utf-8"?>
<!-- Generator: Adobe Illustrator 19.0.0, SVG Export Plug-In . SVG Version: 6.00 Build 0)  -->
<svg version="1.1" id="Layer_1" xmlns="http://www.w3.org/2000/svg" xmlns:xlink="http://www.w3.org/1999/xlink" x="0px" y="0px"
	 viewBox="-229 197 500 150" style="enable-background:new -229 197 500 150;" xml:space="preserve">
<style type="text/css">
	.st0{fill:#5598AA;}
	.st1{fill:#072A31;}
</style>
<g>
	<path class="st0" d="M-100.8,330.5h-17.9v-85.7h37c8.2,0,14.6,2.4,19.5,7.3c4.8,4.9,7.2,11.6,7.2,20.1c0,7.4-2.4,13.7-7.1,19.2
		c-4.7,5.4-11.5,8.2-20.3,8.2h-18.4V330.5L-100.8,330.5z M-86.4,284.8c4.6,0,7.9-1.1,10.1-3.2c2.2-2.1,3.3-5.4,3.3-9.8
		c0-4.5-1.2-7.6-3.7-9.5c-2.5-1.8-6.1-2.8-11-2.8h-13.1v25.3H-86.4L-86.4,284.8z"/>
	<path class="st0" d="M-24.1,315H9.3v15.5H-42v-85.7h17.9C-24.1,244.8-24.1,315-24.1,315z"/>
	<path class="st0" d="M76.5,259.9H43.1v20.2h27.7v15.2H43.1v20.1h35.6v15.2H25.6v-85.8h51L76.5,259.9L76.5,259.9z"/>
	<circle class="st1" cx="135.5" cy="287.7" r="9.2"/>
	<path class="st1" d="M168.1,254.9l-11.5,11.6c5.4,5.4,8.8,12.9,8.8,21.2h16.3C181.7,274.9,176.5,263.3,168.1,254.9z"/>
	<path class="st1" d="M213.5,209.2L201.8,221c17.1,17,27.7,40.6,27.7,66.6h16.7C246.1,257,233.7,229.3,213.5,209.2z"/>
	<path class="st1" d="M190.5,232.3l-11.3,11.4c11.3,11.2,18.3,26.8,18.3,43.9h16.1C213.5,266,204.7,246.5,190.5,232.3z"/>
	<path class="st0" d="M186.4,328L173,314.6c5.5-7.6,8.7-16.9,8.7-27h-16.3c0,16.5-13.4,29.9-29.9,29.9s-29.9-13.4-29.9-29.9
		s13.4-29.9,29.9-29.9c8.2,0,15.7,3.3,21.1,8.7l11.5-11.6c-8.3-8.3-19.9-13.4-32.6-13.4c-25.5,0-46.2,20.7-46.2,46.2
		s20.7,46.2,46.2,46.2c9.8,0,18.8-3,26.3-8.2l13.5,13.5L186.4,328z"/>
</g>
</svg>
