<?xml version="1.0" encoding="utf-8"?>
<!-- Generator: Adobe Illustrator 17.0.0, SVG Export Plug-In . SVG Version: 6.00 Build 0)  -->
<!DOCTYPE svg PUBLIC "-//W3C//DTD SVG 1.1//EN" "http://www.w3.org/Graphics/SVG/1.1/DTD/svg11.dtd">
<svg version="1.1" id="Layer_1" xmlns="http://www.w3.org/2000/svg" xmlns:xlink="http://www.w3.org/1999/xlink" x="0px" y="0px"
	 width="70px" height="70px" viewBox="0 0 70 70" enable-background="new 0 0 70 70" xml:space="preserve">
<g>
	<circle fill="#FFFFFF" cx="25.02" cy="38.516" r="3.092"/>
	<path fill="#FFFFFF" d="M51.145,12.258l-3.934,3.954c5.727,5.698,9.273,13.587,9.273,22.304h5.577
		C62.061,28.254,57.887,18.967,51.145,12.258z"/>
	<path fill="#FFFFFF" d="M43.448,19.994l-3.793,3.812c3.777,3.758,6.116,8.961,6.116,14.71h5.378
		C51.149,31.277,48.204,24.726,43.448,19.994z"/>
	<path fill="#FFFFFF" d="M37.569,47.538c1.829-2.539,2.91-5.654,2.91-9.022c0-4.283-1.742-8.159-4.556-10.958
		c-2.795-2.781-6.648-4.501-10.903-4.501c-8.538,0-15.459,6.921-15.459,15.459s6.921,15.459,15.459,15.459
		c3.271,0,6.302-1.019,8.801-2.752l4.518,4.518l3.717-3.717L37.569,47.538z M25.02,48.519c-5.525,0-10.003-4.478-10.003-10.003
		s4.478-10.003,10.003-10.003c2.753,0,5.246,1.113,7.055,2.912c1.821,1.812,2.948,4.319,2.948,7.091
		C35.023,44.041,30.544,48.519,25.02,48.519z"/>
</g>
</svg>
