<?xml version="1.0" encoding="utf-8"?>
<!-- Generator: Adobe Illustrator 17.0.0, SVG Export Plug-In . SVG Version: 6.00 Build 0)  -->
<!DOCTYPE svg PUBLIC "-//W3C//DTD SVG 1.1//EN" "http://www.w3.org/Graphics/SVG/1.1/DTD/svg11.dtd">
<svg version="1.1" id="Layer_1" xmlns="http://www.w3.org/2000/svg" xmlns:xlink="http://www.w3.org/1999/xlink" x="0px" y="0px"
	 width="150px" height="150px" viewBox="0 0 150 150" enable-background="new 0 0 150 150" xml:space="preserve">
<circle fill="#EDEDED" cx="75" cy="75" r="75"/>
<g>
	<path fill="#55636C" d="M317.538,134.777c-0.013-2.893,2.33-5.249,5.223-5.249l0,0c2.893-0.013,5.236,2.331,5.249,5.224l0,0
		c0,2.893-2.343,5.236-5.236,5.249l0,0C319.882,140.002,317.538,137.669,317.538,134.777z"/>
	<path fill="#55636C" d="M305.969,137.837L305.969,137.837L305.969,137.837c-2.343-0.616-3.888-2.71-3.901-5.027l0,0
		c0-0.446,0.053-0.903,0.17-1.375l0,0c0.746-2.789,3.613-4.464,6.402-3.718l0,0c2.343,0.615,3.888,2.723,3.901,5.027l0,0
		c0,0.459-0.053,0.916-0.17,1.375l0,0c-0.629,2.341-2.749,3.901-5.066,3.901l0,0C306.859,138.021,306.414,137.954,305.969,137.837z"
		/>
	<path fill="#55636C" d="M333.167,134.077c-0.117-0.459-0.17-0.916-0.17-1.375l0,0c0-2.304,1.531-4.412,3.875-5.04l0,0
		c2.79-0.759,5.669,0.903,6.415,3.692l0,0c0.117,0.457,0.183,0.915,0.183,1.374l0,0c0,2.304-1.544,4.412-3.875,5.04l0,0
		c-0.457,0.131-0.915,0.184-1.362,0.184l0,0C335.917,137.951,333.808,136.406,333.167,134.077z"/>
	<path fill="#55636C" d="M290.263,131.383c-1.675-0.969-2.619-2.736-2.619-4.543l0,0c0-0.89,0.223-1.781,0.695-2.606l0,0
		c1.441-2.513,4.647-3.378,7.148-1.924l0,0c1.689,0.955,2.631,2.723,2.631,4.543l0,0c0,0.878-0.223,1.781-0.693,2.606l0,0
		c-0.969,1.675-2.736,2.619-4.555,2.619l0,0C291.991,132.077,291.088,131.855,290.263,131.383z"/>
	<path fill="#55636C" d="M348.105,129.359c-0.485-0.826-0.707-1.728-0.72-2.606l0,0c0-1.821,0.929-3.588,2.619-4.557l0,0
		c2.5-1.452,5.707-0.602,7.148,1.898l0,0c0.485,0.825,0.707,1.715,0.72,2.606l0,0c0,1.807-0.929,3.573-2.619,4.555l0,0
		c-0.825,0.472-1.728,0.707-2.619,0.707l0,0C350.828,131.964,349.074,131.021,348.105,129.359z"/>
	<path fill="#55636C" d="M276.793,121.087L276.793,121.087L276.793,121.087c-1.021-1.021-1.544-2.356-1.544-3.705l0,0
		c0-1.335,0.51-2.67,1.531-3.705l0,0c2.028-2.041,5.354-2.054,7.397-0.013l0,0c1.022,1.022,1.545,2.356,1.545,3.692l0,0
		c0,1.349-0.497,2.683-1.519,3.718l0,0c-1.035,1.022-2.37,1.531-3.718,1.531l0,0C279.15,122.607,277.815,122.109,276.793,121.087z"
		/>
	<path fill="#55636C" d="M361.28,120.917c-1.021-1.022-1.531-2.37-1.531-3.705l0,0c-0.013-1.336,0.497-2.683,1.519-3.705l0,0
		c2.043-2.043,5.369-2.055,7.41-0.013l0,0c1.022,1.021,1.531,2.369,1.544,3.704l0,0c0,1.336-0.51,2.684-1.531,3.705l0,0
		c-1.021,1.022-2.369,1.545-3.705,1.545l0,0C363.637,122.448,362.301,121.937,361.28,120.917z"/>
	<path fill="#55636C" d="M266.427,107.662L266.427,107.662L266.427,107.662c-0.472-0.825-0.707-1.714-0.707-2.606l0,0
		c-0.013-1.807,0.916-3.573,2.604-4.555l0,0c2.5-1.454,5.709-0.602,7.161,1.898l0,0c0.472,0.825,0.707,1.714,0.707,2.604l0,0
		c0.013,1.808-0.929,3.575-2.606,4.557l0,0c-0.825,0.485-1.728,0.707-2.631,0.707l0,0
		C269.15,110.267,267.396,109.338,266.427,107.662z"/>
	<path fill="#55636C" d="M371.849,109.356c-1.689-0.969-2.631-2.723-2.619-4.544l0,0c0-0.889,0.223-1.78,0.695-2.604l0,0
		c1.439-2.5,4.647-3.365,7.148-1.925l0,0c1.689,0.969,2.631,2.736,2.631,4.544l0,0c0,0.889-0.236,1.793-0.707,2.604l0,0
		c-0.968,1.689-2.723,2.633-4.543,2.633l0,0C373.565,110.063,372.673,109.84,371.849,109.356z"/>
	<path fill="#55636C" d="M259.893,92.004c-0.117-0.459-0.183-0.916-0.183-1.375l0,0c0-2.304,1.544-4.412,3.875-5.04l0,0
		c2.789-0.759,5.668,0.889,6.415,3.692v-0.014c0.131,0.459,0.183,0.929,0.183,1.375l0,0c0,2.317-1.532,4.425-3.875,5.053l0,0
		c-0.445,0.117-0.903,0.184-1.361,0.184l0,0C262.641,95.879,260.52,94.333,259.893,92.004z"/>
	<path fill="#55636C" d="M379.074,95.469c-2.343-0.628-3.888-2.736-3.901-5.04l0,0c0-0.445,0.053-0.916,0.183-1.374l0,0
		c0.732-2.789,3.601-4.451,6.401-3.705l0,0c2.331,0.615,3.875,2.723,3.889,5.027l0,0c0,0.457-0.053,0.916-0.171,1.374l0,0
		c-0.628,2.343-2.749,3.889-5.066,3.889l0,0C379.964,95.64,379.519,95.587,379.074,95.469z"/>
	<path fill="#55636C" d="M257.649,75.196c-0.013-2.893,2.33-5.236,5.223-5.25l0,0c2.893-0.013,5.236,2.331,5.25,5.224l0,0
		c0.013,2.893-2.331,5.236-5.224,5.25l0,0h-0.013l0,0C260.006,80.419,257.662,78.09,257.649,75.196z"/>
	<path fill="#55636C" d="M377.177,74.944c0-2.893,2.331-5.236,5.236-5.236l0,0c2.88-0.013,5.236,2.331,5.236,5.224l0,0
		c0,2.893-2.343,5.236-5.236,5.25l0,0C379.52,80.181,377.177,77.837,377.177,74.944z"/>
	<path fill="#55636C" d="M263.52,64.779c-2.357-0.629-3.915-2.763-3.901-5.093l0,0c0-0.432,0.053-0.865,0.17-1.309l0,0
		c0.733-2.789,3.601-4.464,6.402-3.731l0,0c2.356,0.629,3.914,2.763,3.901,5.093l0,0c0,0.432-0.053,0.878-0.17,1.309l0,0
		c-0.629,2.343-2.749,3.901-5.066,3.901l0,0C264.423,64.949,263.964,64.896,263.52,64.779z"/>
	<path fill="#55636C" d="M375.321,60.834c-0.117-0.459-0.183-0.916-0.183-1.375l0,0c0.013-2.304,1.557-4.411,3.888-5.04l0,0
		c2.789-0.746,5.669,0.916,6.415,3.705l0,0c0.117,0.459,0.183,0.916,0.183,1.375l0,0c-0.013,2.304-1.557,4.412-3.888,5.04l0,0
		c-0.459,0.117-0.916,0.17-1.362,0.17l0,0C378.071,64.71,375.95,63.177,375.321,60.834z"/>
	<path fill="#55636C" d="M268.169,49.819c-1.689-0.969-2.631-2.723-2.631-4.543l0,0c0-0.878,0.223-1.78,0.695-2.604l0,0
		c1.441-2.5,4.634-3.378,7.148-1.937l0,0c1.689,0.968,2.631,2.736,2.631,4.543l0,0c0,0.89-0.223,1.794-0.693,2.606l0,0
		c-0.969,1.689-2.736,2.631-4.543,2.631l0,0C269.884,50.514,268.994,50.292,268.169,49.819z"/>
	<path fill="#55636C" d="M369.869,47.69L369.869,47.69c-0.472-0.812-0.695-1.715-0.695-2.591l0,0
		c-0.013-1.82,0.929-3.588,2.606-4.555l0,0c2.5-1.454,5.707-0.602,7.161,1.911l0,0c0.472,0.811,0.695,1.715,0.707,2.591l0,0
		c0,1.82-0.942,3.586-2.619,4.555l0,0c-0.825,0.485-1.728,0.707-2.619,0.707l0,0C372.604,50.309,370.838,49.381,369.869,47.69z"/>
	<path fill="#55636C" d="M276.543,36.6c-1.022-1.021-1.545-2.356-1.545-3.705l0,0c-0.013-1.335,0.497-2.683,1.519-3.705l0,0
		c2.043-2.055,5.354-2.068,7.41-0.026l0,0c1.021,1.022,1.531,2.357,1.544,3.692l0,0c0,1.348-0.51,2.683-1.519,3.718l0,0
		c-1.034,1.035-2.369,1.545-3.718,1.545l0,0C278.899,38.118,277.564,37.608,276.543,36.6z"/>
	<path fill="#55636C" d="M361.202,36.415c-1.022-1.021-1.545-2.356-1.545-3.705l0,0c0-1.335,0.512-2.683,1.532-3.705l0,0
		c2.054-2.043,5.367-2.043,7.409,0l0,0c1.022,1.021,1.531,2.369,1.531,3.705l0,0c0,1.335-0.51,2.684-1.531,3.705l0,0
		c-1.021,1.022-2.356,1.531-3.705,1.531l0,0C363.559,37.945,362.223,37.437,361.202,36.415z"/>
	<path fill="#55636C" d="M288.045,25.972c-0.483-0.825-0.707-1.715-0.72-2.606l0,0c-0.013-1.807,0.916-3.573,2.606-4.555l0,0
		c2.5-1.452,5.695-0.615,7.161,1.885l0,0c0.472,0.825,0.707,1.715,0.707,2.606l0,0c0.013,1.807-0.916,3.573-2.591,4.555l0,0
		c-0.838,0.485-1.741,0.72-2.631,0.72l0,0C290.768,28.578,289.015,27.636,288.045,25.972z"/>
	<path fill="#55636C" d="M349.902,27.747L349.902,27.747c-1.677-0.968-2.619-2.736-2.619-4.543l0,0c0-0.89,0.236-1.781,0.707-2.606
		l0,0c1.439-2.5,4.647-3.365,7.161-1.924l0,0c0,0,0,0-0.013,0.013l0,0c1.689,0.969,2.631,2.736,2.619,4.543l0,0
		c0,0.889-0.224,1.78-0.695,2.604l0,0c-0.969,1.677-2.736,2.619-4.543,2.619l0,0C351.629,28.452,350.727,28.23,349.902,27.747z"/>
	<path fill="#55636C" d="M301.897,18.681c-0.13-0.457-0.183-0.916-0.183-1.374l0,0c0-2.304,1.531-4.412,3.862-5.04l0,0
		c0,0,0,0,0-0.013l0,0c2.802-0.746,5.669,0.903,6.428,3.692l0,0c0.117,0.459,0.183,0.916,0.183,1.374l0,0
		c0,2.304-1.531,4.412-3.862,5.054l0,0c-0.459,0.117-0.929,0.183-1.374,0.183l0,0C304.647,22.556,302.526,21.011,301.897,18.681z"/>
	<path fill="#55636C" d="M336.76,22.318c-2.331-0.629-3.875-2.736-3.888-5.04l0,0c0-0.459,0.053-0.916,0.183-1.375l0,0
		c0.746-2.789,3.613-4.451,6.401-3.705l0,0c2.343,0.616,3.889,2.723,3.889,5.027l0,0c0,0.457-0.053,0.916-0.17,1.374l0,0
		c-0.629,2.343-2.75,3.888-5.054,3.888l0,0C337.663,22.488,337.217,22.436,336.76,22.318z"/>
	<path fill="#55636C" d="M317.156,15.262c-0.013-2.893,2.317-5.25,5.21-5.263l0,0c0.053,0,0.104,0,0.157,0l0,0
		c0.053,0,0.104,0,0.144,0l0,0c2.893,0,5.236,2.343,5.236,5.236l0,0c0,2.893-2.343,5.236-5.236,5.236l0,0c-0.053,0-0.091,0-0.144,0
		l0,0c-0.039,0-0.079,0-0.117,0l0,0h-0.013l0,0C319.499,20.472,317.156,18.143,317.156,15.262z"/>
	<path fill="#55636C" d="M325.232,120.06c-0.053-0.313-0.079-0.628-0.079-0.929l0,0c0.013-2.487,1.807-4.687,4.332-5.131l0,0
		c2.854-0.497,5.563,1.414,6.062,4.268l0,0c0.053,0.314,0.079,0.616,0.079,0.916l0,0c-0.013,2.5-1.807,4.7-4.347,5.131l0,0
		c-0.3,0.053-0.602,0.08-0.902,0.08l0,0C327.876,124.394,325.664,122.6,325.232,120.06z"/>
	<path fill="#55636C" d="M313.926,124.304c-2.54-0.445-4.334-2.644-4.334-5.144l0,0c0-0.302,0.026-0.616,0.079-0.916l0,0
		c0.497-2.853,3.22-4.753,6.061-4.255l0,0c2.54,0.445,4.32,2.644,4.334,5.131l0,0c0,0.314-0.026,0.615-0.079,0.929l0,0
		c-0.445,2.54-2.657,4.334-5.157,4.334l0,0C314.528,124.383,314.227,124.356,313.926,124.304z"/>
	<path fill="#55636C" d="M340.488,116.47c-0.485-0.812-0.707-1.715-0.707-2.606l0,0c0-1.807,0.943-3.573,2.619-4.543l0,0
		c2.513-1.454,5.709-0.576,7.162,1.924l0,0c0.47,0.825,0.693,1.715,0.693,2.606l0,0c0,1.807-0.942,3.573-2.619,4.543l0,0
		c-0.825,0.472-1.727,0.707-2.619,0.707l0,0C343.212,119.101,341.457,118.159,340.488,116.47z"/>
	<path fill="#55636C" d="M297.581,118.348c-1.675-0.969-2.619-2.736-2.604-4.555l0,0c0-0.878,0.223-1.781,0.693-2.593l0,0
		c1.452-2.513,4.661-3.363,7.161-1.911l0,0c1.675,0.969,2.619,2.736,2.619,4.543l0,0c-0.013,0.89-0.236,1.794-0.707,2.606l0,0
		c-0.969,1.689-2.737,2.619-4.543,2.619l0,0C299.309,119.055,298.406,118.833,297.581,118.348z"/>
	<path fill="#55636C" d="M353.583,107.876c-1.229-1.035-1.858-2.513-1.871-3.992l0,0c0-1.205,0.405-2.396,1.229-3.39l0,0
		c1.872-2.213,5.171-2.488,7.384-0.629l0,0c1.229,1.035,1.858,2.513,1.858,3.992l0,0c0.013,1.205-0.393,2.396-1.231,3.39l0,0
		c-1.035,1.218-2.513,1.858-4.005,1.858l0,0C355.757,109.104,354.565,108.7,353.583,107.876z"/>
	<path fill="#55636C" d="M284.288,107.178c-0.838-0.995-1.231-2.198-1.231-3.39l0,0c0.013-1.479,0.642-2.959,1.872-3.992l0,0
		c2.213-1.86,5.512-1.571,7.37,0.64l0,0c0.838,0.996,1.231,2.2,1.231,3.39l0,0c0,1.481-0.642,2.96-1.872,3.994l0,0
		c-0.982,0.825-2.173,1.216-3.365,1.216l0,0C286.802,109.038,285.322,108.409,284.288,107.178z"/>
	<path fill="#55636C" d="M362.951,95.336c-2.12-0.785-3.429-2.789-3.429-4.921l0,0c0-0.602,0.103-1.205,0.313-1.807l0,0
		c0,0,0,0,0,0.013l0,0c0.996-2.723,4.006-4.124,6.715-3.129l0,0c2.121,0.772,3.445,2.774,3.445,4.921l0,0
		c0,0.589-0.104,1.205-0.314,1.794l0,0c-0.786,2.121-2.789,3.443-4.921,3.443l0,0C364.156,95.651,363.552,95.546,362.951,95.336z"/>
	<path fill="#55636C" d="M275.584,92.115c-0.209-0.589-0.314-1.205-0.314-1.794l0,0c0.013-2.134,1.335-4.137,3.456-4.91l0,0
		c2.71-0.995,5.72,0.405,6.702,3.129l0,0l0,0l0,0c0.223,0.602,0.327,1.205,0.327,1.807l0,0c-0.013,2.134-1.335,4.137-3.456,4.91l0,0
		c-0.589,0.21-1.191,0.314-1.793,0.314l0,0C278.372,95.571,276.357,94.249,275.584,92.115z"/>
	<path fill="#55636C" d="M367.453,80.329c-2.879,0-5.223-2.356-5.223-5.25l0,0c0.013-2.893,2.356-5.224,5.249-5.224l0,0
		c2.893,0,5.236,2.357,5.224,5.25l0,0c0,2.88-2.343,5.224-5.236,5.224l0,0C367.467,80.329,367.467,80.329,367.453,80.329z"/>
	<path fill="#55636C" d="M272.583,75.015h0.013c0-0.013,0-0.026,0-0.026l0,0c0-0.066-0.013-0.131-0.013-0.197v-0.013
		c0.013-2.893,2.37-5.224,5.263-5.21l0,0c2.893,0.013,5.224,2.37,5.224,5.263l0,0c0,0.039,0,0.091-0.013,0.144l0,0
		c0,0.013,0,0.026,0,0.04l0,0c0,0,0,0,0.013,0l0,0c0,2.893-2.357,5.236-5.236,5.236l0,0C274.94,80.25,272.583,77.908,272.583,75.015
		z"/>
	<path fill="#55636C" d="M359.893,61.538c-0.21-0.602-0.314-1.205-0.314-1.807l0,0c0.013-2.134,1.335-4.137,3.456-4.897l0,0
		c2.723-0.982,5.72,0.419,6.715,3.142l0,0c0.21,0.589,0.314,1.205,0.302,1.807l0,0c0,2.134-1.336,4.124-3.457,4.896l0,0
		c-0.588,0.21-1.191,0.314-1.78,0.314l0,0C362.68,64.994,360.665,63.673,359.893,61.538z"/>
	<path fill="#55636C" d="M278.769,64.417c-2.12-0.785-3.443-2.789-3.429-4.921l0,0c0-0.602,0.104-1.205,0.314-1.794v-0.013
		c1.008-2.71,4.006-4.098,6.729-3.103l0,0c2.121,0.786,3.43,2.789,3.43,4.921l0,0c0,0.602-0.104,1.205-0.327,1.807l0,0
		c-0.773,2.107-2.776,3.429-4.91,3.429l0,0C279.973,64.743,279.358,64.64,278.769,64.417z"/>
	<path fill="#55636C" d="M353.043,49.62L353.043,49.62L353.043,49.62c-0.825-0.995-1.231-2.186-1.218-3.39l0,0
		c0.014-1.479,0.642-2.959,1.872-3.979l0,0c2.224-1.858,5.524-1.558,7.383,0.655l0,0c0.825,0.982,1.216,2.186,1.216,3.39l0,0
		c-0.013,1.479-0.64,2.959-1.871,3.979l0,0c-0.982,0.825-2.174,1.218-3.365,1.218l0,0C355.57,51.493,354.078,50.864,353.043,49.62z"
		/>
	<path fill="#55636C" d="M285.029,50.056c-1.231-1.035-1.858-2.513-1.858-3.994l0,0c0-1.205,0.406-2.396,1.231-3.378l0,0
		c1.872-2.213,5.171-2.488,7.384-0.629l0,0c1.231,1.048,1.858,2.513,1.858,4.005l0,0c0,1.192-0.406,2.396-1.244,3.378l0,0
		c-1.035,1.231-2.513,1.858-3.992,1.858l0,0C287.203,51.3,286.011,50.895,285.029,50.056z"/>
	<path fill="#55636C" d="M342.535,40.757c-1.675-0.982-2.619-2.749-2.604-4.555l0,0c0.013-0.89,0.236-1.78,0.706-2.606l0,0
		c1.466-2.5,4.661-3.352,7.162-1.898l0,0c1.689,0.982,2.619,2.749,2.606,4.555l0,0c0,0.889-0.237,1.793-0.707,2.604l0,0
		c-0.969,1.677-2.723,2.606-4.53,2.606l0,0C344.276,41.465,343.358,41.242,342.535,40.757z"/>
	<path fill="#55636C" d="M295.818,38.696c-0.472-0.812-0.693-1.715-0.693-2.606l0,0c0-1.807,0.942-3.573,2.631-4.543l0,0
		c2.5-1.427,5.709-0.563,7.148,1.937l0,0c0.472,0.825,0.695,1.728,0.695,2.606l0,0c0,1.82-0.956,3.573-2.631,4.543l0,0
		c-0.825,0.472-1.715,0.693-2.604,0.693l0,0C298.541,41.327,296.787,40.385,295.818,38.696z"/>
	<path fill="#55636C" d="M329.645,36.022c-2.54-0.446-4.32-2.659-4.32-5.146l0,0c0-0.302,0.026-0.615,0.079-0.929l0,0
		c0.51-2.84,3.233-4.74,6.073-4.228l0,0c2.54,0.445,4.321,2.657,4.321,5.146l0,0c0,0.302-0.027,0.615-0.08,0.929l0,0
		c-0.457,2.526-2.659,4.32-5.157,4.32l0,0C330.259,36.115,329.959,36.089,329.645,36.022z"/>
	<path fill="#55636C" d="M309.842,31.708c-0.053-0.287-0.079-0.576-0.079-0.863l0,0c-0.013-2.513,1.794-4.74,4.347-5.184l0,0
		c2.854-0.485,5.563,1.427,6.048,4.281l0,0c0.053,0.287,0.079,0.576,0.079,0.863l0,0c0.013,2.513-1.794,4.74-4.347,5.184l0,0
		c-0.302,0.053-0.602,0.079-0.89,0.079l0,0C312.487,36.069,310.274,34.264,309.842,31.708z"/>
	<path fill="#55636C" d="M317.482,104.896c-0.013-2.893,2.33-5.249,5.223-5.249l0,0c2.893-0.013,5.236,2.331,5.249,5.224l0,0
		c0,2.893-2.343,5.236-5.236,5.249l0,0C319.824,110.118,317.482,107.789,317.482,104.896z"/>
	<path fill="#55636C" d="M305.152,105.465c-1.675-0.969-2.619-2.737-2.619-4.544l0,0c0-0.889,0.223-1.78,0.695-2.604l0,0
		c1.441-2.514,4.634-3.378,7.148-1.925l0,0c1.689,0.956,2.631,2.723,2.631,4.53l0,0c0,0.89-0.236,1.794-0.707,2.619l0,0
		c-0.968,1.677-2.723,2.619-4.543,2.619l0,0C306.867,106.157,305.978,105.935,305.152,105.465z"/>
	<path fill="#55636C" d="M333.112,103.495c-0.472-0.825-0.707-1.727-0.707-2.604l0,0c-0.013-1.821,0.929-3.588,2.606-4.557l0,0
		c2.499-1.454,5.707-0.602,7.161,1.898l0,0c0.472,0.825,0.707,1.714,0.707,2.606l0,0c0.013,1.807-0.929,3.573-2.606,4.555l0,0
		c-0.825,0.472-1.741,0.707-2.631,0.707l0,0C335.835,106.101,334.081,105.159,333.112,103.495z"/>
	<path fill="#55636C" d="M292.28,92.66L292.28,92.66L292.28,92.66c-0.485-0.825-0.707-1.728-0.72-2.606l0,0
		c0-1.82,0.929-3.588,2.604-4.57l0,0c2.5-1.452,5.707-0.602,7.161,1.898l0,0c0.483,0.825,0.707,1.715,0.72,2.606l0,0
		c0,1.807-0.929,3.573-2.604,4.555l0,0c-0.838,0.485-1.741,0.707-2.631,0.707l0,0C295.003,95.252,293.248,94.322,292.28,92.66z"/>
	<path fill="#55636C" d="M345.94,94.442c-1.677-0.969-2.619-2.736-2.619-4.543l0,0c0-0.889,0.223-1.781,0.695-2.606l0,0
		c1.452-2.5,4.647-3.363,7.161-1.924l0,0c1.677,0.969,2.619,2.736,2.619,4.543l0,0c0,0.89-0.223,1.794-0.707,2.606l0,0
		c-0.969,1.689-2.723,2.631-4.53,2.631l0,0C347.669,95.15,346.765,94.927,345.94,94.442z"/>
	<path fill="#55636C" d="M287.531,75.117c-0.013-2.893,2.33-5.249,5.223-5.263l0,0c2.893,0,5.236,2.331,5.25,5.224l0,0
		c0.013,2.894-2.331,5.25-5.224,5.25l0,0c0,0,0,0-0.013,0l0,0C289.887,80.329,287.544,77.998,287.531,75.117z"/>
	<path fill="#55636C" d="M347.295,74.979c0-2.893,2.343-5.25,5.224-5.25l0,0c2.893,0,5.249,2.343,5.249,5.236l0,0l0,0l0,0
		c0,2.893-2.343,5.236-5.236,5.236l0,0C349.639,80.203,347.295,77.872,347.295,74.979z"/>
	<polygon fill="#55636C" points="288.214,75.114 288.214,75.114 288.214,75.114 288.214,75.114 288.214,75.114 	"/>
	<polygon fill="#55636C" points="347.978,74.979 347.978,74.979 347.978,74.979 	"/>
	<path fill="#55636C" d="M294.101,64.688c-1.675-0.969-2.631-2.723-2.631-4.543l0,0c0-0.889,0.223-1.78,0.693-2.604l0,0
		c1.441-2.513,4.648-3.378,7.148-1.937l0,0c1.689,0.968,2.631,2.723,2.631,4.543l0,0c0,0.89-0.223,1.781-0.695,2.606l0,0
		c-0.968,1.689-2.736,2.631-4.543,2.631l0,0C295.816,65.381,294.925,65.158,294.101,64.688z"/>
	<path fill="#55636C" d="M343.994,62.661L343.994,62.661c-0.47-0.825-0.707-1.715-0.707-2.606l0,0c0-1.807,0.929-3.573,2.619-4.555
		l0,0c2.5-1.439,5.709-0.589,7.148,1.911l0,0l0,0l0,0c0.485,0.825,0.707,1.715,0.707,2.606l0,0c0.014,1.807-0.929,3.573-2.619,4.543
		l0,0c-0.825,0.483-1.727,0.706-2.619,0.706l0,0C346.718,65.267,344.963,64.338,343.994,62.661z"/>
	<path fill="#55636C" d="M303.084,51.814c-0.497-0.851-0.72-1.767-0.72-2.67l0,0c0.013-1.794,0.943-3.535,2.606-4.504l0,0
		c2.487-1.452,5.707-0.615,7.161,1.885l0,0c0.472,0.825,0.707,1.714,0.707,2.604l0,0c0.013,1.82-0.916,3.588-2.591,4.57l0,0
		c-0.838,0.472-1.741,0.707-2.631,0.707l0,0C305.807,54.408,304.053,53.479,303.084,51.814z"/>
	<path fill="#55636C" d="M334.967,53.645c-1.677-0.968-2.619-2.736-2.619-4.555l0,0c0-0.878,0.236-1.78,0.707-2.604l0,0
		c1.439-2.5,4.647-3.352,7.148-1.911l0,0c1.689,0.968,2.631,2.736,2.619,4.555l0,0c0,0.878-0.223,1.78-0.707,2.591l0,0
		c-0.969,1.689-2.723,2.631-4.53,2.631l0,0C336.694,54.35,335.792,54.114,334.967,53.645z"/>
	<path fill="#55636C" d="M317.278,45.146c-0.013-2.893,2.317-5.25,5.21-5.263l0,0c0.04,0,0.066,0,0.104,0l0,0
		c0.013,0,0.04,0,0.066,0l0,0c2.893,0,5.236,2.343,5.236,5.236l0,0c0,2.88-2.331,5.223-5.21,5.236l0,0c-0.013,0-0.013,0-0.026,0l0,0
		c-0.026,0-0.053,0-0.079,0l0,0c-0.013,0-0.026,0-0.053,0h0.013c-0.013,0-0.013,0-0.026,0l0,0
		C319.635,50.355,317.292,48.024,317.278,45.146z"/>
	<path fill="#55636C" d="M325.563,90.574c-0.472-0.825-0.695-1.728-0.695-2.606l0,0c0-1.82,0.942-3.588,2.619-4.555l0,0
		c2.5-1.441,5.709-0.576,7.148,1.924l0,0c0.485,0.825,0.707,1.728,0.707,2.606l0,0c0,1.82-0.942,3.573-2.619,4.555h-0.013
		c-0.825,0.472-1.715,0.695-2.606,0.695l0,0C328.299,93.192,326.531,92.25,325.563,90.574z"/>
	<path fill="#55636C" d="M312.539,92.474c-1.677-0.982-2.619-2.75-2.606-4.557l0,0c0-0.889,0.223-1.78,0.707-2.606l0,0
		c1.441-2.499,4.648-3.351,7.148-1.911l0,0l0,0l0,0c1.689,0.982,2.619,2.737,2.619,4.557l0,0c0,0.889-0.236,1.781-0.707,2.606l0,0
		c-0.968,1.675-2.736,2.619-4.543,2.619l0,0C314.268,93.181,313.364,92.945,312.539,92.474z"/>
	<path fill="#55636C" d="M337.585,80.272c-2.893-0.014-5.236-2.357-5.236-5.25l0,0c0.013-2.893,2.356-5.236,5.249-5.224l0,0
		c2.893,0,5.236,2.356,5.224,5.25l0,0C342.822,77.929,340.478,80.272,337.585,80.272L337.585,80.272L337.585,80.272z"/>
	<path fill="#55636C" d="M302.478,75.005c0,0,0-0.013,0-0.026l0,0c0-0.026,0-0.04,0-0.066l0,0c0-2.893,2.356-5.223,5.249-5.21l0,0
		c2.893,0,5.224,2.357,5.224,5.25l0,0c0,0.013,0,0.013,0,0.026l0,0c0,0.013,0,0.013,0,0.026l0,0c0,2.893-2.357,5.236-5.25,5.236l0,0
		C304.822,80.241,302.478,77.898,302.478,75.005z"/>
	<path fill="#55636C" d="M317.278,75.005c0,0,0-0.013,0-0.026l0,0c0-0.026,0-0.04,0-0.066l0,0c0-2.893,2.356-5.223,5.249-5.21l0,0
		c2.893,0,5.224,2.357,5.224,5.25l0,0c0,0.013,0,0.013,0,0.026l0,0c0,0.013,0,0.013,0,0.026l0,0c0,2.893-2.357,5.236-5.25,5.236l0,0
		C319.621,80.241,317.278,77.898,317.278,75.005z"/>
	<path fill="#55636C" d="M342.139,75.048c0-0.013,0-0.013,0-0.013V75.048L342.139,75.048z"/>
	<path fill="#55636C" d="M327.532,66.611c-1.689-0.982-2.619-2.749-2.606-4.57l0,0c0-0.878,0.223-1.78,0.707-2.591l0,0
		c1.454-2.5,4.661-3.352,7.161-1.898l0,0c1.677,0.982,2.606,2.749,2.606,4.555l0,0c-0.013,0.889-0.236,1.78-0.72,2.604l0,0
		c-0.969,1.677-2.723,2.606-4.53,2.606l0,0C329.26,67.317,328.356,67.081,327.532,66.611z"/>
	<path fill="#55636C" d="M310.685,64.639c-0.485-0.825-0.707-1.728-0.707-2.619l0,0c0.013-1.807,0.956-3.573,2.631-4.53l0,0
		c2.513-1.439,5.72-0.576,7.161,1.937l0,0c0.472,0.812,0.695,1.715,0.695,2.606l0,0c-0.013,1.807-0.956,3.573-2.644,4.543l0,0
		c-0.812,0.472-1.715,0.695-2.591,0.695l0,0C313.408,67.271,311.641,66.315,310.685,64.639z"/>
</g>
<g opacity="0.4">
	<circle fill="#FFFFFF" cx="307.655" cy="16.934" r="2.031"/>
	<circle fill="#FFFFFF" cx="323.542" cy="14.902" r="2.031"/>
	<circle fill="#FFFFFF" cx="339.252" cy="18.24" r="2.031"/>
	<circle fill="#FFFFFF" cx="353.225" cy="23.546" r="2.031"/>
	<circle fill="#FFFFFF" cx="365.462" cy="32.65" r="2.031"/>
	<circle fill="#FFFFFF" cx="375.115" cy="46.061" r="2.031"/>
	<circle fill="#FFFFFF" cx="358.195" cy="46.891" r="2.031"/>
	<circle fill="#FFFFFF" cx="345.957" cy="35.898" r="2.031"/>
	<circle fill="#FFFFFF" cx="331.078" cy="30.62" r="2.031"/>
	<circle fill="#FFFFFF" cx="314.969" cy="30.62" r="2.031"/>
	<circle fill="#FFFFFF" cx="321.967" cy="44.236" r="2.031"/>
	<circle fill="#FFFFFF" cx="337.221" cy="48.923" r="2.031"/>
	<circle fill="#FFFFFF" cx="348.927" cy="59.814" r="2.031"/>
	<circle fill="#FFFFFF" cx="365.462" cy="59.814" r="2.031"/>
	<circle fill="#FFFFFF" cx="381.086" cy="58.99" r="2.031"/>
	<circle fill="#FFFFFF" cx="383.117" cy="74.141" r="2.031"/>
	<circle fill="#FFFFFF" cx="367.847" cy="74.84" r="2.031"/>
	<circle fill="#FFFFFF" cx="380.408" cy="89.598" r="2.031"/>
	<circle fill="#FFFFFF" cx="375.115" cy="104.791" r="2.031"/>
	<circle fill="#FFFFFF" cx="364.885" cy="90.9" r="2.031"/>
	<circle fill="#FFFFFF" cx="352.434" cy="74.84" r="2.031"/>
	<circle fill="#FFFFFF" cx="337.221" cy="74.84" r="2.031"/>
	<circle fill="#FFFFFF" cx="348.927" cy="89.598" r="2.031"/>
	<circle fill="#FFFFFF" cx="357.287" cy="103.882" r="2.031"/>
	<circle fill="#FFFFFF" cx="364.885" cy="116.929" r="2.031"/>
	<circle fill="#FFFFFF" cx="352.469" cy="126.436" r="2.031"/>
	<circle fill="#FFFFFF" cx="345.721" cy="112.957" r="2.031"/>
	<circle fill="#FFFFFF" cx="337.737" cy="100.779" r="2.031"/>
	<circle fill="#FFFFFF" cx="323.219" cy="104.791" r="2.031"/>
	<circle fill="#FFFFFF" cx="307.655" cy="100.779" r="2.031"/>
	<circle fill="#FFFFFF" cx="315.829" cy="87.568" r="2.031"/>
	<circle fill="#FFFFFF" cx="330.81" cy="88.109" r="2.031"/>
	<circle fill="#FFFFFF" cx="321.967" cy="74.141" r="2.031"/>
	<circle fill="#FFFFFF" cx="330.81" cy="61.844" r="2.031"/>
	<circle fill="#FFFFFF" cx="314.969" cy="61.133" r="2.031"/>
	<circle fill="#FFFFFF" cx="307.564" cy="48.092" r="2.031"/>
	<circle fill="#FFFFFF" cx="330.81" cy="118.96" r="2.031"/>
	<circle fill="#FFFFFF" cx="338.453" cy="132.548" r="2.031"/>
	<circle fill="#FFFFFF" cx="323.219" cy="135.098" r="2.031"/>
	<circle fill="#FFFFFF" cx="314.969" cy="120.044" r="2.031"/>
	<circle fill="#FFFFFF" cx="307.564" cy="133.768" r="2.031"/>
	<circle fill="#FFFFFF" cx="293.797" cy="127.831" r="2.031"/>
	<circle fill="#FFFFFF" cx="281.189" cy="118.013" r="2.031"/>
	<circle fill="#FFFFFF" cx="300.387" cy="113.128" r="2.031"/>
	<circle fill="#FFFFFF" cx="288.997" cy="103.931" r="2.031"/>
	<circle fill="#FFFFFF" cx="297.41" cy="89.598" r="2.031"/>
	<circle fill="#FFFFFF" cx="293.06" cy="74.84" r="2.031"/>
	<circle fill="#FFFFFF" cx="277.218" cy="73.867" r="2.031"/>
	<circle fill="#FFFFFF" cx="307.564" cy="74.141" r="2.031"/>
	<circle fill="#FFFFFF" cx="295.828" cy="59.814" r="2.031"/>
	<circle fill="#FFFFFF" cx="300.742" cy="35.898" r="2.031"/>
	<circle fill="#FFFFFF" cx="293.06" cy="22.303" r="2.031"/>
	<circle fill="#FFFFFF" cx="280.938" cy="32.65" r="2.031"/>
	<circle fill="#FFFFFF" cx="288.997" cy="46.061" r="2.031"/>
	<circle fill="#FFFFFF" cx="280.938" cy="58.99" r="2.031"/>
	<circle fill="#FFFFFF" cx="271.256" cy="44.917" r="2.031"/>
	<circle fill="#FFFFFF" cx="265.56" cy="59.814" r="2.031"/>
	<circle fill="#FFFFFF" cx="262.18" cy="74.84" r="2.031"/>
	<circle fill="#FFFFFF" cx="264.392" cy="90.141" r="2.031"/>
	<circle fill="#FFFFFF" cx="271.256" cy="103.931" r="2.031"/>
	<circle fill="#FFFFFF" cx="280.938" cy="90.141" r="2.031"/>
</g>
<g>
	<circle fill="#55636C" cx="75" cy="75" r="60"/>
	<circle fill="#5E6E77" cx="75" cy="75" r="55.639"/>
	<circle opacity="0.4" fill="#FFFFFF" cx="90.028" cy="56.446" r="19.476"/>
</g>
</svg>
