<?xml version="1.0" encoding="utf-8"?>
<!-- Generator: Adobe Illustrator 17.0.0, SVG Export Plug-In . SVG Version: 6.00 Build 0)  -->
<!DOCTYPE svg PUBLIC "-//W3C//DTD SVG 1.1//EN" "http://www.w3.org/Graphics/SVG/1.1/DTD/svg11.dtd">
<svg version="1.1" id="Layer_1" xmlns="http://www.w3.org/2000/svg" xmlns:xlink="http://www.w3.org/1999/xlink" x="0px" y="0px"
	 width="150px" height="150px" viewBox="0 0 150 150" enable-background="new 0 0 150 150" xml:space="preserve">
<circle fill="#EDEDED" cx="75" cy="75" r="75"/>
<g>
	<circle fill="#20D298" cx="75" cy="75" r="60"/>
	<circle fill="#25E8A2" cx="75" cy="75" r="55.639"/>
	<circle opacity="0.4" fill="#FFFFFF" cx="90.028" cy="56.446" r="19.476"/>
</g>
<path fill="#20D298" d="M249.907,134.777c-0.013-2.893,2.33-5.249,5.223-5.249l0,0c2.893-0.013,5.236,2.331,5.249,5.224l0,0
	c0,2.893-2.343,5.236-5.236,5.249l0,0C252.251,140.002,249.907,137.669,249.907,134.777z"/>
<path fill="#20D298" d="M238.338,137.837L238.338,137.837L238.338,137.837c-2.343-0.616-3.888-2.71-3.901-5.027l0,0
	c0-0.446,0.053-0.903,0.17-1.375l0,0c0.746-2.789,3.613-4.464,6.402-3.718l0,0c2.343,0.615,3.888,2.723,3.901,5.027l0,0
	c0,0.459-0.053,0.916-0.17,1.375l0,0c-0.629,2.341-2.749,3.901-5.066,3.901l0,0C239.228,138.021,238.783,137.954,238.338,137.837z"
	/>
<path fill="#20D298" d="M265.536,134.077c-0.117-0.459-0.17-0.916-0.17-1.375l0,0c0-2.304,1.531-4.412,3.875-5.04l0,0
	c2.79-0.759,5.669,0.903,6.415,3.692l0,0c0.117,0.457,0.183,0.915,0.183,1.374l0,0c0,2.304-1.544,4.412-3.875,5.04l0,0
	c-0.457,0.131-0.915,0.184-1.362,0.184l0,0C268.286,137.951,266.177,136.406,265.536,134.077z"/>
<path fill="#20D298" d="M222.632,131.383c-1.675-0.969-2.619-2.736-2.619-4.543l0,0c0-0.89,0.223-1.781,0.695-2.606l0,0
	c1.441-2.513,4.647-3.378,7.148-1.924l0,0c1.689,0.955,2.631,2.723,2.631,4.543l0,0c0,0.878-0.223,1.781-0.693,2.606l0,0
	c-0.969,1.675-2.736,2.619-4.555,2.619l0,0C224.36,132.077,223.457,131.855,222.632,131.383z"/>
<path fill="#20D298" d="M280.474,129.359c-0.485-0.826-0.707-1.728-0.72-2.606l0,0c0-1.821,0.929-3.588,2.619-4.557l0,0
	c2.5-1.452,5.707-0.602,7.148,1.898l0,0c0.485,0.825,0.707,1.715,0.72,2.606l0,0c0,1.807-0.929,3.573-2.619,4.555l0,0
	c-0.825,0.472-1.728,0.707-2.619,0.707l0,0C283.197,131.964,281.443,131.021,280.474,129.359z"/>
<path fill="#20D298" d="M209.162,121.087L209.162,121.087L209.162,121.087c-1.021-1.021-1.544-2.356-1.544-3.705l0,0
	c0-1.335,0.51-2.67,1.531-3.705l0,0c2.028-2.041,5.354-2.054,7.397-0.013l0,0c1.022,1.022,1.545,2.356,1.545,3.692l0,0
	c0,1.349-0.497,2.683-1.519,3.718l0,0c-1.035,1.022-2.37,1.531-3.718,1.531l0,0C211.519,122.607,210.184,122.109,209.162,121.087z"
	/>
<path fill="#20D298" d="M293.649,120.917c-1.021-1.022-1.531-2.37-1.531-3.705l0,0c-0.013-1.336,0.497-2.683,1.519-3.705l0,0
	c2.043-2.043,5.369-2.055,7.41-0.013l0,0c1.022,1.021,1.531,2.369,1.544,3.704l0,0c0,1.336-0.51,2.684-1.531,3.705l0,0
	c-1.021,1.022-2.369,1.545-3.705,1.545l0,0C296.006,122.448,294.67,121.937,293.649,120.917z"/>
<path fill="#20D298" d="M198.796,107.662L198.796,107.662L198.796,107.662c-0.472-0.825-0.707-1.714-0.707-2.606l0,0
	c-0.013-1.807,0.916-3.573,2.604-4.555l0,0c2.5-1.454,5.709-0.602,7.161,1.898l0,0c0.472,0.825,0.707,1.714,0.707,2.604l0,0
	c0.013,1.808-0.929,3.575-2.606,4.557l0,0c-0.825,0.485-1.728,0.707-2.631,0.707l0,0
	C201.519,110.267,199.765,109.338,198.796,107.662z"/>
<path fill="#20D298" d="M304.218,109.356c-1.689-0.969-2.631-2.723-2.619-4.544l0,0c0-0.889,0.223-1.78,0.695-2.604l0,0
	c1.439-2.5,4.647-3.365,7.148-1.925l0,0c1.689,0.969,2.631,2.736,2.631,4.544l0,0c0,0.889-0.236,1.793-0.707,2.604l0,0
	c-0.968,1.689-2.723,2.633-4.543,2.633l0,0C305.934,110.063,305.042,109.84,304.218,109.356z"/>
<path fill="#20D298" d="M192.262,92.004c-0.117-0.459-0.183-0.916-0.183-1.375l0,0c0-2.304,1.544-4.412,3.875-5.04l0,0
	c2.789-0.759,5.668,0.889,6.415,3.692v-0.014c0.131,0.459,0.183,0.929,0.183,1.375l0,0c0,2.317-1.532,4.425-3.875,5.053l0,0
	c-0.445,0.117-0.903,0.184-1.361,0.184l0,0C195.01,95.879,192.889,94.333,192.262,92.004z"/>
<path fill="#20D298" d="M311.443,95.469c-2.343-0.628-3.888-2.736-3.901-5.04l0,0c0-0.445,0.053-0.916,0.183-1.374l0,0
	c0.732-2.789,3.601-4.451,6.401-3.705l0,0c2.331,0.615,3.875,2.723,3.889,5.027l0,0c0,0.457-0.053,0.916-0.171,1.374l0,0
	c-0.628,2.343-2.749,3.889-5.066,3.889l0,0C312.333,95.64,311.888,95.587,311.443,95.469z"/>
<path fill="#20D298" d="M190.018,75.196c-0.013-2.893,2.33-5.236,5.223-5.25l0,0c2.893-0.013,5.236,2.331,5.25,5.224l0,0
	c0.013,2.893-2.331,5.236-5.224,5.25l0,0h-0.013l0,0C192.375,80.419,190.031,78.09,190.018,75.196z"/>
<path fill="#20D298" d="M309.546,74.944c0-2.893,2.331-5.236,5.236-5.236l0,0c2.88-0.013,5.236,2.331,5.236,5.224l0,0
	c0,2.893-2.343,5.236-5.236,5.25l0,0C311.889,80.181,309.546,77.837,309.546,74.944z"/>
<path fill="#20D298" d="M195.889,64.779c-2.357-0.629-3.915-2.763-3.901-5.093l0,0c0-0.432,0.053-0.865,0.17-1.309l0,0
	c0.733-2.789,3.601-4.464,6.402-3.731l0,0c2.356,0.629,3.914,2.763,3.901,5.093l0,0c0,0.432-0.053,0.878-0.17,1.309l0,0
	c-0.629,2.343-2.749,3.901-5.066,3.901l0,0C196.792,64.949,196.333,64.896,195.889,64.779z"/>
<path fill="#20D298" d="M307.69,60.834c-0.117-0.459-0.183-0.916-0.183-1.375l0,0c0.013-2.304,1.557-4.411,3.888-5.04l0,0
	c2.789-0.746,5.669,0.916,6.415,3.705l0,0c0.117,0.459,0.183,0.916,0.183,1.375l0,0c-0.013,2.304-1.557,4.412-3.888,5.04l0,0
	c-0.459,0.117-0.916,0.17-1.362,0.17l0,0C310.44,64.71,308.319,63.177,307.69,60.834z"/>
<path fill="#20D298" d="M200.538,49.819c-1.689-0.969-2.631-2.723-2.631-4.543l0,0c0-0.878,0.223-1.78,0.695-2.604l0,0
	c1.441-2.5,4.634-3.378,7.148-1.937l0,0c1.689,0.968,2.631,2.736,2.631,4.543l0,0c0,0.89-0.223,1.794-0.693,2.606l0,0
	c-0.969,1.689-2.736,2.631-4.543,2.631l0,0C202.253,50.514,201.363,50.292,200.538,49.819z"/>
<path fill="#20D298" d="M302.238,47.69L302.238,47.69c-0.472-0.812-0.695-1.715-0.695-2.591l0,0
	c-0.013-1.82,0.929-3.588,2.606-4.555l0,0c2.5-1.454,5.707-0.602,7.161,1.911l0,0c0.472,0.811,0.695,1.715,0.707,2.591l0,0
	c0,1.82-0.942,3.586-2.619,4.555l0,0c-0.825,0.485-1.728,0.707-2.619,0.707l0,0C304.973,50.309,303.207,49.381,302.238,47.69z"/>
<path fill="#20D298" d="M208.912,36.6c-1.022-1.021-1.545-2.356-1.545-3.705l0,0c-0.013-1.335,0.497-2.683,1.519-3.705l0,0
	c2.043-2.055,5.354-2.068,7.41-0.026l0,0c1.021,1.022,1.531,2.357,1.544,3.692l0,0c0,1.348-0.51,2.683-1.519,3.718l0,0
	c-1.034,1.035-2.369,1.545-3.718,1.545l0,0C211.268,38.118,209.933,37.608,208.912,36.6z"/>
<path fill="#20D298" d="M293.571,36.415c-1.022-1.021-1.545-2.356-1.545-3.705l0,0c0-1.335,0.512-2.683,1.532-3.705l0,0
	c2.054-2.043,5.367-2.043,7.409,0l0,0c1.022,1.021,1.531,2.369,1.531,3.705l0,0c0,1.335-0.51,2.684-1.531,3.705l0,0
	c-1.021,1.022-2.356,1.531-3.705,1.531l0,0C295.928,37.945,294.592,37.437,293.571,36.415z"/>
<path fill="#20D298" d="M220.414,25.972c-0.483-0.825-0.707-1.715-0.72-2.606l0,0c-0.013-1.807,0.916-3.573,2.606-4.555l0,0
	c2.5-1.452,5.695-0.615,7.161,1.885l0,0c0.472,0.825,0.707,1.715,0.707,2.606l0,0c0.013,1.807-0.916,3.573-2.591,4.555l0,0
	c-0.838,0.485-1.741,0.72-2.631,0.72l0,0C223.137,28.578,221.384,27.636,220.414,25.972z"/>
<path fill="#20D298" d="M282.271,27.747L282.271,27.747c-1.677-0.968-2.619-2.736-2.619-4.543l0,0c0-0.89,0.236-1.781,0.707-2.606
	l0,0c1.439-2.5,4.647-3.365,7.161-1.924l0,0c0,0,0,0-0.013,0.013l0,0c1.689,0.969,2.631,2.736,2.619,4.543l0,0
	c0,0.889-0.224,1.78-0.695,2.604l0,0c-0.969,1.677-2.736,2.619-4.543,2.619l0,0C283.998,28.452,283.096,28.23,282.271,27.747z"/>
<path fill="#20D298" d="M234.266,18.681c-0.13-0.457-0.183-0.916-0.183-1.374l0,0c0-2.304,1.531-4.412,3.862-5.04l0,0
	c0,0,0,0,0-0.013l0,0c2.802-0.746,5.669,0.903,6.428,3.692l0,0c0.117,0.459,0.183,0.916,0.183,1.374l0,0
	c0,2.304-1.531,4.412-3.862,5.054l0,0c-0.459,0.117-0.929,0.183-1.374,0.183l0,0C237.016,22.556,234.895,21.011,234.266,18.681z"/>
<path fill="#20D298" d="M269.129,22.318c-2.331-0.629-3.875-2.736-3.888-5.04l0,0c0-0.459,0.053-0.916,0.183-1.375l0,0
	c0.746-2.789,3.613-4.451,6.401-3.705l0,0c2.343,0.616,3.889,2.723,3.889,5.027l0,0c0,0.457-0.053,0.916-0.17,1.374l0,0
	c-0.629,2.343-2.75,3.888-5.054,3.888l0,0C270.032,22.488,269.586,22.436,269.129,22.318z"/>
<path fill="#20D298" d="M249.525,15.262c-0.013-2.893,2.317-5.25,5.21-5.263l0,0c0.053,0,0.104,0,0.157,0l0,0
	c0.053,0,0.104,0,0.144,0l0,0c2.893,0,5.236,2.343,5.236,5.236l0,0c0,2.893-2.343,5.236-5.236,5.236l0,0c-0.053,0-0.091,0-0.144,0
	l0,0c-0.039,0-0.079,0-0.117,0l0,0h-0.013l0,0C251.868,20.472,249.525,18.143,249.525,15.262z"/>
<path fill="#20D298" d="M257.601,120.06c-0.053-0.313-0.079-0.628-0.079-0.929l0,0c0.013-2.487,1.807-4.687,4.332-5.131l0,0
	c2.854-0.497,5.563,1.414,6.062,4.268l0,0c0.053,0.314,0.079,0.616,0.079,0.916l0,0c-0.013,2.5-1.807,4.7-4.347,5.131l0,0
	c-0.3,0.053-0.602,0.08-0.902,0.08l0,0C260.245,124.394,258.033,122.6,257.601,120.06z"/>
<path fill="#20D298" d="M246.295,124.304c-2.54-0.445-4.334-2.644-4.334-5.144l0,0c0-0.302,0.026-0.616,0.079-0.916l0,0
	c0.497-2.853,3.22-4.753,6.061-4.255l0,0c2.54,0.445,4.32,2.644,4.334,5.131l0,0c0,0.314-0.026,0.615-0.079,0.929l0,0
	c-0.445,2.54-2.657,4.334-5.157,4.334l0,0C246.897,124.383,246.596,124.356,246.295,124.304z"/>
<path fill="#20D298" d="M272.857,116.47c-0.485-0.812-0.707-1.715-0.707-2.606l0,0c0-1.807,0.943-3.573,2.619-4.543l0,0
	c2.513-1.454,5.709-0.576,7.162,1.924l0,0c0.47,0.825,0.693,1.715,0.693,2.606l0,0c0,1.807-0.942,3.573-2.619,4.543l0,0
	c-0.825,0.472-1.727,0.707-2.619,0.707l0,0C275.581,119.101,273.826,118.159,272.857,116.47z"/>
<path fill="#20D298" d="M229.95,118.348c-1.675-0.969-2.619-2.736-2.604-4.555l0,0c0-0.878,0.223-1.781,0.693-2.593l0,0
	c1.452-2.513,4.661-3.363,7.161-1.911l0,0c1.675,0.969,2.619,2.736,2.619,4.543l0,0c-0.013,0.89-0.236,1.794-0.707,2.606l0,0
	c-0.969,1.689-2.737,2.619-4.543,2.619l0,0C231.678,119.055,230.775,118.833,229.95,118.348z"/>
<path fill="#20D298" d="M285.952,107.876c-1.229-1.035-1.858-2.513-1.871-3.992l0,0c0-1.205,0.405-2.396,1.229-3.39l0,0
	c1.872-2.213,5.171-2.488,7.384-0.629l0,0c1.229,1.035,1.858,2.513,1.858,3.992l0,0c0.013,1.205-0.393,2.396-1.231,3.39l0,0
	c-1.035,1.218-2.513,1.858-4.005,1.858l0,0C288.126,109.104,286.934,108.7,285.952,107.876z"/>
<path fill="#20D298" d="M216.657,107.178c-0.838-0.995-1.231-2.198-1.231-3.39l0,0c0.013-1.479,0.642-2.959,1.872-3.992l0,0
	c2.213-1.86,5.512-1.571,7.37,0.64l0,0c0.838,0.996,1.231,2.2,1.231,3.39l0,0c0,1.481-0.642,2.96-1.872,3.994l0,0
	c-0.982,0.825-2.173,1.216-3.365,1.216l0,0C219.171,109.038,217.691,108.409,216.657,107.178z"/>
<path fill="#20D298" d="M295.32,95.336c-2.12-0.785-3.429-2.789-3.429-4.921l0,0c0-0.602,0.103-1.205,0.313-1.807l0,0
	c0,0,0,0,0,0.013l0,0c0.996-2.723,4.006-4.124,6.715-3.129l0,0c2.121,0.772,3.445,2.774,3.445,4.921l0,0
	c0,0.589-0.104,1.205-0.314,1.794l0,0c-0.786,2.121-2.789,3.443-4.921,3.443l0,0C296.525,95.651,295.921,95.546,295.32,95.336z"/>
<path fill="#20D298" d="M207.953,92.115c-0.209-0.589-0.314-1.205-0.314-1.794l0,0c0.013-2.134,1.335-4.137,3.456-4.91l0,0
	c2.71-0.995,5.72,0.405,6.702,3.129l0,0l0,0l0,0c0.223,0.602,0.327,1.205,0.327,1.807l0,0c-0.013,2.134-1.335,4.137-3.456,4.91l0,0
	c-0.589,0.21-1.191,0.314-1.793,0.314l0,0C210.741,95.571,208.726,94.249,207.953,92.115z"/>
<path fill="#20D298" d="M299.822,80.329c-2.879,0-5.223-2.356-5.223-5.25l0,0c0.013-2.893,2.356-5.224,5.249-5.224l0,0
	c2.893,0,5.236,2.357,5.224,5.25l0,0c0,2.88-2.343,5.224-5.236,5.224l0,0C299.836,80.329,299.836,80.329,299.822,80.329z"/>
<path fill="#20D298" d="M204.952,75.015h0.013c0-0.013,0-0.026,0-0.026l0,0c0-0.066-0.013-0.131-0.013-0.197v-0.013
	c0.013-2.893,2.37-5.224,5.263-5.21l0,0c2.893,0.013,5.224,2.37,5.224,5.263l0,0c0,0.039,0,0.091-0.013,0.144l0,0
	c0,0.013,0,0.026,0,0.04l0,0c0,0,0,0,0.013,0l0,0c0,2.893-2.357,5.236-5.236,5.236l0,0C207.309,80.25,204.952,77.908,204.952,75.015
	z"/>
<path fill="#20D298" d="M292.262,61.538c-0.21-0.602-0.314-1.205-0.314-1.807l0,0c0.013-2.134,1.335-4.137,3.456-4.897l0,0
	c2.723-0.982,5.72,0.419,6.715,3.142l0,0c0.21,0.589,0.314,1.205,0.302,1.807l0,0c0,2.134-1.336,4.124-3.457,4.896l0,0
	c-0.588,0.21-1.191,0.314-1.78,0.314l0,0C295.049,64.994,293.034,63.673,292.262,61.538z"/>
<path fill="#20D298" d="M211.138,64.417c-2.12-0.785-3.443-2.789-3.429-4.921l0,0c0-0.602,0.104-1.205,0.314-1.794v-0.013
	c1.008-2.71,4.006-4.098,6.729-3.103l0,0c2.121,0.786,3.43,2.789,3.43,4.921l0,0c0,0.602-0.104,1.205-0.327,1.807l0,0
	c-0.773,2.107-2.776,3.429-4.91,3.429l0,0C212.342,64.743,211.727,64.64,211.138,64.417z"/>
<path fill="#20D298" d="M285.412,49.62L285.412,49.62L285.412,49.62c-0.825-0.995-1.231-2.186-1.218-3.39l0,0
	c0.014-1.479,0.642-2.959,1.872-3.979l0,0c2.224-1.858,5.524-1.558,7.383,0.655l0,0c0.825,0.982,1.216,2.186,1.216,3.39l0,0
	c-0.013,1.479-0.64,2.959-1.871,3.979l0,0c-0.982,0.825-2.174,1.218-3.365,1.218l0,0C287.939,51.493,286.447,50.864,285.412,49.62z"
	/>
<path fill="#20D298" d="M217.398,50.056c-1.231-1.035-1.858-2.513-1.858-3.994l0,0c0-1.205,0.406-2.396,1.231-3.378l0,0
	c1.872-2.213,5.171-2.488,7.384-0.629l0,0c1.231,1.048,1.858,2.513,1.858,4.005l0,0c0,1.192-0.406,2.396-1.244,3.378l0,0
	c-1.035,1.231-2.513,1.858-3.992,1.858l0,0C219.572,51.3,218.38,50.895,217.398,50.056z"/>
<path fill="#20D298" d="M274.904,40.757c-1.675-0.982-2.619-2.749-2.604-4.555l0,0c0.013-0.89,0.236-1.78,0.706-2.606l0,0
	c1.466-2.5,4.661-3.352,7.162-1.898l0,0c1.689,0.982,2.619,2.749,2.606,4.555l0,0c0,0.889-0.237,1.793-0.707,2.604l0,0
	c-0.969,1.677-2.723,2.606-4.53,2.606l0,0C276.645,41.465,275.727,41.242,274.904,40.757z"/>
<path fill="#20D298" d="M228.187,38.696c-0.472-0.812-0.693-1.715-0.693-2.606l0,0c0-1.807,0.942-3.573,2.631-4.543l0,0
	c2.5-1.427,5.709-0.563,7.148,1.937l0,0c0.472,0.825,0.695,1.728,0.695,2.606l0,0c0,1.82-0.956,3.573-2.631,4.543l0,0
	c-0.825,0.472-1.715,0.693-2.604,0.693l0,0C230.91,41.327,229.156,40.385,228.187,38.696z"/>
<path fill="#20D298" d="M262.014,36.022c-2.54-0.446-4.32-2.659-4.32-5.146l0,0c0-0.302,0.026-0.615,0.079-0.929l0,0
	c0.51-2.84,3.233-4.74,6.073-4.228l0,0c2.54,0.445,4.321,2.657,4.321,5.146l0,0c0,0.302-0.027,0.615-0.08,0.929l0,0
	c-0.457,2.526-2.659,4.32-5.157,4.32l0,0C262.628,36.115,262.328,36.089,262.014,36.022z"/>
<path fill="#20D298" d="M242.211,31.708c-0.053-0.287-0.079-0.576-0.079-0.863l0,0c-0.013-2.513,1.794-4.74,4.347-5.184l0,0
	c2.854-0.485,5.563,1.427,6.048,4.281l0,0c0.053,0.287,0.079,0.576,0.079,0.863l0,0c0.013,2.513-1.794,4.74-4.347,5.184l0,0
	c-0.302,0.053-0.602,0.079-0.89,0.079l0,0C244.856,36.069,242.643,34.264,242.211,31.708z"/>
<path fill="#20D298" d="M249.851,104.896c-0.013-2.893,2.33-5.249,5.223-5.249l0,0c2.893-0.013,5.236,2.331,5.249,5.224l0,0
	c0,2.893-2.343,5.236-5.236,5.249l0,0C252.193,110.118,249.851,107.789,249.851,104.896z"/>
<path fill="#20D298" d="M237.521,105.465c-1.675-0.969-2.619-2.737-2.619-4.544l0,0c0-0.889,0.223-1.78,0.695-2.604l0,0
	c1.441-2.514,4.634-3.378,7.148-1.925l0,0c1.689,0.956,2.631,2.723,2.631,4.53l0,0c0,0.89-0.236,1.794-0.707,2.619l0,0
	c-0.968,1.677-2.723,2.619-4.543,2.619l0,0C239.236,106.157,238.347,105.935,237.521,105.465z"/>
<path fill="#20D298" d="M265.481,103.495c-0.472-0.825-0.707-1.727-0.707-2.604l0,0c-0.013-1.821,0.929-3.588,2.606-4.557l0,0
	c2.499-1.454,5.707-0.602,7.161,1.898l0,0c0.472,0.825,0.707,1.714,0.707,2.606l0,0c0.013,1.807-0.929,3.573-2.606,4.555l0,0
	c-0.825,0.472-1.741,0.707-2.631,0.707l0,0C268.204,106.101,266.45,105.159,265.481,103.495z"/>
<path fill="#20D298" d="M224.649,92.66L224.649,92.66L224.649,92.66c-0.485-0.825-0.707-1.728-0.72-2.606l0,0
	c0-1.82,0.929-3.588,2.604-4.57l0,0c2.5-1.452,5.707-0.602,7.161,1.898l0,0c0.483,0.825,0.707,1.715,0.72,2.606l0,0
	c0,1.807-0.929,3.573-2.604,4.555l0,0c-0.838,0.485-1.741,0.707-2.631,0.707l0,0C227.372,95.252,225.617,94.322,224.649,92.66z"/>
<path fill="#20D298" d="M278.309,94.442c-1.677-0.969-2.619-2.736-2.619-4.543l0,0c0-0.889,0.223-1.781,0.695-2.606l0,0
	c1.452-2.5,4.647-3.363,7.161-1.924l0,0c1.677,0.969,2.619,2.736,2.619,4.543l0,0c0,0.89-0.223,1.794-0.707,2.606l0,0
	c-0.969,1.689-2.723,2.631-4.53,2.631l0,0C280.038,95.15,279.134,94.927,278.309,94.442z"/>
<path fill="#20D298" d="M219.9,75.117c-0.013-2.893,2.33-5.249,5.223-5.263l0,0c2.893,0,5.236,2.331,5.25,5.224l0,0
	c0.013,2.894-2.331,5.25-5.224,5.25l0,0c0,0,0,0-0.013,0l0,0C222.256,80.329,219.913,77.998,219.9,75.117z"/>
<path fill="#20D298" d="M279.664,74.979c0-2.893,2.343-5.25,5.224-5.25l0,0c2.893,0,5.249,2.343,5.249,5.236l0,0l0,0l0,0
	c0,2.893-2.343,5.236-5.236,5.236l0,0C282.008,80.203,279.664,77.872,279.664,74.979z"/>
<polygon fill="#20D298" points="220.583,75.114 220.583,75.114 220.583,75.114 220.583,75.114 220.583,75.114 "/>
<polygon fill="#20D298" points="280.347,74.979 280.347,74.979 280.347,74.979 "/>
<path fill="#20D298" d="M226.47,64.688c-1.675-0.969-2.631-2.723-2.631-4.543l0,0c0-0.889,0.223-1.78,0.693-2.604l0,0
	c1.441-2.513,4.648-3.378,7.148-1.937l0,0c1.689,0.968,2.631,2.723,2.631,4.543l0,0c0,0.89-0.223,1.781-0.695,2.606l0,0
	c-0.968,1.689-2.736,2.631-4.543,2.631l0,0C228.185,65.381,227.294,65.158,226.47,64.688z"/>
<path fill="#20D298" d="M276.363,62.661L276.363,62.661c-0.47-0.825-0.707-1.715-0.707-2.606l0,0c0-1.807,0.929-3.573,2.619-4.555
	l0,0c2.5-1.439,5.709-0.589,7.148,1.911l0,0l0,0l0,0c0.485,0.825,0.707,1.715,0.707,2.606l0,0c0.014,1.807-0.929,3.573-2.619,4.543
	l0,0c-0.825,0.483-1.727,0.706-2.619,0.706l0,0C279.087,65.267,277.332,64.338,276.363,62.661z"/>
<path fill="#20D298" d="M235.453,51.814c-0.497-0.851-0.72-1.767-0.72-2.67l0,0c0.013-1.794,0.943-3.535,2.606-4.504l0,0
	c2.487-1.452,5.707-0.615,7.161,1.885l0,0c0.472,0.825,0.707,1.714,0.707,2.604l0,0c0.013,1.82-0.916,3.588-2.591,4.57l0,0
	c-0.838,0.472-1.741,0.707-2.631,0.707l0,0C238.176,54.408,236.422,53.479,235.453,51.814z"/>
<path fill="#20D298" d="M267.336,53.645c-1.677-0.968-2.619-2.736-2.619-4.555l0,0c0-0.878,0.236-1.78,0.707-2.604l0,0
	c1.439-2.5,4.647-3.352,7.148-1.911l0,0c1.689,0.968,2.631,2.736,2.619,4.555l0,0c0,0.878-0.223,1.78-0.707,2.591l0,0
	c-0.969,1.689-2.723,2.631-4.53,2.631l0,0C269.063,54.35,268.161,54.114,267.336,53.645z"/>
<path fill="#20D298" d="M249.647,45.146c-0.013-2.893,2.317-5.25,5.21-5.263l0,0c0.04,0,0.066,0,0.104,0l0,0c0.013,0,0.04,0,0.066,0
	l0,0c2.893,0,5.236,2.343,5.236,5.236l0,0c0,2.88-2.331,5.223-5.21,5.236l0,0c-0.013,0-0.013,0-0.026,0l0,0
	c-0.026,0-0.053,0-0.079,0l0,0c-0.013,0-0.026,0-0.053,0h0.013c-0.013,0-0.013,0-0.026,0l0,0
	C252.004,50.355,249.661,48.024,249.647,45.146z"/>
<path fill="#20D298" d="M257.932,90.574c-0.472-0.825-0.695-1.728-0.695-2.606l0,0c0-1.82,0.942-3.588,2.619-4.555l0,0
	c2.5-1.441,5.709-0.576,7.148,1.924l0,0c0.485,0.825,0.707,1.728,0.707,2.606l0,0c0,1.82-0.942,3.573-2.619,4.555h-0.013
	c-0.825,0.472-1.715,0.695-2.606,0.695l0,0C260.668,93.192,258.9,92.25,257.932,90.574z"/>
<path fill="#20D298" d="M244.908,92.474c-1.677-0.982-2.619-2.75-2.606-4.557l0,0c0-0.889,0.223-1.78,0.707-2.606l0,0
	c1.441-2.499,4.648-3.351,7.148-1.911l0,0l0,0l0,0c1.689,0.982,2.619,2.737,2.619,4.557l0,0c0,0.889-0.236,1.781-0.707,2.606l0,0
	c-0.968,1.675-2.736,2.619-4.543,2.619l0,0C246.637,93.181,245.733,92.945,244.908,92.474z"/>
<path fill="#20D298" d="M269.954,80.272c-2.893-0.014-5.236-2.357-5.236-5.25l0,0c0.013-2.893,2.356-5.236,5.249-5.224l0,0
	c2.893,0,5.236,2.356,5.224,5.25l0,0C275.191,77.929,272.847,80.272,269.954,80.272L269.954,80.272L269.954,80.272z"/>
<path fill="#20D298" d="M234.847,75.005c0,0,0-0.013,0-0.026l0,0c0-0.026,0-0.04,0-0.066l0,0c0-2.893,2.356-5.223,5.249-5.21l0,0
	c2.893,0,5.224,2.357,5.224,5.25l0,0c0,0.013,0,0.013,0,0.026l0,0c0,0.013,0,0.013,0,0.026l0,0c0,2.893-2.357,5.236-5.25,5.236l0,0
	C237.191,80.241,234.847,77.898,234.847,75.005z"/>
<path fill="#20D298" d="M249.647,75.005c0,0,0-0.013,0-0.026l0,0c0-0.026,0-0.04,0-0.066l0,0c0-2.893,2.356-5.223,5.249-5.21l0,0
	c2.893,0,5.224,2.357,5.224,5.25l0,0c0,0.013,0,0.013,0,0.026l0,0c0,0.013,0,0.013,0,0.026l0,0c0,2.893-2.357,5.236-5.25,5.236l0,0
	C251.99,80.241,249.647,77.898,249.647,75.005z"/>
<path fill="#20D298" d="M274.508,75.048c0-0.013,0-0.013,0-0.013V75.048L274.508,75.048z"/>
<path fill="#20D298" d="M259.901,66.611c-1.689-0.982-2.619-2.749-2.606-4.57l0,0c0-0.878,0.223-1.78,0.707-2.591l0,0
	c1.454-2.5,4.661-3.352,7.161-1.898l0,0c1.677,0.982,2.606,2.749,2.606,4.555l0,0c-0.013,0.889-0.236,1.78-0.72,2.604l0,0
	c-0.969,1.677-2.723,2.606-4.53,2.606l0,0C261.629,67.317,260.725,67.081,259.901,66.611z"/>
<path fill="#20D298" d="M243.054,64.639c-0.485-0.825-0.707-1.728-0.707-2.619l0,0c0.013-1.807,0.956-3.573,2.631-4.53l0,0
	c2.513-1.439,5.72-0.576,7.161,1.937l0,0c0.472,0.812,0.695,1.715,0.695,2.606l0,0c-0.013,1.807-0.956,3.573-2.644,4.543l0,0
	c-0.812,0.472-1.715,0.695-2.591,0.695l0,0C245.777,67.271,244.01,66.315,243.054,64.639z"/>
<g>
	<path fill="#25E8A2" d="M251.563,134.165c-0.01-2.314,1.864-4.199,4.178-4.199l0,0c2.314-0.01,4.189,1.865,4.199,4.179l0,0
		c0,2.314-1.874,4.189-4.189,4.199l0,0C253.438,138.346,251.563,136.48,251.563,134.165z"/>
	<path fill="#25E8A2" d="M239.214,136.217L239.214,136.217L239.214,136.217c-1.874-0.493-3.11-2.168-3.121-4.022l0,0
		c0-0.357,0.042-0.723,0.136-1.1l0,0c0.597-2.231,2.891-3.571,5.122-2.974l0,0c1.874,0.492,3.11,2.178,3.121,4.022l0,0
		c0,0.367-0.042,0.733-0.136,1.1l0,0c-0.503,1.873-2.199,3.121-4.053,3.121l0,0C239.925,136.363,239.57,136.311,239.214,136.217z"/>
	<path fill="#25E8A2" d="M267.157,133.197c-0.094-0.367-0.136-0.733-0.136-1.1l0,0c0-1.843,1.225-3.53,3.1-4.032l0,0
		c2.232-0.607,4.535,0.723,5.132,2.954l0,0c0.094,0.366,0.146,0.732,0.146,1.099l0,0c0,1.843-1.235,3.53-3.1,4.032l0,0
		c-0.366,0.105-0.732,0.147-1.09,0.147l0,0C269.357,136.296,267.671,135.059,267.157,133.197z"/>
	<path fill="#25E8A2" d="M223.764,129.867c-1.34-0.775-2.095-2.189-2.095-3.634l0,0c0-0.712,0.178-1.425,0.556-2.085l0,0
		c1.153-2.01,3.718-2.702,5.719-1.539l0,0c1.352,0.764,2.105,2.178,2.105,3.634l0,0c0,0.702-0.178,1.425-0.555,2.085l0,0
		c-0.775,1.34-2.189,2.095-3.644,2.095l0,0C225.147,130.421,224.424,130.245,223.764,129.867z"/>
	<path fill="#25E8A2" d="M281.987,128.223c-0.388-0.661-0.566-1.382-0.576-2.085l0,0c0-1.457,0.743-2.87,2.095-3.645l0,0
		c2-1.162,4.566-0.481,5.719,1.519l0,0c0.388,0.66,0.566,1.372,0.576,2.085l0,0c0,1.445-0.743,2.859-2.095,3.644l0,0
		c-0.66,0.377-1.382,0.566-2.095,0.566l0,0C284.166,130.307,282.762,129.553,281.987,128.223z"/>
	<path fill="#25E8A2" d="M210.509,119.736L210.509,119.736L210.509,119.736c-0.816-0.816-1.235-1.885-1.235-2.964l0,0
		c0-1.068,0.408-2.136,1.225-2.964l0,0c1.623-1.633,4.284-1.643,5.918-0.01l0,0c0.818,0.818,1.236,1.885,1.236,2.954l0,0
		c0,1.079-0.398,2.146-1.215,2.974l0,0c-0.828,0.818-1.896,1.225-2.974,1.225l0,0C212.394,120.951,211.326,120.553,210.509,119.736z
		"/>
	<path fill="#25E8A2" d="M294.998,119.567c-0.816-0.818-1.225-1.896-1.225-2.964l0,0c-0.01-1.069,0.398-2.146,1.215-2.964l0,0
		c1.634-1.634,4.295-1.644,5.928-0.01l0,0c0.818,0.816,1.225,1.895,1.235,2.963l0,0c0,1.069-0.408,2.147-1.225,2.964l0,0
		c-0.816,0.818-1.895,1.236-2.964,1.236l0,0C296.884,120.792,295.815,120.383,294.998,119.567z"/>
	<path fill="#25E8A2" d="M200.31,106.527L200.31,106.527L200.31,106.527c-0.377-0.66-0.566-1.371-0.566-2.085l0,0
		c-0.01-1.445,0.733-2.859,2.084-3.644l0,0c2-1.163,4.567-0.481,5.729,1.519l0,0c0.377,0.66,0.566,1.371,0.566,2.084l0,0
		c0.01,1.446-0.743,2.86-2.085,3.645l0,0c-0.66,0.388-1.382,0.566-2.105,0.566l0,0C202.488,108.611,201.085,107.868,200.31,106.527z
		"/>
	<path fill="#25E8A2" d="M305.35,107.84c-1.352-0.775-2.105-2.178-2.095-3.635l0,0c0-0.711,0.178-1.424,0.556-2.084l0,0
		c1.152-2,3.718-2.692,5.719-1.54l0,0c1.352,0.775,2.105,2.189,2.105,3.635l0,0c0,0.711-0.189,1.434-0.566,2.083l0,0
		c-0.774,1.352-2.178,2.106-3.634,2.106l0,0C306.723,108.407,306.01,108.229,305.35,107.84z"/>
	<path fill="#25E8A2" d="M193.881,91.123c-0.094-0.367-0.146-0.733-0.146-1.1l0,0c0-1.843,1.235-3.53,3.1-4.032l0,0
		c2.231-0.607,4.534,0.711,5.132,2.954v-0.011c0.105,0.367,0.146,0.743,0.146,1.1l0,0c0,1.854-1.226,3.54-3.1,4.042l0,0
		c-0.356,0.094-0.723,0.147-1.089,0.147l0,0C196.08,94.223,194.383,92.986,193.881,91.123z"/>
	<path fill="#25E8A2" d="M312.319,93.848c-1.874-0.502-3.11-2.189-3.121-4.032l0,0c0-0.356,0.042-0.733,0.146-1.099l0,0
		c0.586-2.231,2.88-3.561,5.121-2.964l0,0c1.865,0.492,3.1,2.178,3.111,4.022l0,0c0,0.366-0.042,0.733-0.137,1.099l0,0
		c-0.502,1.874-2.199,3.111-4.053,3.111l0,0C313.03,93.985,312.675,93.942,312.319,93.848z"/>
	<path fill="#25E8A2" d="M191.674,74.586c-0.01-2.314,1.864-4.189,4.178-4.2l0,0c2.314-0.01,4.189,1.865,4.2,4.179l0,0
		c0.01,2.314-1.865,4.189-4.179,4.2l0,0h-0.01l0,0C193.559,78.764,191.684,76.9,191.674,74.586z"/>
	<path fill="#25E8A2" d="M311.202,74.335c0-2.314,1.865-4.189,4.189-4.189l0,0c2.304-0.01,4.189,1.865,4.189,4.179l0,0
		c0,2.314-1.874,4.189-4.189,4.2l0,0C313.076,78.525,311.202,76.65,311.202,74.335z"/>
	<path fill="#25E8A2" d="M196.764,63.156c-1.886-0.503-3.132-2.21-3.121-4.074l0,0c0-0.345,0.042-0.692,0.136-1.047l0,0
		c0.587-2.231,2.88-3.571,5.122-2.985l0,0c1.885,0.503,3.131,2.21,3.121,4.074l0,0c0,0.345-0.042,0.702-0.136,1.047l0,0
		c-0.503,1.874-2.199,3.121-4.053,3.121l0,0C197.487,63.292,197.12,63.25,196.764,63.156z"/>
	<path fill="#25E8A2" d="M309.31,59.954c-0.094-0.367-0.146-0.733-0.146-1.1l0,0c0.01-1.843,1.245-3.529,3.11-4.032l0,0
		c2.231-0.597,4.535,0.733,5.132,2.964l0,0c0.094,0.367,0.146,0.733,0.146,1.1l0,0c-0.01,1.843-1.245,3.53-3.11,4.032l0,0
		c-0.367,0.094-0.733,0.136-1.09,0.136l0,0C311.51,63.055,309.814,61.828,309.31,59.954z"/>
	<path fill="#25E8A2" d="M201.668,48.302c-1.352-0.775-2.105-2.178-2.105-3.634l0,0c0-0.702,0.178-1.424,0.556-2.084l0,0
		c1.153-2,3.707-2.702,5.719-1.549l0,0c1.352,0.774,2.105,2.189,2.105,3.634l0,0c0,0.712-0.178,1.435-0.555,2.085l0,0
		c-0.775,1.352-2.189,2.105-3.634,2.105l0,0C203.04,48.859,202.328,48.681,201.668,48.302z"/>
	<path fill="#25E8A2" d="M303.755,46.558L303.755,46.558c-0.377-0.649-0.556-1.372-0.556-2.073l0,0
		c-0.01-1.456,0.743-2.87,2.085-3.644l0,0c2-1.163,4.566-0.481,5.729,1.529l0,0c0.377,0.648,0.556,1.372,0.566,2.073l0,0
		c0,1.456-0.754,2.869-2.095,3.644l0,0c-0.66,0.388-1.382,0.566-2.095,0.566l0,0C305.943,48.653,304.53,47.91,303.755,46.558z"/>
	<path fill="#25E8A2" d="M210.259,35.248c-0.818-0.816-1.236-1.885-1.236-2.964l0,0c-0.01-1.068,0.398-2.146,1.215-2.964l0,0
		c1.634-1.644,4.284-1.655,5.928-0.021l0,0c0.816,0.818,1.225,1.886,1.235,2.954l0,0c0,1.078-0.408,2.146-1.215,2.974l0,0
		c-0.827,0.828-1.895,1.236-2.974,1.236l0,0C212.143,36.462,211.075,36.054,210.259,35.248z"/>
	<path fill="#25E8A2" d="M294.918,35.066c-0.818-0.816-1.236-1.885-1.236-2.964l0,0c0-1.068,0.409-2.146,1.226-2.964l0,0
		c1.643-1.634,4.294-1.634,5.927,0l0,0c0.818,0.816,1.225,1.895,1.225,2.964l0,0c0,1.068-0.408,2.147-1.225,2.964l0,0
		c-0.816,0.818-1.885,1.225-2.964,1.225l0,0C296.803,36.291,295.734,35.883,294.918,35.066z"/>
	<path fill="#25E8A2" d="M221.926,24.837c-0.387-0.66-0.566-1.372-0.576-2.085l0,0c-0.01-1.445,0.733-2.859,2.085-3.644l0,0
		c2-1.162,4.556-0.492,5.729,1.508l0,0c0.377,0.66,0.566,1.372,0.566,2.085l0,0c0.01,1.445-0.733,2.859-2.073,3.644l0,0
		c-0.67,0.388-1.393,0.576-2.105,0.576l0,0C224.105,26.923,222.701,26.168,221.926,24.837z"/>
	<path fill="#25E8A2" d="M283.403,26.232L283.403,26.232c-1.341-0.774-2.095-2.189-2.095-3.634l0,0c0-0.712,0.189-1.425,0.566-2.085
		l0,0c1.152-2,3.718-2.692,5.729-1.539l0,0c0,0,0,0-0.01,0.01l0,0c1.352,0.775,2.105,2.189,2.095,3.634l0,0
		c0,0.711-0.179,1.424-0.556,2.084l0,0c-0.775,1.341-2.189,2.095-3.634,2.095l0,0C284.785,26.796,284.063,26.619,283.403,26.232z"/>
	<path fill="#25E8A2" d="M235.886,17.801c-0.104-0.366-0.146-0.733-0.146-1.099l0,0c0-1.843,1.225-3.53,3.09-4.032l0,0
		c0,0,0,0,0-0.01l0,0c2.241-0.597,4.535,0.723,5.142,2.954l0,0c0.093,0.366,0.146,0.732,0.146,1.098l0,0
		c0,1.843-1.225,3.53-3.09,4.043l0,0c-0.367,0.094-0.743,0.146-1.099,0.146l0,0C238.086,20.9,236.389,19.663,235.886,17.801z"/>
	<path fill="#25E8A2" d="M270.007,20.695c-1.865-0.503-3.1-2.189-3.11-4.032l0,0c0-0.367,0.042-0.733,0.146-1.1l0,0
		c0.597-2.231,2.891-3.561,5.121-2.964l0,0c1.874,0.493,3.111,2.178,3.111,4.022l0,0c0,0.366-0.042,0.733-0.136,1.099l0,0
		c-0.503,1.874-2.2,3.11-4.043,3.11l0,0C270.73,20.833,270.373,20.791,270.007,20.695z"/>
	<path fill="#25E8A2" d="M251.208,14.649c-0.01-2.314,1.854-4.2,4.168-4.21l0,0c0.042,0,0.084,0,0.126,0l0,0
		c0.042,0,0.084,0,0.115,0l0,0c2.314,0,4.189,1.874,4.189,4.189l0,0c0,2.314-1.874,4.189-4.189,4.189l0,0c-0.042,0-0.073,0-0.115,0
		l0,0c-0.031,0-0.063,0-0.094,0l0,0h-0.01l0,0C253.082,18.818,251.208,16.954,251.208,14.649z"/>
	<path fill="#25E8A2" d="M259.241,119.272c-0.042-0.251-0.063-0.502-0.063-0.743l0,0c0.01-1.99,1.445-3.749,3.466-4.105l0,0
		c2.284-0.398,4.451,1.131,4.849,3.414l0,0c0.042,0.252,0.063,0.493,0.063,0.733l0,0c-0.01,2-1.445,3.76-3.477,4.105l0,0
		c-0.24,0.042-0.481,0.064-0.722,0.064l0,0C261.357,122.739,259.586,121.303,259.241,119.272z"/>
	<path fill="#25E8A2" d="M247.084,122.664c-2.032-0.356-3.467-2.115-3.467-4.115l0,0c0-0.241,0.021-0.493,0.063-0.733l0,0
		c0.398-2.282,2.576-3.802,4.848-3.404l0,0c2.032,0.356,3.456,2.115,3.467,4.105l0,0c0,0.252-0.021,0.492-0.063,0.743l0,0
		c-0.356,2.032-2.126,3.467-4.126,3.467l0,0C247.565,122.727,247.325,122.706,247.084,122.664z"/>
	<path fill="#25E8A2" d="M274.371,115.339c-0.388-0.649-0.566-1.372-0.566-2.085l0,0c0-1.445,0.755-2.859,2.095-3.634l0,0
		c2.01-1.163,4.567-0.461,5.73,1.539l0,0c0.376,0.66,0.555,1.372,0.555,2.085l0,0c0,1.445-0.754,2.859-2.095,3.634l0,0
		c-0.66,0.377-1.381,0.566-2.095,0.566l0,0C276.55,117.445,275.146,116.691,274.371,115.339z"/>
	<path fill="#25E8A2" d="M231.085,116.834c-1.34-0.775-2.095-2.189-2.084-3.644l0,0c0-0.702,0.178-1.425,0.555-2.074l0,0
		c1.162-2.01,3.729-2.691,5.729-1.529l0,0c1.34,0.775,2.095,2.189,2.095,3.634l0,0c-0.01,0.712-0.189,1.435-0.566,2.085l0,0
		c-0.775,1.352-2.19,2.095-3.634,2.095l0,0C232.467,117.399,231.744,117.222,231.085,116.834z"/>
	<path fill="#25E8A2" d="M287.234,106.465c-0.984-0.828-1.487-2.01-1.497-3.194l0,0c0-0.964,0.324-1.916,0.984-2.712l0,0
		c1.498-1.77,4.137-1.991,5.907-0.503l0,0c0.984,0.828,1.487,2.01,1.487,3.194l0,0c0.01,0.964-0.314,1.916-0.985,2.712l0,0
		c-0.828,0.974-2.01,1.487-3.204,1.487l0,0C288.973,107.449,288.019,107.126,287.234,106.465z"/>
	<path fill="#25E8A2" d="M218.066,105.895c-0.67-0.796-0.985-1.759-0.985-2.712l0,0c0.01-1.184,0.513-2.367,1.498-3.194l0,0
		c1.77-1.488,4.409-1.257,5.896,0.512l0,0c0.67,0.797,0.985,1.76,0.985,2.712l0,0c0,1.185-0.513,2.368-1.498,3.195l0,0
		c-0.786,0.66-1.738,0.973-2.692,0.973l0,0C220.078,107.382,218.894,106.879,218.066,105.895z"/>
	<path fill="#25E8A2" d="M296.29,93.743c-1.696-0.628-2.743-2.231-2.743-3.937l0,0c0-0.481,0.082-0.964,0.251-1.445l0,0
		c0,0,0,0,0,0.01l0,0c0.797-2.178,3.205-3.299,5.372-2.503l0,0c1.697,0.618,2.756,2.22,2.756,3.937l0,0
		c0,0.471-0.084,0.964-0.252,1.435l0,0c-0.629,1.697-2.231,2.755-3.937,2.755l0,0C297.253,93.993,296.771,93.911,296.29,93.743z"/>
	<path fill="#25E8A2" d="M209.547,91.15c-0.167-0.471-0.252-0.964-0.252-1.435l0,0c0.01-1.707,1.068-3.309,2.765-3.928l0,0
		c2.168-0.796,4.576,0.324,5.362,2.503l0,0l0,0l0,0c0.178,0.481,0.262,0.964,0.262,1.445l0,0c-0.01,1.707-1.068,3.309-2.765,3.928
		l0,0c-0.471,0.168-0.953,0.252-1.434,0.252l0,0C211.778,93.915,210.165,92.857,209.547,91.15z"/>
	<path fill="#25E8A2" d="M300.433,78.673c-2.303,0-4.178-1.885-4.178-4.2l0,0c0.01-2.314,1.885-4.179,4.199-4.179l0,0
		c2.314,0,4.189,1.886,4.179,4.2l0,0c0,2.304-1.874,4.179-4.189,4.179l0,0C300.444,78.673,300.444,78.673,300.433,78.673z"/>
	<path fill="#25E8A2" d="M206.609,74.385h0.01c0-0.01,0-0.021,0-0.021l0,0c0-0.053-0.01-0.105-0.01-0.158v-0.01
		c0.01-2.314,1.896-4.179,4.21-4.168l0,0c2.314,0.01,4.179,1.896,4.179,4.21l0,0c0,0.031,0,0.073-0.01,0.115l0,0
		c0,0.01,0,0.021,0,0.032l0,0c0,0,0,0,0.01,0l0,0c0,2.314-1.886,4.189-4.189,4.189l0,0C208.495,78.574,206.609,76.7,206.609,74.385z
		"/>
	<path fill="#25E8A2" d="M293.855,60.574c-0.168-0.481-0.252-0.964-0.252-1.445l0,0c0.01-1.707,1.068-3.309,2.765-3.918l0,0
		c2.178-0.786,4.576,0.335,5.372,2.513l0,0c0.168,0.471,0.252,0.964,0.241,1.445l0,0c0,1.707-1.069,3.299-2.766,3.916l0,0
		c-0.47,0.168-0.953,0.252-1.424,0.252l0,0C296.085,63.339,294.472,62.28,293.855,60.574z"/>
	<path fill="#25E8A2" d="M212.108,62.826c-1.696-0.628-2.755-2.231-2.743-3.937l0,0c0-0.481,0.084-0.964,0.252-1.435v-0.01
		c0.806-2.168,3.205-3.278,5.384-2.482l0,0c1.697,0.629,2.744,2.231,2.744,3.937l0,0c0,0.481-0.084,0.964-0.262,1.445l0,0
		c-0.619,1.686-2.221,2.743-3.928,2.743l0,0C213.072,63.088,212.579,63.003,212.108,62.826z"/>
	<path fill="#25E8A2" d="M286.824,48.34L286.824,48.34L286.824,48.34c-0.66-0.796-0.985-1.748-0.974-2.712l0,0
		c0.011-1.184,0.513-2.367,1.498-3.184l0,0c1.779-1.487,4.42-1.246,5.906,0.524l0,0c0.66,0.786,0.973,1.748,0.973,2.712l0,0
		c-0.01,1.184-0.512,2.367-1.497,3.184l0,0c-0.786,0.66-1.739,0.974-2.692,0.974l0,0C288.846,49.839,287.652,49.335,286.824,48.34z"
		/>
	<path fill="#25E8A2" d="M218.683,48.649c-0.985-0.828-1.487-2.01-1.487-3.195l0,0c0-0.964,0.325-1.916,0.985-2.702l0,0
		c1.498-1.77,4.137-1.991,5.907-0.503l0,0c0.985,0.838,1.487,2.01,1.487,3.204l0,0c0,0.954-0.325,1.916-0.995,2.702l0,0
		c-0.828,0.985-2.01,1.487-3.194,1.487l0,0C220.422,49.644,219.468,49.319,218.683,48.649z"/>
	<path fill="#25E8A2" d="M276.039,39.243c-1.34-0.786-2.095-2.199-2.083-3.644l0,0c0.01-0.712,0.189-1.424,0.565-2.085l0,0
		c1.173-2,3.729-2.681,5.73-1.519l0,0c1.352,0.786,2.095,2.199,2.085,3.644l0,0c0,0.711-0.19,1.434-0.566,2.084l0,0
		c-0.775,1.341-2.178,2.085-3.624,2.085l0,0C277.432,39.809,276.698,39.631,276.039,39.243z"/>
	<path fill="#25E8A2" d="M229.704,37.568c-0.377-0.649-0.555-1.372-0.555-2.085l0,0c0-1.445,0.754-2.859,2.105-3.634l0,0
		c2-1.141,4.567-0.451,5.719,1.549l0,0c0.377,0.66,0.556,1.382,0.556,2.085l0,0c0,1.456-0.765,2.859-2.105,3.634l0,0
		c-0.66,0.377-1.372,0.555-2.084,0.555l0,0C231.882,39.673,230.479,38.917,229.704,37.568z"/>
	<path fill="#25E8A2" d="M262.805,34.385c-2.032-0.357-3.456-2.127-3.456-4.116l0,0c0-0.241,0.021-0.492,0.063-0.743l0,0
		c0.408-2.272,2.587-3.792,4.859-3.382l0,0c2.032,0.356,3.457,2.126,3.457,4.116l0,0c0,0.241-0.022,0.492-0.064,0.743l0,0
		c-0.366,2.021-2.127,3.456-4.126,3.456l0,0C263.297,34.458,263.057,34.438,262.805,34.385z"/>
	<path fill="#25E8A2" d="M243.851,30.924c-0.042-0.23-0.063-0.461-0.063-0.691l0,0c-0.01-2.01,1.435-3.792,3.477-4.147l0,0
		c2.284-0.388,4.451,1.141,4.838,3.425l0,0c0.042,0.23,0.063,0.461,0.063,0.691l0,0c0.01,2.01-1.435,3.792-3.477,4.147l0,0
		c-0.241,0.042-0.481,0.063-0.712,0.063l0,0C245.967,34.411,244.197,32.967,243.851,30.924z"/>
	<path fill="#25E8A2" d="M251.507,104.285c-0.01-2.314,1.864-4.199,4.178-4.199l0,0c2.314-0.01,4.189,1.865,4.199,4.179l0,0
		c0,2.314-1.874,4.189-4.189,4.199l0,0C253.38,108.464,251.507,106.6,251.507,104.285z"/>
	<path fill="#25E8A2" d="M238.653,103.948c-1.34-0.775-2.095-2.19-2.095-3.635l0,0c0-0.711,0.178-1.424,0.556-2.084l0,0
		c1.153-2.011,3.707-2.702,5.719-1.54l0,0c1.352,0.765,2.105,2.178,2.105,3.624l0,0c0,0.712-0.189,1.435-0.566,2.095l0,0
		c-0.774,1.341-2.178,2.095-3.634,2.095l0,0C240.025,104.501,239.314,104.324,238.653,103.948z"/>
	<path fill="#25E8A2" d="M266.995,102.36c-0.377-0.66-0.566-1.381-0.566-2.084l0,0c-0.01-1.457,0.743-2.87,2.085-3.645l0,0
		c1.999-1.163,4.566-0.481,5.729,1.519l0,0c0.377,0.66,0.566,1.371,0.566,2.085l0,0c0.01,1.445-0.743,2.859-2.085,3.644l0,0
		c-0.66,0.377-1.393,0.566-2.105,0.566l0,0C269.174,104.445,267.771,103.691,266.995,102.36z"/>
	<path fill="#25E8A2" d="M226.162,91.522L226.162,91.522L226.162,91.522c-0.388-0.66-0.566-1.382-0.576-2.085l0,0
		c0-1.456,0.743-2.87,2.084-3.656l0,0c2-1.162,4.566-0.481,5.729,1.519l0,0c0.387,0.66,0.566,1.372,0.576,2.085l0,0
		c0,1.445-0.743,2.859-2.084,3.644l0,0c-0.67,0.388-1.393,0.566-2.105,0.566l0,0C228.341,93.596,226.937,92.852,226.162,91.522z"/>
	<path fill="#25E8A2" d="M279.441,92.928c-1.341-0.775-2.095-2.189-2.095-3.634l0,0c0-0.711,0.178-1.425,0.556-2.085l0,0
		c1.162-2,3.718-2.691,5.729-1.539l0,0c1.341,0.775,2.095,2.189,2.095,3.634l0,0c0,0.712-0.178,1.435-0.566,2.085l0,0
		c-0.775,1.352-2.178,2.105-3.624,2.105l0,0C280.824,93.493,280.101,93.315,279.441,92.928z"/>
	<path fill="#25E8A2" d="M221.556,74.504c-0.01-2.314,1.864-4.199,4.178-4.21l0,0c2.314,0,4.189,1.865,4.2,4.179l0,0
		c0.01,2.315-1.865,4.2-4.179,4.2l0,0c0,0,0,0-0.01,0l0,0C223.441,78.673,221.566,76.808,221.556,74.504z"/>
	<path fill="#25E8A2" d="M281.32,74.368c0-2.314,1.874-4.2,4.179-4.2l0,0c2.314,0,4.199,1.874,4.199,4.189l0,0l0,0l0,0
		c0,2.314-1.874,4.189-4.189,4.189l0,0C283.195,78.547,281.32,76.683,281.32,74.368z"/>
	<polygon fill="#25E8A2" points="221.192,74.506 221.192,74.506 221.192,74.506 221.192,74.506 221.192,74.506 	"/>
	<polygon fill="#25E8A2" points="280.955,74.37 280.955,74.37 280.955,74.37 	"/>
	<path fill="#25E8A2" d="M227.599,63.17c-1.34-0.775-2.105-2.178-2.105-3.634l0,0c0-0.711,0.178-1.424,0.555-2.084l0,0
		c1.153-2.01,3.719-2.702,5.719-1.549l0,0c1.352,0.774,2.105,2.178,2.105,3.634l0,0c0,0.712-0.178,1.425-0.556,2.085l0,0
		c-0.774,1.352-2.189,2.105-3.634,2.105l0,0C228.971,63.725,228.259,63.547,227.599,63.17z"/>
	<path fill="#25E8A2" d="M277.877,61.528L277.877,61.528c-0.376-0.66-0.566-1.372-0.566-2.085l0,0c0-1.445,0.743-2.859,2.095-3.644
		l0,0c2-1.152,4.567-0.471,5.719,1.529l0,0l0,0l0,0c0.388,0.66,0.566,1.372,0.566,2.085l0,0c0.011,1.445-0.743,2.859-2.095,3.634
		l0,0c-0.66,0.387-1.381,0.565-2.095,0.565l0,0C280.057,63.611,278.653,62.868,277.877,61.528z"/>
	<path fill="#25E8A2" d="M236.964,50.677c-0.398-0.68-0.576-1.413-0.576-2.136l0,0c0.01-1.435,0.755-2.828,2.085-3.603l0,0
		c1.99-1.162,4.566-0.492,5.729,1.508l0,0c0.377,0.66,0.566,1.371,0.566,2.084l0,0c0.01,1.456-0.733,2.87-2.073,3.656l0,0
		c-0.67,0.377-1.393,0.566-2.105,0.566l0,0C239.143,52.751,237.74,52.007,236.964,50.677z"/>
	<path fill="#25E8A2" d="M268.468,52.13c-1.341-0.774-2.095-2.189-2.095-3.644l0,0c0-0.702,0.189-1.424,0.566-2.084l0,0
		c1.152-2,3.718-2.681,5.719-1.529l0,0c1.352,0.774,2.105,2.189,2.095,3.644l0,0c0,0.702-0.178,1.424-0.566,2.073l0,0
		c-0.775,1.352-2.178,2.105-3.624,2.105l0,0C269.85,52.694,269.128,52.506,268.468,52.13z"/>
	<path fill="#25E8A2" d="M251.317,44.531c-0.01-2.314,1.854-4.2,4.168-4.21l0,0c0.032,0,0.053,0,0.084,0l0,0c0.01,0,0.032,0,0.053,0
		l0,0c2.314,0,4.189,1.874,4.189,4.189l0,0c0,2.304-1.865,4.178-4.168,4.189l0,0c-0.01,0-0.01,0-0.021,0l0,0
		c-0.021,0-0.042,0-0.063,0l0,0c-0.01,0-0.021,0-0.042,0h0.01c-0.01,0-0.01,0-0.021,0l0,0
		C253.202,48.7,251.328,46.834,251.317,44.531z"/>
	<path fill="#25E8A2" d="M259.449,89.441c-0.377-0.66-0.556-1.382-0.556-2.085l0,0c0-1.456,0.754-2.87,2.095-3.644l0,0
		c2-1.153,4.567-0.461,5.719,1.539l0,0c0.388,0.66,0.566,1.382,0.566,2.085l0,0c0,1.456-0.754,2.859-2.095,3.644h-0.01
		c-0.66,0.377-1.372,0.556-2.085,0.556l0,0C261.638,91.536,260.224,90.782,259.449,89.441z"/>
	<path fill="#25E8A2" d="M246.043,90.959c-1.341-0.786-2.095-2.2-2.085-3.645l0,0c0-0.711,0.178-1.424,0.566-2.085l0,0
		c1.153-1.999,3.719-2.68,5.719-1.529l0,0l0,0l0,0c1.352,0.786,2.095,2.19,2.095,3.645l0,0c0,0.711-0.189,1.425-0.566,2.085l0,0
		c-0.774,1.34-2.189,2.095-3.634,2.095l0,0C247.426,91.525,246.703,91.336,246.043,90.959z"/>
	<path fill="#25E8A2" d="M270.562,78.616c-2.314-0.011-4.189-1.886-4.189-4.2l0,0c0.01-2.314,1.885-4.189,4.199-4.179l0,0
		c2.314,0,4.189,1.885,4.179,4.2l0,0C274.752,76.742,272.877,78.616,270.562,78.616L270.562,78.616L270.562,78.616z"/>
	<path fill="#25E8A2" d="M236.502,74.39c0,0,0-0.01,0-0.021l0,0c0-0.021,0-0.032,0-0.053l0,0c0-2.314,1.885-4.178,4.199-4.168l0,0
		c2.314,0,4.179,1.886,4.179,4.2l0,0c0,0.01,0,0.01,0,0.021l0,0c0,0.01,0,0.01,0,0.021l0,0c0,2.314-1.886,4.189-4.2,4.189l0,0
		C238.378,78.579,236.502,76.705,236.502,74.39z"/>
	<path fill="#25E8A2" d="M251.303,74.39c0,0,0-0.01,0-0.021l0,0c0-0.021,0-0.032,0-0.053l0,0c0-2.314,1.885-4.178,4.199-4.168l0,0
		c2.314,0,4.179,1.886,4.179,4.2l0,0c0,0.01,0,0.01,0,0.021l0,0c0,0.01,0,0.01,0,0.021l0,0c0,2.314-1.886,4.189-4.2,4.189l0,0
		C253.177,78.579,251.303,76.705,251.303,74.39z"/>
	<path fill="#25E8A2" d="M275.116,74.438c0-0.01,0-0.01,0-0.01V74.438L275.116,74.438z"/>
	<path fill="#25E8A2" d="M261.035,65.096c-1.352-0.786-2.095-2.199-2.085-3.656l0,0c0-0.702,0.178-1.424,0.566-2.073l0,0
		c1.163-2,3.729-2.681,5.729-1.519l0,0c1.341,0.786,2.085,2.199,2.085,3.644l0,0c-0.01,0.711-0.189,1.424-0.576,2.084l0,0
		c-0.775,1.341-2.178,2.085-3.624,2.085l0,0C262.418,65.66,261.695,65.472,261.035,65.096z"/>
	<path fill="#25E8A2" d="M244.57,63.509c-0.388-0.66-0.566-1.382-0.566-2.095l0,0c0.01-1.445,0.765-2.859,2.105-3.624l0,0
		c2.01-1.152,4.576-0.461,5.729,1.549l0,0c0.377,0.649,0.556,1.372,0.556,2.085l0,0c-0.01,1.445-0.765,2.859-2.115,3.634l0,0
		c-0.649,0.377-1.372,0.556-2.073,0.556l0,0C246.748,65.616,245.335,64.851,244.57,63.509z"/>
</g>
<g opacity="0.6">
	<circle fill="#FFFFFF" cx="241.351" cy="15.945" r="2.031"/>
	<circle fill="#FFFFFF" cx="257.238" cy="13.915" r="2.031"/>
	<circle fill="#FFFFFF" cx="272.948" cy="17.253" r="2.031"/>
	<circle fill="#FFFFFF" cx="286.921" cy="22.557" r="2.031"/>
	<circle fill="#FFFFFF" cx="299.158" cy="31.663" r="2.031"/>
	<circle fill="#FFFFFF" cx="308.811" cy="45.072" r="2.031"/>
	<circle fill="#FFFFFF" cx="291.891" cy="45.904" r="2.031"/>
	<circle fill="#FFFFFF" cx="279.653" cy="34.911" r="2.031"/>
	<circle fill="#FFFFFF" cx="264.774" cy="29.632" r="2.031"/>
	<circle fill="#FFFFFF" cx="248.665" cy="29.632" r="2.031"/>
	<circle fill="#FFFFFF" cx="255.663" cy="43.247" r="2.031"/>
	<circle fill="#FFFFFF" cx="270.917" cy="47.934" r="2.031"/>
	<circle fill="#FFFFFF" cx="282.623" cy="58.826" r="2.031"/>
	<circle fill="#FFFFFF" cx="299.158" cy="58.826" r="2.031"/>
	<circle fill="#FFFFFF" cx="314.782" cy="58.003" r="2.031"/>
	<circle fill="#FFFFFF" cx="316.813" cy="73.152" r="2.031"/>
	<circle fill="#FFFFFF" cx="301.543" cy="73.853" r="2.031"/>
	<circle fill="#FFFFFF" cx="314.104" cy="88.611" r="2.031"/>
	<circle fill="#FFFFFF" cx="308.811" cy="103.803" r="2.031"/>
	<circle fill="#FFFFFF" cx="298.581" cy="89.911" r="2.031"/>
	<circle fill="#FFFFFF" cx="286.13" cy="73.853" r="2.031"/>
	<circle fill="#FFFFFF" cx="270.917" cy="73.853" r="2.031"/>
	<circle fill="#FFFFFF" cx="282.623" cy="88.611" r="2.031"/>
	<circle fill="#FFFFFF" cx="290.983" cy="102.894" r="2.031"/>
	<circle fill="#FFFFFF" cx="298.581" cy="115.941" r="2.031"/>
	<circle fill="#FFFFFF" cx="286.165" cy="125.448" r="2.031"/>
	<circle fill="#FFFFFF" cx="279.417" cy="111.969" r="2.031"/>
	<circle fill="#FFFFFF" cx="271.433" cy="99.791" r="2.031"/>
	<circle fill="#FFFFFF" cx="256.915" cy="103.803" r="2.031"/>
	<circle fill="#FFFFFF" cx="241.351" cy="99.791" r="2.031"/>
	<circle fill="#FFFFFF" cx="249.525" cy="86.579" r="2.031"/>
	<circle fill="#FFFFFF" cx="264.506" cy="87.122" r="2.031"/>
	<circle fill="#FFFFFF" cx="255.663" cy="73.152" r="2.031"/>
	<circle fill="#FFFFFF" cx="264.506" cy="60.857" r="2.031"/>
	<circle fill="#FFFFFF" cx="248.665" cy="60.146" r="2.031"/>
	<circle fill="#FFFFFF" cx="241.26" cy="47.104" r="2.031"/>
	<circle fill="#FFFFFF" cx="264.506" cy="117.972" r="2.031"/>
	<circle fill="#FFFFFF" cx="272.149" cy="131.56" r="2.031"/>
	<circle fill="#FFFFFF" cx="256.915" cy="134.109" r="2.031"/>
	<circle fill="#FFFFFF" cx="248.665" cy="119.056" r="2.031"/>
	<circle fill="#FFFFFF" cx="241.26" cy="132.781" r="2.031"/>
	<circle fill="#FFFFFF" cx="227.493" cy="126.843" r="2.031"/>
	<circle fill="#FFFFFF" cx="214.885" cy="117.025" r="2.031"/>
	<circle fill="#FFFFFF" cx="234.083" cy="112.14" r="2.031"/>
	<circle fill="#FFFFFF" cx="222.693" cy="102.943" r="2.031"/>
	<circle fill="#FFFFFF" cx="231.106" cy="88.611" r="2.031"/>
	<circle fill="#FFFFFF" cx="226.756" cy="73.853" r="2.031"/>
	<circle fill="#FFFFFF" cx="210.914" cy="72.878" r="2.031"/>
	<circle fill="#FFFFFF" cx="241.26" cy="73.152" r="2.031"/>
	<circle fill="#FFFFFF" cx="229.524" cy="58.826" r="2.031"/>
	<circle fill="#FFFFFF" cx="234.438" cy="34.911" r="2.031"/>
	<circle fill="#FFFFFF" cx="226.756" cy="21.314" r="2.031"/>
	<circle fill="#FFFFFF" cx="214.634" cy="31.663" r="2.031"/>
	<circle fill="#FFFFFF" cx="222.693" cy="45.072" r="2.031"/>
	<circle fill="#FFFFFF" cx="214.634" cy="58.003" r="2.031"/>
	<circle fill="#FFFFFF" cx="204.952" cy="43.928" r="2.031"/>
	<circle fill="#FFFFFF" cx="199.256" cy="58.826" r="2.031"/>
	<circle fill="#FFFFFF" cx="195.876" cy="73.853" r="2.031"/>
	<circle fill="#FFFFFF" cx="198.088" cy="89.152" r="2.031"/>
	<circle fill="#FFFFFF" cx="204.952" cy="102.943" r="2.031"/>
	<circle fill="#FFFFFF" cx="214.634" cy="89.152" r="2.031"/>
</g>
</svg>
