<?xml version="1.0" encoding="utf-8"?>
<!-- Generator: Adobe Illustrator 17.0.0, SVG Export Plug-In . SVG Version: 6.00 Build 0)  -->
<!DOCTYPE svg PUBLIC "-//W3C//DTD SVG 1.1//EN" "http://www.w3.org/Graphics/SVG/1.1/DTD/svg11.dtd">
<svg version="1.1" id="Layer_1" xmlns="http://www.w3.org/2000/svg" xmlns:xlink="http://www.w3.org/1999/xlink" x="0px" y="0px"
	 width="1000px" height="600px" viewBox="0 0 1000 600" enable-background="new 0 0 1000 600" xml:space="preserve">
<g>
	
		<path fill="none" stroke="#1A6EEA" stroke-width="3.1903" stroke-linecap="round" stroke-linejoin="round" stroke-miterlimit="10" d="
		M289.046,335.43c-6.58,0-11.963-5.384-11.963-11.963V88.982c0-6.58,5.384-11.963,11.963-11.963h392.402
		c6.58,0,11.964,5.384,11.964,11.963v234.484c0,6.58-5.384,11.963-11.964,11.963H289.046z"/>
	
		<rect x="288.647" y="89.381" fill="none" stroke="#1A6EEA" stroke-width="3.1903" stroke-linecap="round" stroke-linejoin="round" stroke-miterlimit="10" width="393.2" height="233.687"/>
	
		<line fill="none" stroke="#1A6EEA" stroke-width="3.1903" stroke-linecap="round" stroke-linejoin="round" stroke-miterlimit="10" x1="460.921" y1="335.43" x2="460.921" y2="380.891"/>
	
		<line fill="none" stroke="#1A6EEA" stroke-width="3.1903" stroke-linecap="round" stroke-linejoin="round" stroke-miterlimit="10" x1="509.573" y1="335.43" x2="509.573" y2="380.891"/>
	
		<line fill="none" stroke="#1A6EEA" stroke-width="3.1903" stroke-linecap="round" stroke-linejoin="round" stroke-miterlimit="10" x1="375.183" y1="382.088" x2="595.311" y2="382.088"/>
	<path fill="#1A6EEA" d="M340.755,141.607h-6.636v10.219h-5.483v-10.219h-21.061v-4.953l20.687-30.626h5.857v30.407h6.636V141.607z
		 M328.635,136.435v-11.091c0-3.655,0.135-8.142,0.405-13.459h-0.281c-0.748,2.119-1.682,3.988-2.804,5.608l-12.805,18.942H328.635z
		 M363.03,152.449c-4.756,0-8.36-2.01-10.811-6.029c-2.451-4.019-3.676-9.829-3.676-17.431c0-15.619,4.829-23.429,14.487-23.429
		c4.818,0,8.459,2.01,10.92,6.029c2.461,4.019,3.692,9.819,3.692,17.4C377.642,144.629,372.771,152.449,363.03,152.449z
		 M363.03,147.619c3.053,0,5.296-1.459,6.729-4.377c1.433-2.918,2.15-7.669,2.15-14.253c0-6.543-0.717-11.273-2.15-14.191
		c-1.433-2.918-3.676-4.377-6.729-4.377c-3.012,0-5.219,1.449-6.62,4.346c-1.402,2.897-2.103,7.638-2.103,14.222
		c0,6.605,0.701,11.361,2.103,14.269C357.812,146.166,360.019,147.619,363.03,147.619z M417.333,141.607h-6.636v10.219h-5.483
		v-10.219h-21.061v-4.953l20.687-30.626h5.857v30.407h6.636V141.607z M405.214,136.435v-11.091c0-3.655,0.135-8.142,0.405-13.459
		h-0.281c-0.748,2.119-1.682,3.988-2.804,5.608l-12.805,18.942H405.214z M314.747,166.56l-0.42,1.422
		c-0.702-0.257-1.342-0.386-1.919-0.386c-0.931,0-1.649,0.264-2.155,0.793c-0.505,0.528-0.758,1.292-0.758,2.291v5.072h-1.559
		v-9.407h1.268l0.188,1.722h0.069c0.434-0.679,0.9-1.165,1.396-1.456c0.497-0.291,1.108-0.437,1.833-0.437
		C313.364,166.175,314.05,166.303,314.747,166.56z M325.593,171.349h-6.631c0.046,2.142,1.028,3.213,2.947,3.213
		c1.114,0,2.17-0.217,3.17-0.651v1.371c-0.948,0.428-1.988,0.643-3.119,0.643c-1.4,0-2.519-0.427-3.358-1.281
		c-0.84-0.854-1.26-2.029-1.26-3.526c0-1.519,0.387-2.723,1.161-3.611c0.774-0.888,1.809-1.332,3.106-1.332
		c1.211,0,2.178,0.382,2.9,1.148c0.722,0.766,1.084,1.785,1.084,3.059V171.349z M318.996,170.081h4.909
		c0-1.742-0.776-2.613-2.33-2.613C320.004,167.468,319.145,168.339,318.996,170.081z M328.472,175.334v-1.422
		c1.103,0.491,2.159,0.737,3.17,0.737c1.571,0,2.356-0.463,2.356-1.388c0-0.325-0.14-0.608-0.42-0.848
		c-0.28-0.24-0.925-0.543-1.936-0.909c-1.331-0.497-2.169-0.952-2.514-1.367c-0.346-0.414-0.518-0.904-0.518-1.469
		c0-0.776,0.318-1.386,0.955-1.829c0.637-0.443,1.518-0.664,2.643-0.664c1.131,0,2.185,0.211,3.162,0.634l-0.514,1.277
		c-1.04-0.411-1.951-0.617-2.733-0.617c-1.348,0-2.022,0.38-2.022,1.139c0,0.348,0.144,0.627,0.433,0.836
		c0.289,0.208,0.953,0.498,1.992,0.869c1.206,0.44,2.007,0.873,2.404,1.298c0.397,0.426,0.595,0.947,0.595,1.564
		c0,0.857-0.334,1.529-1.003,2.018c-0.668,0.488-1.614,0.733-2.836,0.733C330.268,175.925,329.197,175.728,328.472,175.334z
		 M342.488,175.925c-1.233,0-2.249-0.444-3.046-1.332c-0.796-0.888-1.195-2.075-1.195-3.56c0-1.502,0.387-2.687,1.161-3.556
		s1.818-1.302,3.131-1.302c1.245,0,2.265,0.443,3.059,1.328c0.794,0.886,1.191,2.062,1.191,3.53c0,1.513-0.391,2.707-1.174,3.581
		C344.833,175.488,343.791,175.925,342.488,175.925z M342.523,174.631c1.771,0,2.656-1.2,2.656-3.599
		c0-2.376-0.891-3.564-2.673-3.564c-1.765,0-2.647,1.188-2.647,3.564C339.859,173.431,340.746,174.631,342.523,174.631z
		 M355.691,175.753l-0.231-1.26h-0.086c-0.6,0.954-1.554,1.431-2.862,1.431c-2.233,0-3.35-1.145-3.35-3.436v-6.143h1.56v6.057
		c0,1.485,0.674,2.228,2.022,2.228c0.92,0,1.591-0.264,2.013-0.793s0.634-1.398,0.634-2.609v-4.883h1.56v9.407H355.691z
		 M367.395,166.56l-0.42,1.422c-0.702-0.257-1.342-0.386-1.919-0.386c-0.931,0-1.649,0.264-2.155,0.793
		c-0.505,0.528-0.758,1.292-0.758,2.291v5.072h-1.559v-9.407h1.268l0.188,1.722h0.069c0.434-0.679,0.9-1.165,1.396-1.456
		s1.108-0.437,1.833-0.437C366.012,166.175,366.698,166.303,367.395,166.56z M377.941,166.68l-0.531,1.354
		c-0.857-0.326-1.623-0.488-2.296-0.488c-2.119,0-3.178,1.179-3.178,3.538c0,2.319,1.031,3.479,3.092,3.479
		c0.897,0,1.814-0.177,2.75-0.531v1.371c-0.765,0.349-1.705,0.523-2.819,0.523c-1.468,0-2.608-0.415-3.419-1.247
		c-0.811-0.831-1.217-2.023-1.217-3.577c0-1.605,0.414-2.828,1.242-3.667c0.828-0.84,1.993-1.26,3.496-1.26
		C376.079,166.175,377.039,166.343,377.941,166.68z M388.771,171.349h-6.631c0.046,2.142,1.028,3.213,2.947,3.213
		c1.114,0,2.17-0.217,3.17-0.651v1.371c-0.948,0.428-1.988,0.643-3.119,0.643c-1.4,0-2.519-0.427-3.358-1.281
		c-0.84-0.854-1.26-2.029-1.26-3.526c0-1.519,0.387-2.723,1.161-3.611c0.774-0.888,1.809-1.332,3.106-1.332
		c1.211,0,2.178,0.382,2.9,1.148c0.722,0.766,1.084,1.785,1.084,3.059V171.349z M382.174,170.081h4.909
		c0-1.742-0.776-2.613-2.33-2.613C383.182,167.468,382.322,168.339,382.174,170.081z M409.795,175.753h-1.842l-4.969-10.367h-0.069
		c0.103,1.582,0.154,2.774,0.154,3.573v6.794h-1.474v-12.526h1.825l4.952,10.315h0.051c-0.08-1.731-0.12-2.884-0.12-3.461v-6.854
		h1.49V175.753z M416.247,175.925c-3.038,0-4.558-2.156-4.558-6.469c0-4.284,1.525-6.426,4.575-6.426
		c1.462,0,2.583,0.558,3.363,1.675c0.78,1.117,1.17,2.706,1.17,4.768c0,2.062-0.395,3.653-1.182,4.772
		C418.826,175.365,417.704,175.925,416.247,175.925z M416.247,174.528c0.988,0,1.712-0.414,2.172-1.243
		c0.46-0.828,0.689-2.099,0.689-3.812c0-1.731-0.232-3.003-0.698-3.817c-0.465-0.814-1.181-1.221-2.146-1.221
		c-1.925,0-2.887,1.68-2.887,5.038C413.377,172.843,414.334,174.528,416.247,174.528z M427.557,175.753h-1.602v-11.121h-3.581
		v-1.405h8.756v1.405h-3.572V175.753z M446.242,175.753h-1.594v-12.526h7.205v1.405h-5.612v4.421h5.286v1.405h-5.286V175.753z
		 M458.365,175.925c-3.038,0-4.558-2.156-4.558-6.469c0-4.284,1.525-6.426,4.575-6.426c1.462,0,2.583,0.558,3.363,1.675
		c0.78,1.117,1.17,2.706,1.17,4.768c0,2.062-0.395,3.653-1.182,4.772C460.944,175.365,459.822,175.925,458.365,175.925z
		 M458.365,174.528c0.988,0,1.712-0.414,2.172-1.243c0.46-0.828,0.689-2.099,0.689-3.812c0-1.731-0.232-3.003-0.698-3.817
		c-0.465-0.814-1.181-1.221-2.146-1.221c-1.925,0-2.887,1.68-2.887,5.038C455.495,172.843,456.452,174.528,458.365,174.528z
		 M473.076,163.21v8.122c0,1.485-0.361,2.621-1.081,3.41c-0.72,0.788-1.775,1.182-3.169,1.182c-2.759,0-4.138-1.542-4.138-4.627
		v-8.07h1.594v7.985c0,2.211,0.877,3.316,2.63,3.316c1.684,0,2.542-1.111,2.569-3.333v-7.985H473.076z M483.502,175.753h-1.841
		l-4.97-10.367h-0.068c0.103,1.582,0.154,2.774,0.154,3.573v6.794h-1.474v-12.526h1.826l4.952,10.315h0.051
		c-0.081-1.731-0.121-2.884-0.121-3.461v-6.854h1.491V175.753z M485.832,175.753v-12.526h2.93c1.811,0,3.22,0.54,4.228,1.619
		c1.008,1.08,1.512,2.588,1.512,4.524c0,2.062-0.522,3.641-1.567,4.738c-1.045,1.097-2.553,1.645-4.524,1.645H485.832z
		 M487.434,164.589v9.793h0.823c3.038,0,4.559-1.654,4.559-4.961c0-3.222-1.408-4.833-4.224-4.833H487.434z"/>


</g>
<g>
	
		<line fill="none" stroke="#1A6EEA" stroke-width="3.1903" stroke-linecap="round" stroke-linejoin="round" stroke-miterlimit="10" x1="327.329" y1="381.29" x2="249.168" y2="381.29"/>
	
		<line fill="none" stroke="#1A6EEA" stroke-width="3.1903" stroke-linecap="round" stroke-linejoin="round" stroke-miterlimit="10" x1="621.631" y1="381.29" x2="665.497" y2="381.29"/>
	
		<line fill="none" stroke="#1A6EEA" stroke-width="3.1903" stroke-linecap="round" stroke-linejoin="round" stroke-miterlimit="10" x1="178.184" y1="381.29" x2="239.597" y2="381.29"/>
	
		<path fill="none" stroke="#1A6EEA" stroke-width="3.1903" stroke-linecap="round" stroke-linejoin="round" stroke-miterlimit="10" d="
		M107.053,347.462c0,2.869,2.27,5.023,5.14,5.023c3.587,0,6.467-2.994,6.467-6.581c0-4.484-3.649-8.161-8.132-8.161
		c-5.604,0-10.155,4.522-10.155,10.126c0,7.005,5.676,12.674,12.681,12.674c8.757,0,15.854-7.104,15.854-15.861
		c0-10.946-8.874-19.822-19.821-19.822c-13.683,0-24.775,11.435-24.775,25.118c0,17.103,13.865,31.312,30.968,31.312h42.168"/>

<animateTransform attributeType="XML" attributeName="transform" type="translate" from="0,1000" to="0,0" begin="0s" dur="1" />
</g>
<g>
    <path fill="none" stroke="#1A6EEA" stroke-width="3.1903" stroke-linecap="round" stroke-linejoin="round" stroke-miterlimit="10" d="
	M461.32,359.756H183.767 M509.174,359.756h266.387 M769.18,359.756h58.361c17.103,0,30.967-14.208,30.967-31.312
	c0-13.683-11.093-25.118-24.776-25.118c-10.946,0-19.821,8.876-19.821,19.822c0,8.757,7.095,15.861,15.852,15.861
	c7.005,0,12.677-5.668,12.677-12.674c0-5.604-4.558-10.126-10.162-10.126c-4.484,0-8.147,3.678-8.147,8.161
	c0,3.587,2.85,6.581,6.437,6.581c2.869,0,5.08-2.154,5.08-5.023"/>
<animateTransform attributeType="XML" attributeName="transform" type="translate" from="1000,0" to="0,0" begin="0s" dur="1" />
</g>
<g>
	
		<path fill="none" stroke="#1A6EEB" stroke-width="3.1903" stroke-linecap="round" stroke-linejoin="round" stroke-miterlimit="10" d="
		M163.828,400.432h15.092h116.197c11.476,0,20.647,8.506,20.647,19.982v0.039c0,11.476-9.17,21.452-20.647,21.452h-7.448H243.1
		c-5.908,0-10.697,4.66-10.697,10.568l0,0c0,5.908,4.789,10.568,10.697,10.568"/>
	
		<path fill="none" stroke="#1A6EEB" stroke-width="3.1903" stroke-linecap="round" stroke-linejoin="round" stroke-miterlimit="10" d="
		M167.018,413.193h-24.806c-2.751,0-4.981,1.578-4.981,4.329l0,0c0,2.751,2.23,4.659,4.981,4.659l59.027-0.152
		c8.768,0,15.626,6.943,15.626,15.711v0.03c0,8.768-6.382,16.896-15.15,16.896h-47.913c-4.513,0-8.172,3.861-8.172,8.374l0,0
		c0,4.513,3.659,8.374,8.172,8.374h14.301h28.603c4.513,0,7.832,3.545,7.832,8.058l0,0"/>
            <animateTransform attributeType="XML" attributeName="transform" type="translate" from="-1000,0" to="0,0" begin="0s" dur="1.5" />

</g>
<g>
	
		<path fill="none" stroke="#1A6EEB" stroke-width="3.1903" stroke-linecap="round" stroke-linejoin="round" stroke-miterlimit="10" d="
		M663.781,484.575c-5.908,0-10.697-4.66-10.697-10.568l0,0c0-5.908,4.789-10.568,10.697-10.568H682.5h37.438
		c5.908,0,10.697-4.859,10.697-10.767l0,0c0-5.908-4.789-10.767-10.697-10.767h-44.57h-7.448c-11.476,0-21.965-9.976-21.965-21.452
		v-0.039c0-11.476,10.489-19.982,21.965-19.982h72.331h15.369"/>
	
		<path fill="none" stroke="#1A6EEB" stroke-width="3.1903" stroke-linecap="round" stroke-linejoin="round" stroke-miterlimit="10" d="
		M859.243,455.065L859.243,455.065c0-5.908-4.892-10.767-10.8-10.767h-18.719h-14.309c-5.908,0-10.697-4.86-10.697-10.767l0,0
		c0-5.908,4.789-10.767,10.697-10.767h21.44h7.448c11.476,0,20.186-9.976,20.186-21.452v-0.039c0-11.476-8.71-19.982-20.186-19.982
		H736.88h61.81"/>
            <animateTransform attributeType="XML" attributeName="transform" type="translate" from="1000,0" to="0,0" begin="0s" dur="1.5" />

</g>
<g>
	
		<path fill="none" stroke="#1A6EEB" stroke-width="3.1903" stroke-linecap="round" stroke-linejoin="round" stroke-miterlimit="10" d="
		M685.343,525.363c0,13.75-11.771,24.896-25.521,24.896l0,0c-13.75,0-25.829-10.449-25.829-24.198"/>
	
		<path fill="none" stroke="#1A6EEB" stroke-width="3.1903" stroke-linecap="round" stroke-linejoin="round" stroke-miterlimit="10" d="
		M685.343,525.305c0-13.75,11.771-24.896,25.521-24.896l0,0c13.75,0,25.829,10.449,25.829,24.198"/>
	
		<path fill="none" stroke="#1A6EEB" stroke-width="3.1903" stroke-linecap="round" stroke-linejoin="round" stroke-miterlimit="10" d="
		M339.691,499.728v38.468c0,8.157-5.529,14.769-13.686,14.769l0,0c-8.157,0-14.237-6.612-14.237-14.769l0.237-27.695
		c0-25.997-20.799-47.063-46.796-47.063h-0.888"/>
	
		<path fill="#FFFFFF" stroke="#1A6EEB" stroke-width="3.1903" stroke-linecap="round" stroke-linejoin="round" stroke-miterlimit="10" d="
		M455.338,326.657v22.09c0,0,2.657,11.206,29.003,11.325s28.422-11.325,28.422-11.325v-21.293"/>
	
		<path fill="#FFFFFF" stroke="#1A6EEB" stroke-width="3.1903" stroke-linecap="round" stroke-linejoin="round" stroke-miterlimit="10" d="
		M483.823,186.621c-0.722,0-1.435,0.033-2.151,0.054c-0.643-0.033-1.307-0.056-2.017-0.054c-33.477,0.078-60.404,9.281-60.404,9.281
		c3.279,6.442,6.979,11.776,10.726,16.187c-20.732,22.02-23.834,52.322-15.789,77.492c0,0,1.528-2.101,4.725-5.543
		c8.537,27.068,29.514,52.392,29.514,52.392l9.971-6.861l12.169,15.867l13.581-15.867l9.635,27.949l14.244-27.949l12.198,6.695
		c13.906-9.705,25.973-47.278,25.973-47.278l5.732,6.922C570.54,230.53,527.114,186.621,483.823,186.621z"/>
	
		<path fill="#FFFFFF" stroke="#1A6EEB" stroke-width="3.1903" stroke-linecap="round" stroke-linejoin="round" stroke-miterlimit="10" d="
		M578.112,409.162c0-36.587-32.793-48.651-65.321-60.415c0,0-2.113,11.445-28.458,11.325s-29.038-11.325-29.038-11.325
		c-32.528,11.764-65.321,23.828-65.321,60.415"/>
	
		<path fill="#FFFFFF" stroke="#1A6EEB" stroke-width="3.1903" stroke-linecap="round" stroke-linejoin="round" stroke-miterlimit="10" d="
		M339.691,526.048v-87.35c0-19.931,16.712-35.077,36.643-35.077h222.68c19.931,0,34.979,15.145,34.979,35.077v87.35"/>
	
		<path fill="none" stroke="#1A6EEB" stroke-width="3.1903" stroke-linecap="round" stroke-linejoin="round" stroke-miterlimit="10" d="
		M500.724,218.72c15.029,3.456,33.706,28.461,26.078,56.923"/>
	
		<path fill="none" stroke="#1A6EEB" stroke-width="3.1903" stroke-linecap="round" stroke-linejoin="round" stroke-miterlimit="10" d="
		M441.698,235.559c0,0-12.808,11.384-11.859,27.987l7.499-4.269c0,0-0.145,23.713,15.74,39.016"/>

            <animateTransform attributeType="XML" attributeName="transform" type="translate" from="0,1000" to="0,0" begin="0s" dur="1.8" values="0,1000; 0,-100; 0,0;" keyTimes="0; 0.8; 1"/>


</g>
<g>
    <path fill="none" stroke="#1A6EEA" stroke-width="3.1903" stroke-linecap="round" stroke-linejoin="round" stroke-miterlimit="10" d="
	M191.179,206.48c0.119-7.005,5.832-12.648,12.865-12.648c1.97,0,3.836,0.444,5.506,1.237c2.108-8.674,9.923-15.116,19.245-15.116
	c9.22,0,16.964,6.297,19.175,14.825c4.643,1.885,7.931,6.403,8.021,11.702H191.179z"/>
<animateTransform attributeType="XML" attributeName="transform" type="translate" from="500,0" to="0,0" begin="0s" dur="1" values="500,0; -100,0; 0,0;" keyTimes="0; 0.6; 1"/>


</g>
<g>
	
		<path fill="none" stroke="#1A6EEA" stroke-width="2.3927" stroke-linecap="round" stroke-linejoin="round" stroke-miterlimit="10" d="
		M740.07,193.217c-0.044-2.623-2.184-4.736-4.817-4.736c-0.738,0-1.437,0.166-2.062,0.463c-0.789-3.248-3.716-5.66-7.206-5.66
		c-3.452,0-6.352,2.358-7.18,5.551c-1.739,0.706-2.97,2.398-3.003,4.382H740.07z"/>
	
		<path fill="none" stroke="#1A6EEA" stroke-width="3.1903" stroke-linecap="round" stroke-linejoin="round" stroke-miterlimit="10" d="
		M736.212,217.068c0.119-7.005,5.832-12.648,12.865-12.648c1.97,0,3.836,0.444,5.506,1.237c2.108-8.674,9.923-15.116,19.245-15.116
		c9.22,0,16.964,6.297,19.175,14.825c4.643,1.885,7.931,6.403,8.021,11.702H736.212z"/>
	
		<path fill="none" stroke="#1A6EEA" stroke-width="2.3927" stroke-linecap="round" stroke-linejoin="round" stroke-miterlimit="10" d="
		M755.464,137.213c9.015,0,16.324,7.309,16.324,16.324c0,9.016-7.308,16.324-16.324,16.324"/>
	
		<path fill="none" stroke="#1A6EEA" stroke-width="2.3927" stroke-linecap="round" stroke-linejoin="round" stroke-miterlimit="10" d="
		M755.464,137.213c5.284,0,9.567,7.309,9.567,16.324c0,9.016-4.283,16.324-9.567,16.324"/>
	
		<path fill="none" stroke="#1A6EEA" stroke-width="2.3927" stroke-linecap="round" stroke-linejoin="round" stroke-miterlimit="10" d="
		M755.464,137.213c2.014,0,3.647,7.309,3.647,16.324c0,9.016-1.633,16.324-3.647,16.324"/>
	
		<path fill="none" stroke="#1A6EEA" stroke-width="2.3927" stroke-linecap="round" stroke-linejoin="round" stroke-miterlimit="10" d="
		M755.322,137.213c-9.015,0-16.324,7.309-16.324,16.324c0,9.016,7.308,16.324,16.324,16.324"/>
	
		<path fill="none" stroke="#1A6EEA" stroke-width="2.3927" stroke-linecap="round" stroke-linejoin="round" stroke-miterlimit="10" d="
		M755.322,137.213c-5.284,0-9.568,7.309-9.568,16.324c0,9.016,4.284,16.324,9.568,16.324"/>
	
		<path fill="none" stroke="#1A6EEA" stroke-width="2.3927" stroke-linecap="round" stroke-linejoin="round" stroke-miterlimit="10" d="
		M755.322,137.213c-2.014,0-3.647,7.309-3.647,16.324c0,9.016,1.633,16.324,3.647,16.324"/>
	
		<path fill="none" stroke="#1A6EEA" stroke-width="2.3927" stroke-linecap="round" stroke-linejoin="round" stroke-miterlimit="10" d="
		M751.405,175.72c-0.112,0.347-0.175,0.716-0.175,1.1c0,1.967,1.594,3.561,3.56,3.561c1.966,0,3.561-1.594,3.561-3.561
		c0-0.384-0.063-0.753-0.175-1.1H751.405z"/>
	
		<line fill="none" stroke="#1A6EEA" stroke-width="2.3927" stroke-linecap="round" stroke-linejoin="round" stroke-miterlimit="10" x1="765.55" y1="166.433" x2="758.175" y2="175.72"/>
	
		<line fill="none" stroke="#1A6EEA" stroke-width="2.3927" stroke-linecap="round" stroke-linejoin="round" stroke-miterlimit="10" x1="751.405" y1="175.72" x2="745.237" y2="166.433"/>
	
		<path fill="none" stroke="#1A6EEA" stroke-width="3.1903" stroke-linecap="round" stroke-linejoin="round" stroke-miterlimit="10" d="
		M693.411,273.495h64.677c6.58,0,11.963-5.384,11.963-11.963v-43.864"/>

            <animateTransform attributeType="XML" attributeName="transform" type="translate" from="1000,0" to="0,0" begin="0s" dur="0.8" />
</g>
<g>
	
		<path fill="none" stroke="#1A6EEB" stroke-width="3.1903" stroke-linecap="round" stroke-linejoin="round" stroke-miterlimit="10" d="
		M693.411,128.418l33.706-0.225c6.58-0.044,12.016-5.463,12.08-12.043l0.189-19.313c0.064-6.58,5.501-12.006,12.08-12.059
		l31.358-0.253"/>
	
		<path fill="none" stroke="#1A6EEB" stroke-width="3.1903" stroke-linecap="round" stroke-linejoin="round" stroke-miterlimit="10" d="
		M783.949,100.648l-0.258-31.976c-0.01-1.187,0.947-2.161,2.135-2.17l46.846-0.378c1.186-0.01,2.16,0.949,2.169,2.135l0.258,31.976
		c0.01,1.187-0.949,2.16-2.135,2.17l-46.846,0.378C784.931,102.793,783.959,101.836,783.949,100.648z"/>
	
		<polyline fill="none" stroke="#1A6EEB" stroke-width="3.1903" stroke-linecap="round" stroke-linejoin="round" stroke-miterlimit="10" points="
		791.477,74.995 809.898,90.579 828.081,74.718 	"/>
	
		<line fill="none" stroke="#1A6EEB" stroke-width="3.1903" stroke-linecap="round" stroke-linejoin="round" stroke-miterlimit="10" x1="801.667" y1="83.615" x2="791.983" y2="95.056"/>
	
		<line fill="none" stroke="#1A6EEB" stroke-width="3.1903" stroke-linecap="round" stroke-linejoin="round" stroke-miterlimit="10" x1="818.376" y1="83.48" x2="828.243" y2="94.764"/>

            <animateTransform attributeType="XML" attributeName="transform" type="translate" from="0,1000" to="0,0" begin="0s" dur="1.5" />

</g>
<g>
	
		<path fill="none" stroke="#1A6EEB" stroke-width="3.1903" stroke-linecap="round" stroke-linejoin="round" stroke-miterlimit="10" d="
		M814.597,250.566c0-10.729,8.682-19.411,19.411-19.411c10.729,0,19.411,8.682,19.411,19.411s-8.682,19.411-19.411,19.411
		C823.279,269.977,814.597,261.295,814.597,250.566z"/>
	
		<path fill="none" stroke="#1A6EEB" stroke-width="3.1903" stroke-linecap="round" stroke-linejoin="round" stroke-miterlimit="10" d="
		M823.109,250.566c0-6.025,4.875-10.9,10.9-10.9s10.9,4.875,10.9,10.9c0,6.025-4.875,10.9-10.9,10.9
		S823.109,256.591,823.109,250.566z"/>
	
		<path fill="none" stroke="#1A6EEB" stroke-width="3.1903" stroke-linecap="round" stroke-linejoin="round" stroke-miterlimit="10" d="
		M834.009,270.575c0,1.742,0,3.483,0,5.225 M819.176,270.981c0.937-1.29,1.875-2.58,2.812-3.87 M814.558,256.885
		c-1.517,0.493-3.033,0.986-4.55,1.478 M810.009,242.768c1.517,0.493,3.033,0.986,4.55,1.478 M821.988,234.02
		c-0.937-1.29-1.875-2.58-2.812-3.87 M834.009,230.334c0-1.668,0-3.335,0-5.003 M846.03,234.02c0.937-1.29,1.875-2.58,2.812-3.87
		 M858.009,242.768c-1.586,0.515-3.172,1.031-4.758,1.546 M858.009,258.364c-1.586-0.515-3.172-1.031-4.758-1.546 M848.841,270.981
		c-0.937-1.29-1.875-2.58-2.812-3.87"/>
            <animateTransform attributeType="XML" attributeName="transform" type="translate" from="0,1000" to="0,0" begin="0s" dur="1.5" />

</g>
<g>
	
		<path fill="none" stroke="#1A6EEA" stroke-width="3.1903" stroke-linecap="round" stroke-linejoin="round" stroke-miterlimit="10" d="
		M244.474,357.964v-27.452c0-6.58-5.384-11.963-11.963-11.963h-60.088c-6.58,0-11.963-5.384-11.963-11.963v-31.375"/>


			<path fill="none" stroke="#1A6EEA" stroke-width="3.1903" stroke-linecap="round" stroke-linejoin="round" stroke-miterlimit="10" d="
			M146.913,257.689c3.568-4.116,8.736-6.478,14.18-6.478c5.626,0,10.906,2.491,14.484,6.838"/>


			<path fill="none" stroke="#1A6EEA" stroke-width="3.1903" stroke-linecap="round" stroke-linejoin="round" stroke-miterlimit="10" d="
			M137.822,246.95c5.977-6.484,14.458-10.204,23.269-10.204c8.988,0,17.581,3.842,23.58,10.541"/>

			<path fill="none" stroke="#1A6EEA" stroke-width="3.1903" stroke-linecap="round" stroke-linejoin="round" stroke-miterlimit="10" d="
			M129.342,236.862c8.334-8.833,19.61-13.698,31.749-13.698c12.136,0,23.822,5.114,32.064,14.032"/>


			<path fill="none" stroke="#1A6EEA" stroke-width="3.1903" stroke-linecap="round" stroke-linejoin="round" stroke-miterlimit="10" d="
			M161.233,274.495c-3.087,0-5.597-2.512-5.597-5.6c0-3.088,2.511-5.599,5.597-5.599c3.089,0,5.601,2.511,5.601,5.599
			C166.833,271.983,164.321,274.495,161.233,274.495"/>


			<path fill="none" stroke="#1A6EEA" stroke-width="3.1903" stroke-linecap="round" stroke-linejoin="round" stroke-miterlimit="10" d="
			M179.288,309.453v-3.714c0-2.164,1.762-3.924,3.925-3.924c2.164,0,3.925,1.761,3.925,3.924v3.714"/>


			<path fill="none" stroke="#1A6EEA" stroke-width="3.1903" stroke-linecap="round" stroke-linejoin="round" stroke-miterlimit="10" d="
			M191.318,309.453v-9.286c0-2.165,1.761-3.926,3.924-3.926c2.164,0,3.925,1.761,3.925,3.926v9.286"/>


			<path fill="none" stroke="#1A6EEA" stroke-width="3.1903" stroke-linecap="round" stroke-linejoin="round" stroke-miterlimit="10" d="
			M203.708,309.453v-17.119c0-2.164,1.759-3.924,3.924-3.924c2.164,0,3.925,1.76,3.925,3.924v17.119"/>


			<path fill="none" stroke="#1A6EEA" stroke-width="3.1903" stroke-linecap="round" stroke-linejoin="round" stroke-miterlimit="10" d="
			M215.736,309.453v-24.949c0-2.165,1.761-3.926,3.924-3.926c2.164,0,3.925,1.761,3.925,3.926v24.949"/>
                <animateTransform attributeType="XML" attributeName="transform" type="translate" from="0,-1000" to="0,0" begin="0s" dur="1.5" />

</g>
<g>
	
		<line fill="none" stroke="#1A6EEA" stroke-width="2.3927" stroke-linecap="round" stroke-linejoin="round" stroke-miterlimit="10" x1="725.677" y1="354.194" x2="710.054" y2="354.194"/>
	
		<path fill="none" stroke="#1A6EEA" stroke-width="2.3927" stroke-linecap="round" stroke-linejoin="round" stroke-miterlimit="10" d="
		M698.832,354.194h-1.073c-3.73,0-6.753-3.024-6.753-6.753l0,0c0-3.73,3.023-6.753,6.753-6.753h40.121
		c3.73,0,6.753,3.024,6.753,6.753l0,0c0,3.73-3.023,6.753-6.753,6.753h-0.981"/>
	
		<path fill="none" stroke="#1A6EEA" stroke-width="2.3927" stroke-linecap="round" stroke-linejoin="round" stroke-miterlimit="10" d="
		M736.507,339.984"/>
	
		<path fill="none" stroke="#1A6EEA" stroke-width="2.3927" stroke-linecap="round" stroke-linejoin="round" stroke-miterlimit="10" d="
		M700.305,339.984L700.305,339.984c0-4.613,3.739-8.352,8.352-8.352h1.332"/>
	
		<line fill="none" stroke="#1A6EEA" stroke-width="2.3927" stroke-linecap="round" stroke-linejoin="round" stroke-miterlimit="10" x1="710.674" y1="331.632" x2="710.674" y2="339.984"/>
	
		<circle fill="none" stroke="#1A6EEA" stroke-width="2.3927" stroke-linecap="round" stroke-linejoin="round" stroke-miterlimit="10" cx="731.287" cy="352.66" r="5.817"/>
	
		<circle fill="none" stroke="#1A6EEA" stroke-width="2.3927" stroke-linecap="round" stroke-linejoin="round" stroke-miterlimit="10" cx="704.441" cy="352.66" r="5.817"/>
    <animateTransform attributeType="XML" attributeName="transform" type="translate" from="1000,0" to="0,0" begin="0s" dur="1" />

</g>
<g>
	
		<path fill="none" stroke="#1A6EEA" stroke-width="2.3927" stroke-linecap="round" stroke-linejoin="round" stroke-miterlimit="10" d="
		M755.93,335.218c0,13.651,15.943,23.898,15.943,23.898s15.943-11.104,15.943-23.898c0-8.806-7.138-15.943-15.943-15.943
		C763.068,319.275,755.93,326.413,755.93,335.218z"/>
	
		<circle fill="none" stroke="#1A6EEA" stroke-width="2.3927" stroke-linecap="round" stroke-linejoin="round" stroke-miterlimit="10" cx="771.873" cy="335.218" r="10.776"/>
	
		<path fill="none" stroke="#1A6EEA" stroke-width="2.3927" stroke-linecap="round" stroke-linejoin="round" stroke-miterlimit="10" d="
		M767.925,333.069c1.003-1.003,2.629-1.003,3.633,0l0.315,0.316l0.316-0.316c1.003-1.003,2.629-1.003,3.633,0
		c1.003,1.004,1.003,2.63,0,3.633l-3.176,3.175c-0.23,0.229-0.487,0.529-0.774,0.529c-0.287,0-0.544-0.299-0.774-0.529l-3.174-3.175
		C766.92,335.7,766.92,334.073,767.925,333.069z"/>
            <animateTransform attributeType="XML" attributeName="transform" type="translate" from="0,1000" to="0,0" begin="0s" dur="1.5" />

</g>
<g>
    <path fill="#FFFFFF" stroke="#1A6EEB" stroke-width="3.1903" stroke-linecap="round" stroke-linejoin="round" stroke-miterlimit="10" d="
			M211.558,153.116c-21.949,0-39.806-17.857-39.808-39.806c0-21.95,17.857-39.806,39.806-39.806
			c21.95,0,39.806,17.856,39.806,39.806c0,21.949-17.856,39.806-39.803,39.806 M211.559,153.116"/>

			<path fill="#FFFFFF" stroke="#1A6EEB" stroke-width="3.1903" stroke-linecap="round" stroke-linejoin="round" stroke-miterlimit="10" d="
			M211.165,117.737c-0.913,0-1.771-0.355-2.417-1.002c-0.646-0.645-1.003-1.504-1.002-2.418c0-0.914,0.355-1.772,1.003-2.417
			c0.644-0.646,1.502-1.003,2.416-1.003c0.914,0,1.772,0.356,2.418,1.003c1.333,1.336,1.332,3.505,0,4.836
			C212.937,117.382,212.079,117.737,211.165,117.737"/>

		<line fill="#FFFFFF" stroke="#1A6EEB" stroke-width="3.1903" stroke-linecap="round" stroke-linejoin="round" stroke-miterlimit="10" x1="211.164" y1="114.317" x2="192.22" y2="99.528"/>
		<line fill="#FFFFFF" stroke="#1A6EEB" stroke-width="3.1903" stroke-linecap="round" stroke-linejoin="round" stroke-miterlimit="10" x1="211.164" y1="114.317" x2="235.488" y2="91.519"/>
    <animateTransform attributeType="XML" attributeName="transform" type="translate" from="0,-1000" to="0,0" begin="0s" dur="1.8" values="0,-1000; 0,100; 0,0;" keyTimes="0; 0.8; 1"/>


</g>
</svg>
