<?xml version="1.0" encoding="utf-8"?>
<!-- Generator: Adobe Illustrator 17.0.0, SVG Export Plug-In . SVG Version: 6.00 Build 0)  -->
<!DOCTYPE svg PUBLIC "-//W3C//DTD SVG 1.1//EN" "http://www.w3.org/Graphics/SVG/1.1/DTD/svg11.dtd">
<svg version="1.1" id="Layer_1" xmlns="http://www.w3.org/2000/svg" xmlns:xlink="http://www.w3.org/1999/xlink" x="0px" y="0px"
	 width="182px" height="55px" viewBox="0 0 182 55" enable-background="new 0 0 182 55" xml:space="preserve">
<g>
	<g opacity="0.6">
		<path fill="#FFFFFF" d="M178.947,55H3.054c-1.538,0-2.79-1.252-2.79-2.79V2.79C0.264,1.252,1.515,0,3.054,0h175.893
			c1.537,0,2.789,1.252,2.789,2.79v49.42C181.736,53.748,180.485,55,178.947,55z M3.054,0.982c-0.997,0-1.808,0.811-1.808,1.808
			v49.42c0,0.997,0.811,1.808,1.808,1.808h175.893c0.997,0,1.807-0.811,1.807-1.808V2.79c0-0.997-0.81-1.808-1.807-1.808H3.054z"/>
	</g>
	<g>
		<g>
			<g>
				<path fill="#FFFFFF" d="M35.471,26.854c0.047,5.218,4.577,6.954,4.628,6.976c-0.038,0.122-0.724,2.475-2.386,4.904
					c-1.437,2.1-2.929,4.193-5.278,4.236c-2.309,0.043-3.051-1.369-5.691-1.369c-2.639,0-3.464,1.326-5.649,1.412
					c-2.268,0.086-3.995-2.271-5.444-4.364c-2.961-4.281-5.224-12.096-2.185-17.372c1.509-2.62,4.207-4.279,7.135-4.322
					c2.227-0.042,4.329,1.498,5.691,1.498c1.361,0,3.915-1.853,6.6-1.581c1.124,0.047,4.28,0.454,6.306,3.42
					C39.034,20.395,35.432,22.492,35.471,26.854z M31.133,14.041c1.204-1.458,2.014-3.486,1.793-5.505
					c-1.736,0.07-3.834,1.157-5.079,2.613c-1.116,1.29-2.093,3.355-1.829,5.333C27.952,16.632,29.928,15.5,31.133,14.041z"/>
			</g>
		</g>
	</g>
	<path fill="#FFFFFF" d="M71.907,41.052l-2.122-5.398h-7.654l-2.146,5.398H58.23l7.007-17.431h1.539l6.885,17.431H71.907z
		 M69.226,34.159l-3.201-8.453l-3.326,8.453H69.226z"/>
	<path fill="#FFFFFF" d="M74.167,45.392V28.336h1.496v1.879c0.707-1.065,2.032-2.162,4.156-2.162c3.49,0,5.745,2.616,5.745,6.665
		c0,4.145-2.147,6.618-5.745,6.618c-1.853,0-3.291-0.686-4.156-1.955v6.011H74.167z M79.818,29.431
		c-3.833,0-4.132,4.047-4.132,5.287c0,2.391,0.717,5.24,4.132,5.24c3.134-0.001,4.25-2.708,4.25-5.24
		C84.068,32.279,82.955,29.431,79.818,29.431z"/>
	<path fill="#FFFFFF" d="M87.273,45.392V28.336h1.496v1.879c0.707-1.066,2.031-2.162,4.155-2.162c3.491,0,5.746,2.616,5.746,6.665
		c0,4.145-2.148,6.618-5.746,6.618c-1.852,0-3.289-0.685-4.155-1.954v6.01H87.273z M92.924,29.431c-3.833,0-4.132,4.047-4.132,5.287
		c0,2.391,0.717,5.24,4.132,5.24c3.134-0.001,4.25-2.708,4.25-5.24C97.174,32.279,96.061,29.431,92.924,29.431z"/>
	<path fill="#FFFFFF" d="M113.714,41.453c-2.572,0-4.601-0.68-5.865-1.965c-1.045-1.062-1.56-2.51-1.53-4.304l0.005-0.295h1.648
		l-0.016,0.315c-0.067,1.317,0.278,2.386,1.028,3.175c0.966,1.017,2.646,1.577,4.729,1.577c1.701,0,4.58-0.746,4.58-3.542
		c0-2.559-2.643-3.079-5.44-3.63c-2.59-0.513-6.04-1.197-6.04-4.786c0-3.301,2.993-4.778,5.959-4.778
		c4.101,0,6.556,2.002,6.735,5.494l0.016,0.315h-1.642l-0.012-0.287c-0.105-2.559-1.963-4.026-5.098-4.026
		c-1.993,0-4.321,0.86-4.321,3.282c0,2.373,2.524,2.87,5.196,3.396l0.29,0.058c3.033,0.597,5.994,1.473,5.994,4.962
		C119.932,39.877,116.709,41.453,113.714,41.453z"/>
	<path fill="#FFFFFF" d="M125.668,41.075c-1.159,0-1.946-0.258-2.478-0.813c-0.511-0.534-0.747-1.34-0.701-2.396v-8.15h-2.24v-1.378
		h2.24v-3.771h1.495v3.771h2.64v1.377h-2.64v8.163c0,1.547,0.571,1.809,1.853,1.809c0.144,0,0.294-0.004,0.451-0.011l0.313-0.013
		v1.372l-0.28,0.019C126.103,41.066,125.884,41.075,125.668,41.075z"/>
	<path fill="#FFFFFF" d="M132.971,41.336c-3.507,0-5.862-2.669-5.862-6.641c0-3.911,2.41-6.643,5.862-6.643
		c3.453,0,5.864,2.731,5.864,6.643C138.835,38.667,136.479,41.336,132.971,41.336z M132.971,29.43c-3,0-4.367,2.729-4.367,5.265
		c0,2.534,1.367,5.263,4.367,5.263c3.001,0,4.368-2.729,4.368-5.263C137.339,32.159,135.972,29.43,132.971,29.43z"/>
	<path fill="#FFFFFF" d="M140.331,41.053V28.336h1.496v1.865c0.855-1.154,2.486-1.938,4.234-1.938l0.479,0.012v1.526l-0.337-0.042
		c-0.131-0.017-0.27-0.025-0.414-0.025c-0.565,0-1.668,0.146-2.689,1.123c-0.841,0.911-1.208,1.574-1.273,3.284v6.912H140.331z"/>
	<path fill="#FFFFFF" d="M151.993,41.336c-1.572,0-2.932-0.54-3.933-1.562c-1.149-1.175-1.76-2.905-1.719-4.873
		c-0.045-2.12,0.632-4.061,1.858-5.313c0.983-1.005,2.295-1.535,3.793-1.535c1.636,0,3.022,0.55,4.01,1.592
		c1.157,1.222,1.732,3.063,1.618,5.185l-0.016,0.284h-9.769c0.022,1.501,0.514,2.845,1.367,3.72
		c0.728,0.746,1.666,1.125,2.789,1.125c2.146,0,3.619-1.227,4.043-3.364l0.048-0.241h1.495l-0.058,0.349
		C157.028,39.69,155.064,41.336,151.993,41.336z M156.108,33.734c-0.18-2.188-1.605-4.304-4.115-4.304
		c-2.375,0-3.835,2.114-4.122,4.304H156.108z"/>
	<path fill="#FFFFFF" d="M65.114,18.587l-1.021-2.61h-3.015l-1.01,2.61h-1.396l3.402-8.639h1.075l3.383,8.639H65.114z
		 M63.644,14.719l-0.853-2.271c-0.061-0.158-0.123-0.333-0.185-0.527c-0.052,0.168-0.11,0.343-0.174,0.523l-0.864,2.275H63.644z"/>
	<path fill="#FFFFFF" d="M68.435,18.587l-2.486-6.552h1.429l1.373,3.78c0.154,0.441,0.275,0.8,0.365,1.081
		c0.059-0.181,0.132-0.396,0.222-0.65c0.219-0.624,0.71-1.983,1.474-4.079l0.048-0.132h1.429l-2.487,6.552H68.435z"/>
	<path fill="#FFFFFF" d="M74.478,18.699c-0.658,0-1.186-0.176-1.568-0.523c-0.388-0.352-0.585-0.853-0.585-1.489
		c0-1.365,1.068-2.089,3.174-2.153l0.85-0.028v-0.188c0-0.429-0.087-0.744-0.26-0.935c-0.167-0.186-0.453-0.279-0.847-0.279
		c-0.479,0-1.035,0.151-1.653,0.451l-0.193,0.093l-0.432-1.077l0.156-0.085c0.316-0.172,0.667-0.308,1.043-0.405
		c0.375-0.097,0.757-0.146,1.136-0.146c0.782,0,1.376,0.182,1.766,0.542c0.394,0.361,0.594,0.938,0.594,1.713v4.398h-1.053
		l-0.144-0.682c-0.251,0.266-0.505,0.457-0.759,0.571C75.374,18.624,74.961,18.699,74.478,18.699z M75.601,15.601
		c-0.703,0.025-1.208,0.131-1.504,0.315c-0.268,0.167-0.397,0.422-0.397,0.781c0,0.278,0.077,0.48,0.236,0.618
		c0.166,0.144,0.409,0.216,0.726,0.216c0.531,0,0.932-0.138,1.227-0.421c0.293-0.282,0.436-0.671,0.436-1.192V15.57L75.601,15.601z"
		/>
	<path fill="#FFFFFF" d="M79.177,18.587v-6.552h1.332v6.552H79.177z M79.848,11.393c-0.209,0-0.389-0.071-0.533-0.21
		c-0.145-0.144-0.218-0.35-0.218-0.613c0-0.27,0.074-0.477,0.22-0.614c0.143-0.135,0.321-0.204,0.53-0.204
		c0.202,0,0.377,0.069,0.523,0.206c0.15,0.141,0.227,0.347,0.227,0.612c0,0.265-0.076,0.471-0.225,0.614
		C80.228,11.322,80.051,11.393,79.848,11.393z"/>
	<rect x="82.084" y="9.455" fill="#FFFFFF" width="1.331" height="9.133"/>
	<path fill="#FFFFFF" d="M86.683,18.699c-0.658,0-1.186-0.176-1.568-0.523c-0.388-0.352-0.585-0.853-0.585-1.489
		c0-1.365,1.068-2.089,3.174-2.153l0.85-0.028v-0.188c0-0.429-0.087-0.744-0.26-0.935c-0.167-0.186-0.453-0.279-0.848-0.279
		c-0.479,0-1.035,0.151-1.652,0.451L85.6,13.648l-0.432-1.077l0.156-0.085c0.316-0.172,0.667-0.308,1.043-0.405
		c0.374-0.097,0.756-0.146,1.136-0.146c0.782,0,1.375,0.182,1.765,0.542c0.395,0.362,0.595,0.938,0.595,1.713v4.398H88.81
		l-0.144-0.682c-0.251,0.266-0.505,0.457-0.759,0.571C87.579,18.624,87.167,18.699,86.683,18.699z M87.807,15.601
		c-0.703,0.025-1.208,0.131-1.504,0.315c-0.267,0.166-0.396,0.421-0.396,0.781c0,0.278,0.077,0.48,0.236,0.618
		c0.167,0.144,0.41,0.216,0.726,0.216c0.53,0,0.932-0.138,1.227-0.421c0.293-0.282,0.436-0.671,0.436-1.192V15.57L87.807,15.601z"/>
	<path fill="#FFFFFF" d="M94.444,18.701c-0.427,0-0.823-0.081-1.18-0.24c-0.265-0.118-0.5-0.285-0.703-0.496l-0.155,0.623h-1.024
		V9.455h1.331v2.322c0,0.271-0.005,0.528-0.015,0.768c0.447-0.404,1.032-0.609,1.746-0.609c0.867,0,1.553,0.304,2.038,0.902
		c0.475,0.585,0.715,1.416,0.715,2.469c0,1.053-0.242,1.887-0.721,2.48C95.988,18.394,95.304,18.701,94.444,18.701z M94.309,13.115
		c-0.574,0-0.972,0.153-1.216,0.469c-0.251,0.328-0.379,0.907-0.379,1.721c0,0.815,0.131,1.397,0.391,1.732
		c0.251,0.323,0.652,0.48,1.229,0.48c0.507,0,0.871-0.175,1.113-0.536c0.257-0.383,0.387-0.951,0.387-1.688
		c0-0.752-0.129-1.315-0.384-1.674C95.206,13.28,94.833,13.115,94.309,13.115z"/>
	<rect x="98.425" y="9.455" fill="#FFFFFF" width="1.332" height="9.133"/>
	<path fill="#FFFFFF" d="M104.13,18.699c-0.963,0-1.735-0.301-2.298-0.894c-0.559-0.588-0.842-1.41-0.842-2.445
		c0-1.036,0.263-1.874,0.779-2.49c0.524-0.628,1.237-0.948,2.119-0.948c0.826,0,1.493,0.279,1.979,0.828
		c0.48,0.542,0.724,1.262,0.724,2.139v0.789h-4.227c0.044,0.568,0.206,1.007,0.484,1.308c0.31,0.334,0.739,0.497,1.315,0.497
		c0.633,0,1.267-0.134,1.885-0.399l0.279-0.119v1.266l-0.121,0.052c-0.341,0.147-0.668,0.254-0.973,0.318
		C104.932,18.667,104.57,18.699,104.13,18.699z M105.186,14.522c-0.025-0.44-0.14-0.783-0.339-1.021
		c-0.225-0.268-0.542-0.397-0.97-0.397c-0.438,0-0.776,0.136-1.033,0.417c-0.226,0.247-0.373,0.583-0.44,1.001H105.186z"/>
	<path fill="#FFFFFF" d="M113.424,18.7c-0.585,0-1.113-0.14-1.569-0.417c-0.458-0.277-0.816-0.679-1.064-1.195
		c-0.244-0.508-0.367-1.107-0.367-1.782c0-1.049,0.271-1.882,0.803-2.477c0.538-0.601,1.29-0.906,2.236-0.906
		c0.916,0,1.656,0.312,2.201,0.926c0.539,0.606,0.813,1.432,0.813,2.455c0,1.049-0.272,1.884-0.811,2.482
		C115.123,18.393,114.369,18.7,113.424,18.7z M113.436,13.115c-0.549,0-0.949,0.171-1.223,0.523
		c-0.282,0.363-0.425,0.925-0.425,1.668c0,0.737,0.145,1.3,0.431,1.675c0.277,0.362,0.68,0.538,1.228,0.538
		c0.549,0,0.951-0.175,1.23-0.537c0.287-0.371,0.433-0.935,0.433-1.676c0-0.733-0.146-1.291-0.433-1.659
		C114.398,13.289,113.992,13.115,113.436,13.115z"/>
	<path fill="#FFFFFF" d="M117.709,18.587v-6.552h1.124l0.111,0.615c0.176-0.185,0.388-0.337,0.635-0.457
		c0.371-0.179,0.787-0.27,1.238-0.27c0.789,0,1.398,0.199,1.811,0.591c0.413,0.394,0.622,1.019,0.622,1.859v4.212h-1.333v-4.178
		c0-0.447-0.097-0.779-0.288-0.986c-0.188-0.204-0.5-0.307-0.926-0.307c-0.587,0-1,0.148-1.263,0.452
		c-0.266,0.31-0.4,0.846-0.4,1.593v3.427H117.709z"/>
	<path fill="#FFFFFF" d="M129.799,18.7c-1.299,0-1.985-0.719-1.985-2.08v-3.459h-0.88v-0.779l0.915-0.403l0.41-1.367h0.888v1.425
		h1.784v1.125h-1.784v3.42c0,0.318,0.071,0.561,0.213,0.72c0.138,0.154,0.326,0.229,0.574,0.229c0.153,0,0.302-0.011,0.446-0.034
		c0.145-0.022,0.257-0.046,0.342-0.07l0.255-0.073v1.105l-0.115,0.054c-0.124,0.058-0.287,0.103-0.5,0.137
		C130.153,18.684,129.966,18.7,129.799,18.7z"/>
	<path fill="#FFFFFF" d="M131.806,18.587V9.455h1.331v2.843c0,0.091-0.001,0.178-0.004,0.26c0.147-0.134,0.318-0.25,0.51-0.347
		c0.366-0.184,0.786-0.277,1.248-0.277c0.803,0,1.418,0.199,1.83,0.591c0.416,0.395,0.627,1.017,0.627,1.848v4.212h-1.334v-4.178
		c0-0.447-0.097-0.779-0.288-0.986c-0.188-0.204-0.5-0.307-0.926-0.307c-0.582,0-1.007,0.153-1.264,0.457
		c-0.265,0.313-0.399,0.852-0.399,1.6v3.416H131.806z"/>
	<path fill="#FFFFFF" d="M141.658,18.699c-0.963,0-1.735-0.301-2.298-0.894c-0.559-0.588-0.843-1.411-0.843-2.445
		s0.263-1.872,0.779-2.49c0.526-0.629,1.24-0.948,2.121-0.948c0.825,0,1.49,0.279,1.979,0.828c0.48,0.542,0.724,1.262,0.724,2.139
		v0.789h-4.227c0.044,0.569,0.206,1.008,0.484,1.308c0.309,0.335,0.738,0.497,1.315,0.497c0.632,0,1.267-0.134,1.885-0.399
		l0.279-0.119v1.266l-0.121,0.052c-0.342,0.147-0.669,0.254-0.973,0.318C142.458,18.666,142.086,18.699,141.658,18.699z
		 M142.714,14.522c-0.025-0.439-0.14-0.782-0.34-1.021c-0.226-0.268-0.542-0.397-0.969-0.397c-0.439,0-0.778,0.136-1.035,0.417
		c-0.224,0.244-0.371,0.58-0.439,1.001H142.714z"/>
</g>
</svg>
