<?xml version="1.0" encoding="utf-8"?>
<!-- Generator: Adobe Illustrator 17.0.0, SVG Export Plug-In . SVG Version: 6.00 Build 0)  -->
<!DOCTYPE svg PUBLIC "-//W3C//DTD SVG 1.1//EN" "http://www.w3.org/Graphics/SVG/1.1/DTD/svg11.dtd">
<svg version="1.1" id="Layer_1" xmlns="http://www.w3.org/2000/svg" xmlns:xlink="http://www.w3.org/1999/xlink" x="0px" y="0px"
	 width="162px" height="50px" viewBox="10 2.5 162 50" enable-background="new 10 2.5 162 50" xml:space="preserve">
<g>
	<g>
		<g>
			<path fill="#55636C" d="M42.472,26.854c0.047,5.218,4.577,6.954,4.628,6.976c-0.038,0.122-0.724,2.475-2.386,4.904
				c-1.437,2.1-2.929,4.193-5.278,4.236c-2.309,0.043-3.051-1.369-5.691-1.369c-2.639,0-3.464,1.326-5.649,1.412
				c-2.268,0.086-3.995-2.271-5.444-4.364c-2.961-4.281-5.224-12.096-2.185-17.372c1.509-2.62,4.207-4.279,7.135-4.322
				c2.227-0.042,4.329,1.498,5.691,1.498c1.361,0,3.915-1.853,6.6-1.581c1.124,0.047,4.28,0.454,6.306,3.42
				C46.035,20.395,42.433,22.492,42.472,26.854z M38.134,14.041c1.204-1.458,2.014-3.486,1.793-5.505
				c-1.736,0.07-3.834,1.157-5.079,2.613c-1.116,1.29-2.093,3.355-1.829,5.333C34.953,16.632,36.929,15.5,38.134,14.041z"/>
		</g>
	</g>
</g>
<g>
	<path fill="#55636C" d="M71.436,34.952l-2.091-5.319h-7.542l-2.114,5.319H57.96l6.904-17.175h1.516l6.784,17.175H71.436z
		 M68.794,28.161l-3.154-8.329l-3.277,8.329H68.794z"/>
	<path fill="#55636C" d="M73.663,39.229V22.423h1.474v1.851c0.697-1.049,2.002-2.13,4.095-2.13c3.439,0,5.661,2.578,5.661,6.567
		c0,4.084-2.115,6.521-5.661,6.521c-1.826,0-3.243-0.676-4.095-1.926v5.923H73.663z M79.231,23.502
		c-3.777,0-4.071,3.988-4.071,5.209c0,2.356,0.706,5.163,4.071,5.163c3.088-0.001,4.188-2.668,4.188-5.163
		C83.418,26.308,82.322,23.502,79.231,23.502z"/>
	<path fill="#55636C" d="M86.576,39.229V22.423h1.474v1.851c0.697-1.05,2.001-2.13,4.094-2.13c3.44,0,5.662,2.578,5.662,6.567
		c0,4.084-2.116,6.521-5.662,6.521c-1.825,0-3.241-0.675-4.094-1.925v5.922H86.576z M92.144,23.502
		c-3.777,0-4.071,3.988-4.071,5.209c0,2.356,0.706,5.163,4.071,5.163c3.088-0.001,4.188-2.668,4.188-5.163
		C96.332,26.308,95.235,23.502,92.144,23.502z"/>
	<path fill="#55636C" d="M112.629,35.347c-2.534,0-4.533-0.67-5.779-1.936c-1.03-1.046-1.537-2.473-1.508-4.241l0.005-0.291h1.624
		l-0.016,0.31c-0.066,1.298,0.274,2.351,1.013,3.128c0.952,1.002,2.607,1.554,4.66,1.554c1.676,0,4.513-0.735,4.513-3.49
		c0-2.521-2.604-3.034-5.36-3.577c-2.552-0.505-5.951-1.179-5.951-4.716c0-3.253,2.949-4.708,5.871-4.708
		c4.041,0,6.46,1.973,6.636,5.413l0.016,0.31h-1.618l-0.012-0.283c-0.103-2.521-1.934-3.967-5.023-3.967
		c-1.964,0-4.258,0.847-4.258,3.234c0,2.338,2.487,2.828,5.12,3.346l0.286,0.057c2.988,0.588,5.906,1.451,5.906,4.889
		C118.756,33.795,115.58,35.347,112.629,35.347z"/>
	<path fill="#55636C" d="M124.407,34.975c-1.142,0-1.917-0.254-2.442-0.801c-0.504-0.526-0.736-1.32-0.691-2.361v-8.03h-2.207
		v-1.358h2.207v-3.716h1.473v3.716h2.601v1.357h-2.601v8.043c0,1.524,0.563,1.782,1.826,1.782c0.142,0,0.29-0.004,0.444-0.011
		l0.308-0.013v1.352l-0.276,0.019C124.836,34.966,124.62,34.975,124.407,34.975z"/>
	<path fill="#55636C" d="M131.603,35.232c-3.455,0-5.776-2.63-5.776-6.543c0-3.854,2.375-6.545,5.776-6.545
		c3.402,0,5.778,2.691,5.778,6.545C137.381,32.602,135.06,35.232,131.603,35.232z M131.603,23.501c-2.956,0-4.303,2.689-4.303,5.188
		c0,2.497,1.347,5.186,4.303,5.186c2.957,0,4.304-2.689,4.304-5.186C135.907,26.19,134.56,23.501,131.603,23.501z"/>
	<path fill="#55636C" d="M138.855,34.953v-12.53h1.474v1.838c0.842-1.137,2.449-1.91,4.172-1.91l0.472,0.012v1.504l-0.332-0.041
		c-0.129-0.017-0.266-0.025-0.408-0.025c-0.557,0-1.644,0.144-2.65,1.107c-0.829,0.898-1.19,1.551-1.254,3.236v6.81
		C140.329,34.953,138.855,34.953,138.855,34.953z"/>
	<path fill="#55636C" d="M150.346,35.232c-1.549,0-2.889-0.532-3.875-1.539c-1.132-1.158-1.734-2.862-1.694-4.801
		c-0.044-2.089,0.623-4.001,1.831-5.235c0.969-0.99,2.261-1.512,3.737-1.512c1.612,0,2.978,0.542,3.951,1.569
		c1.14,1.204,1.707,3.018,1.594,5.109l-0.016,0.28h-9.626c0.022,1.479,0.506,2.803,1.347,3.665c0.717,0.735,1.642,1.108,2.748,1.108
		c2.114,0,3.566-1.209,3.984-3.315l0.047-0.237h1.473l-0.057,0.344C155.307,33.61,153.372,35.232,150.346,35.232z M154.4,27.742
		c-0.177-2.156-1.581-4.241-4.055-4.241c-2.34,0-3.779,2.083-4.061,4.241H154.4z"/>
</g>
<g>
	<g opacity="0.6">
		<path fill="#55636C" d="M168.945,52.5H13.055c-1.538,0-2.79-1.252-2.79-2.79V5.29c0.001-1.538,1.252-2.79,2.79-2.79h155.891
			c1.538,0,2.79,1.252,2.79,2.79V49.71C171.735,51.248,170.484,52.5,168.945,52.5z M13.055,3.482c-0.997,0-1.807,0.811-1.807,1.808
			V49.71c0,0.997,0.811,1.808,1.807,1.808h155.891c0.997,0,1.808-0.811,1.808-1.808V5.29c0-0.997-0.811-1.808-1.808-1.808H13.055z"
			/>
	</g>
</g>
</svg>
