<?xml version="1.0" encoding="utf-8"?>
<!-- Generator: Adobe Illustrator 17.0.0, SVG Export Plug-In . SVG Version: 6.00 Build 0)  -->
<!DOCTYPE svg PUBLIC "-//W3C//DTD SVG 1.1//EN" "http://www.w3.org/Graphics/SVG/1.1/DTD/svg11.dtd">
<svg version="1.1" id="Layer_1" xmlns="http://www.w3.org/2000/svg" xmlns:xlink="http://www.w3.org/1999/xlink" x="0px" y="0px"
	 width="200px" height="200px" viewBox="0 0 200 200" enable-background="new 0 0 200 200" xml:space="preserve">
<g>
	
		<line fill="none" stroke="#FFFFFF" stroke-width="4.6429" stroke-linecap="round" stroke-linejoin="round" stroke-miterlimit="10" x1="100.06" y1="56.053" x2="100.06" y2="47.632"/>
	
		<line fill="none" stroke="#FFFFFF" stroke-width="4.6429" stroke-linecap="round" stroke-linejoin="round" stroke-miterlimit="10" x1="127.338" y1="128.771" x2="146.316" y2="165"/>
	
		<line fill="none" stroke="#FFFFFF" stroke-width="4.6429" stroke-linecap="round" stroke-linejoin="round" stroke-miterlimit="10" x1="107.724" y1="91.329" x2="119.539" y2="113.883"/>
	
		<line fill="none" stroke="#FFFFFF" stroke-width="4.6429" stroke-linecap="round" stroke-linejoin="round" stroke-miterlimit="10" x1="72.721" y1="128.753" x2="53.684" y2="165"/>
	
		<line fill="none" stroke="#FFFFFF" stroke-width="4.6429" stroke-linecap="round" stroke-linejoin="round" stroke-miterlimit="10" x1="92.371" y1="91.338" x2="80.555" y2="113.836"/>
	
		<circle fill="none" stroke="#FFFFFF" stroke-width="4.6429" stroke-linecap="round" stroke-linejoin="round" stroke-miterlimit="10" cx="100.06" cy="78.919" r="14.621"/>
	<g>
		
			<path fill="none" stroke="#FFFFFF" stroke-width="4.6429" stroke-linecap="round" stroke-linejoin="round" stroke-miterlimit="10" d="
			M100.06,135.736c-14.556,0-29.112-5.543-40.193-16.624c-3.29-3.29-3.29-8.619,0-11.908c3.285-3.289,8.622-3.289,11.908,0
			c15.596,15.592,40.974,15.592,56.571,0c3.285-3.289,8.623-3.289,11.908,0c3.289,3.29,3.289,8.619,0,11.908
			C129.171,130.193,114.616,135.736,100.06,135.736z"/>
	</g>
	
		<rect x="95.789" y="35" fill="none" stroke="#FFFFFF" stroke-width="4.6429" stroke-linecap="round" stroke-linejoin="round" stroke-miterlimit="10" width="8.421" height="12.632"/>
</g>
</svg>
