<?xml version="1.0" encoding="utf-8"?>
<!-- Generator: Adobe Illustrator 17.0.0, SVG Export Plug-In . SVG Version: 6.00 Build 0)  -->
<!DOCTYPE svg PUBLIC "-//W3C//DTD SVG 1.1//EN" "http://www.w3.org/Graphics/SVG/1.1/DTD/svg11.dtd">
<svg version="1.1" id="Layer_1" xmlns="http://www.w3.org/2000/svg" xmlns:xlink="http://www.w3.org/1999/xlink" x="0px" y="0px"
	 width="200px" height="200px" viewBox="0 0 200 200" enable-background="new 0 0 200 200" xml:space="preserve">
<g>
	<g>
		<g>
			<path fill="#FFFFFF" d="M125.881,35c0.834,7.611-2.224,15.26-6.762,20.756c-4.269,5.171-11.112,9.255-17.978,9.255
				c-0.435,0-0.872-0.016-1.307-0.05c-0.994-7.461,2.69-15.245,6.896-20.109C111.424,39.361,119.337,35.263,125.881,35
				 M123.681,66.331c0.687,0,1.377,0.033,2.07,0.103c4.239,0.176,16.137,1.712,23.777,12.895
				c-0.616,0.382-14.197,8.288-14.049,24.735c0.177,19.673,17.259,26.22,17.448,26.303c-0.144,0.462-2.728,9.33-8.996,18.49
				c-5.418,7.919-11.042,15.81-19.901,15.973c-0.129,0.002-0.257,0.004-0.384,0.004c-8.406,0-11.267-5.165-21.072-5.165
				c-9.949,0-13.059,4.998-21.298,5.322c-0.151,0.006-0.303,0.009-0.453,0.009c-8.329,0-14.706-8.712-20.073-16.463
				c-11.164-16.14-19.695-45.607-8.24-65.499c5.691-9.878,15.861-16.133,26.9-16.294c0.114-0.002,0.229-0.003,0.342-0.003
				c8.27,0,16.05,5.652,21.113,5.652C105.644,72.394,114.329,66.332,123.681,66.331 M125.884,30.357
				c-0.063,0-0.126,0.001-0.189,0.004c-7.858,0.316-16.897,4.927-22.493,11.475c-4.654,5.381-9.205,14.459-7.969,23.738
				c0.023,0.173,0.056,0.344,0.097,0.51c-0.268-0.105-0.536-0.212-0.803-0.318c-4.12-1.634-9.248-3.668-14.775-3.668
				c-0.143,0-0.288,0.001-0.431,0.004c-12.5,0.182-24.323,7.316-30.834,18.618c-5.756,9.994-7.454,22.885-4.912,37.281
				c2.09,11.834,6.958,23.927,13.356,33.176c5.092,7.354,12.785,18.464,23.891,18.464c0.208,0,0.419-0.004,0.629-0.012
				c4.686-0.184,8.042-1.614,11.003-2.875c3.079-1.311,5.739-2.444,10.12-2.444c4.129,0,6.647,1.089,9.561,2.35
				c3.05,1.32,6.508,2.815,11.51,2.815c0.155,0,0.312-0.001,0.47-0.004c11.48-0.212,18.226-10.071,23.647-17.993
				c6.002-8.772,8.854-17.288,9.585-19.689c0.705-2.254-0.384-4.715-2.544-5.669c-0.044-0.02-0.116-0.05-0.161-0.068
				c-1.471-0.596-14.378-6.275-14.52-22.03c-0.115-12.819,9.779-19.487,11.763-20.693l0.089-0.055
				c1.077-0.668,1.834-1.746,2.096-2.986c0.262-1.24,0.006-2.533-0.709-3.579c-8.669-12.689-21.863-14.661-27.282-14.909
				c-0.785-0.075-1.591-0.113-2.398-0.113c0,0,0,0,0,0c-1.402,0-2.776,0.111-4.116,0.305c1.115-1.01,2.165-2.107,3.134-3.281
				c5.777-6.996,8.691-16.05,7.797-24.218C130.237,32.132,128.24,30.357,125.884,30.357L125.884,30.357z"/>
		</g>
	</g>
</g>
</svg>
