<?xml version="1.0" encoding="utf-8"?>
<!-- Generator: Adobe Illustrator 17.0.0, SVG Export Plug-In . SVG Version: 6.00 Build 0)  -->
<!DOCTYPE svg PUBLIC "-//W3C//DTD SVG 1.1//EN" "http://www.w3.org/Graphics/SVG/1.1/DTD/svg11.dtd">
<svg version="1.1" id="Layer_1" xmlns="http://www.w3.org/2000/svg" xmlns:xlink="http://www.w3.org/1999/xlink" x="0px" y="0px"
	 width="200px" height="200px" viewBox="0 0 200 200" enable-background="new 0 0 200 200" xml:space="preserve">
<g>
	<g>
		<g>
			<path fill="#FFFFFF" d="M122.211,35c0.216,0,0.423,0.054,0.615,0.161c0.296,0.164,0.512,0.434,0.605,0.76
				c0.094,0.326,0.055,0.67-0.11,0.967l-5.669,10.229c0.761,0.4,1.516,0.808,2.241,1.257c8.082,4.999,13.796,12.965,15.401,22.202
				c0.298,1.716,0.495,3.463,0.495,5.257c0,0.031-0.005,0.061-0.005,0.092h-0.025H64.243h-0.025c0-0.031-0.005-0.061-0.005-0.092
				c0-1.794,0.197-3.541,0.495-5.257c1.604-9.237,7.318-17.203,15.4-22.202c0.725-0.448,1.48-0.857,2.241-1.257l-5.671-10.23
				c-0.164-0.296-0.203-0.64-0.109-0.966c0.093-0.326,0.309-0.596,0.606-0.762C77.366,35.054,77.573,35,77.789,35
				c0.463,0,0.891,0.251,1.114,0.655l5.748,10.369c0.787-0.346,1.586-0.67,2.404-0.964c4.019-1.442,8.374-2.263,12.945-2.263
				s8.926,0.821,12.945,2.263c0.818,0.293,1.616,0.617,2.403,0.964l5.747-10.368C121.32,35.251,121.748,35,122.211,35
				 M116.518,62.565c1.576,0,2.858-1.282,2.858-2.858c0-1.576-1.282-2.857-2.858-2.857s-2.858,1.281-2.858,2.857
				C113.66,61.283,114.942,62.565,116.518,62.565 M83.482,62.565c1.576,0,2.858-1.282,2.858-2.858c0-1.576-1.282-2.857-2.858-2.857
				s-2.858,1.281-2.858,2.857C80.624,61.283,81.907,62.565,83.482,62.565 M146.799,77.117c4.496,0,8.153,3.657,8.153,8.153v33.428
				c0,4.496-3.657,8.153-8.153,8.153c-4.496,0-8.153-3.657-8.153-8.153V85.271C138.646,80.774,142.303,77.117,146.799,77.117
				 M53.201,77.117c4.496,0,8.153,3.657,8.153,8.153v33.428c0,4.496-3.657,8.153-8.153,8.153c-4.496,0-8.153-3.657-8.153-8.153
				V85.271C45.047,80.774,48.704,77.117,53.201,77.117 M135.788,78.493v52.003c0,4.778-3.874,8.652-8.652,8.652h-3.042h-2.569
				v17.697c0,4.496-3.657,8.155-8.153,8.155c-4.496,0-8.153-3.658-8.153-8.155v-17.697h-2.569h-5.297h-2.569v17.697
				c0,4.496-3.657,8.155-8.153,8.155c-4.496,0-8.153-3.658-8.153-8.155v-17.697h-2.569h-3.042c-4.778,0-8.652-3.874-8.652-8.652
				V78.493H135.788 M122.211,30.357c-2.151,0-4.134,1.168-5.176,3.049l-3.797,6.849c-4.297-1.394-8.744-2.1-13.238-2.1
				c-4.495,0-8.941,0.706-13.238,2.101l-3.798-6.851c-1.038-1.878-3.022-3.047-5.175-3.047c-0.996,0-1.985,0.255-2.859,0.738
				c-1.395,0.777-2.394,2.037-2.826,3.554c-0.434,1.506-0.253,3.106,0.515,4.49l3.491,6.297
				c-8.499,5.816-14.283,14.594-15.976,24.343c-0.272,1.565-0.443,3.025-0.519,4.42c-1.887-1.097-4.078-1.726-6.414-1.726
				c-7.056,0-12.796,5.74-12.796,12.796v33.428c0,7.056,5.74,12.796,12.796,12.796c2.317,0,4.492-0.619,6.369-1.7v0.702
				c0,7.331,5.964,13.295,13.295,13.295h0.968v13.054c0,7.057,5.74,12.798,12.796,12.798c7.056,0,12.796-5.741,12.796-12.798
				v-13.054h1.15v13.054c0,7.057,5.74,12.798,12.796,12.798c7.056,0,12.796-5.741,12.796-12.798v-13.054h0.968
				c7.331,0,13.295-5.964,13.295-13.295v-0.702c1.877,1.081,4.052,1.7,6.369,1.7c7.056,0,12.796-5.74,12.796-12.796V85.271
				c0-7.056-5.74-12.796-12.796-12.796c-2.335,0-4.527,0.629-6.414,1.726c-0.076-1.395-0.247-2.855-0.519-4.419
				c-1.693-9.749-7.478-18.527-15.977-24.344l3.491-6.299c0.767-1.378,0.95-2.981,0.511-4.505c-0.428-1.504-1.428-2.765-2.812-3.533
				C124.203,30.615,123.211,30.357,122.211,30.357L122.211,30.357z"/>
		</g>
	</g>
</g>
</svg>
