<?xml version="1.0" encoding="utf-8"?>
<!-- Generator: Adobe Illustrator 17.0.0, SVG Export Plug-In . SVG Version: 6.00 Build 0)  -->
<!DOCTYPE svg PUBLIC "-//W3C//DTD SVG 1.1//EN" "http://www.w3.org/Graphics/SVG/1.1/DTD/svg11.dtd">
<svg version="1.1" id="Layer_1" xmlns="http://www.w3.org/2000/svg" xmlns:xlink="http://www.w3.org/1999/xlink" x="0px" y="0px"
	 width="200px" height="200px" viewBox="0 0 200 200" enable-background="new 0 0 200 200" xml:space="preserve">
<g>
	<g>
		
			<path fill="none" stroke="#FFFFFF" stroke-width="5.3317" stroke-linecap="round" stroke-linejoin="round" stroke-miterlimit="10" d="
			M134.749,107.184c15.82,15.82,28.02,28.02,28.02,28.02c1.735,1.735,1.412,4.858-0.323,6.592l-20.893,21.139
			c-1.735,1.735-5.825,2.532-8.357,0c0,0-10.758-11.516-26.442-27.2"/>
		
			<path fill="none" stroke="#FFFFFF" stroke-width="5.3317" stroke-linecap="round" stroke-linejoin="round" stroke-miterlimit="10" d="
			M64.455,93.436c-16.11-16.11-27.366-26.854-27.366-26.854c-1.735-1.735-2.873-5.484,0-8.357l20.893-20.893
			c1.735-1.735,5.136-3.221,8.357,0c0,0,10.423,11.865,26.667,28.108"/>
		
			<line fill="none" stroke="#FFFFFF" stroke-width="5.3317" stroke-linecap="round" stroke-linejoin="round" stroke-miterlimit="10" x1="127.712" y1="155.638" x2="143.642" y2="139.707"/>
		
			<line fill="none" stroke="#FFFFFF" stroke-width="5.3317" stroke-linecap="round" stroke-linejoin="round" stroke-miterlimit="10" x1="115.35" y1="142.928" x2="122.75" y2="135.529"/>
		
			<line fill="none" stroke="#FFFFFF" stroke-width="5.3317" stroke-linecap="round" stroke-linejoin="round" stroke-miterlimit="10" x1="44.054" y1="72.154" x2="60.071" y2="56.136"/>
		
			<line fill="none" stroke="#FFFFFF" stroke-width="5.3317" stroke-linecap="round" stroke-linejoin="round" stroke-miterlimit="10" x1="56.676" y1="84.603" x2="64.25" y2="77.029"/>
	</g>
	<g>
		
			<polygon fill="none" stroke="#FFFFFF" stroke-width="5.3317" stroke-linecap="round" stroke-linejoin="round" stroke-miterlimit="10" points="
			48.204,124.097 120.075,52.227 148.198,80.35 76.786,152.243 35,164.692 		"/>
		
			<path fill="none" stroke="#FFFFFF" stroke-width="5.3317" stroke-linecap="round" stroke-linejoin="round" stroke-miterlimit="10" d="
			M148.082,80.35l15.624-15.624c1.726-1.726,1.726-4.524,0-6.25l-21.874-21.874c-1.726-1.726-4.524-1.726-6.249,0l-15.624,15.624"/>
		
			<polyline fill="none" stroke="#FFFFFF" stroke-width="5.3317" stroke-linecap="round" stroke-linejoin="round" stroke-miterlimit="10" points="
			140.458,72.727 72.607,139.707 76.211,152.22 		"/>
		
			<polyline fill="none" stroke="#FFFFFF" stroke-width="5.3317" stroke-linecap="round" stroke-linejoin="round" stroke-miterlimit="10" points="
			48.088,124.097 60.217,126.851 127.313,59.582 		"/>
		
			<polyline fill="none" stroke="#FFFFFF" stroke-width="5.3317" stroke-linecap="round" stroke-linejoin="round" stroke-miterlimit="10" points="
			60.071,127.172 60.071,139.707 72.607,139.707 		"/>
	</g>
</g>
</svg>
