<?xml version="1.0" encoding="utf-8"?>
<!-- Generator: Adobe Illustrator 17.0.0, SVG Export Plug-In . SVG Version: 6.00 Build 0)  -->
<!DOCTYPE svg PUBLIC "-//W3C//DTD SVG 1.1//EN" "http://www.w3.org/Graphics/SVG/1.1/DTD/svg11.dtd">
<svg version="1.1" id="Layer_1" xmlns="http://www.w3.org/2000/svg" xmlns:xlink="http://www.w3.org/1999/xlink" x="0px" y="0px"
	 width="200px" height="200px" viewBox="0 0 200 200" enable-background="new 0 0 200 200" xml:space="preserve">
<g>
	
		<path fill="none" stroke="#FFFFFF" stroke-width="4.7561" stroke-linecap="round" stroke-linejoin="round" stroke-miterlimit="10" d="
		M73.373,142.815c-0.423,0.207-0.878,0.308-1.331,0.308c-0.666,0-1.325-0.218-1.869-0.645l-30.405-23.811
		c-2.397-1.883-3.769-4.503-3.769-7.192V93.604c0-0.227,0.025-0.449,0.073-0.662c-0.02-0.239-0.031-0.479-0.031-0.72
		c0-2.731,1.34-5.35,3.677-7.185l30.263-23.832c0.911-0.718,2.152-0.853,3.197-0.345c1.044,0.506,1.707,1.565,1.707,2.726v19.227
		c0,0.929-0.426,1.807-1.156,2.381L56.014,99.14l-15.875-6.894l14.596,11.275l19.11,15.006c0.729,0.572,1.155,1.446,1.158,2.372
		l0.068,19.182C75.076,141.243,74.416,142.305,73.373,142.815z"/>
	<g>
		<g>
			<path fill="#FFFFFF" d="M104.314,85.745v7.854c0,0.636-0.038,1.258-0.113,1.861c-0.076,0.606-0.204,1.182-0.387,1.727
				c0.393-0.423,0.833-0.81,1.317-1.158c0.483-0.347,0.998-0.688,1.543-1.023l6.629-3.903l3.269,5.447l-6.629,3.859
				c-0.606,0.332-1.196,0.621-1.77,0.862c-0.576,0.243-1.166,0.423-1.771,0.545c0.605,0.122,1.203,0.311,1.794,0.567
				c0.59,0.258,1.172,0.554,1.747,0.886l6.629,3.949l-3.269,5.404l-6.629-3.951c-0.576-0.332-1.105-0.673-1.589-1.021
				c-0.484-0.348-0.938-0.734-1.362-1.158c0.393,1.06,0.59,2.224,0.59,3.495v7.945h-6.628v-7.854c0-0.604,0.037-1.218,0.113-1.837
				c0.075-0.621,0.204-1.188,0.385-1.703c-0.393,0.424-0.832,0.801-1.316,1.134c-0.484,0.334-0.999,0.667-1.543,0.999l-6.629,3.86
				l-3.269-5.404l6.629-3.857c0.575-0.332,1.15-0.621,1.725-0.862c0.575-0.243,1.165-0.424,1.771-0.545
				c-0.606-0.122-1.197-0.311-1.771-0.569c-0.575-0.256-1.15-0.552-1.725-0.884l-6.629-3.951l3.269-5.447l6.629,3.994
				c0.544,0.334,1.066,0.675,1.566,1.023c0.5,0.348,0.946,0.734,1.339,1.158c-0.363-1.029-0.544-2.194-0.544-3.497v-7.945H104.314
				 M104.314,80.989h-6.628c-2.627,0-4.756,2.129-4.756,4.756v2.265l-1.779-1.072c-0.747-0.45-1.597-0.682-2.455-0.682
				c-0.384,0-0.77,0.047-1.149,0.141c-1.225,0.305-2.279,1.085-2.929,2.168l-3.269,5.447c-0.65,1.084-0.843,2.382-0.534,3.607
				c0.308,1.226,1.092,2.278,2.177,2.925l2.12,1.264l-2.077,1.209c-1.102,0.641-1.901,1.699-2.216,2.935
				c-0.315,1.236-0.121,2.547,0.539,3.638l3.269,5.404c0.893,1.476,2.463,2.295,4.074,2.295c0.813,0,1.636-0.209,2.389-0.647
				l1.84-1.072v2.363c0,2.627,2.129,4.756,4.756,4.756h6.628c2.627,0,4.756-2.129,4.756-4.756v-2.297l1.799,1.072
				c0.763,0.455,1.602,0.671,2.431,0.671c1.61,0,3.18-0.818,4.074-2.295l3.269-5.404c0.656-1.084,0.852-2.385,0.545-3.614
				s-1.092-2.285-2.18-2.934l-2.119-1.262l2.078-1.21c1.1-0.64,1.897-1.694,2.213-2.926c0.317-1.232,0.126-2.54-0.528-3.631
				l-3.269-5.447c-0.891-1.485-2.466-2.31-4.083-2.31c-0.82,0-1.651,0.212-2.409,0.658l-1.82,1.072v-2.332
				C109.07,83.118,106.941,80.989,104.314,80.989L104.314,80.989z"/>
		</g>
	</g>
	
		<path fill="none" stroke="#FFFFFF" stroke-width="4.7561" stroke-linecap="round" stroke-linejoin="round" stroke-miterlimit="10" d="
		M166,110.075c0,0.227-0.025,0.449-0.072,0.662c0.02,0.239,0.031,0.479,0.031,0.72c0,2.731-1.34,5.35-3.677,7.185l-30.263,23.832
		c-0.911,0.718-2.152,0.853-3.197,0.345c-1.044-0.506-1.707-1.565-1.707-2.726v-19.227c0-0.929,0.426-1.806,1.156-2.381
		l17.716-13.946l15.875,6.894l-14.596-11.275l-19.11-15.006c-0.729-0.572-1.155-1.446-1.159-2.372l-0.068-19.183
		c-0.004-1.161,0.656-2.222,1.699-2.733c0.423-0.207,0.878-0.308,1.331-0.308c0.666,0,1.325,0.219,1.869,0.645l30.405,23.811
		c2.397,1.882,3.769,4.503,3.769,7.192V110.075z"/>
</g>
</svg>
