<?xml version="1.0" encoding="utf-8"?>
<!-- Generator: Adobe Illustrator 17.0.0, SVG Export Plug-In . SVG Version: 6.00 Build 0)  -->
<!DOCTYPE svg PUBLIC "-//W3C//DTD SVG 1.1//EN" "http://www.w3.org/Graphics/SVG/1.1/DTD/svg11.dtd">
<svg version="1.1" id="Layer_1" xmlns="http://www.w3.org/2000/svg" xmlns:xlink="http://www.w3.org/1999/xlink" x="0px" y="0px"
	 width="150px" height="150px" viewBox="0 0 150 150" enable-background="new 0 0 150 150" xml:space="preserve">
<g>
	<g>
		<path fill="#1A6EEB" d="M75,115.405c-22.279,0-40.405-18.126-40.405-40.405S52.721,34.595,75,34.595S115.405,52.721,115.405,75
			S97.279,115.405,75,115.405z M75,41.14c-18.67,0-33.86,15.19-33.86,33.86c0,18.671,15.19,33.86,33.86,33.86
			c18.671,0,33.86-15.189,33.86-33.86C108.86,56.329,93.671,41.14,75,41.14z"/>
	</g>
	<g>
		<path fill="#1A6EEB" d="M75,100.463c-14.041,0-25.463-11.423-25.463-25.463c0-14.041,11.423-25.464,25.463-25.464
			c14.04,0,25.463,11.423,25.463,25.464C100.463,89.04,89.04,100.463,75,100.463z M75,53.605c-11.797,0-21.395,9.598-21.395,21.395
			c0,11.797,9.598,21.395,21.395,21.395S96.395,86.797,96.395,75C96.395,63.203,86.797,53.605,75,53.605z"/>
	</g>
	<g>
		<path fill="#1A6EEB" d="M86.213,150H63.787c-4.748,0-8.612-3.864-8.612-8.612v-10.985c-1.812-0.647-3.595-1.384-5.337-2.206
			l-7.764,7.764c-1.629,1.627-3.791,2.522-6.09,2.522c-2.3,0-4.463-0.896-6.09-2.523l-15.857-15.857
			c-1.627-1.627-2.522-3.789-2.522-6.089c0-2.301,0.896-4.463,2.523-6.09l7.69-7.69c-0.844-1.764-1.601-3.573-2.264-5.411H8.612
			C3.863,94.824,0,90.961,0,86.213V63.787c0-4.749,3.863-8.612,8.612-8.612h10.71c0.663-1.882,1.424-3.734,2.276-5.54l-7.56-7.56
			c-1.627-1.627-2.522-3.789-2.522-6.09s0.896-4.463,2.523-6.089l15.856-15.858c1.628-1.627,3.79-2.522,6.09-2.522
			c2.3,0,4.463,0.896,6.09,2.522l7.487,7.487c1.829-0.875,3.705-1.655,5.614-2.336V8.612C55.175,3.863,59.039,0,63.787,0h22.426
			c4.749,0,8.612,3.863,8.612,8.612v10.577c1.908,0.681,3.785,1.461,5.613,2.336l7.487-7.486c1.627-1.627,3.789-2.522,6.089-2.522
			s4.462,0.896,6.09,2.522l15.857,15.858c1.627,1.627,2.523,3.789,2.523,6.089s-0.895,4.463-2.523,6.09l-7.56,7.56
			c0.852,1.806,1.613,3.658,2.277,5.54h10.71c4.749,0,8.612,3.863,8.612,8.612v22.426c0,4.749-3.863,8.612-8.612,8.612h-10.853
			c-0.663,1.839-1.42,3.647-2.264,5.411l7.69,7.691c1.626,1.626,2.522,3.788,2.522,6.089c0,2.3-0.895,4.462-2.523,6.089
			l-15.856,15.857c-1.628,1.627-3.791,2.523-6.09,2.523c-2.3,0-4.463-0.895-6.089-2.522l-7.764-7.764
			c-1.741,0.822-3.525,1.559-5.337,2.206v10.985C94.825,146.136,90.962,150,86.213,150z M49.189,120.948
			c0.517,0,1.037,0.122,1.517,0.373c2.785,1.458,5.716,2.669,8.712,3.599c1.369,0.425,2.302,1.692,2.302,3.125v13.342
			c0,1.14,0.927,2.068,2.067,2.068h22.426c1.14,0,2.068-0.927,2.068-2.068v-13.342c0-1.434,0.933-2.7,2.302-3.125
			c2.997-0.931,5.928-2.141,8.711-3.599c1.268-0.664,2.82-0.426,3.832,0.585l9.428,9.428c0.781,0.78,2.142,0.78,2.925-0.001
			l15.856-15.857c0.391-0.391,0.605-0.91,0.605-1.462c0-0.552-0.215-1.071-0.605-1.461l-9.363-9.364
			c-1.016-1.017-1.25-2.578-0.576-3.848c1.486-2.799,2.721-5.751,3.672-8.772c0.429-1.363,1.692-2.29,3.121-2.29h13.201
			c1.14,0,2.067-0.927,2.067-2.067V63.787c0-1.14-0.927-2.067-2.067-2.067h-13.078c-1.438,0-2.708-0.939-3.129-2.315
			c-0.938-3.065-2.169-6.061-3.656-8.903c-0.663-1.268-0.427-2.82,0.585-3.832l9.223-9.224c0.391-0.391,0.605-0.909,0.605-1.462
			c0-0.552-0.215-1.071-0.605-1.461l-15.857-15.858c-0.781-0.78-2.143-0.781-2.924,0l-9.16,9.159
			c-1.016,1.016-2.577,1.25-3.848,0.577c-2.859-1.517-5.874-2.772-8.962-3.731c-1.37-0.425-2.303-1.692-2.303-3.125V8.612
			c0-1.14-0.927-2.067-2.068-2.067H63.787c-1.14,0-2.067,0.927-2.067,2.067v12.935c0,1.434-0.933,2.7-2.302,3.125
			c-3.089,0.959-6.105,2.214-8.963,3.731c-1.269,0.674-2.831,0.44-3.848-0.577l-9.159-9.159c-0.781-0.781-2.141-0.781-2.925,0.001
			L18.667,34.524c-0.391,0.391-0.606,0.909-0.606,1.461c0,0.552,0.215,1.071,0.606,1.462l9.223,9.224
			c1.012,1.012,1.249,2.564,0.585,3.831c-1.488,2.843-2.718,5.838-3.656,8.903c-0.421,1.375-1.691,2.315-3.129,2.315H8.612
			c-1.14,0-2.067,0.927-2.067,2.067v22.426c0,1.14,0.927,2.067,2.067,2.067h13.2c1.429,0,2.692,0.927,3.121,2.29
			c0.951,3.021,2.186,5.972,3.672,8.772c0.674,1.27,0.44,2.831-0.576,3.848l-9.363,9.364c-0.391,0.391-0.606,0.909-0.606,1.462
			c0,0.552,0.215,1.071,0.606,1.462l15.857,15.857c0.781,0.781,2.142,0.781,2.925-0.001l9.426-9.426
			C47.503,121.278,48.341,120.948,49.189,120.948z"/>
	</g>
</g>
</svg>
