<?xml version="1.0" encoding="utf-8"?>
<!-- Generator: Adobe Illustrator 17.0.0, SVG Export Plug-In . SVG Version: 6.00 Build 0)  -->
<!DOCTYPE svg PUBLIC "-//W3C//DTD SVG 1.1//EN" "http://www.w3.org/Graphics/SVG/1.1/DTD/svg11.dtd">
<svg version="1.1" id="Layer_1" xmlns="http://www.w3.org/2000/svg" xmlns:xlink="http://www.w3.org/1999/xlink" x="0px" y="0px"
	 width="498px" height="150px" viewBox="0 0 498 150" enable-background="new 0 0 498 150" xml:space="preserve">
<g>
	
		<path fill="none" stroke="#56646D" stroke-width="3.324" stroke-linecap="round" stroke-linejoin="round" stroke-miterlimit="10" d="
		M363.178,48.48c-3.192-10.689-8.012-17.499-13.407-17.499c-9.61,0-17.4,21.607-17.4,48.261s7.79,48.261,17.4,48.261
		c5.395,0,10.215-6.81,13.407-17.499"/>
	
		<ellipse fill="none" stroke="#56646D" stroke-width="2.493" stroke-linecap="round" stroke-linejoin="round" stroke-miterlimit="10" cx="349.668" cy="59.94" rx="2.88" ry="7.989"/>
	
		<ellipse fill="none" stroke="#56646D" stroke-width="2.493" stroke-linecap="round" stroke-linejoin="round" stroke-miterlimit="10" cx="349.668" cy="99.528" rx="2.88" ry="7.989"/>
	
		<path fill="none" stroke="#56646D" stroke-width="3.324" stroke-linecap="round" stroke-linejoin="round" stroke-miterlimit="10" d="
		M364.102,110.004c-3.415-6.932-5.634-18.126-5.634-30.762c0-12.636,2.219-23.83,5.634-30.762c2.272-4.613,5.073-7.342,8.104-7.342
		c7.587,0,13.738,17.06,13.738,38.105s-6.151,38.105-13.738,38.105C369.174,117.347,366.374,114.617,364.102,110.004z"/>
	<g>
		<path fill="#56646D" d="M368.727,43.574c-1.037,0-1.876,0.839-1.876,1.876c0,1.035,0.839,1.874,1.876,1.874
			c1.035,0,1.876-0.839,1.876-1.874C370.603,44.414,369.762,43.574,368.727,43.574L368.727,43.574z"/>
	</g>
	<g>
		<path fill="#56646D" d="M376.816,43.574c-1.037,0-1.876,0.839-1.876,1.876c0,1.035,0.839,1.874,1.876,1.874
			c1.035,0,1.876-0.839,1.876-1.874C378.692,44.414,377.851,43.574,376.816,43.574L376.816,43.574z"/>
	</g>
	<g>
		<path fill="#56646D" d="M368.727,52.071c-1.037,0-1.876,0.839-1.876,1.876c0,1.035,0.839,1.874,1.876,1.874
			c1.035,0,1.876-0.839,1.876-1.874C370.603,52.911,369.762,52.071,368.727,52.071L368.727,52.071z"/>
	</g>
	<g>
		<path fill="#56646D" d="M376.816,52.071c-1.037,0-1.876,0.839-1.876,1.876c0,1.035,0.839,1.874,1.876,1.874
			c1.035,0,1.876-0.839,1.876-1.874C378.692,52.911,377.851,52.071,376.816,52.071L376.816,52.071z"/>
	</g>
	<g>
		<path fill="#56646D" d="M360.695,60.574c-0.296,1.19-0.571,2.385-0.815,3.582c0.232,0.102,0.487,0.162,0.757,0.162
			c1.035,0,1.876-0.839,1.876-1.874C362.514,61.427,361.703,60.606,360.695,60.574L360.695,60.574z"/>
	</g>
	<g>
		<path fill="#56646D" d="M368.727,60.568c-1.037,0-1.876,0.839-1.876,1.876c0,1.035,0.839,1.874,1.876,1.874
			c1.035,0,1.876-0.839,1.876-1.874C370.603,61.408,369.762,60.568,368.727,60.568L368.727,60.568z"/>
	</g>
	<g>
		<path fill="#56646D" d="M376.816,60.568c-1.037,0-1.876,0.839-1.876,1.876c0,1.035,0.839,1.874,1.876,1.874
			c1.035,0,1.876-0.839,1.876-1.874C378.692,61.408,377.851,60.568,376.816,60.568L376.816,60.568z"/>
	</g>
	<g>
		<path fill="#56646D" d="M360.638,69.065c-0.757,0-1.404,0.45-1.701,1.094c-0.043,0.406-0.086,0.811-0.12,1.214
			c0.196,0.825,0.934,1.441,1.821,1.441c1.035,0,1.876-0.839,1.876-1.874C362.514,69.905,361.672,69.065,360.638,69.065
			L360.638,69.065z"/>
	</g>
	<g>
		<path fill="#56646D" d="M368.727,69.065c-1.037,0-1.876,0.839-1.876,1.876c0,1.035,0.839,1.874,1.876,1.874
			c1.035,0,1.876-0.839,1.876-1.874C370.603,69.905,369.762,69.065,368.727,69.065L368.727,69.065z"/>
	</g>
	<g>
		<path fill="#56646D" d="M376.816,69.065c-1.037,0-1.876,0.839-1.876,1.876c0,1.035,0.839,1.874,1.876,1.874
			c1.035,0,1.876-0.839,1.876-1.874C378.692,69.905,377.851,69.065,376.816,69.065L376.816,69.065z"/>
	</g>
	<g>
		<path fill="#56646D" d="M360.638,77.562c-1.037,0-1.876,0.839-1.876,1.876c0,1.035,0.839,1.874,1.876,1.874
			c1.035,0,1.876-0.839,1.876-1.874C362.514,78.401,361.672,77.562,360.638,77.562L360.638,77.562z"/>
	</g>
	<g>
		<path fill="#56646D" d="M368.727,77.562c-1.037,0-1.876,0.839-1.876,1.876c0,1.035,0.839,1.874,1.876,1.874
			c1.035,0,1.876-0.839,1.876-1.874C370.603,78.401,369.762,77.562,368.727,77.562L368.727,77.562z"/>
	</g>
	<g>
		<path fill="#56646D" d="M376.816,77.562c-1.037,0-1.876,0.839-1.876,1.876c0,1.035,0.839,1.874,1.876,1.874
			c1.035,0,1.876-0.839,1.876-1.874C378.692,78.401,377.851,77.562,376.816,77.562L376.816,77.562z"/>
	</g>
	<g>
		<path fill="#56646D" d="M360.638,86.059c-0.556,0-1.049,0.245-1.392,0.629c0.122,0.952,0.265,1.901,0.429,2.848
			c0.282,0.17,0.61,0.274,0.964,0.274c1.035,0,1.876-0.839,1.876-1.874C362.514,86.898,361.672,86.059,360.638,86.059
			L360.638,86.059z"/>
	</g>
	<g>
		<path fill="#56646D" d="M368.727,86.059c-1.037,0-1.876,0.839-1.876,1.876c0,1.035,0.839,1.874,1.876,1.874
			c1.035,0,1.876-0.839,1.876-1.874C370.603,86.898,369.762,86.059,368.727,86.059L368.727,86.059z"/>
	</g>
	<g>
		<path fill="#56646D" d="M376.816,86.059c-1.037,0-1.876,0.839-1.876,1.876c0,1.035,0.839,1.874,1.876,1.874
			c1.035,0,1.876-0.839,1.876-1.874C378.692,86.898,377.851,86.059,376.816,86.059L376.816,86.059z"/>
	</g>
	<g>
		<path fill="#56646D" d="M360.766,94.569c0.142,0.541,0.276,1.084,0.434,1.623c0.171,0.58,0.349,1.168,0.529,1.758
			c0.473-0.34,0.784-0.892,0.784-1.518C362.514,95.439,361.74,94.636,360.766,94.569L360.766,94.569z"/>
	</g>
	<g>
		<path fill="#56646D" d="M368.727,94.556c-1.037,0-1.876,0.839-1.876,1.876c0,1.035,0.839,1.874,1.876,1.874
			c1.035,0,1.876-0.839,1.876-1.874C370.603,95.395,369.762,94.556,368.727,94.556L368.727,94.556z"/>
	</g>
	<g>
		<path fill="#56646D" d="M376.816,94.556c-1.037,0-1.876,0.839-1.876,1.876c0,1.035,0.839,1.874,1.876,1.874
			c1.035,0,1.876-0.839,1.876-1.874C378.692,95.395,377.851,94.556,376.816,94.556L376.816,94.556z"/>
	</g>
	<g>
		<path fill="#56646D" d="M368.727,103.053c-1.037,0-1.876,0.839-1.876,1.876c0,1.035,0.839,1.874,1.876,1.874
			c1.035,0,1.876-0.839,1.876-1.874C370.603,103.892,369.762,103.053,368.727,103.053L368.727,103.053z"/>
	</g>
	<g>
		<path fill="#56646D" d="M376.816,103.053c-1.037,0-1.876,0.839-1.876,1.876c0,1.035,0.839,1.874,1.876,1.874
			c1.035,0,1.876-0.839,1.876-1.874C378.692,103.892,377.851,103.053,376.816,103.053L376.816,103.053z"/>
	</g>
	<g>
		<path fill="#56646D" d="M368.727,111.55c-1.037,0-1.876,0.839-1.876,1.876c0,1.035,0.839,1.874,1.876,1.874
			c1.035,0,1.876-0.839,1.876-1.874C370.603,112.389,369.762,111.55,368.727,111.55L368.727,111.55z"/>
	</g>
	<g>
		<path fill="#56646D" d="M376.816,111.55c-1.037,0-1.876,0.839-1.876,1.876c0,1.035,0.839,1.874,1.876,1.874
			c1.035,0,1.876-0.839,1.876-1.874C378.692,112.389,377.851,111.55,376.816,111.55L376.816,111.55z"/>
	</g>

        <animateTransform
        attributeName="transform"
        begin="0s"
        dur="3s"
        type="translate"
        values="0;35;0"
        repeatCount="indefinite"
	/>
</g>
<g>
	
		<path fill="none" stroke="#56646D" stroke-width="4.0466" stroke-linecap="round" stroke-linejoin="round" stroke-miterlimit="10" d="
		M331.233,127.768l-20.293,3.599"/>
	
		<path fill="none" stroke="#56646D" stroke-width="4.0466" stroke-linecap="round" stroke-linejoin="round" stroke-miterlimit="10" d="
		M310.94,27.118l20.293,3.599"/>
	
		<path fill="none" stroke="#56646D" stroke-width="4.0466" stroke-linecap="round" stroke-linejoin="round" stroke-miterlimit="10" d="
		M310.94,131.367c-10.379,0-18.792-23.337-18.792-52.124s8.414-52.124,18.792-52.124"/>
	
		<path fill="none" stroke="#56646D" stroke-width="3.7467" stroke-linecap="round" stroke-linejoin="round" stroke-miterlimit="10" d="
		M330.557,127.504c-9.61,0-17.4-21.607-17.4-48.261s7.79-48.261,17.4-48.261"/>
	<g>
		<path fill="#56646D" d="M312.101,26.581c-1.037,0-1.876,0.839-1.876,1.876c0,1.035,0.839,1.874,1.876,1.874
			c1.035,0,1.876-0.839,1.876-1.874C313.977,27.42,313.136,26.581,312.101,26.581L312.101,26.581z"/>
	</g>
	<g>
		<path fill="#56646D" d="M320.19,26.581c-1.037,0-1.876,0.839-1.876,1.876c0,1.035,0.839,1.874,1.876,1.874
			c1.035,0,1.876-0.839,1.876-1.874C322.066,27.42,321.225,26.581,320.19,26.581L320.19,26.581z"/>
	</g>
	<g>
		<path fill="#56646D" d="M304.011,35.077c-1.037,0-1.876,0.839-1.876,1.876c0,1.035,0.839,1.874,1.876,1.874
			c1.035,0,1.876-0.839,1.876-1.874C305.887,35.917,305.046,35.077,304.011,35.077L304.011,35.077z"/>
	</g>
	<g>
		<path fill="#56646D" d="M312.101,35.077c-1.037,0-1.876,0.839-1.876,1.876c0,1.035,0.839,1.874,1.876,1.874
			c1.035,0,1.876-0.839,1.876-1.874C313.977,35.917,313.136,35.077,312.101,35.077L312.101,35.077z"/>
	</g>
	<g>
		<path fill="#56646D" d="M320.19,35.077c-1.037,0-1.876,0.839-1.876,1.876c0,1.035,0.839,1.874,1.876,1.874
			c1.035,0,1.876-0.839,1.876-1.874C322.066,35.917,321.225,35.077,320.19,35.077L320.19,35.077z"/>
	</g>
	<g>
		<path fill="#56646D" d="M304.011,43.574c-1.037,0-1.876,0.839-1.876,1.876c0,1.035,0.839,1.874,1.876,1.874
			c1.035,0,1.876-0.839,1.876-1.874C305.887,44.414,305.046,43.574,304.011,43.574L304.011,43.574z"/>
	</g>
	<g>
		<path fill="#56646D" d="M312.101,43.574c-1.037,0-1.876,0.839-1.876,1.876c0,1.035,0.839,1.874,1.876,1.874
			c1.035,0,1.876-0.839,1.876-1.874C313.977,44.414,313.136,43.574,312.101,43.574L312.101,43.574z"/>
	</g>
	<g>
		<path fill="#56646D" d="M295.922,52.071c-1.037,0-1.876,0.839-1.876,1.876c0,1.035,0.839,1.874,1.876,1.874
			c1.035,0,1.876-0.839,1.876-1.874C297.798,52.911,296.957,52.071,295.922,52.071L295.922,52.071z"/>
	</g>
	<g>
		<path fill="#56646D" d="M304.011,52.071c-1.037,0-1.876,0.839-1.876,1.876c0,1.035,0.839,1.874,1.876,1.874
			c1.035,0,1.876-0.839,1.876-1.874C305.887,52.911,305.046,52.071,304.011,52.071L304.011,52.071z"/>
	</g>
	<g>
		<path fill="#56646D" d="M312.101,52.071c-1.037,0-1.876,0.839-1.876,1.876c0,1.035,0.839,1.874,1.876,1.874
			c1.035,0,1.876-0.839,1.876-1.874C313.977,52.911,313.136,52.071,312.101,52.071L312.101,52.071z"/>
	</g>
	<g>
		<path fill="#56646D" d="M295.922,60.568c-1.037,0-1.876,0.839-1.876,1.876c0,1.035,0.839,1.874,1.876,1.874
			c1.035,0,1.876-0.839,1.876-1.874C297.798,61.408,296.957,60.568,295.922,60.568L295.922,60.568z"/>
	</g>
	<g>
		<path fill="#56646D" d="M304.011,60.568c-1.037,0-1.876,0.839-1.876,1.876c0,1.035,0.839,1.874,1.876,1.874
			c1.035,0,1.876-0.839,1.876-1.874C305.887,61.408,305.046,60.568,304.011,60.568L304.011,60.568z"/>
	</g>
	<g>
		<path fill="#56646D" d="M312.101,60.568c-1.037,0-1.876,0.839-1.876,1.876c0,1.035,0.839,1.874,1.876,1.874
			c1.035,0,1.876-0.839,1.876-1.874C313.977,61.408,313.136,60.568,312.101,60.568L312.101,60.568z"/>
	</g>
	<g>
		<path fill="#56646D" d="M295.922,69.065c-1.037,0-1.876,0.839-1.876,1.876c0,1.035,0.839,1.874,1.876,1.874
			c1.035,0,1.876-0.839,1.876-1.874C297.798,69.905,296.957,69.065,295.922,69.065L295.922,69.065z"/>
	</g>
	<g>
		<path fill="#56646D" d="M304.011,69.065c-1.037,0-1.876,0.839-1.876,1.876c0,1.035,0.839,1.874,1.876,1.874
			c1.035,0,1.876-0.839,1.876-1.874C305.887,69.905,305.046,69.065,304.011,69.065L304.011,69.065z"/>
	</g>
	<g>
		<path fill="#56646D" d="M312.101,69.065c-1.037,0-1.876,0.839-1.876,1.876c0,1.035,0.839,1.874,1.876,1.874
			c1.035,0,1.876-0.839,1.876-1.874C313.977,69.905,313.136,69.065,312.101,69.065L312.101,69.065z"/>
	</g>
	<g>
		<path fill="#56646D" d="M295.922,77.562c-1.037,0-1.876,0.839-1.876,1.876c0,1.035,0.839,1.874,1.876,1.874
			c1.035,0,1.876-0.839,1.876-1.874C297.798,78.401,296.957,77.562,295.922,77.562L295.922,77.562z"/>
	</g>
	<g>
		<path fill="#56646D" d="M304.011,77.562c-1.037,0-1.876,0.839-1.876,1.876c0,1.035,0.839,1.874,1.876,1.874
			c1.035,0,1.876-0.839,1.876-1.874C305.887,78.401,305.046,77.562,304.011,77.562L304.011,77.562z"/>
	</g>
	<g>
		<path fill="#56646D" d="M312.101,77.562c-1.037,0-1.876,0.839-1.876,1.876c0,1.035,0.839,1.874,1.876,1.874
			c1.035,0,1.876-0.839,1.876-1.874C313.977,78.401,313.136,77.562,312.101,77.562L312.101,77.562z"/>
	</g>
	<g>
		<path fill="#56646D" d="M295.922,86.059c-1.037,0-1.876,0.839-1.876,1.876c0,1.035,0.839,1.874,1.876,1.874
			c1.035,0,1.876-0.839,1.876-1.874C297.798,86.898,296.957,86.059,295.922,86.059L295.922,86.059z"/>
	</g>
	<g>
		<path fill="#56646D" d="M304.011,86.059c-1.037,0-1.876,0.839-1.876,1.876c0,1.035,0.839,1.874,1.876,1.874
			c1.035,0,1.876-0.839,1.876-1.874C305.887,86.898,305.046,86.059,304.011,86.059L304.011,86.059z"/>
	</g>
	<g>
		<path fill="#56646D" d="M312.101,86.059c-1.037,0-1.876,0.839-1.876,1.876c0,1.035,0.839,1.874,1.876,1.874
			c1.035,0,1.876-0.839,1.876-1.874C313.977,86.898,313.136,86.059,312.101,86.059L312.101,86.059z"/>
	</g>
	<g>
		<path fill="#56646D" d="M295.922,94.556c-1.037,0-1.876,0.839-1.876,1.876c0,1.035,0.839,1.874,1.876,1.874
			c1.035,0,1.876-0.839,1.876-1.874C297.798,95.395,296.957,94.556,295.922,94.556L295.922,94.556z"/>
	</g>
	<g>
		<path fill="#56646D" d="M304.011,94.556c-1.037,0-1.876,0.839-1.876,1.876c0,1.035,0.839,1.874,1.876,1.874
			c1.035,0,1.876-0.839,1.876-1.874C305.887,95.395,305.046,94.556,304.011,94.556L304.011,94.556z"/>
	</g>
	<g>
		<path fill="#56646D" d="M312.101,94.556c-1.037,0-1.876,0.839-1.876,1.876c0,1.035,0.839,1.874,1.876,1.874
			c1.035,0,1.876-0.839,1.876-1.874C313.977,95.395,313.136,94.556,312.101,94.556L312.101,94.556z"/>
	</g>
	<g>
		<path fill="#56646D" d="M295.922,103.053c-1.037,0-1.876,0.839-1.876,1.876c0,1.035,0.839,1.874,1.876,1.874
			c1.035,0,1.876-0.839,1.876-1.874C297.798,103.892,296.957,103.053,295.922,103.053L295.922,103.053z"/>
	</g>
	<g>
		<path fill="#56646D" d="M304.011,103.053c-1.037,0-1.876,0.839-1.876,1.876c0,1.035,0.839,1.874,1.876,1.874
			c1.035,0,1.876-0.839,1.876-1.874C305.887,103.892,305.046,103.053,304.011,103.053L304.011,103.053z"/>
	</g>
	<g>
		<path fill="#56646D" d="M312.101,103.053c-1.037,0-1.876,0.839-1.876,1.876c0,1.035,0.839,1.874,1.876,1.874
			c1.035,0,1.876-0.839,1.876-1.874C313.977,103.892,313.136,103.053,312.101,103.053L312.101,103.053z"/>
	</g>
	<g>
		<path fill="#56646D" d="M304.011,111.55c-1.037,0-1.876,0.839-1.876,1.876c0,1.035,0.839,1.874,1.876,1.874
			c1.035,0,1.876-0.839,1.876-1.874C305.887,112.389,305.046,111.55,304.011,111.55L304.011,111.55z"/>
	</g>
	<g>
		<path fill="#56646D" d="M312.101,111.55c-1.037,0-1.876,0.839-1.876,1.876c0,1.035,0.839,1.874,1.876,1.874
			c1.035,0,1.876-0.839,1.876-1.874C313.977,112.389,313.136,111.55,312.101,111.55L312.101,111.55z"/>
	</g>
	<g>
		<path fill="#56646D" d="M304.011,120.047c-1.037,0-1.876,0.839-1.876,1.876c0,1.035,0.839,1.874,1.876,1.874
			c1.035,0,1.876-0.839,1.876-1.874C305.887,120.886,305.046,120.047,304.011,120.047L304.011,120.047z"/>
	</g>
	<g>
		<path fill="#56646D" d="M312.101,120.047c-1.037,0-1.876,0.839-1.876,1.876c0,1.035,0.839,1.874,1.876,1.874
			c1.035,0,1.876-0.839,1.876-1.874C313.977,120.886,313.136,120.047,312.101,120.047L312.101,120.047z"/>
	</g>
	<g>
		<path fill="#56646D" d="M320.19,120.047c-1.037,0-1.876,0.839-1.876,1.876c0,1.035,0.839,1.874,1.876,1.874
			c1.035,0,1.876-0.839,1.876-1.874C322.066,120.886,321.225,120.047,320.19,120.047L320.19,120.047z"/>
	</g>
	<g>
		<path fill="#56646D" d="M312.101,128.544c-1.037,0-1.876,0.839-1.876,1.876c0,1.035,0.839,1.874,1.876,1.874
			c1.035,0,1.876-0.839,1.876-1.874C313.977,129.383,313.136,128.544,312.101,128.544L312.101,128.544z"/>
	</g>

        <animateTransform
        attributeName="transform"
        begin="0.1s"
        dur="3s"
        type="translate"
        values="0;50;0"
        repeatCount="indefinite"
	/>
</g>
<g>
	
		<path fill="none" stroke="#56646D" stroke-width="2.77" stroke-linecap="round" stroke-linejoin="round" stroke-miterlimit="10" d="
		M414.264,59.791c-2.018-6.759-5.066-11.065-8.477-11.065c-6.076,0-11.002,13.663-11.002,30.516s4.926,30.516,11.002,30.516
		c3.411,0,6.459-4.306,8.477-11.065"/>
	
		<path fill="none" stroke="#56646D" stroke-width="2.77" stroke-linecap="round" stroke-linejoin="round" stroke-miterlimit="10" d="
		M414.847,98.693c-2.159-4.383-3.562-11.461-3.562-19.451c0-7.99,1.403-15.068,3.562-19.451c1.437-2.917,3.208-4.643,5.124-4.643
		c4.798,0,8.687,10.787,8.687,24.094s-3.889,24.094-8.687,24.094C418.055,103.336,416.284,101.61,414.847,98.693z"/>
	<g>
		<path fill="#56646D" d="M408.992,52.071c-1.037,0-1.876,0.839-1.876,1.876c0,1.035,0.839,1.874,1.876,1.874
			c1.035,0,1.876-0.839,1.876-1.874C410.868,52.911,410.027,52.071,408.992,52.071L408.992,52.071z"/>
	</g>
	<g>
		<path fill="#56646D" d="M400.903,60.568c-1.037,0-1.876,0.839-1.876,1.876c0,1.035,0.839,1.874,1.876,1.874
			c1.035,0,1.876-0.839,1.876-1.874C402.779,61.408,401.938,60.568,400.903,60.568L400.903,60.568z"/>
	</g>
	<g>
		<path fill="#56646D" d="M408.992,60.568c-1.037,0-1.876,0.839-1.876,1.876c0,1.035,0.839,1.874,1.876,1.874
			c1.035,0,1.876-0.839,1.876-1.874C410.868,61.408,410.027,60.568,408.992,60.568L408.992,60.568z"/>
	</g>
	<g>
		<path fill="#56646D" d="M400.903,69.065c-1.037,0-1.876,0.839-1.876,1.876c0,1.035,0.839,1.874,1.876,1.874
			c1.035,0,1.876-0.839,1.876-1.874C402.779,69.905,401.938,69.065,400.903,69.065L400.903,69.065z"/>
	</g>
	<g>
		<path fill="#56646D" d="M408.992,69.065c-1.037,0-1.876,0.839-1.876,1.876c0,1.035,0.839,1.874,1.876,1.874
			c1.035,0,1.876-0.839,1.876-1.874C410.868,69.905,410.027,69.065,408.992,69.065L408.992,69.065z"/>
	</g>
	<g>
		<path fill="#56646D" d="M400.903,77.562c-1.037,0-1.876,0.839-1.876,1.876c0,1.035,0.839,1.874,1.876,1.874
			c1.035,0,1.876-0.839,1.876-1.874C402.779,78.401,401.938,77.562,400.903,77.562L400.903,77.562z"/>
	</g>
	<g>
		<path fill="#56646D" d="M408.992,77.562c-1.037,0-1.876,0.839-1.876,1.876c0,1.035,0.839,1.874,1.876,1.874
			c1.035,0,1.876-0.839,1.876-1.874C410.868,78.401,410.027,77.562,408.992,77.562L408.992,77.562z"/>
	</g>
	<g>
		<path fill="#56646D" d="M400.903,86.059c-1.037,0-1.876,0.839-1.876,1.876c0,1.035,0.839,1.874,1.876,1.874
			c1.035,0,1.876-0.839,1.876-1.874C402.779,86.898,401.938,86.059,400.903,86.059L400.903,86.059z"/>
	</g>
	<g>
		<path fill="#56646D" d="M408.992,86.059c-1.037,0-1.876,0.839-1.876,1.876c0,1.035,0.839,1.874,1.876,1.874
			c1.035,0,1.876-0.839,1.876-1.874C410.868,86.898,410.027,86.059,408.992,86.059L408.992,86.059z"/>
	</g>
	<g>
		<path fill="#56646D" d="M400.903,94.556c-1.037,0-1.876,0.839-1.876,1.876c0,1.035,0.839,1.874,1.876,1.874
			c1.035,0,1.876-0.839,1.876-1.874C402.779,95.395,401.938,94.556,400.903,94.556L400.903,94.556z"/>
	</g>
	<g>
		<path fill="#56646D" d="M408.992,94.556c-1.037,0-1.876,0.839-1.876,1.876c0,1.035,0.839,1.874,1.876,1.874
			c1.035,0,1.876-0.839,1.876-1.874C410.868,95.395,410.027,94.556,408.992,94.556L408.992,94.556z"/>
	</g>
	<g>
		<path fill="#56646D" d="M408.992,103.053c-1.037,0-1.876,0.839-1.876,1.876c0,1.035,0.839,1.874,1.876,1.874
			c1.035,0,1.876-0.839,1.876-1.874C410.868,103.892,410.027,103.053,408.992,103.053L408.992,103.053z"/>
	</g>
        <animateTransform
        attributeName="transform"
        begin="0.3s"
        dur="3s"
        type="translate"
        values="0;50;0"
        repeatCount="indefinite"
	/>
</g>
<g>
	
		<path fill="none" stroke="#56646D" stroke-width="4.0466" stroke-linecap="round" stroke-linejoin="round" stroke-miterlimit="10" d="
		M147.875,74.866c-11.525,0-20.902-9.377-20.902-20.902v-4.333c0-18.805-15.298-34.103-34.103-34.103H54.008"/>
	
		<path fill="none" stroke="#56646D" stroke-width="4.0466" stroke-linecap="round" stroke-linejoin="round" stroke-miterlimit="10" d="
		M147.875,88.067c-18.805,0-34.103-15.298-34.103-34.103v-4.333c0-11.525-9.377-20.902-20.902-20.902H54.008"/>
	
		<path fill="none" stroke="#56646D" stroke-width="4.0466" stroke-linecap="round" stroke-linejoin="round" stroke-miterlimit="10" d="
		M241.162,30.224l-46.146,3.599c-10.206,1.32-18.792,19.738-18.792,48.525s6.668,46.966,18.792,48.525l46.146,3.599"/>
	
		<path fill="none" stroke="#56646D" stroke-width="4.0466" stroke-linecap="round" stroke-linejoin="round" stroke-miterlimit="10" d="
		M186.372,38.022l-21.554,1.439c-9.16,1.26-15.981,18.406-15.981,42.887c0,24.481,7.001,41.867,15.981,42.887l21.266,1.439"/>
	<path fill="none" stroke="#56646D" stroke-width="3.0377" stroke-miterlimit="10" d="M266.116,70.414
		c3.56,0,6.446-2.886,6.446-6.446l0,0c0-3.56-2.886-6.446-6.446-6.446h-29.859c-1.284,0-2.325,2.887-2.325,6.448
		c0,3.561,1.041,6.448,2.325,6.448L266.116,70.414z"/>
	<path fill="none" stroke="#56646D" stroke-width="3.0377" stroke-miterlimit="10" d="M266.116,105.706
		c3.56,0,6.446-2.886,6.446-6.446l0,0c0-3.56-2.886-6.446-6.446-6.446l-29.859,0c-1.284,0-2.325,2.887-2.325,6.448
		c0,3.561,1.041,6.448,2.325,6.448L266.116,105.706z"/>
	<path fill="none" stroke="#56646D" stroke-width="4.0466" stroke-linejoin="round" stroke-miterlimit="10" d="M259.575,92.813
		c0.248-3.381,0.379-6.881,0.379-10.465c0-4.106-0.171-8.101-0.495-11.933"/>
	<path fill="none" stroke="#56646D" stroke-width="4.0466" stroke-linejoin="round" stroke-miterlimit="10" d="M257.69,57.521
		c-3.181-16.258-9.39-27.297-16.528-27.297c-10.379,0-18.793,23.337-18.793,52.124s8.414,52.124,18.793,52.124
		c6.621,0,12.442-9.497,15.79-23.848c0.369-1.582,0.708-3.223,1.015-4.917"/>
	
		<path fill="none" stroke="#56646D" stroke-width="1.907" stroke-linecap="round" stroke-linejoin="round" stroke-miterlimit="10" d="
		M201.23,33.581c-9.736,0-17.628,21.89-17.628,48.893s7.892,48.893,17.628,48.893"/>
	
		<path fill="none" stroke="#56646D" stroke-width="1.907" stroke-linecap="round" stroke-linejoin="round" stroke-miterlimit="10" d="
		M232.369,30.981c-10.24,0-18.541,23.025-18.541,51.428s8.301,51.428,18.541,51.428"/>
	<path fill="none" stroke="#56646D" stroke-width="3.0377" stroke-miterlimit="10" d="M245.182,57.518
		c-0.245-0.85-0.502-1.671-0.771-2.462c-2.617-7.705-6.33-12.514-10.447-12.514c-2.392,0-4.647,1.623-6.63,4.493"/>
	<path fill="none" stroke="#56646D" stroke-width="3.0377" stroke-miterlimit="10" d="M247.814,92.813
		c0.327-3.335,0.501-6.844,0.501-10.465c0-3.931-0.205-7.728-0.588-11.315"/>
	<path fill="none" stroke="#56646D" stroke-width="3.0377" stroke-miterlimit="10" d="M227.929,118.475
		c1.835,2.362,3.879,3.68,6.035,3.68c3.94,0,7.509-4.404,10.103-11.535c0.552-1.519,1.061-3.161,1.519-4.911"/>
	
		<path fill="none" stroke="#56646D" stroke-width="2.033" stroke-linecap="round" stroke-linejoin="round" stroke-miterlimit="10" d="
		M120.617,50.579c0-15.468-12.584-28.052-28.052-28.052h-13.87"/>
	<g>
		<path fill="#56646D" d="M167.349,37.624c-1.037,0-1.876,0.839-1.876,1.876c0,1.035,0.839,1.874,1.876,1.874
			c1.035,0,1.876-0.839,1.876-1.874C169.225,38.463,168.384,37.624,167.349,37.624L167.349,37.624z"/>
	</g>
	<g>
		<path fill="#56646D" d="M175.438,37.624c-1.037,0-1.876,0.839-1.876,1.876c0,1.035,0.839,1.874,1.876,1.874
			c1.035,0,1.876-0.839,1.876-1.874C177.314,38.463,176.473,37.624,175.438,37.624L175.438,37.624z"/>
	</g>
	<g>
		<path fill="#56646D" d="M159.259,46.121c-1.037,0-1.876,0.839-1.876,1.876c0,1.035,0.839,1.874,1.876,1.874
			c1.035,0,1.876-0.839,1.876-1.874C161.135,46.96,160.294,46.121,159.259,46.121L159.259,46.121z"/>
	</g>
	<g>
		<path fill="#56646D" d="M167.349,46.121c-1.037,0-1.876,0.839-1.876,1.876c0,1.035,0.839,1.874,1.876,1.874
			c1.035,0,1.876-0.839,1.876-1.874C169.225,46.96,168.384,46.121,167.349,46.121L167.349,46.121z"/>
	</g>
	<g>
		<path fill="#56646D" d="M175.438,46.121c-1.037,0-1.876,0.839-1.876,1.876c0,1.035,0.839,1.874,1.876,1.874
			c1.035,0,1.876-0.839,1.876-1.874C177.314,46.96,176.473,46.121,175.438,46.121L175.438,46.121z"/>
	</g>
	<g>
		<path fill="#56646D" d="M159.259,54.618c-1.037,0-1.876,0.839-1.876,1.876c0,1.035,0.839,1.874,1.876,1.874
			c1.035,0,1.876-0.839,1.876-1.874C161.135,55.457,160.294,54.618,159.259,54.618L159.259,54.618z"/>
	</g>
	<g>
		<path fill="#56646D" d="M167.349,54.618c-1.037,0-1.876,0.839-1.876,1.876c0,1.035,0.839,1.874,1.876,1.874
			c1.035,0,1.876-0.839,1.876-1.874C169.225,55.457,168.384,54.618,167.349,54.618L167.349,54.618z"/>
	</g>
	<g>
		<path fill="#56646D" d="M175.438,54.618c-1.037,0-1.876,0.839-1.876,1.876c0,1.035,0.839,1.874,1.876,1.874
			c1.035,0,1.876-0.839,1.876-1.874C177.314,55.457,176.473,54.618,175.438,54.618L175.438,54.618z"/>
	</g>
	<g>
		<path fill="#56646D" d="M151.17,63.115c-1.037,0-1.876,0.839-1.876,1.876c0,1.035,0.839,1.874,1.876,1.874
			c1.035,0,1.876-0.839,1.876-1.874C153.046,63.954,152.205,63.115,151.17,63.115L151.17,63.115z"/>
	</g>
	<g>
		<path fill="#56646D" d="M159.259,63.115c-1.037,0-1.876,0.839-1.876,1.876c0,1.035,0.839,1.874,1.876,1.874
			c1.035,0,1.876-0.839,1.876-1.874C161.135,63.954,160.294,63.115,159.259,63.115L159.259,63.115z"/>
	</g>
	<g>
		<path fill="#56646D" d="M167.349,63.115c-1.037,0-1.876,0.839-1.876,1.876c0,1.035,0.839,1.874,1.876,1.874
			c1.035,0,1.876-0.839,1.876-1.874C169.225,63.954,168.384,63.115,167.349,63.115L167.349,63.115z"/>
	</g>
	<g>
		<path fill="#56646D" d="M175.438,63.115c-1.037,0-1.876,0.839-1.876,1.876c0,1.035,0.839,1.874,1.876,1.874
			c1.035,0,1.876-0.839,1.876-1.874C177.314,63.954,176.473,63.115,175.438,63.115L175.438,63.115z"/>
	</g>
	<g>
		<path fill="#56646D" d="M151.17,71.611c-1.037,0-1.876,0.839-1.876,1.876c0,1.035,0.839,1.874,1.876,1.874
			c1.035,0,1.876-0.839,1.876-1.874C153.046,72.451,152.205,71.611,151.17,71.611L151.17,71.611z"/>
	</g>
	<g>
		<path fill="#56646D" d="M159.259,71.611c-1.037,0-1.876,0.839-1.876,1.876c0,1.035,0.839,1.874,1.876,1.874
			c1.035,0,1.876-0.839,1.876-1.874C161.135,72.451,160.294,71.611,159.259,71.611L159.259,71.611z"/>
	</g>
	<g>
		<path fill="#56646D" d="M167.349,71.611c-1.037,0-1.876,0.839-1.876,1.876c0,1.035,0.839,1.874,1.876,1.874
			c1.035,0,1.876-0.839,1.876-1.874C169.225,72.451,168.384,71.611,167.349,71.611L167.349,71.611z"/>
	</g>
	<g>
		<path fill="#56646D" d="M175.438,71.611c-1.037,0-1.876,0.839-1.876,1.876c0,1.035,0.839,1.874,1.876,1.874
			c1.035,0,1.876-0.839,1.876-1.874C177.314,72.451,176.473,71.611,175.438,71.611L175.438,71.611z"/>
	</g>
	<g>
		<path fill="#56646D" d="M151.17,80.108c-1.037,0-1.876,0.839-1.876,1.876c0,1.035,0.839,1.874,1.876,1.874
			c1.035,0,1.876-0.839,1.876-1.874C153.046,80.948,152.205,80.108,151.17,80.108L151.17,80.108z"/>
	</g>
	<g>
		<path fill="#56646D" d="M159.259,80.108c-1.037,0-1.876,0.839-1.876,1.876c0,1.035,0.839,1.874,1.876,1.874
			c1.035,0,1.876-0.839,1.876-1.874C161.135,80.948,160.294,80.108,159.259,80.108L159.259,80.108z"/>
	</g>
	<g>
		<path fill="#56646D" d="M167.349,80.108c-1.037,0-1.876,0.839-1.876,1.876c0,1.035,0.839,1.874,1.876,1.874
			c1.035,0,1.876-0.839,1.876-1.874C169.225,80.948,168.384,80.108,167.349,80.108L167.349,80.108z"/>
	</g>
	<g>
		<path fill="#56646D" d="M175.438,80.108c-1.037,0-1.876,0.839-1.876,1.876c0,1.035,0.839,1.874,1.876,1.874
			c1.035,0,1.876-0.839,1.876-1.874C177.314,80.948,176.473,80.108,175.438,80.108L175.438,80.108z"/>
	</g>
	<g>
		<path fill="#56646D" d="M151.17,88.605c-1.037,0-1.876,0.839-1.876,1.876c0,1.035,0.839,1.874,1.876,1.874
			c1.035,0,1.876-0.839,1.876-1.874C153.046,89.445,152.205,88.605,151.17,88.605L151.17,88.605z"/>
	</g>
	<g>
		<path fill="#56646D" d="M159.259,88.605c-1.037,0-1.876,0.839-1.876,1.876c0,1.035,0.839,1.874,1.876,1.874
			c1.035,0,1.876-0.839,1.876-1.874C161.135,89.445,160.294,88.605,159.259,88.605L159.259,88.605z"/>
	</g>
	<g>
		<path fill="#56646D" d="M167.349,88.605c-1.037,0-1.876,0.839-1.876,1.876c0,1.035,0.839,1.874,1.876,1.874
			c1.035,0,1.876-0.839,1.876-1.874C169.225,89.445,168.384,88.605,167.349,88.605L167.349,88.605z"/>
	</g>
	<g>
		<path fill="#56646D" d="M175.438,88.605c-1.037,0-1.876,0.839-1.876,1.876c0,1.035,0.839,1.874,1.876,1.874
			c1.035,0,1.876-0.839,1.876-1.874C177.314,89.445,176.473,88.605,175.438,88.605L175.438,88.605z"/>
	</g>
	<g>
		<path fill="#56646D" d="M151.17,97.102c-1.037,0-1.876,0.839-1.876,1.876c0,1.035,0.839,1.874,1.876,1.874
			c1.035,0,1.876-0.839,1.876-1.874C153.046,97.942,152.205,97.102,151.17,97.102L151.17,97.102z"/>
	</g>
	<g>
		<path fill="#56646D" d="M159.259,97.102c-1.037,0-1.876,0.839-1.876,1.876c0,1.035,0.839,1.874,1.876,1.874
			c1.035,0,1.876-0.839,1.876-1.874C161.135,97.942,160.294,97.102,159.259,97.102L159.259,97.102z"/>
	</g>
	<g>
		<path fill="#56646D" d="M167.349,97.102c-1.037,0-1.876,0.839-1.876,1.876c0,1.035,0.839,1.874,1.876,1.874
			c1.035,0,1.876-0.839,1.876-1.874C169.225,97.942,168.384,97.102,167.349,97.102L167.349,97.102z"/>
	</g>
	<g>
		<path fill="#56646D" d="M175.438,97.102c-1.037,0-1.876,0.839-1.876,1.876c0,1.035,0.839,1.874,1.876,1.874
			c1.035,0,1.876-0.839,1.876-1.874C177.314,97.942,176.473,97.102,175.438,97.102L175.438,97.102z"/>
	</g>
	<g>
		<path fill="#56646D" d="M151.17,105.599c-0.569,0-1.073,0.259-1.417,0.659c0.593,0.996,1.131,2.021,1.615,3.072
			c0.941-0.1,1.678-0.887,1.678-1.854C153.046,106.438,152.205,105.599,151.17,105.599L151.17,105.599z"/>
	</g>
	<g>
		<path fill="#56646D" d="M159.259,105.599c-1.037,0-1.876,0.839-1.876,1.876c0,1.035,0.839,1.874,1.876,1.874
			c1.035,0,1.876-0.839,1.876-1.874C161.135,106.438,160.294,105.599,159.259,105.599L159.259,105.599z"/>
	</g>
	<g>
		<path fill="#56646D" d="M167.349,105.599c-1.037,0-1.876,0.839-1.876,1.876c0,1.035,0.839,1.874,1.876,1.874
			c1.035,0,1.876-0.839,1.876-1.874C169.225,106.438,168.384,105.599,167.349,105.599L167.349,105.599z"/>
	</g>
	<g>
		<path fill="#56646D" d="M175.438,105.599c-1.037,0-1.876,0.839-1.876,1.876c0,1.035,0.839,1.874,1.876,1.874
			c1.035,0,1.876-0.839,1.876-1.874C177.314,106.438,176.473,105.599,175.438,105.599L175.438,105.599z"/>
	</g>
	<g>
		<path fill="#56646D" d="M159.259,114.096c-1.037,0-1.876,0.839-1.876,1.876c0,1.035,0.839,1.874,1.876,1.874
			c1.035,0,1.876-0.839,1.876-1.874C161.135,114.935,160.294,114.096,159.259,114.096L159.259,114.096z"/>
	</g>
	<g>
		<path fill="#56646D" d="M167.349,114.096c-1.037,0-1.876,0.839-1.876,1.876c0,1.035,0.839,1.874,1.876,1.874
			c1.035,0,1.876-0.839,1.876-1.874C169.225,114.935,168.384,114.096,167.349,114.096L167.349,114.096z"/>
	</g>
	<g>
		<path fill="#56646D" d="M175.438,114.096c-1.037,0-1.876,0.839-1.876,1.876c0,1.035,0.839,1.874,1.876,1.874
			c1.035,0,1.876-0.839,1.876-1.874C177.314,114.935,176.473,114.096,175.438,114.096L175.438,114.096z"/>
	</g>
	<g>
		<path fill="#56646D" d="M167.349,122.593c-1.037,0-1.876,0.839-1.876,1.876c0,1.035,0.839,1.874,1.876,1.874
			c1.035,0,1.876-0.839,1.876-1.874C169.225,123.432,168.384,122.593,167.349,122.593L167.349,122.593z"/>
	</g>
	<g>
		<path fill="#56646D" d="M175.438,122.593c-1.037,0-1.876,0.839-1.876,1.876c0,1.035,0.839,1.874,1.876,1.874
			c1.035,0,1.876-0.839,1.876-1.874C177.314,123.432,176.473,122.593,175.438,122.593L175.438,122.593z"/>
	</g>
	<g>
		<path fill="#56646D" d="M182.315,123.048c-0.403,0.344-0.663,0.849-0.663,1.421c0,1.035,0.839,1.874,1.876,1.874
			c0.071,0,0.138-0.013,0.206-0.021C183.274,125.236,182.764,124.158,182.315,123.048L182.315,123.048z"/>
	</g>
        <animateTransform
        attributeName="transform"
        begin="0.5s"
        dur="3s"
        type="translate"
        values="0;-40;0"
        repeatCount="indefinite"
	/>
</g>
</svg>
