<?xml version="1.0" encoding="utf-8"?>
<!-- Generator: Adobe Illustrator 17.0.0, SVG Export Plug-In . SVG Version: 6.00 Build 0)  -->
<!DOCTYPE svg PUBLIC "-//W3C//DTD SVG 1.1//EN" "http://www.w3.org/Graphics/SVG/1.1/DTD/svg11.dtd">
<svg version="1.1" id="Layer_1" xmlns="http://www.w3.org/2000/svg" xmlns:xlink="http://www.w3.org/1999/xlink" x="0px" y="0px"
	 width="150px" height="150px" viewBox="0 0 150 150" enable-background="new 0 0 150 150" xml:space="preserve">
<g>
	<path fill="#1A6EEB" d="M115.905,83.557H34.464c-1.904,0-3.447,1.543-3.447,3.447s1.543,3.447,3.447,3.447h81.441
		c1.903,0,3.447-1.543,3.447-3.447S117.808,83.557,115.905,83.557z"/>
	<path fill="#1A6EEB" d="M115.905,103.395H34.464c-1.904,0-3.447,1.543-3.447,3.447c0,1.903,1.543,3.447,3.447,3.447h81.441
		c1.903,0,3.447-1.543,3.447-3.447C119.352,104.938,117.808,103.395,115.905,103.395z"/>
	<path fill="#1A6EEB" d="M115.905,123.233H34.464c-1.904,0-3.447,1.543-3.447,3.447c0,1.903,1.543,3.447,3.447,3.447h81.441
		c1.903,0,3.447-1.543,3.447-3.447C119.352,124.776,117.808,123.233,115.905,123.233z"/>
	<path fill="#1A6EEB" d="M136.341,63.02c-0.001-0.034-0.003-0.068-0.005-0.102c-0.009-0.131-0.023-0.26-0.048-0.387
		c0-0.001,0-0.003-0.001-0.004c-0.026-0.13-0.063-0.256-0.105-0.381c-0.011-0.032-0.022-0.063-0.034-0.094
		c-0.044-0.118-0.094-0.234-0.152-0.346c-0.003-0.006-0.006-0.013-0.009-0.019c-0.062-0.117-0.134-0.228-0.211-0.336
		c-0.02-0.028-0.04-0.055-0.061-0.082c-0.082-0.107-0.169-0.212-0.265-0.308L75.384,0.896c-0.096-0.096-0.201-0.183-0.308-0.265
		c-0.027-0.021-0.055-0.041-0.083-0.061c-0.108-0.077-0.218-0.149-0.334-0.21c-0.008-0.004-0.016-0.007-0.024-0.011
		c-0.11-0.057-0.224-0.106-0.341-0.15c-0.032-0.012-0.064-0.023-0.096-0.034c-0.124-0.042-0.251-0.079-0.38-0.105
		c-0.002,0-0.003,0-0.005-0.001c-0.127-0.025-0.257-0.039-0.387-0.048c-0.034-0.002-0.067-0.004-0.101-0.005
		C73.291,0.004,73.257,0,73.222,0H23.605c-5.487,0-9.951,4.464-9.951,9.951v130.098c0,5.487,4.464,9.951,9.951,9.951h102.79
		c5.487,0,9.951-4.464,9.951-9.951V63.124C136.346,63.089,136.342,63.055,136.341,63.02z M125.905,60.066h-45.79
		c-2.115,0-3.835-1.721-3.835-3.835v-45.79l46.418,46.418L125.905,60.066z M126.395,143.884H23.605
		c-2.115,0-3.835-1.721-3.835-3.835V9.951c0-2.115,1.72-3.835,3.835-3.835h46.559v50.115c0,5.487,4.464,9.951,9.951,9.951h50.115
		v73.867C130.23,142.163,128.51,143.884,126.395,143.884z"/>
</g>
</svg>
