<?xml version="1.0" encoding="utf-8"?>
<!-- Generator: Adobe Illustrator 17.0.0, SVG Export Plug-In . SVG Version: 6.00 Build 0)  -->
<!DOCTYPE svg PUBLIC "-//W3C//DTD SVG 1.1//EN" "http://www.w3.org/Graphics/SVG/1.1/DTD/svg11.dtd">
<svg version="1.1" id="Layer_1" xmlns="http://www.w3.org/2000/svg" xmlns:xlink="http://www.w3.org/1999/xlink" x="0px" y="0px"
	 width="300px" height="300px" viewBox="0 0 300 300" enable-background="new 0 0 300 300" xml:space="preserve">
<path fill="none" stroke="#FFFFFF" stroke-width="5" stroke-linecap="round" stroke-linejoin="round" stroke-miterlimit="10" d="
	M209.67,94.957c0,39.736-32.205,71.951-71.948,71.951c-39.731,0-71.949-32.215-71.949-71.951"/>
<line fill="none" stroke="#FFFFFF" stroke-width="5" stroke-linecap="round" stroke-linejoin="round" stroke-miterlimit="10" x1="49.953" y1="93.957" x2="225.491" y2="93.957"/>
<path fill="none" stroke="#FFFFFF" stroke-width="5" stroke-linecap="round" stroke-linejoin="round" stroke-miterlimit="10" d="
	M145.577,169.923v24.051c0,13.995,11.386,25.381,25.381,25.381h47.676c22.835,0,41.412,18.577,41.412,41.412"/>
<path fill="none" stroke="#FFFFFF" stroke-width="5" stroke-linecap="round" stroke-linejoin="round" stroke-miterlimit="10" d="
	M244.016,260.767c0-13.995-11.386-25.381-25.381-25.381h-47.676c-22.835,0-41.412-18.577-41.412-41.412v-24.051"/>
<path fill="none" stroke="#FFFFFF" stroke-width="5" stroke-linecap="round" stroke-linejoin="round" stroke-miterlimit="10" d="
	M102.12,91.811V57.303c0-4.585,3.717-8.302,8.302-8.302l0,0c4.585,0,8.302,3.717,8.302,8.302v34.508"/>
<path fill="none" stroke="#FFFFFF" stroke-width="5" stroke-linecap="round" stroke-linejoin="round" stroke-miterlimit="10" d="
	M155.192,91.811V57.303c0-4.585,3.717-8.302,8.302-8.302l0,0c4.585,0,8.302,3.717,8.302,8.302v34.508"/>
</svg>
