<?xml version="1.0" encoding="utf-8"?>
<!-- Generator: Adobe Illustrator 17.0.0, SVG Export Plug-In . SVG Version: 6.00 Build 0)  -->
<!DOCTYPE svg PUBLIC "-//W3C//DTD SVG 1.1//EN" "http://www.w3.org/Graphics/SVG/1.1/DTD/svg11.dtd">
<svg version="1.1" id="Layer_1" xmlns="http://www.w3.org/2000/svg" xmlns:xlink="http://www.w3.org/1999/xlink" x="0px" y="0px"
	 width="300px" height="300px" viewBox="0 0 300 300" enable-background="new 0 0 300 300" xml:space="preserve">
<path fill="none" stroke="#FFFFFF" stroke-width="5" stroke-linecap="round" stroke-linejoin="round" stroke-miterlimit="10" d="
	M152.447,132.836"/>
<g>
	<path fill="none" stroke="#FFFFFF" stroke-width="5" stroke-linecap="round" stroke-linejoin="round" stroke-miterlimit="10" d="
		M152.383,133.131"/>
	<path fill="none" stroke="#FFFFFF" stroke-width="5" stroke-linecap="round" stroke-linejoin="round" stroke-miterlimit="10" d="
		M205.526,152.535l46.144,21.077c17.552,8.161,25.164,29.004,17.003,46.556l0,0l0,0c-8.161,17.551-29.004,25.164-46.556,17.004
		L112.296,186.11"/>
	<path fill="none" stroke="#FFFFFF" stroke-width="5" stroke-linecap="round" stroke-linejoin="round" stroke-miterlimit="10" d="
		M93.528,225.679c-11.004-5.116-15.777-18.184-10.66-29.188l0,0l0,0c5.116-11.004,18.184-15.777,29.188-10.66"/>
	<path fill="none" stroke="#FFFFFF" stroke-width="5" stroke-linecap="round" stroke-linejoin="round" stroke-miterlimit="10" d="
		M202.295,105.974c-21.654,0-40.536,11.818-50.584,29.347v36.412l13.033,16.451h76.451l13.033-16.451v-33.918
		C244.59,118.922,224.96,105.974,202.295,105.974z"/>
	<path fill="none" stroke="#FFFFFF" stroke-width="5" stroke-linecap="round" stroke-linejoin="round" stroke-miterlimit="10" d="
		M216.891,107.845L104.906,55.71c-7.918-4.029-16.879-6.301-26.373-6.301c-21.654,0-40.536,11.818-50.584,29.347v36.412
		l13.033,16.451"/>
	
		<line fill="none" stroke="#FFFFFF" stroke-width="5" stroke-linecap="round" stroke-linejoin="round" stroke-miterlimit="10" x1="151.711" y1="135.322" x2="27.949" y2="78.757"/>
	
		<line fill="none" stroke="#FFFFFF" stroke-width="5" stroke-linecap="round" stroke-linejoin="round" stroke-miterlimit="10" x1="40.982" y1="131.62" x2="164.744" y2="188.185"/>
	<path fill="none" stroke="#FFFFFF" stroke-width="5" stroke-linecap="round" stroke-linejoin="round" stroke-miterlimit="10" d="
		M219.035,159.331c0,3.707-3.005,6.713-6.713,6.713h-13.593c-3.707,0-6.713-3.005-6.713-6.713v-13.593
		c0-3.707,3.006-6.713,6.713-6.713h13.593c3.707,0,6.713,3.005,6.713,6.713V159.331z"/>
	<g>
		
			<line fill="none" stroke="#FFFFFF" stroke-width="5" stroke-linecap="round" stroke-linejoin="round" stroke-miterlimit="10" x1="120.261" y1="235.944" x2="93.404" y2="223.843"/>
		<path fill="none" stroke="#FFFFFF" stroke-width="5" stroke-linecap="round" stroke-linejoin="round" stroke-miterlimit="10" d="
			M147.245,249.574c0,0.786-0.638,1.424-1.424,1.424h-24.448c-0.786,0-1.424-0.638-1.424-1.424v-12.75
			c0-0.786,0.637-1.424,1.424-1.424h24.448c0.786,0,1.424,0.638,1.424,1.424V249.574z"/>
		<path fill="none" stroke="#FFFFFF" stroke-width="5" stroke-linecap="round" stroke-linejoin="round" stroke-miterlimit="10" d="
			M120.989,250.998l-26.291-12.224h-0.093c-0.939-0.361-1.424-0.637-1.424-1.424V224.6c0-0.786,0.638-1.424,1.424-1.424h24.448
			l27.118,12.224"/>
	</g>
</g>
</svg>
