<?xml version="1.0" encoding="utf-8"?>
<!-- Generator: Adobe Illustrator 17.0.0, SVG Export Plug-In . SVG Version: 6.00 Build 0)  -->
<!DOCTYPE svg PUBLIC "-//W3C//DTD SVG 1.1//EN" "http://www.w3.org/Graphics/SVG/1.1/DTD/svg11.dtd">
<svg version="1.1" id="Layer_1" xmlns="http://www.w3.org/2000/svg" xmlns:xlink="http://www.w3.org/1999/xlink" x="0px" y="0px"
	 width="150px" height="150px" viewBox="0 0 150 150" enable-background="new 0 0 150 150" xml:space="preserve">
<g>
	<g>
		<path fill="#1A6EEB" d="M74.996,8.07c37.901,0,68.629,30.724,68.629,68.628c0,30.309-19.645,56.013-46.89,65.105
			c-0.448,0.086-0.859,0.126-1.234,0.126c-2.545,0-3.484-1.827-3.484-3.426c0-2.25,0.084-9.651,0.084-18.826
			c0-6.401-2.195-10.59-4.659-12.708c15.288-1.699,31.333-7.5,31.333-33.863c0-7.492-2.656-13.617-7.054-18.415
			c0.706-1.736,3.061-8.713-0.683-18.161c0,0-0.496-0.159-1.528-0.159c-2.483,0-8.07,0.921-17.325,7.194
			c-5.482-1.522-11.353-2.283-17.18-2.31c-5.836,0.027-11.706,0.788-17.18,2.31c-9.262-6.274-14.855-7.194-17.341-7.194
			c-1.033,0-1.53,0.159-1.53,0.159c-3.733,9.448-1.378,16.425-0.673,18.161c-4.39,4.797-7.064,10.923-7.064,18.415
			c0,26.297,16.02,32.184,31.258,33.916c-1.961,1.715-3.733,4.739-4.357,9.174c-1.726,0.775-4.624,1.798-7.852,1.798
			c-4.086,0-8.7-1.641-12.12-7.5c0,0-3.625-6.587-10.511-7.072c0,0-0.01,0-0.029,0c-0.474,0-6.43,0.08-0.442,4.172
			c0,0,4.499,2.111,7.619,10.038c0,0,3.017,9.998,16.206,9.998c2.049,0,4.344-0.241,6.911-0.799
			c0.033,5.727,0.093,10.042,0.093,11.672c0,1.595-0.963,3.421-3.516,3.421c-0.358,0-0.747-0.036-1.168-0.113
			c-27.272-9.076-46.933-34.797-46.933-65.113C6.375,38.794,37.103,8.07,74.996,8.07 M74.996,1.695
			c-20.03,0-38.863,7.802-53.028,21.967C7.802,37.829,0,56.664,0,76.699c0,16.061,5.005,31.376,14.473,44.292
			c9.273,12.649,22.006,21.941,36.822,26.871c0.282,0.094,0.57,0.168,0.863,0.222c0.788,0.145,1.568,0.218,2.318,0.218
			c5.639,0,9.891-4.212,9.891-9.797c0-0.78-0.012-2.086-0.03-3.893c-0.02-2.062-0.045-4.734-0.063-7.815
			c-0.011-1.922-0.889-3.736-2.389-4.938c-0.118-0.095-0.239-0.185-0.362-0.27c1.571-0.992,2.645-2.633,2.907-4.502
			c0.491-3.494,1.84-4.912,2.242-5.264c1.9-1.662,2.64-4.29,1.887-6.699c-0.753-2.41-2.857-4.148-5.365-4.433
			c-8.272-0.94-13.978-2.938-17.958-6.289c-5.145-4.331-7.645-11.296-7.645-21.293c0-5.454,1.814-10.201,5.392-14.111
			c1.661-1.815,2.129-4.425,1.203-6.705c-0.305-0.75-1.469-4.06-0.589-8.954c2.282,0.7,5.799,2.219,10.651,5.506
			c1.066,0.722,2.314,1.097,3.576,1.097c0.571,0,1.146-0.077,1.708-0.233c4.79-1.332,10.14-2.05,15.472-2.077
			c5.325,0.027,10.676,0.745,15.475,2.077c0.561,0.156,1.135,0.232,1.705,0.232c1.263,0,2.511-0.375,3.577-1.098
			c4.847-3.285,8.358-4.805,10.637-5.504c0.885,4.893-0.28,8.203-0.584,8.953c-0.927,2.282-0.458,4.894,1.207,6.709
			c3.568,3.892,5.378,8.638,5.378,14.106c0,20.478-10.258,25.815-25.661,27.526c-2.522,0.28-4.638,2.03-5.387,4.454
			c-0.749,2.424,0.011,5.062,1.935,6.717c1.18,1.014,2.44,3.615,2.44,7.874c0,6.113-0.038,11.445-0.062,14.972
			c-0.013,1.773-0.022,3.099-0.022,3.853c0,5.588,4.239,9.801,9.86,9.801c0.788,0,1.609-0.081,2.439-0.241
			c0.276-0.053,0.547-0.124,0.813-0.213c14.803-4.94,27.524-14.234,36.787-26.876C145,108.064,150,92.753,150,76.699
			c0-20.035-7.802-38.87-21.969-53.037C113.864,9.496,95.029,1.695,74.996,1.695L74.996,1.695z"/>
	</g>
</g>
</svg>
