<?xml version="1.0" encoding="utf-8"?>
<!-- Generator: Adobe Illustrator 17.0.0, SVG Export Plug-In . SVG Version: 6.00 Build 0)  -->
<!DOCTYPE svg PUBLIC "-//W3C//DTD SVG 1.1//EN" "http://www.w3.org/Graphics/SVG/1.1/DTD/svg11.dtd">
<svg version="1.1" id="Layer_1" xmlns="http://www.w3.org/2000/svg" xmlns:xlink="http://www.w3.org/1999/xlink" x="0px" y="0px"
	 width="162px" height="50px" viewBox="10 2.5 162 50" enable-background="new 10 2.5 162 50" xml:space="preserve">
<g>
	<g opacity="0.6">
		<path fill="#55636C" d="M168.945,52.5H13.055c-1.538,0-2.79-1.252-2.79-2.79V5.29c0.001-1.538,1.252-2.79,2.79-2.79h155.891
			c1.538,0,2.79,1.252,2.79,2.79V49.71C171.735,51.248,170.484,52.5,168.945,52.5z M13.055,3.482c-0.997,0-1.807,0.811-1.807,1.808
			V49.71c0,0.997,0.811,1.808,1.807,1.808h155.891c0.997,0,1.808-0.811,1.808-1.808V5.29c0-0.997-0.811-1.808-1.808-1.808H13.055z"
			/>
	</g>
	<g>
		<g>
			<path fill="#55636C" d="M133.404,34.22c-0.689,0-1.319-0.127-1.888-0.381c-0.569-0.255-1.048-0.646-1.435-1.173h-0.116
				c0.078,0.618,0.116,1.204,0.116,1.757v4.356h-1.602V23.441h1.304l0.222,1.448h0.078c0.412-0.58,0.892-0.998,1.44-1.255
				c0.547-0.258,1.175-0.386,1.883-0.386c1.404,0,2.487,0.48,3.25,1.439c0.762,0.959,1.145,2.305,1.145,4.036
				c0,1.738-0.388,3.089-1.163,4.052C135.859,33.739,134.782,34.22,133.404,34.22z M133.172,24.61c-1.082,0-1.863,0.299-2.347,0.898
				s-0.731,1.551-0.744,2.858v0.357c0,1.488,0.248,2.552,0.744,3.192c0.496,0.64,1.291,0.961,2.385,0.961
				c0.915,0,1.631-0.37,2.149-1.111c0.518-0.74,0.777-1.76,0.777-3.062c0-1.319-0.259-2.333-0.777-3.037
				C134.843,24.963,134.112,24.61,133.172,24.61z"/>
		</g>
		<g>
			<path fill="#55636C" d="M141.51,34.025h-1.603V19h1.603V34.025z"/>
		</g>
		<g>
			<path fill="#55636C" d="M150.726,34.025l-0.319-1.507h-0.078c-0.528,0.664-1.054,1.113-1.579,1.347
				c-0.525,0.236-1.18,0.353-1.965,0.353c-1.049,0-1.872-0.271-2.468-0.811c-0.596-0.54-0.893-1.309-0.893-2.308
				c0-2.137,1.71-3.258,5.127-3.361l1.797-0.058v-0.656c0-0.83-0.179-1.444-0.536-1.84c-0.357-0.396-0.929-0.595-1.714-0.595
				c-0.882,0-1.88,0.271-2.993,0.811l-0.493-1.226c0.522-0.284,1.093-0.505,1.715-0.666c0.621-0.161,1.243-0.241,1.869-0.241
				c1.261,0,2.197,0.279,2.805,0.84s0.912,1.458,0.912,2.695v7.223H150.726L150.726,34.025z M147.105,32.897
				c0.997,0,1.781-0.274,2.351-0.821c0.569-0.547,0.855-1.313,0.855-2.299v-0.956l-1.603,0.067
				c-1.274,0.046-2.193,0.243-2.758,0.595c-0.563,0.35-0.845,0.896-0.845,1.637c0,0.579,0.175,1.02,0.527,1.322
				C145.983,32.745,146.474,32.897,147.105,32.897z"/>
		</g>
		<g>
			<path fill="#55636C" d="M152.844,23.441h1.718l2.318,6.036c0.509,1.378,0.824,2.372,0.947,2.985h0.078
				c0.084-0.329,0.259-0.89,0.527-1.686c0.268-0.795,1.141-3.24,2.622-7.334h1.72l-4.549,12.053
				c-0.45,1.191-0.977,2.037-1.579,2.536c-0.602,0.499-1.341,0.748-2.215,0.748c-0.489,0-0.973-0.054-1.449-0.164v-1.284
				c0.354,0.078,0.751,0.116,1.188,0.116c1.101,0,1.886-0.618,2.356-1.854l0.589-1.507L152.844,23.441z"/>
		</g>
		<g>
			<path fill="#55636C" d="M103.708,24.426c0.509,0.422,1.571,1.306,1.571,2.989c0,1.637-0.93,2.413-1.86,3.143
				c-0.288,0.288-0.62,0.599-0.62,1.086c0,0.486,0.332,0.752,0.577,0.951l0.797,0.619c0.974,0.82,1.858,1.573,1.858,3.1
				c0,2.081-2.014,4.184-5.822,4.184c-3.211,0-4.759-1.527-4.759-3.166c0-0.796,0.397-1.925,1.704-2.701
				c1.372-0.841,3.232-0.95,4.228-1.019c-0.311-0.398-0.665-0.819-0.665-1.504c0-0.376,0.111-0.598,0.221-0.864
				c-0.244,0.022-0.487,0.045-0.709,0.045c-2.346,0-3.674-1.749-3.674-3.475c0-1.018,0.465-2.148,1.416-2.967
				c1.262-1.041,2.767-1.218,3.964-1.218h4.559l-1.416,0.797H103.708L103.708,24.426z M102.136,34.255
				c-0.177-0.023-0.288-0.023-0.509-0.023c-0.2,0-1.396,0.046-2.325,0.356c-0.487,0.175-1.904,0.707-1.904,2.28
				c0,1.571,1.528,2.701,3.897,2.701c2.124,0,3.254-1.02,3.254-2.392C104.549,36.046,103.819,35.451,102.136,34.255z
				 M102.778,30.048c0.509-0.51,0.552-1.218,0.552-1.616c0-1.594-0.951-4.073-2.788-4.073c-0.577,0-1.196,0.288-1.55,0.731
				c-0.376,0.465-0.487,1.062-0.487,1.638c0,1.483,0.863,3.94,2.768,3.94C101.826,30.669,102.423,30.402,102.778,30.048z"/>
		</g>
		<g>
			<path fill="#55636C" d="M89.771,33.901c-3.514,0-5.393-2.741-5.393-5.217c0-2.896,2.365-5.371,5.725-5.371
				c3.247,0,5.281,2.541,5.281,5.216C95.385,31.137,93.375,33.901,89.771,33.901z M92.533,32.111
				c0.531-0.708,0.664-1.592,0.664-2.455c0-1.945-0.928-5.658-3.67-5.658c-0.729,0-1.458,0.288-1.989,0.753
				c-0.862,0.773-1.017,1.746-1.017,2.697c0,2.186,1.083,5.788,3.758,5.788C91.142,33.236,92.026,32.817,92.533,32.111z"/>
		</g>
		<g>
			<path fill="#55636C" d="M77.791,33.901c-3.515,0-5.394-2.741-5.394-5.217c0-2.896,2.366-5.371,5.725-5.371
				c3.248,0,5.281,2.541,5.281,5.216C83.405,31.137,81.395,33.901,77.791,33.901z M80.554,32.111
				c0.53-0.708,0.664-1.592,0.664-2.455c0-1.945-0.929-5.658-3.67-5.658c-0.728,0-1.459,0.288-1.989,0.753
				c-0.862,0.773-1.016,1.746-1.016,2.697c0,2.186,1.082,5.788,3.758,5.788C79.163,33.236,80.046,32.817,80.554,32.111z"/>
		</g>
		<g>
			<path fill="#55636C" d="M70.71,33.554l-3.178,0.734c-1.289,0.201-2.444,0.377-3.666,0.377c-6.134,0-8.466-4.512-8.466-8.044
				c0-4.31,3.311-8.31,8.978-8.31c1.201,0,2.355,0.177,3.399,0.466c1.666,0.467,2.444,1.044,2.934,1.378l-1.845,1.755l-0.777,0.177
				l0.555-0.889c-0.755-0.733-2.134-2.088-4.755-2.088c-3.511,0-6.156,2.667-6.156,6.556c0,4.176,3.023,8.11,7.866,8.11
				c1.424,0,2.155-0.289,2.822-0.555v-3.577l-3.355,0.177l1.777-0.957h4.711l-0.578,0.555c-0.157,0.134-0.178,0.179-0.223,0.355
				c-0.023,0.201-0.044,0.845-0.044,1.067L70.71,33.554L70.71,33.554z"/>
		</g>
		<g>
			<path fill="#55636C" d="M110.731,32.915c-0.734-0.067-0.888-0.2-0.888-1.067v-0.245V19.27c0.004-0.048,0.007-0.097,0.012-0.143
				c0.089-0.777,0.311-0.911,1.001-1.311h-3.179l-1.667,0.801h1.699v0.01l-0.001-0.008v12.986v0.734
				c0,0.444-0.088,0.511-0.599,1.176h3.934l0.822-0.487C111.488,32.98,111.11,32.958,110.731,32.915z"/>
		</g>
		<g>
			<path fill="#55636C" d="M119.773,33.119c-0.242,0.133-0.485,0.288-0.726,0.397c-0.729,0.331-1.479,0.419-2.143,0.419
				c-0.704,0-1.808-0.046-2.935-0.861c-1.565-1.104-2.25-3.002-2.25-4.657c0-3.42,2.781-5.097,5.053-5.097
				c0.794,0,1.612,0.199,2.274,0.618c1.102,0.727,1.389,1.676,1.543,2.184l-5.185,2.097l-1.7,0.133
				c0.551,2.802,2.449,4.434,4.546,4.434c1.126,0,1.942-0.396,2.692-0.771L119.773,33.119z M117.7,26.542
				c0.418-0.154,0.639-0.287,0.639-0.596c0-0.882-0.993-1.897-2.185-1.897c-0.883,0-2.538,0.685-2.538,3.068
				c0,0.375,0.045,0.772,0.067,1.171L117.7,26.542z"/>
		</g>
		<g>
			<path fill="#55636C" d="M121.903,23.472v1.456h-0.177v-1.456h-0.482v-0.151h1.14v0.151
				C122.384,23.472,121.903,23.472,121.903,23.472z"/>
		</g>
		<g>
			<path fill="#55636C" d="M123.889,24.928v-1.47h-0.008l-0.448,1.47h-0.138l-0.452-1.47h-0.005v1.47h-0.16V23.32h0.275l0.409,1.299
				h0.005l0.403-1.299h0.279v1.608H123.889z"/>
		</g>
	</g>
	<g>
		<g>
			<path fill="#55636C" d="M18.56,11.264c0-0.106,0.017-0.203,0.048-0.279L35.24,27.477L18.56,44.015
				C18.56,44.014,18.56,11.264,18.56,11.264z"/>
		</g>
		<g>
			<polygon fill="#55636C" points="20.796,11.772 39.935,22.821 35.938,26.785 			"/>
		</g>
		<g>
			<polygon fill="#55636C" points="35.938,28.168 39.935,32.132 20.797,43.181 			"/>
		</g>
		<g>
			<path fill="#55636C" d="M36.635,27.477l4.181-4.146c0,0,6.668,3.85,6.705,3.871c0.182,0.114,0.255,0.222,0.244,0.276
				c-0.019,0.094-0.139,0.211-0.328,0.323l-6.619,3.822L36.635,27.477z"/>
		</g>
	</g>
</g>
</svg>
