<?xml version="1.0" encoding="utf-8"?>
<!-- Generator: Adobe Illustrator 17.0.0, SVG Export Plug-In . SVG Version: 6.00 Build 0)  -->
<!DOCTYPE svg PUBLIC "-//W3C//DTD SVG 1.1//EN" "http://www.w3.org/Graphics/SVG/1.1/DTD/svg11.dtd">
<svg version="1.1" id="Layer_1" xmlns="http://www.w3.org/2000/svg" xmlns:xlink="http://www.w3.org/1999/xlink" x="0px" y="0px"
	 width="182px" height="55px" viewBox="0 0 182 55" enable-background="new 0 0 182 55" xml:space="preserve">
<g>
	<g opacity="0.6">
		<path fill="#FFFFFF" d="M178.946,55H3.053c-1.538,0-2.79-1.252-2.79-2.79V2.79C0.264,1.252,1.515,0,3.053,0h175.893
			c1.538,0,2.79,1.252,2.79,2.79v49.42C181.736,53.748,180.485,55,178.946,55z M3.053,0.982c-0.997,0-1.807,0.811-1.807,1.808v49.42
			c0,0.997,0.811,1.808,1.807,1.808h175.893c0.997,0,1.808-0.811,1.808-1.808V2.79c0-0.997-0.811-1.808-1.808-1.808H3.053z"/>
	</g>
	<g>
		<g>
			<path fill="#FFFFFF" d="M131.627,41.464c-0.649,0-1.242-0.12-1.778-0.359c-0.536-0.24-0.987-0.608-1.351-1.105h-0.109
				c0.073,0.582,0.109,1.134,0.109,1.655v4.102h-1.509V31.313h1.228l0.209,1.364h0.073c0.388-0.546,0.84-0.94,1.356-1.182
				c0.515-0.243,1.107-0.364,1.773-0.364c1.322,0,2.342,0.452,3.061,1.355c0.718,0.903,1.078,2.171,1.078,3.801
				c0,1.637-0.365,2.909-1.095,3.816C133.939,41.011,132.925,41.464,131.627,41.464z M131.409,32.414
				c-1.019,0-1.755,0.282-2.21,0.846s-0.688,1.461-0.701,2.692v0.336c0,1.401,0.234,2.403,0.701,3.006s1.216,0.905,2.246,0.905
				c0.862,0,1.536-0.348,2.024-1.046c0.488-0.697,0.732-1.658,0.732-2.884c0-1.242-0.244-2.197-0.732-2.86
				C132.982,32.746,132.294,32.414,131.409,32.414z"/>
		</g>
		<g>
			<path fill="#FFFFFF" d="M139.261,41.281h-1.51V27.13h1.51V41.281z"/>
		</g>
		<g>
			<path fill="#FFFFFF" d="M147.941,41.281l-0.3-1.419h-0.073c-0.497,0.625-0.993,1.048-1.487,1.269
				c-0.494,0.222-1.111,0.332-1.851,0.332c-0.988,0-1.763-0.255-2.324-0.764s-0.841-1.233-0.841-2.174
				c0-2.013,1.61-3.068,4.829-3.165l1.692-0.055v-0.618c0-0.782-0.169-1.36-0.505-1.733s-0.875-0.56-1.614-0.56
				c-0.831,0-1.771,0.255-2.819,0.764l-0.464-1.155c0.492-0.267,1.029-0.476,1.615-0.627c0.585-0.152,1.171-0.227,1.76-0.227
				c1.188,0,2.069,0.263,2.642,0.791s0.859,1.373,0.859,2.538v6.803H147.941L147.941,41.281z M144.531,40.218
				c0.939,0,1.677-0.258,2.214-0.773c0.536-0.515,0.805-1.237,0.805-2.165v-0.9l-1.51,0.063c-1.2,0.043-2.065,0.229-2.597,0.56
				c-0.53,0.33-0.796,0.844-0.796,1.542c0,0.545,0.165,0.961,0.496,1.245C143.474,40.075,143.936,40.218,144.531,40.218z"/>
		</g>
		<g>
			<path fill="#FFFFFF" d="M149.936,31.313h1.618l2.183,5.685c0.479,1.298,0.776,2.234,0.892,2.811h0.073
				c0.079-0.31,0.244-0.838,0.496-1.588c0.252-0.749,1.075-3.051,2.469-6.907h1.62l-4.284,11.351
				c-0.424,1.122-0.92,1.918-1.487,2.388s-1.263,0.704-2.086,0.704c-0.461,0-0.916-0.051-1.365-0.154v-1.209
				c0.333,0.073,0.707,0.109,1.119,0.109c1.037,0,1.776-0.582,2.219-1.746l0.555-1.419L149.936,31.313z"/>
		</g>
		<g>
			<path fill="#FFFFFF" d="M103.66,32.24c0.479,0.397,1.48,1.23,1.48,2.815c0,1.542-0.876,2.273-1.752,2.96
				c-0.271,0.271-0.584,0.564-0.584,1.023c0,0.458,0.313,0.708,0.543,0.896l0.751,0.583c0.917,0.772,1.75,1.481,1.75,2.92
				c0,1.96-1.897,3.94-5.483,3.94c-3.024,0-4.482-1.438-4.482-2.982c0-0.75,0.374-1.813,1.605-2.544
				c1.292-0.792,3.044-0.895,3.982-0.96c-0.293-0.375-0.626-0.771-0.626-1.416c0-0.354,0.105-0.563,0.208-0.814
				c-0.23,0.021-0.459,0.042-0.668,0.042c-2.209,0-3.46-1.647-3.46-3.273c0-0.959,0.438-2.023,1.334-2.794
				c1.189-0.98,2.606-1.147,3.733-1.147h4.294l-1.334,0.751H103.66L103.66,32.24z M102.179,41.497
				c-0.167-0.022-0.271-0.022-0.479-0.022c-0.188,0-1.315,0.043-2.19,0.335c-0.459,0.165-1.793,0.666-1.793,2.147
				c0,1.48,1.439,2.544,3.67,2.544c2,0,3.065-0.961,3.065-2.253C104.452,43.184,103.764,42.624,102.179,41.497z M102.784,37.535
				c0.479-0.48,0.52-1.147,0.52-1.522c0-1.501-0.896-3.836-2.626-3.836c-0.543,0-1.126,0.271-1.46,0.688
				c-0.354,0.438-0.459,1-0.459,1.543c0,1.397,0.813,3.711,2.607,3.711C101.887,38.12,102.449,37.869,102.784,37.535z"/>
		</g>
		<g>
			<path fill="#FFFFFF" d="M90.534,41.164c-3.309,0-5.079-2.581-5.079-4.913c0-2.727,2.227-5.058,5.392-5.058
				c3.058,0,4.974,2.393,4.974,4.912C95.821,38.561,93.928,41.164,90.534,41.164z M93.135,39.478c0.5-0.667,0.625-1.499,0.625-2.312
				c0-1.832-0.874-5.329-3.456-5.329c-0.687,0-1.373,0.271-1.873,0.709c-0.812,0.728-0.958,1.644-0.958,2.54
				c0,2.059,1.02,5.451,3.539,5.451C91.825,40.538,92.658,40.143,93.135,39.478z"/>
		</g>
		<g>
			<path fill="#FFFFFF" d="M79.251,41.164c-3.31,0-5.08-2.581-5.08-4.913c0-2.727,2.228-5.058,5.392-5.058
				c3.059,0,4.974,2.393,4.974,4.912C84.538,38.561,82.645,41.164,79.251,41.164z M81.853,39.478
				c0.499-0.667,0.625-1.499,0.625-2.312c0-1.832-0.875-5.329-3.456-5.329c-0.686,0-1.374,0.271-1.873,0.709
				c-0.812,0.728-0.957,1.644-0.957,2.54c0,2.059,1.019,5.451,3.539,5.451C80.543,40.538,81.375,40.143,81.853,39.478z"/>
		</g>
		<g>
			<path fill="#FFFFFF" d="M72.582,40.837l-2.993,0.691c-1.214,0.189-2.302,0.355-3.453,0.355c-5.777,0-7.973-4.249-7.973-7.576
				c0-4.059,3.118-7.826,8.455-7.826c1.131,0,2.218,0.167,3.201,0.439c1.569,0.44,2.302,0.983,2.763,1.298l-1.738,1.653
				l-0.732,0.167l0.523-0.837c-0.711-0.69-2.01-1.966-4.478-1.966c-3.307,0-5.798,2.512-5.798,6.174
				c0,3.933,2.847,7.638,7.408,7.638c1.341,0,2.03-0.272,2.658-0.523v-3.369l-3.16,0.167l1.674-0.901h4.437l-0.544,0.523
				c-0.148,0.126-0.168,0.169-0.21,0.334c-0.022,0.189-0.041,0.796-0.041,1.005L72.582,40.837L72.582,40.837z"/>
		</g>
		<g>
			<path fill="#FFFFFF" d="M110.274,40.235c-0.691-0.063-0.836-0.188-0.836-1.005v-0.231V27.385
				c0.004-0.045,0.007-0.091,0.011-0.135c0.084-0.732,0.293-0.858,0.943-1.235h-2.994l-1.57,0.754h1.6v0.009l-0.001-0.008V39v0.691
				c0,0.418-0.083,0.481-0.564,1.108h3.705l0.774-0.459C110.987,40.297,110.631,40.276,110.274,40.235z"/>
		</g>
		<g>
			<path fill="#FFFFFF" d="M118.79,40.427c-0.228,0.125-0.457,0.271-0.684,0.374c-0.687,0.312-1.393,0.395-2.018,0.395
				c-0.663,0-1.703-0.043-2.764-0.811c-1.474-1.04-2.119-2.827-2.119-4.386c0-3.221,2.619-4.8,4.759-4.8
				c0.748,0,1.518,0.187,2.142,0.582c1.038,0.685,1.308,1.578,1.453,2.057l-4.883,1.975l-1.601,0.125
				c0.519,2.639,2.306,4.176,4.281,4.176c1.06,0,1.829-0.373,2.535-0.726L118.79,40.427z M116.837,34.233
				c0.394-0.145,0.602-0.27,0.602-0.561c0-0.831-0.935-1.787-2.058-1.787c-0.832,0-2.39,0.645-2.39,2.889
				c0,0.353,0.042,0.727,0.063,1.103L116.837,34.233z"/>
		</g>
		<g>
			<path fill="#FFFFFF" d="M120.796,31.342v1.371h-0.167v-1.371h-0.454V31.2h1.074v0.142
				C121.249,31.342,120.796,31.342,120.796,31.342z"/>
		</g>
		<g>
			<path fill="#FFFFFF" d="M122.666,32.713v-1.384h-0.008l-0.422,1.384h-0.13l-0.426-1.384h-0.005v1.384h-0.151v-1.514h0.259
				l0.385,1.223h0.005l0.38-1.223h0.263v1.514H122.666z"/>
		</g>
	</g>
	<g>
		<g>
			<path fill="#FFFFFF" d="M14.823,10.64c0-0.106,0.017-0.203,0.048-0.279l16.632,16.492l-16.68,16.539
				C14.823,43.391,14.823,10.64,14.823,10.64z"/>
		</g>
		<g>
			<polygon fill="#FFFFFF" points="17.059,11.148 36.198,22.197 32.201,26.161 			"/>
		</g>
		<g>
			<polygon fill="#FFFFFF" points="32.201,27.544 36.198,31.508 17.06,42.557 			"/>
		</g>
		<g>
			<path fill="#FFFFFF" d="M32.898,26.853l4.181-4.146c0,0,6.668,3.85,6.705,3.871c0.182,0.114,0.255,0.222,0.244,0.276
				c-0.019,0.094-0.139,0.211-0.328,0.323l-6.619,3.822L32.898,26.853z"/>
		</g>
	</g>
	<path fill="#FFFFFF" d="M65.114,20.612l-1.021-2.61h-3.015l-1.01,2.61h-1.396l3.402-8.639h1.075l3.383,8.639H65.114z
		 M63.644,16.744l-0.853-2.271c-0.061-0.158-0.123-0.333-0.185-0.527c-0.052,0.168-0.11,0.343-0.174,0.523l-0.864,2.275H63.644z"/>
	<path fill="#FFFFFF" d="M67.027,20.612v-6.551h1.124l0.111,0.614c0.176-0.185,0.388-0.338,0.634-0.457
		c0.372-0.179,0.788-0.27,1.237-0.27c0.79,0,1.399,0.199,1.811,0.591c0.414,0.395,0.624,1.02,0.624,1.859v4.212h-1.333v-4.178
		c0-0.447-0.097-0.779-0.289-0.986c-0.188-0.204-0.499-0.307-0.925-0.307c-0.58,0-1.005,0.152-1.262,0.452
		c-0.266,0.31-0.4,0.845-0.4,1.593v3.427H67.027z"/>
	<path fill="#FFFFFF" d="M76.486,20.725c-0.864,0-1.548-0.303-2.032-0.899c-0.474-0.584-0.715-1.416-0.715-2.472
		c0-1.056,0.241-1.892,0.717-2.487c0.487-0.608,1.17-0.917,2.031-0.917c0.711,0,1.297,0.209,1.75,0.623l-0.02-0.378l0-2.714h1.333
		v9.132h-1.132l-0.089-0.6C77.873,20.485,77.255,20.725,76.486,20.725z M76.592,15.129c-0.48,0-0.836,0.18-1.09,0.549
		c-0.265,0.388-0.399,0.956-0.399,1.687c0,0.739,0.132,1.299,0.394,1.662c0.251,0.348,0.612,0.517,1.106,0.517
		c0.57,0,0.984-0.15,1.23-0.446c0.254-0.308,0.383-0.829,0.383-1.548v-0.197c0-0.821-0.132-1.408-0.393-1.744
		C77.571,15.287,77.168,15.129,76.592,15.129z"/>
	<path fill="#FFFFFF" d="M81.123,20.613v-6.551h1.151l0.077,0.819c0.181-0.23,0.383-0.422,0.605-0.572
		c0.354-0.239,0.749-0.36,1.173-0.36c0.284,0,0.545,0.024,0.775,0.072l0.185,0.038l-0.188,1.263l-0.209-0.046
		c-0.239-0.053-0.451-0.079-0.631-0.079c-0.441,0-0.809,0.176-1.126,0.538c-0.323,0.37-0.48,0.821-0.48,1.378v3.5H81.123z"/>
	<path fill="#FFFFFF" d="M88.473,20.725c-0.584,0-1.112-0.14-1.569-0.416c-0.458-0.278-0.816-0.681-1.064-1.196
		c-0.244-0.509-0.368-1.108-0.368-1.782c0-1.049,0.271-1.882,0.803-2.477c0.538-0.601,1.291-0.906,2.237-0.906
		c0.917,0,1.657,0.312,2.201,0.927c0.538,0.606,0.812,1.433,0.812,2.455c0,1.048-0.272,1.884-0.81,2.482
		C90.172,20.418,89.418,20.725,88.473,20.725z M88.484,15.14c-0.549,0-0.949,0.171-1.223,0.522c-0.28,0.363-0.422,0.924-0.422,1.668
		c0,0.737,0.145,1.3,0.43,1.675c0.276,0.362,0.678,0.538,1.227,0.538s0.952-0.175,1.23-0.536c0.287-0.371,0.432-0.935,0.432-1.677
		c0-0.732-0.145-1.291-0.432-1.66C89.447,15.314,89.041,15.14,88.484,15.14z"/>
	<path fill="#FFFFFF" d="M92.757,20.612v-6.551h1.331v6.551H92.757z M93.428,13.418c-0.208,0-0.393-0.073-0.533-0.211
		c-0.144-0.142-0.217-0.348-0.217-0.611c0-0.27,0.074-0.476,0.22-0.614c0.141-0.133,0.324-0.204,0.53-0.204
		c0.2,0,0.376,0.069,0.523,0.205c0.15,0.142,0.227,0.348,0.227,0.613c0,0.263-0.075,0.469-0.224,0.612
		C93.808,13.348,93.631,13.418,93.428,13.418z"/>
	<path fill="#FFFFFF" d="M98.07,20.725c-0.865,0-1.549-0.303-2.033-0.899c-0.475-0.583-0.715-1.415-0.715-2.472
		c0-1.056,0.241-1.893,0.717-2.487c0.485-0.608,1.169-0.917,2.031-0.917c0.71,0,1.297,0.209,1.751,0.623L99.8,14.194V11.48h1.332
		v9.132h-1.13l-0.091-0.599C99.457,20.486,98.839,20.725,98.07,20.725z M98.177,15.129c-0.48,0-0.837,0.18-1.09,0.549
		c-0.265,0.388-0.398,0.956-0.398,1.687c0,0.74,0.133,1.299,0.394,1.662c0.25,0.348,0.611,0.517,1.104,0.517
		c0.578,0,0.981-0.146,1.23-0.447c0.254-0.307,0.383-0.828,0.383-1.547v-0.197c0-0.822-0.132-1.408-0.392-1.744
		C99.156,15.287,98.753,15.129,98.177,15.129z"/>
	<path fill="#FFFFFF" d="M107.385,20.724c-0.658,0-1.187-0.176-1.568-0.523c-0.388-0.354-0.585-0.855-0.585-1.489
		c0-1.365,1.068-2.089,3.175-2.153l0.85-0.028v-0.188c0-0.428-0.088-0.743-0.261-0.935c-0.167-0.185-0.452-0.278-0.848-0.278
		c-0.48,0-1.036,0.151-1.653,0.451l-0.192,0.093l-0.433-1.077l0.156-0.085c0.315-0.172,0.666-0.308,1.043-0.405
		c0.373-0.097,0.755-0.146,1.136-0.146c0.782,0,1.376,0.182,1.766,0.541c0.395,0.362,0.595,0.938,0.595,1.713v4.398h-1.052
		l-0.144-0.682c-0.251,0.266-0.506,0.457-0.76,0.571C108.28,20.649,107.868,20.724,107.385,20.724z M108.511,17.625
		c-0.703,0.025-1.21,0.131-1.505,0.315c-0.267,0.167-0.396,0.422-0.396,0.781c0,0.278,0.077,0.48,0.236,0.618
		c0.165,0.143,0.409,0.215,0.726,0.215c0.524,0,0.937-0.142,1.227-0.421c0.293-0.281,0.436-0.67,0.436-1.192v-0.347L108.511,17.625z
		"/>
	<path fill="#FFFFFF" d="M112.086,23.373v-9.312h1.129l0.094,0.615c0.198-0.208,0.419-0.371,0.659-0.484
		c0.342-0.162,0.738-0.244,1.18-0.244c0.874,0,1.562,0.307,2.044,0.911c0.471,0.593,0.709,1.424,0.709,2.471
		c0,1.052-0.242,1.886-0.72,2.48c-0.489,0.606-1.174,0.914-2.033,0.914c-0.428,0-0.824-0.081-1.18-0.239
		c-0.208-0.094-0.398-0.217-0.569-0.368c0.013,0.18,0.019,0.354,0.019,0.524v2.731H112.086z M115.012,15.141
		c-0.562,0-0.968,0.15-1.208,0.447c-0.25,0.311-0.381,0.829-0.388,1.538v0.206c0,0.815,0.131,1.397,0.391,1.732
		c0.25,0.323,0.652,0.48,1.229,0.48c0.466,0,0.82-0.183,1.085-0.56c0.276-0.396,0.416-0.956,0.416-1.665
		c0-0.718-0.139-1.271-0.413-1.646C115.858,15.315,115.495,15.141,115.012,15.141z"/>
	<path fill="#FFFFFF" d="M119.129,23.373v-9.312h1.13l0.094,0.615c0.198-0.208,0.419-0.37,0.657-0.483
		c0.344-0.162,0.74-0.244,1.181-0.244c0.875,0,1.563,0.307,2.044,0.912c0.471,0.591,0.709,1.422,0.709,2.471
		c0,1.052-0.242,1.886-0.72,2.48c-0.489,0.606-1.174,0.914-2.033,0.914c-0.428,0-0.824-0.081-1.18-0.239
		c-0.208-0.094-0.398-0.216-0.568-0.368c0.012,0.18,0.018,0.354,0.018,0.524v2.731H119.129z M122.055,15.141
		c-0.563,0-0.969,0.15-1.207,0.447c-0.252,0.311-0.383,0.828-0.39,1.538v0.206c0,0.815,0.132,1.398,0.392,1.732
		c0.25,0.324,0.651,0.48,1.228,0.48c0.467,0,0.821-0.183,1.085-0.56c0.276-0.395,0.416-0.955,0.416-1.665
		c0-0.719-0.139-1.272-0.413-1.646C122.902,15.315,122.539,15.141,122.055,15.141z"/>
	<path fill="#FFFFFF" d="M131.814,20.725c-0.585,0-1.113-0.14-1.569-0.416c-0.458-0.277-0.816-0.68-1.064-1.196
		c-0.244-0.508-0.368-1.107-0.368-1.781c0-1.049,0.271-1.882,0.803-2.477c0.539-0.601,1.292-0.906,2.237-0.906
		c0.917,0,1.657,0.312,2.201,0.927c0.538,0.605,0.812,1.431,0.812,2.455c0,1.05-0.272,1.885-0.81,2.483
		C133.515,20.418,132.761,20.725,131.814,20.725z M131.827,15.14c-0.55,0-0.95,0.171-1.223,0.522
		c-0.281,0.361-0.424,0.922-0.424,1.668c0,0.739,0.145,1.302,0.43,1.674c0.276,0.363,0.678,0.539,1.227,0.539
		c0.55,0,0.952-0.175,1.23-0.536c0.288-0.372,0.434-0.936,0.434-1.677c0-0.732-0.146-1.291-0.434-1.659
		C132.79,15.314,132.384,15.14,131.827,15.14z"/>
	<path fill="#FFFFFF" d="M136.099,20.612v-6.551h1.124l0.111,0.614c0.177-0.185,0.389-0.338,0.635-0.457
		c0.372-0.179,0.788-0.27,1.237-0.27c0.79,0,1.399,0.199,1.811,0.592c0.414,0.395,0.624,1.02,0.624,1.858v4.212h-1.334v-4.178
		c0-0.447-0.097-0.779-0.288-0.986c-0.188-0.204-0.499-0.307-0.926-0.307c-0.587,0-1,0.148-1.263,0.452
		c-0.265,0.309-0.399,0.845-0.399,1.593v3.427H136.099z"/>
</g>
</svg>
