<?xml version="1.0" encoding="utf-8"?>
<!-- Generator: Adobe Illustrator 17.0.0, SVG Export Plug-In . SVG Version: 6.00 Build 0)  -->
<!DOCTYPE svg PUBLIC "-//W3C//DTD SVG 1.1//EN" "http://www.w3.org/Graphics/SVG/1.1/DTD/svg11.dtd">
<svg version="1.1" id="Layer_1" xmlns="http://www.w3.org/2000/svg" xmlns:xlink="http://www.w3.org/1999/xlink" x="0px" y="0px"
	 width="300px" height="300px" viewBox="0 0 300 300" enable-background="new 0 0 300 300" xml:space="preserve">
<path fill="none" stroke="#3F3F3F" stroke-width="6" stroke-linecap="round" stroke-linejoin="round" stroke-miterlimit="10" d="
	M-510.33,94.957c0,39.736-32.205,71.951-71.948,71.951c-39.731,0-71.949-32.215-71.949-71.951"/>
<line fill="none" stroke="#3F3F3F" stroke-width="6" stroke-linecap="round" stroke-linejoin="round" stroke-miterlimit="10" x1="-670.047" y1="93.957" x2="-494.509" y2="93.957"/>
<path fill="none" stroke="#3F3F3F" stroke-width="6" stroke-linecap="round" stroke-linejoin="round" stroke-miterlimit="10" d="
	M-574.423,169.923v24.051c0,13.995,11.386,25.381,25.381,25.381h47.676c22.835,0,41.412,18.577,41.412,41.412"/>
<path fill="none" stroke="#3F3F3F" stroke-width="6" stroke-linecap="round" stroke-linejoin="round" stroke-miterlimit="10" d="
	M-475.984,260.767c0-13.995-11.386-25.381-25.381-25.381h-47.676c-22.835,0-41.412-18.577-41.412-41.412v-24.051"/>
<g>
	<path fill="none" stroke="#3F3F3F" stroke-width="6" stroke-linecap="round" stroke-linejoin="round" stroke-miterlimit="10" d="
		M-151.285,120.306c0,49.721-58.715,90.03-58.715,90.03s-58.715-42.397-58.715-90.03c0-32.428,26.288-58.715,58.715-58.715
		S-151.285,87.879-151.285,120.306z"/>
	
		<circle fill="none" stroke="#3F3F3F" stroke-width="6" stroke-linecap="round" stroke-linejoin="round" stroke-miterlimit="10" cx="-210.697" cy="122.297" r="25.545"/>
</g>
<polyline fill="none" stroke="#3F3F3F" stroke-width="6" stroke-linecap="round" stroke-linejoin="round" stroke-miterlimit="10" points="
	-263,147.842 -288.616,157.773 -340,238.409 -278.457,210.626 -210,238.409 -148.457,210.626 -80,238.409 -131.384,157.773 
	-157.747,149.598 "/>
<line fill="none" stroke="#3F3F3F" stroke-width="6" stroke-linecap="round" stroke-linejoin="round" stroke-miterlimit="10" x1="-210" y1="212.16" x2="-210" y2="238.409"/>
<line fill="none" stroke="#3F3F3F" stroke-width="6" stroke-linecap="round" stroke-linejoin="round" stroke-miterlimit="10" x1="-148.457" y1="210.626" x2="-164.147" y2="161.979"/>
<line fill="none" stroke="#3F3F3F" stroke-width="6" stroke-linecap="round" stroke-linejoin="round" stroke-miterlimit="10" x1="-278.457" y1="210.626" x2="-256.724" y2="160.074"/>
<g>
	<path fill="none" stroke="#3F3F3F" stroke-width="6" stroke-linecap="round" stroke-linejoin="round" stroke-miterlimit="10" d="
		M493.768,179.575c0,10.356-8.393,18.737-18.737,18.737c-10.345,0-18.737-8.381-18.737-18.737c0-10.357,8.392-18.737,18.737-18.737
		S493.768,169.218,493.768,179.575z"/>
</g>
<g>
	<path fill="none" stroke="#3F3F3F" stroke-width="6" stroke-linecap="round" stroke-linejoin="round" stroke-miterlimit="10" d="
		M593.498,118.861l-12.797,12.765c-17.09,17.084-44.768,17.065-61.833,0c-17.078-17.072-17.09-44.744,0-61.834l12.674-12.802
		L593.498,118.861z"/>
</g>
<polyline fill="none" stroke="#3F3F3F" stroke-width="6" stroke-linecap="round" stroke-linejoin="round" stroke-miterlimit="10" points="
	483,105 424.346,132.457 412.791,240.819 521.153,229.264 546.5,169.478 "/>
<line fill="none" stroke="#3F3F3F" stroke-width="6" stroke-linecap="round" stroke-linejoin="round" stroke-miterlimit="10" x1="461.112" y1="192.707" x2="412.791" y2="240.819"/>
<line fill="none" stroke="#3F3F3F" stroke-width="6" stroke-linecap="round" stroke-linejoin="round" stroke-miterlimit="10" x1="412.5" y1="242.819" x2="602.333" y2="242.819"/>
<line fill="none" stroke="#3F3F3F" stroke-width="6" stroke-linecap="round" stroke-linejoin="round" stroke-miterlimit="10" x1="531.5" y1="212.16" x2="630.333" y2="212.16"/>
<line fill="none" stroke="#3F3F3F" stroke-width="6" stroke-linecap="round" stroke-linejoin="round" stroke-miterlimit="10" x1="523.413" y1="226.247" x2="582.247" y2="226.247"/>
<path fill="none" stroke="#3F3F3F" stroke-width="6" stroke-linecap="round" stroke-linejoin="round" stroke-miterlimit="10" d="
	M-617.88,91.811V57.303c0-4.585,3.717-8.302,8.302-8.302l0,0c4.585,0,8.302,3.717,8.302,8.302v34.508"/>
<path fill="none" stroke="#3F3F3F" stroke-width="6" stroke-linecap="round" stroke-linejoin="round" stroke-miterlimit="10" d="
	M-564.808,91.811V57.303c0-4.585,3.717-8.302,8.302-8.302l0,0c4.585,0,8.302,3.717,8.302,8.302v34.508"/>
<path fill="none" stroke="#3F3F3F" stroke-width="6" stroke-linecap="round" stroke-linejoin="round" stroke-miterlimit="10" d="
	M872.447,132.836"/>
<g>
	<path fill="none" stroke="#3F3F3F" stroke-width="6" stroke-linecap="round" stroke-linejoin="round" stroke-miterlimit="10" d="
		M872.383,133.131"/>
	<path fill="none" stroke="#3F3F3F" stroke-width="6" stroke-linecap="round" stroke-linejoin="round" stroke-miterlimit="10" d="
		M925.526,152.535l46.144,21.077c17.552,8.161,25.164,29.004,17.003,46.556l0,0l0,0c-8.161,17.551-29.004,25.164-46.556,17.004
		L832.296,186.11"/>
	<path fill="none" stroke="#3F3F3F" stroke-width="6" stroke-linecap="round" stroke-linejoin="round" stroke-miterlimit="10" d="
		M813.528,225.679c-11.004-5.116-15.777-18.184-10.66-29.188l0,0l0,0c5.116-11.004,18.184-15.777,29.188-10.66"/>
	<path fill="none" stroke="#3F3F3F" stroke-width="6" stroke-linecap="round" stroke-linejoin="round" stroke-miterlimit="10" d="
		M922.295,105.974c-21.654,0-40.536,11.818-50.584,29.347v36.412l13.033,16.451h76.451l13.033-16.451v-33.918
		C964.59,118.922,944.96,105.974,922.295,105.974z"/>
	<path fill="none" stroke="#3F3F3F" stroke-width="6" stroke-linecap="round" stroke-linejoin="round" stroke-miterlimit="10" d="
		M902.993,94.393c-21.654,0-40.536,11.818-50.584,29.347v47.993"/>
	<path fill="none" stroke="#3F3F3F" stroke-width="6" stroke-linecap="round" stroke-linejoin="round" stroke-miterlimit="10" d="
		M835.653,61.841c-24.526-5.029-58.751,5.104-67.437,23.557v47.993"/>
	<path fill="none" stroke="#3F3F3F" stroke-width="6" stroke-linecap="round" stroke-linejoin="round" stroke-miterlimit="10" d="
		M936.891,107.845L824.906,55.71c-7.918-4.029-16.879-6.301-26.373-6.301c-21.654,0-40.536,11.818-50.584,29.347v36.412
		l13.033,16.451"/>
	
		<line fill="none" stroke="#3F3F3F" stroke-width="6" stroke-linecap="round" stroke-linejoin="round" stroke-miterlimit="10" x1="871.711" y1="135.322" x2="747.949" y2="78.757"/>
	
		<line fill="none" stroke="#3F3F3F" stroke-width="6" stroke-linecap="round" stroke-linejoin="round" stroke-miterlimit="10" x1="760.982" y1="131.62" x2="884.744" y2="188.185"/>
	<path fill="none" stroke="#3F3F3F" stroke-width="6" stroke-linecap="round" stroke-linejoin="round" stroke-miterlimit="10" d="
		M939.035,159.331c0,3.707-3.005,6.713-6.713,6.713h-13.593c-3.707,0-6.713-3.005-6.713-6.713v-13.593
		c0-3.707,3.006-6.713,6.713-6.713h13.593c3.707,0,6.713,3.005,6.713,6.713V159.331z"/>
	<g>
		
			<line fill="none" stroke="#3F3F3F" stroke-width="6" stroke-linecap="round" stroke-linejoin="round" stroke-miterlimit="10" x1="840.261" y1="235.944" x2="813.404" y2="223.843"/>
		<path fill="none" stroke="#3F3F3F" stroke-width="6" stroke-linecap="round" stroke-linejoin="round" stroke-miterlimit="10" d="
			M867.245,249.574c0,0.786-0.638,1.424-1.424,1.424h-24.448c-0.786,0-1.424-0.638-1.424-1.424v-12.75
			c0-0.786,0.637-1.424,1.424-1.424h24.448c0.786,0,1.424,0.638,1.424,1.424V249.574z"/>
		<path fill="none" stroke="#3F3F3F" stroke-width="6" stroke-linecap="round" stroke-linejoin="round" stroke-miterlimit="10" d="
			M840.989,250.998l-26.291-12.224h-0.093c-0.939-0.361-1.424-0.637-1.424-1.424V224.6c0-0.786,0.638-1.424,1.424-1.424h24.448
			l27.118,12.224"/>
	</g>
</g>
<polygon fill="none" stroke="#3F3F3F" stroke-width="6" stroke-linecap="round" stroke-linejoin="round" stroke-miterlimit="10" points="
	1267.254,179.611 1148.003,121.662 1267.254,63.714 1390.884,121.662 "/>
<polyline fill="none" stroke="#3F3F3F" stroke-width="6" stroke-linecap="round" stroke-linejoin="round" stroke-miterlimit="10" points="
	1335.92,147.941 1390.884,169.828 1267.254,227.777 1148.003,169.828 1201.337,147.935 "/>
<line fill="none" stroke="#3F3F3F" stroke-width="6" stroke-linecap="round" stroke-linejoin="round" stroke-miterlimit="10" x1="1312" y1="230.625" x2="1288.708" y2="219.323"/>
<line fill="none" stroke="#3F3F3F" stroke-width="6" stroke-linecap="round" stroke-linejoin="round" stroke-miterlimit="10" x1="1340.069" y1="218.038" x2="1315.575" y2="206.059"/>
<line fill="none" stroke="#3F3F3F" stroke-width="6" stroke-linecap="round" stroke-linejoin="round" stroke-miterlimit="10" x1="1367.736" y1="205.205" x2="1342.442" y2="192.795"/>
<line fill="none" stroke="#3F3F3F" stroke-width="6" stroke-linecap="round" stroke-linejoin="round" stroke-miterlimit="10" x1="1395.069" y1="192.038" x2="1369.31" y2="179.531"/>
<g>
	<path fill="none" stroke="#FFFFFF" stroke-width="6" stroke-linecap="round" stroke-linejoin="round" stroke-miterlimit="10" d="
		M114.563,201.932c8.129,21.375,35.437,36.57,35.437,36.57s27.308-15.195,35.437-36.57"/>
	<path fill="none" stroke="#FFFFFF" stroke-width="6" stroke-linecap="round" stroke-linejoin="round" stroke-miterlimit="10" d="
		M105.682,117.102c1.377-24.896,12.012-30.509,38.527-30.509c11.433,0,20.054-2.929,25.934-10.104
		c13.895,8.377,23.753,25.066,24.174,41.221"/>
	<g>
		<g>
			<g>
				
					<path fill="none" stroke="#FFFFFF" stroke-width="6" stroke-linecap="round" stroke-linejoin="round" stroke-miterlimit="10" d="
					M171.63,175.199l3.445,23.811l25.72,7.358c23.121,6.342,40.383,12.031,44.376,47.104"/>
				
					<path fill="none" stroke="#FFFFFF" stroke-width="6" stroke-linecap="round" stroke-linejoin="round" stroke-miterlimit="10" d="
					M150,46.981c32.903,0,52.338,27.678,47.201,55.796l-5.636,29.183c-0.938,5.07-1.674,9.404-2.553,13.209
					c-4.734,21.42-20.403,38.342-38.991,38.342c-18.666,0-34.303-16.503-38.965-38.058"/>
			</g>
			<g>
				
					<path fill="none" stroke="#FFFFFF" stroke-width="6" stroke-linecap="round" stroke-linejoin="round" stroke-miterlimit="10" d="
					M111.055,145.452c-0.909-3.872-1.657-8.296-2.619-13.493l-5.636-29.183c-5.138-28.117,14.297-55.795,47.2-55.795"/>
				
					<path fill="none" stroke="#FFFFFF" stroke-width="6" stroke-linecap="round" stroke-linejoin="round" stroke-miterlimit="10" d="
					M55.767,253.634c3.767-35.218,20.28-40.914,43.437-47.266l25.72-7.358l3.445-23.811"/>
			</g>
		</g>
	</g>
</g>
</svg>
