<?xml version="1.0" encoding="utf-8"?>
<!-- Generator: Adobe Illustrator 17.0.0, SVG Export Plug-In . SVG Version: 6.00 Build 0)  -->
<!DOCTYPE svg PUBLIC "-//W3C//DTD SVG 1.1//EN" "http://www.w3.org/Graphics/SVG/1.1/DTD/svg11.dtd">
<svg version="1.1" id="Layer_1" xmlns="http://www.w3.org/2000/svg" xmlns:xlink="http://www.w3.org/1999/xlink" x="0px" y="0px"
	 width="50px" height="100px" viewBox="0 0 50 100" enable-background="new 0 0 50 100" xml:space="preserve">
<g>
	<rect fill="none" width="50" height="50"/>
	<path fill="#CECECE" d="M34.859,18.898l-1.944-1.944c-0.391-0.391-1.024-0.391-1.414,0l-9.458,9.458l-3.77-3.77
		c-0.391-0.391-1.024-0.391-1.414,0l-1.945,1.944c-0.391,0.391-0.391,1.024,0,1.414l6.421,6.421c0.391,0.391,1.024,0.391,1.414,0
		l12.109-12.109C35.249,19.922,35.249,19.289,34.859,18.898z"/>
</g>
<g>
	<rect y="50" fill="none" width="50" height="50"/>
	<path fill="#55636C" d="M34.859,68.898l-1.944-1.944c-0.391-0.391-1.024-0.391-1.414,0l-9.458,9.458l-3.77-3.77
		c-0.391-0.391-1.024-0.391-1.414,0l-1.945,1.944c-0.391,0.391-0.391,1.024,0,1.414l6.421,6.421c0.391,0.391,1.024,0.391,1.414,0
		l12.109-12.109C35.249,69.922,35.249,69.289,34.859,68.898z"/>
</g>
</svg>
