<?xml version="1.0" encoding="utf-8"?>
<!-- Generator: Adobe Illustrator 17.0.0, SVG Export Plug-In . SVG Version: 6.00 Build 0)  -->
<!DOCTYPE svg PUBLIC "-//W3C//DTD SVG 1.1//EN" "http://www.w3.org/Graphics/SVG/1.1/DTD/svg11.dtd">
<svg version="1.1" id="Layer_1" xmlns="http://www.w3.org/2000/svg" xmlns:xlink="http://www.w3.org/1999/xlink" x="0px" y="0px"
	 width="800px" height="300px" viewBox="0 0 800 300" enable-background="new 0 0 800 300" xml:space="preserve">
<g>
	<path fill="#55636C" d="M601.317,260.529h-41.914c-0.578,0-1.047,0.469-1.047,1.047s0.469,1.047,1.047,1.047h41.914
		c0.578,0,1.047-0.469,1.047-1.047S601.896,260.529,601.317,260.529z"/>
	<path fill="#55636C" d="M153.048,262.005H94.369c-0.578,0-1.047,0.469-1.047,1.047s0.469,1.047,1.047,1.047h58.679
		c0.578,0,1.047-0.469,1.047-1.047S153.626,262.005,153.048,262.005z"/>
	<path fill="#55636C" d="M236.875,262.005h-74.682c-0.578,0-1.047,0.469-1.047,1.047s0.469,1.047,1.047,1.047h74.682
		c0.578,0,1.047-0.469,1.047-1.047S237.453,262.005,236.875,262.005z"/>
	<path fill="#55636C" d="M86.363,262.005h-1.56H46.072c-15.738,0-28.542-12.951-28.542-28.871c0-12.656,10.149-22.953,22.625-22.953
		c9.865,0,17.891,8.027,17.891,17.894c0,7.779-6.326,14.107-14.101,14.107c-6.104,0-11.07-4.963-11.07-11.063
		c0-4.758,3.883-8.628,8.656-8.628c3.708,0,6.723,3.028,6.723,6.751c0,2.891-2.302,5.241-5.132,5.241
		c-2.203,0-3.864-1.613-3.864-3.753c0-0.578-0.469-1.047-1.047-1.047s-1.047,0.469-1.047,1.047c0,3.278,2.617,5.847,5.958,5.847
		c3.984,0,7.226-3.291,7.226-7.335c0-4.877-3.956-8.845-8.817-8.845c-5.927,0-10.75,4.81-10.75,10.722
		c0,7.254,5.905,13.156,13.164,13.156c3.617,0,6.95-1.207,9.649-3.22c3.963-2.956,6.546-7.666,6.546-12.981
		c0-11.021-8.965-19.987-19.985-19.987c-13.63,0-24.719,11.236-24.719,25.047c0,17.074,13.743,30.965,30.636,30.965h40.291
		c0.578,0,1.047-0.469,1.047-1.047S86.941,262.005,86.363,262.005z"/>
	<path fill="#55636C" d="M762.064,196.367c-11.021,0-19.986,8.966-19.986,19.986c0,4.431,1.79,8.449,4.681,11.377
		c2.938,2.975,7.012,4.825,11.513,4.825c7.256,0,13.159-5.902,13.159-13.156c0-5.912-4.825-10.723-10.757-10.723
		c-4.869,0-8.831,3.969-8.831,8.846c0,4.044,3.229,7.334,7.197,7.334c3.309,0,5.9-2.568,5.9-5.847c0-0.578-0.469-1.047-1.047-1.047
		s-1.047,0.469-1.047,1.047c0,2.14-1.637,3.753-3.807,3.753c-2.814,0-5.104-2.351-5.104-5.24c0-3.724,3.022-6.752,6.737-6.752
		c4.777,0,8.663,3.871,8.663,8.629c0,6.1-4.964,11.063-11.065,11.063c-7.775,0-14.101-6.329-14.101-14.108
		c0-9.866,8.026-17.893,17.893-17.893c12.477,0,22.626,10.297,22.626,22.953c0,15.92-12.804,28.871-28.542,28.871h-49.666h-1.21
		c1.018-0.81,2.398-1.975,3.894-3.422c4.506-4.357,10.074-11.293,10.074-18.976c0-8.977-7.304-16.28-16.281-16.28
		s-16.281,7.304-16.281,16.28c0,10.794,9.686,19.254,13.858,22.398h-0.151h-32.939c1.269-0.726,2.276-1.858,2.839-3.221h0.192
		c4.136,0,7.5-3.364,7.5-7.499c0-4.136-3.364-7.5-7.5-7.5H645.53v-7.605c0-0.578-0.469-1.047-1.047-1.047
		c-0.116,0-0.223,0.031-0.328,0.066c-0.104-0.035-0.211-0.066-0.328-0.066h-1.272c-4.85,0-8.809,3.849-9.007,8.652h-1.407
		c-4.135,0-7.498,3.364-7.498,7.5c0,4.135,3.363,7.499,7.498,7.499h0.281c0.563,1.363,1.57,2.495,2.839,3.221H155.547
		c0.153-0.182,0.256-0.409,0.256-0.665v-18.831c0-10.961-9.86-19.878-21.979-19.878h-18.366H95.413
		c-10.965,0-19.886-8.818-19.886-19.658v-19.674v-0.682c3.385-0.162,6.091-2.958,6.091-6.383c0-3.527-2.87-6.396-6.397-6.396
		c-3.526,0-6.395,2.869-6.395,6.396c0,2.907,1.95,5.363,4.608,6.139v20.599c0,11.994,9.86,21.752,21.98,21.752h22.17h16.24
		c10.965,0,19.886,7.978,19.886,17.784v17.8v1.031c0,0.256,0.103,0.483,0.256,0.665h-45.42c-0.578,0-1.047,0.469-1.047,1.047
		s0.469,1.047,1.047,1.047h591.84h6.098h49.666c16.893,0,30.636-13.891,30.636-30.965
		C786.784,207.604,775.695,196.367,762.064,196.367z M79.524,164.515c0,2.374-1.931,4.305-4.304,4.305
		c-2.372,0-4.301-1.931-4.301-4.305c0-2.373,1.929-4.303,4.301-4.303C77.593,160.212,79.524,162.142,79.524,164.515z
		 M634.017,244.552c0-2.487,2.023-4.511,4.512-4.511c2.487,0,4.511,2.023,4.511,4.511c0,2.488-2.023,4.512-4.511,4.512
		C636.04,249.063,634.017,247.04,634.017,244.552z M645.133,244.552c0-3.642-2.963-6.604-6.604-6.604
		c-3.643,0-6.605,2.963-6.605,6.604c0,0.138,0.012,0.273,0.021,0.409c-2.888-0.105-5.206-2.482-5.206-5.395
		c0-2.981,2.424-5.406,5.404-5.406h38.335c2.981,0,5.406,2.425,5.406,5.406c0,2.884-2.272,5.24-5.119,5.391
		c0.008-0.134,0.021-0.268,0.021-0.404c0-3.642-2.963-6.604-6.605-6.604c-3.642,0-6.604,2.963-6.604,6.604
		c0,0.504,0.062,0.994,0.17,1.466h-12.781C645.071,245.546,645.133,245.056,645.133,244.552z M659.668,244.552
		c0-2.487,2.023-4.511,4.511-4.511c2.488,0,4.512,2.023,4.512,4.511c0,2.488-2.023,4.512-4.512,4.512
		C661.691,249.063,659.668,247.04,659.668,244.552z M635.642,232.065c0.011-0.2,0.029-0.398,0.057-0.594
		c0.474-3.365,3.363-5.965,6.857-5.965h0.059h0.822v6.559H635.642z M644.634,247.064h13.44c0.563,1.363,1.57,2.495,2.839,3.221
		h-19.117C643.064,249.559,644.071,248.427,644.634,247.064z M702.959,213.7c7.823,0,14.188,6.364,14.188,14.187
		c0,10.209-11.478,19.488-14.209,21.551c-2.746-1.94-14.166-10.665-14.166-21.551C688.771,220.064,695.136,213.7,702.959,213.7z"/>
	<path fill="#55636C" d="M665.832,98.041h23.189c0.28,0,0.55-0.113,0.746-0.313c0.197-0.2,0.305-0.471,0.301-0.751
		c-0.051-3.063-2.585-5.555-5.649-5.555c-0.443,0-0.878,0.05-1.3,0.15c-1.215-3.062-4.179-5.116-7.557-5.116
		c-3.536,0-6.646,2.279-7.73,5.601c-1.832,0.949-3.011,2.827-3.047,4.919c-0.005,0.28,0.104,0.551,0.301,0.751
		C665.282,97.928,665.552,98.041,665.832,98.041z M669.715,93.07c0.69-2.662,3.095-4.52,5.848-4.52c2.797,0,5.21,1.895,5.87,4.608
		c0.074,0.306,0.282,0.563,0.566,0.698c0.284,0.135,0.613,0.136,0.899,0c0.476-0.226,0.987-0.34,1.521-0.34
		c1.559,0,2.898,1.022,3.373,2.431H667.06c0.323-0.97,1.056-1.772,2.036-2.17C669.402,93.652,669.632,93.39,669.715,93.07z"/>
	<path fill="#55636C" d="M117.846,120.371c0.197,0.2,0.466,0.313,0.747,0.313h61.928c0.281,0,0.55-0.113,0.747-0.313
		s0.305-0.471,0.3-0.751c-0.088-5.18-3.145-9.805-7.834-11.926c-2.449-8.534-10.27-14.449-19.198-14.449
		c-8.835,0-16.515,5.725-19.082,14.066c-1.46-0.534-2.991-0.804-4.567-0.804c-7.232,0-13.217,5.883-13.34,13.113
		C117.542,119.9,117.649,120.171,117.846,120.371z M135.699,109.68c0.284,0.134,0.614,0.134,0.898-0.001
		c0.284-0.136,0.492-0.392,0.566-0.698c1.952-8.033,9.095-13.643,17.371-13.643c8.148,0,15.266,5.502,17.309,13.381
		c0.083,0.32,0.313,0.583,0.62,0.707c3.851,1.563,6.489,5.091,6.943,9.165h-59.698c0.633-5.598,5.439-9.99,11.178-9.99
		C132.566,108.6,134.186,108.963,135.699,109.68z"/>
	<path fill="#55636C" d="M693.082,71.97c0.002,0.004,0.002,0.008,0.005,0.012l5.643,8.497c-0.055,0.281-0.092,0.564-0.092,0.848
		c0,2.453,1.996,4.449,4.449,4.449s4.449-1.996,4.449-4.449c0-0.267-0.031-0.532-0.08-0.797l6.731-8.477
		c0.016-0.02,0.02-0.046,0.034-0.067c3.751-3.055,6.153-7.704,6.153-12.907c0-9.177-7.467-16.644-16.644-16.644
		c-0.024,0-0.045,0.012-0.069,0.014c-0.023-0.002-0.043-0.014-0.067-0.014c-9.177,0-16.644,7.467-16.644,16.644
		C686.951,64.273,689.344,68.915,693.082,71.97z M718.281,59.08c0,5.734-3.342,10.69-8.173,13.059
		c2.334-3.025,3.812-7.705,3.812-13.059c0-5.354-1.477-10.033-3.811-13.058C714.939,48.391,718.281,53.346,718.281,59.08z
		 M711.826,59.08c0,6.125-2.239,11.496-5.293,13.598c1.312-3.57,1.729-9.516,1.729-13.598c0-4.081-0.417-10.027-1.728-13.597
		C709.587,47.584,711.826,52.955,711.826,59.08z M703.731,44.576c0.914,0.674,2.437,5.851,2.437,14.504
		c0,8.895-1.611,14.132-2.437,14.551c0,0,0,0,0,0c-0.022,0-0.04,0.011-0.061,0.012c-0.024-0.012-0.05-0.04-0.075-0.058
		c-0.914-0.674-2.437-5.852-2.437-14.505c0-8.652,1.523-13.832,2.437-14.506c0.018-0.013,0.036-0.036,0.053-0.045
		c0.006,0,0.011-0.004,0.016-0.004C703.686,44.535,703.709,44.559,703.731,44.576z M700.793,45.483
		c-1.312,3.57-1.728,9.516-1.728,13.597c0,4.082,0.417,10.028,1.729,13.598c-3.054-2.102-5.293-7.473-5.293-13.598
		C695.5,52.955,697.739,47.584,700.793,45.483z M697.218,46.022c-2.334,3.025-3.811,7.704-3.811,13.058
		c0,5.354,1.477,10.034,3.812,13.059c-4.831-2.369-8.173-7.325-8.173-13.059C689.045,53.346,692.387,48.391,697.218,46.022z
		 M705.442,81.327c0,1.299-1.057,2.355-2.355,2.355s-2.355-1.056-2.355-2.355c0-0.001,0-0.003,0-0.004h4.711
		C705.442,81.324,705.442,81.326,705.442,81.327z M705.817,79.229h-5.404l-3.167-4.769c1.958,0.812,4.101,1.265,6.349,1.265
		c0.024,0,0.045-0.012,0.069-0.014c0.023,0.002,0.044,0.014,0.067,0.014c1.996,0,3.902-0.371,5.677-1.019L705.817,79.229z"/>
	<path fill="#55636C" d="M71.304,92.266c0.357,1.285,1.538,2.182,2.871,2.182c0.27,0,0.54-0.037,0.801-0.11l40.561-11.302
		c0.767-0.213,1.404-0.713,1.796-1.407c0.392-0.694,0.49-1.498,0.276-2.265l-7.715-27.687c-0.358-1.284-1.54-2.182-2.874-2.182
		c-0.269,0-0.538,0.037-0.798,0.109L65.66,60.908c-0.767,0.213-1.404,0.713-1.795,1.408c-0.391,0.694-0.489,1.498-0.276,2.264
		L71.304,92.266z M65.688,63.343c0.117-0.207,0.306-0.355,0.534-0.419l40.561-11.303c0.078-0.021,0.158-0.033,0.237-0.033
		c0.398,0,0.75,0.268,0.857,0.65l7.715,27.686c0.063,0.228,0.034,0.467-0.083,0.675c-0.117,0.207-0.306,0.355-0.534,0.419
		L74.414,92.321c-0.468,0.133-0.965-0.156-1.093-0.617l-7.715-27.686C65.542,63.79,65.571,63.55,65.688,63.343z"/>
	<path fill="#55636C" d="M72.39,68.909l9.914,4.649l-5.278,11.248c-0.245,0.523-0.02,1.147,0.503,1.393
		c0.144,0.067,0.295,0.099,0.444,0.099c0.393,0,0.77-0.223,0.948-0.602l5.278-11.249l7.826,3.67
		c0.143,0.067,0.294,0.099,0.444,0.099c0.34,0,0.67-0.166,0.87-0.465l4.945-7.388l10.503,7.011c0.179,0.119,0.38,0.176,0.58,0.176
		c0.338,0,0.67-0.164,0.872-0.466c0.321-0.481,0.191-1.131-0.29-1.452l-10.501-7.009l5.953-8.894c0.322-0.48,0.193-1.13-0.288-1.452
		c-0.481-0.322-1.131-0.193-1.452,0.288L92.1,75.839l-7.958-3.732c0,0-0.001-0.001-0.001-0.001s-0.001,0-0.001,0l-10.861-5.093
		c-0.522-0.245-1.146-0.021-1.392,0.503C71.641,68.04,71.866,68.663,72.39,68.909z"/>
	<path fill="#55636C" d="M347.84,223.839l2.115,0.688c0.107,0.035,0.217,0.052,0.324,0.052c0.441,0,0.851-0.28,0.995-0.723
		c0.179-0.55-0.121-1.141-0.671-1.319l-2.123-0.69c0.194-0.847,0.306-1.725,0.306-2.631c0-0.905-0.112-1.783-0.306-2.631l2.122-0.69
		c0.55-0.179,0.851-0.769,0.672-1.318c-0.179-0.55-0.768-0.854-1.319-0.672l-2.116,0.688c-0.703-1.643-1.775-3.088-3.103-4.248
		l1.316-1.812c0.34-0.467,0.236-1.122-0.231-1.462c-0.468-0.34-1.122-0.237-1.462,0.231l-1.316,1.811
		c-1.487-0.894-3.181-1.473-4.998-1.634v-2.23c0-0.578-0.469-1.047-1.047-1.047s-1.047,0.469-1.047,1.047v2.23
		c-1.817,0.161-3.512,0.74-5,1.634l-1.316-1.811c-0.34-0.469-0.995-0.571-1.462-0.231c-0.467,0.34-0.571,0.995-0.231,1.462
		l1.316,1.811c-1.328,1.16-2.4,2.605-3.104,4.249l-2.115-0.687c-0.55-0.18-1.141,0.122-1.319,0.672s0.123,1.141,0.672,1.318
		l2.122,0.689c-0.194,0.847-0.306,1.725-0.306,2.631c0,0.905,0.112,1.783,0.306,2.63l-2.123,0.69c-0.55,0.179-0.85,0.77-0.671,1.319
		c0.144,0.442,0.554,0.723,0.995,0.723c0.107,0,0.216-0.017,0.324-0.052l2.115-0.687c0.703,1.643,1.776,3.088,3.104,4.248
		l-1.316,1.811c-0.34,0.467-0.236,1.122,0.231,1.462c0.186,0.135,0.401,0.2,0.615,0.2c0.324,0,0.643-0.149,0.848-0.432l1.316-1.811
		c1.488,0.894,3.182,1.473,5,1.634v2.229c0,0.578,0.469,1.047,1.047,1.047s1.047-0.469,1.047-1.047v-2.229
		c1.817-0.161,3.511-0.74,4.998-1.634l1.316,1.811c0.205,0.282,0.524,0.432,0.848,0.432c0.213,0,0.429-0.065,0.615-0.2
		c0.467-0.34,0.571-0.995,0.231-1.462l-1.316-1.812C346.065,226.927,347.137,225.482,347.84,223.839z M336.998,228.911
		c-5.346,0-9.695-4.35-9.695-9.695s4.349-9.695,9.695-9.695s9.695,4.35,9.695,9.695S342.344,228.911,336.998,228.911z"/>
	<path fill="#55636C" d="M336.999,212.137c-3.903,0-7.079,3.176-7.079,7.079s3.176,7.079,7.079,7.079s7.079-3.176,7.079-7.079
		S340.902,212.137,336.999,212.137z M336.999,224.201c-2.749,0-4.985-2.236-4.985-4.985s2.236-4.985,4.985-4.985
		s4.985,2.236,4.985,4.985S339.748,224.201,336.999,224.201z"/>
	<path fill="#55636C" d="M45.51,134.626c0.23-0.244,0.47-0.473,0.705-0.711c7.689-7.771,17.896-12.049,28.87-12.049
		c10.969,0,21.536,4.497,29.169,12.353c0.233,0.24,0.472,0.472,0.7,0.718c0.206,0.223,0.487,0.336,0.769,0.336
		c0.254,0,0.509-0.092,0.71-0.278c0.424-0.392,0.451-1.055,0.058-1.479c-8.073-8.734-19.52-13.744-31.406-13.744
		c-11.891,0-22.935,4.765-31.097,13.417c-0.397,0.42-0.377,1.083,0.043,1.479C44.451,135.066,45.114,135.047,45.51,134.626z"/>
	<path fill="#55636C" d="M92.472,204.314c0.578,0,1.047-0.469,1.047-1.047v-3.548c0-1.49,1.213-2.703,2.704-2.703
		c1.491,0,2.703,1.213,2.703,2.703v3.548c0,0.578,0.469,1.047,1.047,1.047s1.047-0.469,1.047-1.047v-3.548
		c0-2.645-2.152-4.797-4.797-4.797c-2.646,0-4.798,2.152-4.798,4.797v3.548C91.425,203.846,91.894,204.314,92.472,204.314z"/>
	<path fill="#55636C" d="M103.966,204.314c0.578,0,1.047-0.469,1.047-1.047v-8.873c0-1.491,1.212-2.704,2.702-2.704
		c1.491,0,2.703,1.213,2.703,2.704v8.873c0,0,0,0,0,0c0,0.578,0.469,1.046,1.047,1.046c0.578,0,1.047-0.469,1.047-1.047v-8.873
		c0-2.646-2.152-4.798-4.797-4.798c-2.645,0-4.796,2.152-4.796,4.798v4.166v4.707C102.919,203.846,103.388,204.314,103.966,204.314z
		"/>
	<path fill="#55636C" d="M114.758,186.911v16.356c0,0.578,0.469,1.047,1.047,1.047c0.578,0,1.047-0.468,1.047-1.046c0,0,0,0,0,0
		v-16.356c0-1.49,1.212-2.702,2.702-2.702c1.491,0,2.703,1.212,2.703,2.702v16.356c0,0,0,0,0,0c0,0.578,0.469,1.046,1.047,1.046
		c0.578,0,1.047-0.469,1.047-1.047v-16.356c0-2.645-2.152-4.796-4.797-4.796C116.91,182.115,114.758,184.267,114.758,186.911z"/>
	<path fill="#55636C" d="M126.251,179.429v23.839c0,0.578,0.469,1.047,1.047,1.047c0.578,0,1.047-0.468,1.047-1.046c0,0,0,0,0,0
		v-23.839c0-1.491,1.212-2.704,2.702-2.704c1.491,0,2.703,1.213,2.703,2.704v23.839c0,0,0,0,0,0c0,0.578,0.469,1.046,1.047,1.046
		c0.578,0,1.047-0.469,1.047-1.047v-23.839c0-2.646-2.152-4.798-4.797-4.798C128.402,174.631,126.251,176.783,126.251,179.429z"/>
	<path fill="#55636C" d="M702.959,239.23c6.255,0,11.344-5.089,11.344-11.344s-5.089-11.344-11.344-11.344
		s-11.344,5.089-11.344,11.344S696.704,239.23,702.959,239.23z M702.959,218.637c5.101,0,9.25,4.149,9.25,9.25
		s-4.149,9.25-9.25,9.25s-9.25-4.149-9.25-9.25S697.858,218.637,702.959,218.637z"/>
	<path fill="#55636C" d="M701.554,233.154c0.271,0.275,0.726,0.736,1.405,0.736c0.681,0,1.134-0.461,1.405-0.735l3.109-3.111
		c1.364-1.364,1.364-3.586-0.001-4.952c-1.187-1.184-3.179-1.329-4.514-0.372c-1.336-0.957-3.329-0.812-4.513,0.373
		c-0.663,0.661-1.027,1.541-1.027,2.478c0,0.936,0.365,1.814,1.026,2.475L701.554,233.154z M699.926,226.573
		c0.266-0.266,0.619-0.412,0.995-0.412c0.377,0,0.731,0.146,0.996,0.411l0.301,0.302c0.196,0.196,0.463,0.308,0.74,0.308h0.001
		c0.277,0,0.544-0.11,0.74-0.307l0.302-0.302c0.532-0.532,1.462-0.529,1.992-0.001c0.549,0.55,0.549,1.443,0,1.992l-3.03,3.031
		l-0.004,0.003l-3.034-3.035c-0.266-0.265-0.412-0.618-0.412-0.994C699.512,227.193,699.659,226.84,699.926,226.573z"/>
	<path fill="#55636C" d="M66.323,134.021c-5.407,1.585-10.359,4.606-14.241,8.817c-0.392,0.425-0.365,1.087,0.06,1.479
		c0.425,0.393,1.086,0.365,1.479-0.06c0.221-0.239,0.451-0.468,0.679-0.699c5.468-5.545,12.984-8.714,20.784-8.714
		c7.964,0,15.588,3.278,21.082,9.015c0.225,0.235,0.452,0.466,0.67,0.709c0.207,0.231,0.493,0.349,0.78,0.349
		c0.249,0,0.498-0.088,0.698-0.267c0.431-0.386,0.467-1.047,0.082-1.478c-3.855-4.304-8.796-7.406-14.221-9.057
		c-2.921-0.889-5.981-1.364-9.091-1.364C72.096,132.75,69.149,133.193,66.323,134.021z"/>
	<path fill="#55636C" d="M75.087,146.571c-5.503,0-10.73,2.388-14.339,6.551c-0.379,0.437-0.332,1.098,0.105,1.477
		c0.437,0.379,1.098,0.332,1.476-0.105c0.204-0.235,0.43-0.445,0.645-0.667c3.175-3.279,7.528-5.161,12.114-5.161
		c4.751,0,9.209,1.994,12.402,5.468c0.21,0.228,0.431,0.443,0.629,0.683c0.207,0.252,0.507,0.382,0.809,0.382
		c0.234,0,0.47-0.078,0.665-0.239c0.446-0.367,0.51-1.026,0.143-1.473C86.117,149.092,80.778,146.571,75.087,146.571z"/>
	<path fill="#55636C" d="M207.604,210.045c0.152,0,0.306-0.007,0.46-0.021l137.862-13.235l132.42,13.964
		c0.17,0.018,0.339,0.026,0.507,0.026c2.452,0,4.497-1.842,4.756-4.285l11.514-109.171v106.543c0,2.64,2.147,4.787,4.787,4.787
		h139.572c2.639,0,4.786-2.147,4.786-4.787v-29.154c0.059,0.01,0.112,0.035,0.174,0.035h52.296c12.119,0,21.979-9.86,21.979-21.98
		V120.83h28.547c0.28,0,0.55-0.113,0.746-0.313c0.197-0.2,0.305-0.471,0.301-0.751c-0.088-5.181-3.146-9.806-7.834-11.926
		c-2.448-8.534-10.27-14.449-19.198-14.449c-8.835,0-16.515,5.725-19.082,14.066c-1.46-0.534-2.991-0.804-4.567-0.804
		c-7.232,0-13.217,5.883-13.34,13.113c-0.005,0.28,0.104,0.551,0.301,0.751c0.196,0.2,0.466,0.313,0.746,0.313h31.287v0.29v31.647
		c0,10.966-8.921,19.887-19.886,19.887h-50.859h-1.436c-0.062,0-0.115,0.025-0.174,0.035V64.293c0-2.639-2.147-4.787-4.786-4.787
		h-1.945l1.227-2.287c0.921,0.147,1.837,0.23,2.739,0.23c4.277,0,7.635-1.686,9.211-4.625c2.775-5.173-1.024-12.63-8.469-16.624
		c-3.033-1.626-6.256-2.486-9.322-2.486c-4.277,0-7.635,1.686-9.211,4.625c-1.959,3.652-0.631,8.437,2.933,12.344l-1.806,3.367
		c-2.244,0.26-3.997,1.312-4.894,2.983c-0.414,0.771-0.604,1.61-0.612,2.473H499.909c-2.122,0-3.905,1.397-4.531,3.312
		c-0.435-0.189-0.894-0.336-1.39-0.389l-83.901-8.848c0.035-0.427,0.04-0.866,0.005-1.316l2.906-2.351
		c2.421,1.509,5.006,2.357,7.42,2.357c2.039,0,3.874-0.612,5.307-1.771c4.563-3.692,3.953-12.04-1.361-18.607
		c-3.486-4.31-8.317-6.986-12.607-6.986c-2.039,0-3.873,0.612-5.306,1.771c-2.273,1.839-3.35,4.832-3.031,8.426
		c0.12,1.352,0.44,2.731,0.93,4.097l-2.961,2.396c-0.724-0.21-1.447-0.323-2.148-0.323c-1.345,0-2.558,0.407-3.51,1.177
		c-1.502,1.215-2.216,3.175-2.009,5.519c0.086,0.971,0.336,1.962,0.719,2.938l-0.718,0.948l-38.535-4.064
		c-2.659-0.282-4.987,1.648-5.263,4.258l-6.283,59.573l-5.673-59.093c-0.25-2.621-2.558-4.561-5.222-4.307l-66.695,6.402
		l-0.041-0.169c2.219-2.451,3.001-5.436,1.759-7.827c-0.88-1.694-2.627-2.765-4.88-3.048l-1.743-3.356
		c1.005-1.062,1.857-2.205,2.513-3.405c1.729-3.167,1.939-6.34,0.592-8.934c-1.567-3.018-4.98-4.749-9.363-4.749
		c-3.002,0-6.163,0.817-9.14,2.364c-7.497,3.894-11.395,11.3-8.689,16.509c1.567,3.018,4.98,4.749,9.363,4.749
		c0.825,0,1.663-0.068,2.505-0.189l1.748,3.365c-1.063,2.022-1.176,4.053-0.304,5.732c0.08,0.155,0.181,0.295,0.275,0.439
		l-56.833,5.456c-1.273,0.122-2.422,0.732-3.235,1.719c-0.813,0.986-1.194,2.23-1.072,3.503l13.338,138.934
		C203.079,208.185,205.126,210.045,207.604,210.045z M697.629,108.746c1.681,0,3.3,0.363,4.813,1.08
		c0.283,0.134,0.613,0.134,0.898-0.001c0.284-0.136,0.492-0.392,0.566-0.698c1.953-8.033,9.097-13.643,17.372-13.643
		c8.148,0,15.266,5.502,17.309,13.381c0.083,0.32,0.313,0.583,0.619,0.707c3.851,1.563,6.488,5.091,6.943,9.165h-59.698
		C687.084,113.138,691.891,108.746,697.629,108.746z M252.227,54.701c-0.379-0.73-0.437-1.602-0.196-2.533
		c0.861,0.872,2.154,1.358,3.705,1.358c0,0,0,0,0,0c1.327,0,2.718-0.358,4.022-1.036c1.566-0.813,2.834-2.003,3.57-3.35
		c0.59-1.081,0.792-2.172,0.609-3.169c0.902,0.337,1.591,0.885,1.974,1.623c1.209,2.329-0.902,5.924-4.61,7.851
		c-1.586,0.824-3.256,1.259-4.828,1.259C254.436,56.704,252.888,55.974,252.227,54.701z M246.712,27.358
		c2.68-1.392,5.507-2.127,8.175-2.127c3.575,0,6.311,1.319,7.506,3.62c1.016,1.956,0.813,4.43-0.572,6.966
		c-1.458,2.671-4.024,5.058-7.225,6.72c-2.68,1.392-5.507,2.128-8.175,2.128c-3.575,0-6.311-1.32-7.505-3.62
		C236.742,36.859,240.239,30.72,246.712,27.358z M255.561,44.394c1.465-0.761,2.805-1.669,4-2.679l2.157,4.154
		c0.429,0.825,0.042,1.774-0.228,2.267c-0.53,0.972-1.513,1.881-2.697,2.496c-0.994,0.516-2.08,0.8-3.058,0.8
		c-1.206,0-2.148-0.429-2.521-1.147l-2.154-4.147C252.578,45.741,254.092,45.157,255.561,44.394z M262.266,57.302
		c0.716-0.372,1.371-0.794,1.975-1.248l1.995,8.277l-5.569-6.329C261.206,57.802,261.741,57.574,262.266,57.302z M252.796,58.001
		c1.031,0.517,2.277,0.796,3.676,0.796c0.637,0,1.286-0.079,1.937-0.192l9.049,10.286c0.204,0.232,0.493,0.355,0.786,0.355
		c0.164,0,0.329-0.039,0.482-0.118c0.427-0.222,0.648-0.706,0.535-1.174l-2.717-11.273l66.4-6.374
		c0.088-0.009,0.175-0.013,0.262-0.013c1.393,0,2.543,1.047,2.676,2.436l6.656,69.332l-7.255,68.789
		c-0.134,1.272,0.235,2.52,1.039,3.514c0.371,0.458,0.82,0.827,1.314,1.116l-129.773,12.458c-1.499,0.149-2.797-0.948-2.938-2.423
		L191.588,66.583c-0.069-0.716,0.146-1.417,0.604-1.972c0.458-0.555,1.104-0.898,1.82-0.967L252.796,58.001z M354.679,49.859
		c0.095,0,0.191,0.005,0.288,0.015l37.279,3.932l-6.076,8.026c-0.291,0.384-0.282,0.916,0.021,1.29
		c0.204,0.252,0.505,0.389,0.814,0.389c0.149,0,0.301-0.032,0.443-0.099l12.606-5.902c1.474,0.866,3.032,1.361,4.498,1.361
		c1.345,0,2.559-0.407,3.51-1.177c0.685-0.554,1.188-1.259,1.531-2.058l84.176,8.877c0.513,0.054,0.972,0.256,1.354,0.55v12.3
		l-13.596,128.912c-0.155,1.47-1.476,2.561-2.962,2.396l-138.803-14.638c-0.715-0.075-1.358-0.425-1.811-0.984
		s-0.66-1.262-0.584-1.978L352.005,52.27C352.15,50.896,353.3,49.859,354.679,49.859z M405.503,34.919
		c-0.255-2.878,0.549-5.227,2.263-6.614c1.071-0.866,2.413-1.305,3.989-1.305c3.674,0,7.881,2.379,10.98,6.209
		c4.588,5.67,5.338,12.697,1.672,15.663c-1.071,0.867-2.413,1.306-3.99,1.306c-3.673,0-7.88-2.379-10.979-6.209
		C407.169,41.164,405.771,37.951,405.503,34.919z M407.811,45.285c1.034,1.279,2.189,2.409,3.411,3.373l-3.643,2.948
		c-0.325,0.263-0.743,0.396-1.242,0.396c-1.301,0-2.875-0.907-4.011-2.31c-1.633-2.019-1.988-4.555-0.776-5.537l3.652-2.955
		C405.896,42.615,406.765,43.993,407.811,45.285z M399.472,43.385c-1.292,1.938-0.86,5.045,1.227,7.625
		c1.541,1.903,3.701,3.086,5.638,3.086c0.575,0,1.111-0.115,1.603-0.315c-0.141,0.946-0.532,1.748-1.195,2.285
		c-0.583,0.472-1.321,0.711-2.193,0.711c-2.134,0-4.595-1.402-6.421-3.659c-1.342-1.659-2.167-3.552-2.325-5.333
		c-0.144-1.627,0.296-2.944,1.24-3.708c0.583-0.472,1.321-0.711,2.193-0.711C399.315,43.367,399.395,43.382,399.472,43.385z
		 M396.503,54.434c0.497,0.615,1.043,1.168,1.615,1.671l-7.726,3.617l5.092-6.727C395.79,53.488,396.128,53.97,396.503,54.434z
		 M621.789,58.023c0.389-0.724,1.077-1.262,1.973-1.588c-0.44,2.287,1.171,4.985,4.094,6.553c1.33,0.713,2.75,1.09,4.105,1.09
		c0,0,0,0,0.001,0c1.512,0,2.782-0.472,3.636-1.319c0.232,0.921,0.18,1.805-0.221,2.552c-0.663,1.237-2.181,1.947-4.163,1.947
		c-1.58,0-3.327-0.471-4.919-1.325C622.612,63.959,620.549,60.336,621.789,58.023z M625.556,39.329
		c1.201-2.238,3.886-3.521,7.367-3.521c2.683,0,5.642,0.794,8.332,2.238c6.428,3.448,9.844,9.634,7.615,13.79
		c-1.201,2.238-3.886,3.521-7.367,3.521c-2.684,0-5.643-0.795-8.332-2.238C626.743,49.67,623.327,43.484,625.556,39.329z
		 M627.453,68.688l-5.719,6.329l2.083-8.163c0.467,0.33,0.96,0.642,1.489,0.926C626.008,68.156,626.728,68.444,627.453,68.688z
		 M634.429,60.872c-0.379,0.708-1.277,1.113-2.467,1.113c-0.997,0-2.104-0.299-3.115-0.842c-2.289-1.228-3.6-3.427-2.862-4.802
		l2.217-4.132c1.169,1.023,2.498,1.959,3.979,2.753c1.454,0.78,2.952,1.378,4.455,1.795L634.429,60.872z M619.669,61.6
		c0.424,1.303,1.233,2.594,2.37,3.752l-3.381,13.247c-0.119,0.466,0.095,0.954,0.519,1.181c0.156,0.084,0.326,0.125,0.495,0.125
		c0.288,0,0.572-0.12,0.776-0.345l9.314-10.307c0.487,0.065,0.973,0.099,1.452,0.099c2.778,0,4.969-1.112,6.008-3.051
		c0.765-1.425,0.795-3.074,0.232-4.701h2.027c1.484,0,2.692,1.208,2.692,2.693v139.573c0,1.485-1.208,2.693-2.692,2.693H499.909
		c-1.485,0-2.693-1.208-2.693-2.693V64.293c0-1.485,1.208-2.693,2.693-2.693H619.669z"/>
	<path fill="#55636C" d="M264.079,151.119c0.559,0,1.123-0.027,1.69-0.081l15.356-1.474c9.604-0.922,16.642-9.455,15.72-19.059
		c-0.001-0.006-0.002-0.011-0.002-0.017c0-0.005,0-0.01-0.001-0.014c-0.868-9.036-8.473-15.801-17.369-15.801
		c-0.559,0-1.123,0.027-1.69,0.081c-0.207,0.02-0.406,0.063-0.611,0.09l-14.742,1.415c-9.604,0.922-16.642,9.455-15.72,19.059
		C247.577,144.354,255.183,151.119,264.079,151.119z M277.982,116.839c0.496-0.048,0.997-0.072,1.491-0.072
		c7.952,0,14.523,5.979,15.284,13.908c0.81,8.44-5.397,15.965-13.836,16.775c-0.495,0.048-0.996,0.072-1.49,0.072
		c-7.953,0-14.524-5.979-15.285-13.908C263.336,125.174,269.543,117.649,277.982,116.839z M262.063,133.813
		c0.638,6.645,4.926,12.05,10.685,14.452l-7.18,0.689c-0.495,0.048-0.996,0.072-1.49,0.072c-7.953,0-14.524-5.979-15.285-13.908
		c-0.392-4.088,0.831-8.085,3.444-11.253c2.613-3.168,6.304-5.129,10.392-5.522l7.042-0.676
		C264.548,121.135,261.43,127.221,262.063,133.813z"/>
	<path fill="#55636C" d="M285.343,126.437l-7.212,8.744l-3.949-3.257c-0.446-0.368-1.105-0.304-1.474,0.142
		c-0.368,0.446-0.304,1.106,0.142,1.474l4.757,3.923c0.195,0.161,0.431,0.239,0.666,0.239c0.302,0,0.601-0.13,0.808-0.381
		l7.878-9.551c0.368-0.446,0.304-1.105-0.142-1.474C286.371,125.928,285.711,125.991,285.343,126.437z"/>
	<path fill="#55636C" d="M411.621,170.465c0.089,0.011,0.179,0.016,0.267,0.016c0.759,0,1.44-0.395,1.84-1.003
		c0.779,0.05,1.563,0.084,2.355,0.084c20.108,0,36.469-16.36,36.469-36.469c0-20.109-16.36-36.469-36.469-36.469
		c-3.988,0-7.825,0.653-11.42,1.842c-1.214-1.91-3.343-3.183-5.768-3.183c-3.769,0-6.836,3.067-6.836,6.836
		c0,0.626,0.092,1.229,0.25,1.805c-13.695,11.154-18.044,30.838-9.387,46.967C388.714,161.684,399.442,169.001,411.621,170.465z
		 M394.153,102.118c0-2.615,2.127-4.742,4.742-4.742s4.742,2.127,4.742,4.742s-2.127,4.742-4.742,4.742
		S394.153,104.733,394.153,102.118z M416.083,167.468c-0.731,0-1.455-0.031-2.174-0.076c-0.303-0.698-0.95-1.226-1.76-1.323
		c-10.747-1.291-20.215-7.748-25.326-17.272c-4.195-7.815-5.094-16.796-2.534-25.289c1.905-6.318,5.558-11.8,10.52-15.922
		c1.141,0.855,2.553,1.369,4.086,1.369c3.769,0,6.835-3.067,6.835-6.836c0-0.597-0.085-1.174-0.229-1.727
		c3.336-1.082,6.89-1.674,10.582-1.674c18.954,0,34.375,15.42,34.375,34.375C450.458,152.047,435.037,167.468,416.083,167.468z"/>
	<path fill="#55636C" d="M407.782,136.455c0.017-0.158-0.019-0.294-0.108-0.404c-0.089-0.111-0.219-0.174-0.389-0.192l-4.226-0.446
		c-0.144-0.015-0.293-0.023-0.446-0.023c-0.084,0-0.169,0.002-0.255,0.007c-0.244,0.011-0.488,0.039-0.729,0.079l3.676-3.048
		c0.39-0.321,0.76-0.637,1.11-0.946c0.35-0.311,0.665-0.638,0.944-0.977c0.28-0.342,0.51-0.705,0.694-1.089
		c0.182-0.385,0.299-0.811,0.349-1.281c0.058-0.551,0.013-1.054-0.134-1.508c-0.148-0.454-0.375-0.852-0.681-1.19
		c-0.306-0.336-0.682-0.61-1.128-0.817c-0.446-0.207-0.938-0.338-1.471-0.394c-0.189-0.021-0.374-0.031-0.556-0.031
		c-0.338,0-0.664,0.034-0.979,0.102c-0.483,0.107-0.92,0.29-1.313,0.553c-0.392,0.26-0.729,0.601-1.01,1.019
		c-0.282,0.418-0.494,0.911-0.637,1.476l0.804,0.229c0.041,0.009,0.077,0.017,0.109,0.025c0.032,0.006,0.063,0.009,0.092,0.012
		c0.031,0.003,0.06,0.005,0.089,0.005c0.114,0,0.212-0.026,0.293-0.078c0.101-0.068,0.185-0.182,0.25-0.349
		c0.088-0.269,0.215-0.511,0.383-0.723c0.169-0.214,0.365-0.393,0.592-0.539c0.225-0.146,0.479-0.251,0.758-0.317
		c0.184-0.043,0.376-0.064,0.576-0.064c0.104,0,0.211,0.006,0.319,0.017c0.317,0.033,0.608,0.108,0.875,0.229
		c0.266,0.121,0.492,0.282,0.679,0.485c0.186,0.205,0.324,0.452,0.411,0.744c0.088,0.29,0.112,0.62,0.073,0.989
		c-0.039,0.372-0.129,0.713-0.268,1.027c-0.14,0.315-0.324,0.62-0.555,0.916c-0.23,0.296-0.499,0.588-0.808,0.871
		c-0.31,0.285-0.649,0.581-1.019,0.886l-4.469,3.631c-0.11,0.09-0.193,0.191-0.25,0.303c-0.056,0.115-0.09,0.225-0.102,0.337
		l-0.057,0.537l8.414,0.887L407.782,136.455z"/>
	<path fill="#55636C" d="M416.7,125.575l-1.277-0.134l-4.092,2.851l0.421,0.729c0.03,0.057,0.078,0.108,0.144,0.154
		c0.067,0.047,0.144,0.073,0.233,0.083c0.013,0.001,0.027,0.002,0.041,0.002c0.041,0,0.083-0.006,0.129-0.017
		c0.061-0.014,0.124-0.04,0.187-0.082l2.457-1.69c-0.046,0.262-0.082,0.523-0.109,0.782l-0.907,8.598l-2.711-0.286l-0.126,1.198
		l6.76,0.713l0.126-1.198l-2.483-0.262L416.7,125.575z"/>
	<path fill="#55636C" d="M431.729,134.554c-0.224-0.295-0.498-0.533-0.824-0.709c-0.325-0.178-0.684-0.286-1.078-0.327
		c-0.118-0.011-0.231-0.018-0.343-0.018c-0.274,0-0.536,0.037-0.786,0.113c-0.352,0.104-0.669,0.28-0.949,0.522
		c-0.281,0.244-0.512,0.556-0.695,0.938c-0.182,0.38-0.3,0.824-0.353,1.327c-0.052,0.493-0.027,0.941,0.072,1.344
		c0.1,0.403,0.262,0.749,0.486,1.044c0.224,0.293,0.498,0.528,0.82,0.704c0.322,0.178,0.683,0.286,1.083,0.328
		c0.101,0.011,0.202,0.016,0.301,0.016c0.265,0,0.525-0.038,0.782-0.115c0.352-0.104,0.67-0.277,0.954-0.517
		c0.283-0.242,0.522-0.546,0.715-0.918s0.316-0.804,0.368-1.298c0.053-0.503,0.031-0.962-0.069-1.371
		C432.114,135.205,431.953,134.852,431.729,134.554z M429.093,134.606c0.142-0.04,0.289-0.06,0.44-0.06
		c0.061,0,0.122,0.003,0.184,0.01c0.217,0.023,0.417,0.083,0.599,0.179c0.184,0.096,0.337,0.237,0.464,0.422
		c0.126,0.185,0.214,0.419,0.268,0.701c0.054,0.282,0.059,0.616,0.018,1.002c-0.04,0.383-0.114,0.7-0.225,0.955
		c-0.11,0.255-0.246,0.459-0.407,0.611c-0.162,0.152-0.341,0.256-0.541,0.31c-0.139,0.038-0.282,0.057-0.43,0.057
		c-0.064,0-0.128-0.003-0.193-0.01c-0.217-0.023-0.417-0.081-0.6-0.175c-0.183-0.094-0.336-0.233-0.459-0.415
		c-0.123-0.182-0.211-0.41-0.262-0.682c-0.051-0.272-0.058-0.598-0.017-0.981c0.041-0.385,0.116-0.712,0.224-0.976
		c0.108-0.265,0.242-0.476,0.401-0.631C428.715,134.768,428.894,134.662,429.093,134.606z"/>
	<path fill="#55636C" d="M421.692,138.809c0.087-0.037,0.164-0.092,0.232-0.161l10.518-11.387l-1.127-0.119
		c-0.033-0.003-0.065-0.005-0.096-0.005c-0.098,0-0.181,0.018-0.25,0.055c-0.092,0.046-0.181,0.115-0.267,0.206l-10.468,11.33
		l1.161,0.122c0.026,0.003,0.052,0.004,0.077,0.004C421.553,138.854,421.626,138.839,421.692,138.809z"/>
	<path fill="#55636C" d="M420.488,130.421c0.099,0.405,0.262,0.754,0.486,1.047c0.223,0.295,0.497,0.528,0.82,0.706
		c0.323,0.176,0.683,0.286,1.081,0.327c0.1,0.011,0.199,0.016,0.298,0.016c0.267,0,0.531-0.038,0.79-0.114
		c0.355-0.106,0.674-0.277,0.957-0.519c0.284-0.239,0.523-0.546,0.716-0.92c0.194-0.374,0.316-0.809,0.368-1.302
		c0.053-0.505,0.028-0.96-0.074-1.37c-0.102-0.408-0.265-0.759-0.485-1.056s-0.496-0.533-0.824-0.711
		c-0.328-0.176-0.689-0.286-1.083-0.328c-0.112-0.012-0.223-0.018-0.332-0.018c-0.276,0-0.54,0.038-0.792,0.113
		c-0.353,0.107-0.67,0.28-0.95,0.524c-0.281,0.244-0.513,0.554-0.694,0.931c-0.183,0.38-0.301,0.82-0.354,1.325
		C420.364,129.565,420.388,130.016,420.488,130.421z M421.646,129.2c0.041-0.385,0.116-0.712,0.223-0.972
		c0.108-0.262,0.241-0.471,0.401-0.631c0.158-0.157,0.338-0.266,0.536-0.322c0.142-0.04,0.289-0.06,0.44-0.06
		c0.061,0,0.122,0.003,0.184,0.01c0.218,0.023,0.417,0.083,0.601,0.179c0.182,0.096,0.336,0.24,0.462,0.427
		c0.125,0.19,0.215,0.422,0.268,0.701c0.054,0.277,0.061,0.612,0.02,0.997c-0.04,0.383-0.116,0.702-0.227,0.96
		c-0.11,0.26-0.246,0.464-0.407,0.616c-0.162,0.152-0.341,0.254-0.539,0.307c-0.139,0.041-0.282,0.059-0.43,0.059
		c-0.064,0-0.128-0.003-0.194-0.01c-0.217-0.023-0.417-0.081-0.6-0.175c-0.183-0.094-0.336-0.23-0.459-0.413
		c-0.123-0.182-0.211-0.41-0.262-0.687C421.612,129.911,421.606,129.584,421.646,129.2z"/>
	<path fill="#55636C" d="M544.926,147.443h29.829v7.835c0,0.391,0.218,0.749,0.564,0.929c0.152,0.079,0.317,0.118,0.482,0.118
		c0.212,0,0.423-0.064,0.603-0.191l12.351-8.691h2.469c7.666,0,13.903-6.237,13.903-13.903s-6.237-13.903-13.903-13.903h-46.298
		c-7.666,0-13.902,6.237-13.902,13.903S537.26,147.443,544.926,147.443z M544.926,121.731h46.298c6.512,0,11.81,5.297,11.81,11.809
		s-5.298,11.809-11.81,11.809h-2.8c-0.216,0-0.426,0.067-0.603,0.191l-10.973,7.722v-6.866c0-0.578-0.469-1.047-1.047-1.047h-30.876
		c-6.512,0-11.809-5.297-11.809-11.809S538.414,121.731,544.926,121.731z"/>
	<path fill="#55636C" d="M552.966,132.236h1.05v5.336c0,0.723,0.185,1.277,0.555,1.661c0.37,0.384,0.899,0.577,1.588,0.577
		c0.396,0,0.78-0.071,1.153-0.211c0.373-0.141,0.691-0.334,0.955-0.581l-0.448-0.732c-0.063-0.097-0.135-0.146-0.215-0.146
		c-0.046,0-0.099,0.021-0.159,0.064c-0.06,0.043-0.133,0.091-0.219,0.142c-0.086,0.052-0.188,0.099-0.305,0.142
		c-0.118,0.043-0.257,0.064-0.417,0.064c-0.281,0-0.511-0.089-0.689-0.267c-0.178-0.177-0.267-0.45-0.267-0.818v-5.232h2.496v-1.11
		h-2.496v-3.004h-0.774c-0.098,0-0.178,0.028-0.241,0.082c-0.063,0.055-0.1,0.125-0.112,0.211l-0.353,2.694l-1.429,0.181v0.611
		c0,0.115,0.031,0.199,0.095,0.254C552.797,132.209,552.875,132.236,552.966,132.236z"/>
	<path fill="#55636C" d="M561.469,134.12c0.241-0.591,0.541-1.041,0.899-1.351c0.359-0.31,0.805-0.465,1.338-0.465
		c0.298,0,0.531,0.028,0.697,0.082c0.167,0.055,0.29,0.082,0.37,0.082c0.138,0,0.226-0.071,0.267-0.215l0.198-1.145
		c-0.166-0.098-0.347-0.173-0.542-0.228s-0.413-0.082-0.654-0.082c-0.591,0-1.106,0.17-1.545,0.512
		c-0.439,0.342-0.808,0.816-1.106,1.425l-0.103-1.36c-0.023-0.155-0.066-0.264-0.129-0.327c-0.063-0.063-0.178-0.095-0.344-0.095
		h-0.878v8.718h1.532V134.12z"/>
	<path fill="#55636C" d="M567.407,138.904c0.247,0.287,0.552,0.509,0.917,0.667c0.364,0.158,0.784,0.237,1.261,0.237
		c0.608,0,1.148-0.128,1.618-0.383c0.471-0.255,0.895-0.592,1.274-1.011l0.12,0.938c0.057,0.212,0.195,0.318,0.413,0.318h0h0.912
		v-8.718h-1.532v0v6.429c-0.333,0.379-0.697,0.674-1.093,0.887c-0.396,0.212-0.818,0.318-1.265,0.318
		c-0.614,0-1.073-0.181-1.377-0.543c-0.304-0.361-0.456-0.872-0.456-1.532v-5.559h-1.532h0v5.559c0,0.494,0.062,0.944,0.185,1.351
		C566.975,138.27,567.16,138.617,567.407,138.904z"/>
	<path fill="#55636C" d="M576.998,138.592c0.37,0.393,0.809,0.691,1.317,0.895c0.508,0.204,1.063,0.305,1.665,0.305
		c0.315,0,0.634-0.027,0.955-0.082c0.321-0.055,0.632-0.136,0.933-0.245c0.302-0.109,0.584-0.248,0.848-0.417
		c0.264-0.169,0.491-0.369,0.68-0.598l-0.43-0.559c-0.069-0.098-0.167-0.147-0.293-0.147c-0.098,0-0.214,0.045-0.349,0.134
		c-0.135,0.089-0.303,0.185-0.503,0.288c-0.201,0.104-0.44,0.2-0.719,0.289c-0.278,0.089-0.61,0.134-0.994,0.134
		c-0.413,0-0.786-0.068-1.119-0.203c-0.333-0.134-0.62-0.338-0.861-0.611s-0.43-0.613-0.568-1.02
		c-0.138-0.408-0.213-0.887-0.224-1.438h5.8c0.143,0,0.241-0.04,0.293-0.12c0.051-0.08,0.078-0.241,0.078-0.482
		c0-0.62-0.091-1.171-0.271-1.657c-0.181-0.485-0.432-0.892-0.753-1.222c-0.321-0.33-0.703-0.582-1.144-0.757
		c-0.44-0.177-0.923-0.264-1.445-0.264c-0.631,0-1.199,0.111-1.704,0.332s-0.932,0.525-1.283,0.912
		c-0.35,0.387-0.618,0.845-0.804,1.373c-0.186,0.528-0.28,1.096-0.28,1.704c0,0.752,0.103,1.418,0.31,1.997
		C576.339,137.712,576.627,138.198,576.998,138.592z M578.181,132.583c0.425-0.427,1.007-0.641,1.747-0.641
		c0.35,0,0.661,0.059,0.934,0.176c0.272,0.118,0.503,0.284,0.693,0.499c0.189,0.215,0.332,0.471,0.43,0.766
		c0.098,0.296,0.147,0.621,0.147,0.977h-4.741h-0.001C577.493,133.603,577.757,133.011,578.181,132.583z"/>
</g>
</svg>
