<?xml version="1.0" encoding="utf-8"?>
<!-- Generator: Adobe Illustrator 17.0.0, SVG Export Plug-In . SVG Version: 6.00 Build 0)  -->
<!DOCTYPE svg PUBLIC "-//W3C//DTD SVG 1.1//EN" "http://www.w3.org/Graphics/SVG/1.1/DTD/svg11.dtd">
<svg version="1.1" id="Layer_1" xmlns="http://www.w3.org/2000/svg" xmlns:xlink="http://www.w3.org/1999/xlink" x="0px" y="0px"
	 width="300px" height="300px" viewBox="0 0 300 300" enable-background="new 0 0 300 300" xml:space="preserve">
<g>
	<path fill="none" stroke="#FFFFFF" stroke-width="5" stroke-linecap="round" stroke-linejoin="round" stroke-miterlimit="10" d="
		M133.768,179.575c0,10.356-8.393,18.737-18.737,18.737c-10.345,0-18.737-8.381-18.737-18.737c0-10.357,8.392-18.737,18.737-18.737
		S133.768,169.218,133.768,179.575z"/>
</g>
<g>
	<path fill="none" stroke="#FFFFFF" stroke-width="5" stroke-linecap="round" stroke-linejoin="round" stroke-miterlimit="10" d="
		M122.975,179.575c0,4.391-3.558,7.944-7.944,7.944s-7.944-3.553-7.944-7.944s3.558-7.944,7.944-7.944
		S122.975,175.184,122.975,179.575z"/>
</g>
<g>
	<path fill="none" stroke="#FFFFFF" stroke-width="5" stroke-linecap="round" stroke-linejoin="round" stroke-miterlimit="10" d="
		M233.498,118.861l-12.797,12.765c-17.09,17.084-44.768,17.065-61.833,0c-17.078-17.072-17.09-44.744,0-61.834l12.674-12.802
		L233.498,118.861z"/>
</g>
<polyline fill="none" stroke="#FFFFFF" stroke-width="5" stroke-linecap="round" stroke-linejoin="round" stroke-miterlimit="10" points="
	123,105 64.346,132.457 52.791,240.819 161.153,229.264 186.5,169.478 "/>
<line fill="none" stroke="#FFFFFF" stroke-width="5" stroke-linecap="round" stroke-linejoin="round" stroke-miterlimit="10" x1="101.112" y1="192.707" x2="52.791" y2="240.819"/>
<line fill="none" stroke="#FFFFFF" stroke-width="5" stroke-linecap="round" stroke-linejoin="round" stroke-miterlimit="10" x1="52.5" y1="242.819" x2="242.333" y2="242.819"/>
<line fill="none" stroke="#FFFFFF" stroke-width="5" stroke-linecap="round" stroke-linejoin="round" stroke-miterlimit="10" x1="171.5" y1="212.16" x2="270.333" y2="212.16"/>
<line fill="none" stroke="#FFFFFF" stroke-width="5" stroke-linecap="round" stroke-linejoin="round" stroke-miterlimit="10" x1="163.413" y1="226.247" x2="222.247" y2="226.247"/>
</svg>
