<?xml version="1.0" encoding="utf-8"?>
<!-- Generator: Adobe Illustrator 17.0.0, SVG Export Plug-In . SVG Version: 6.00 Build 0)  -->
<!DOCTYPE svg PUBLIC "-//W3C//DTD SVG 1.1//EN" "http://www.w3.org/Graphics/SVG/1.1/DTD/svg11.dtd">
<svg version="1.1" id="Layer_1" xmlns="http://www.w3.org/2000/svg" xmlns:xlink="http://www.w3.org/1999/xlink" x="0px" y="0px"
	 width="70px" height="70px" viewBox="0 0 70 70" enable-background="new 0 0 70 70" xml:space="preserve">
<path fill="#FFFFFF" d="M-41.552,37.156l-4.97-1.979l5.081-2.382c0.718-0.337,1.177-1.059,1.177-1.852s-0.459-1.515-1.177-1.852
	l-20.823-9.76c-0.559-0.262-1.207-0.258-1.762,0.012l-20.086,9.76c-0.704,0.342-1.151,1.057-1.151,1.84
	c0,0.783,0.447,1.498,1.151,1.84l5.007,2.433l-4.87,1.939c-0.752,0.3-1.257,1.015-1.287,1.825s0.421,1.561,1.15,1.915l20.086,9.76
	c0.282,0.137,0.588,0.206,0.894,0.206c0.296,0,0.593-0.065,0.868-0.193l20.823-9.76c0.738-0.346,1.2-1.098,1.177-1.913
	C-40.289,38.181-40.795,37.458-41.552,37.156z M-63.117,23.45l15.988,7.494l-15.988,7.494l-15.421-7.494L-63.117,23.45z
	 M-63.117,46.55l-15.039-7.308l4.031-1.605l10.098,4.907c0.282,0.137,0.588,0.206,0.894,0.206c0.296,0,0.593-0.065,0.868-0.193
	l10.663-4.998l4.147,1.651L-63.117,46.55z"/>
<g>
	<path fill="#FFFFFF" d="M34.613,46.054c-0.538,0-1.078-0.124-1.562-0.36l-16.469-8.002l-3.653,1.775
		c-0.492,0.239-0.805,0.739-0.805,1.286c0,0.548,0.313,1.047,0.805,1.286l21.058,10.232c0.197,0.096,0.411,0.144,0.625,0.144
		c0.207,0,0.415-0.045,0.607-0.135l21.832-10.232c0.503-0.235,0.823-0.74,0.823-1.295s-0.32-1.059-0.823-1.295l-3.786-1.774
		L36.13,45.716C35.665,45.936,35.138,46.054,34.613,46.054z"/>
	<path fill="#FFFFFF" d="M33.988,40.766c0.197,0.096,0.411,0.144,0.625,0.144c0.207,0,0.415-0.045,0.607-0.135l21.832-10.232
		c0.503-0.235,0.823-0.74,0.823-1.295c0-0.555-0.32-1.059-0.823-1.295L35.22,17.719c-0.39-0.183-0.844-0.18-1.231,0.009
		L12.93,27.961c-0.492,0.239-0.805,0.739-0.805,1.286c0,0.548,0.313,1.047,0.805,1.286L33.988,40.766z"/>
</g>
</svg>
