<?xml version="1.0" encoding="utf-8"?>
<!-- Generator: Adobe Illustrator 17.0.0, SVG Export Plug-In . SVG Version: 6.00 Build 0)  -->
<!DOCTYPE svg PUBLIC "-//W3C//DTD SVG 1.1//EN" "http://www.w3.org/Graphics/SVG/1.1/DTD/svg11.dtd">
<svg version="1.1" id="Layer_1" xmlns="http://www.w3.org/2000/svg" xmlns:xlink="http://www.w3.org/1999/xlink" x="0px" y="0px"
	 width="310px" height="70px" viewBox="0 0 310 70" enable-background="new 0 0 310 70" xml:space="preserve">
<g>
	<g>
		<g>
			<path fill="#1A6EEB" d="M59.774,19.194V50.41c0,1.726-1.4,3.126-3.126,3.126l-2.4,0.006c-0.924,0-1.673,0.745-1.681,1.667v7.532
				c0,0-0.152,5.145-5.231,0c-3.559-3.606-6.686-9.204-23.444-9.204H8.196c-1.726,0-3.126-1.4-3.126-3.126V19.194
				c0-1.726,1.4-3.126,3.126-3.126l2.4-0.004c0.924,0,1.673-0.747,1.681-1.669V7.907c0,0,0.152-5.145,5.231,0
				c3.559,3.604,6.686,8.161,23.444,8.161h15.695C58.374,16.068,59.774,17.468,59.774,19.194z M49.614,26.793
				c0-0.936-0.758-1.693-1.693-1.693H16.923c-0.935,0-1.693,0.757-1.693,1.693l0,0c0,0.934,0.758,1.693,1.693,1.693h30.999
				C48.857,28.486,49.614,27.727,49.614,26.793L49.614,26.793z M49.614,35.324c0-0.936-0.758-1.693-1.693-1.693H16.923
				c-0.935,0-1.693,0.757-1.693,1.693l0,0c0,0.934,0.758,1.693,1.693,1.693h30.999C48.857,37.017,49.614,36.258,49.614,35.324
				L49.614,35.324z M49.614,43.855c0-0.936-0.758-1.693-1.693-1.693H16.923c-0.935,0-1.693,0.757-1.693,1.693l0,0
				c0,0.934,0.758,1.693,1.693,1.693h30.999C48.857,45.548,49.614,44.789,49.614,43.855L49.614,43.855z"/>
		</g>
	</g>
	<g>
		<path fill="#1A6EEB" d="M305,34.5c0,9.665-7.835,17.5-17.5,17.5h-43c-9.665,0-17.5-7.835-17.5-17.5l0,0
			c0-9.665,7.835-17.5,17.5-17.5h43C297.165,17,305,24.835,305,34.5L305,34.5z"/>
	</g>
	<g>
		<path fill="#FFFFFF" d="M246.698,27.932c1.475,0,2.671,0.319,3.588,0.957c0.976,0.698,1.475,1.694,1.475,2.949
			c0,1.335-0.518,2.252-1.534,2.71c1.295,0.698,1.933,1.774,1.933,3.249c0,1.435-0.578,2.511-1.734,3.209
			c-0.917,0.558-2.133,0.857-3.667,0.877h-7.195V27.932H246.698z M243.449,33.253h3.149c0.837,0,1.255-0.339,1.255-1.036
			c0-0.737-0.398-1.096-1.215-1.096h-3.189V33.253z M243.449,38.814h3.328c0.976,0,1.475-0.438,1.475-1.315
			c0-0.897-0.498-1.336-1.475-1.336h-3.328V38.814z"/>
		<path fill="#FFFFFF" d="M265.452,41.883h-11.161V27.932h10.882v3.308h-6.995v1.993h6.597v3.209h-6.597v2.112h7.274V41.883z"/>
		<path fill="#FFFFFF" d="M270.634,31.18h-4.066v-3.249h12.077v3.249h-4.085v10.702h-3.926V31.18z"/>
		<path fill="#FFFFFF" d="M288.711,39.591h-6.238l-0.916,2.292h-4.186l6.258-13.951h3.986l6.238,13.951h-4.225L288.711,39.591z
			 M285.602,31.838l-1.794,4.444h3.567L285.602,31.838z"/>
	</g>
	<g>
		<path fill="#58646D" d="M143.4,25.925h-2.41l-1.229,3.021l-2.281,1.259v1.64h2.153v6.723c0,2.496,1.377,3.938,3.846,3.938
			c0.97,0,2.796-0.321,3.822-0.681l-0.476-2.983h-1.747c-1.109,0-1.677-0.107-1.677-1.133v-5.863h4.306v-2.691H143.4V25.925z"/>
		<path fill="#58646D" d="M80.715,31.386l-3.632-1.248c-1.442-0.472-1.996-0.832-1.996-2.163c0-1.636,0.721-1.747,2.773-1.747
			c2.024,0,4.381,0.028,5.989,0.083l0.277-2.884c-2.135-0.61-4.409-0.748-6.295-0.748c-4.936,0-6.96,0.915-6.96,5.296
			c0,2.829,1.054,4.548,3.965,5.601l3.854,1.359c1.275,0.416,1.802,0.748,1.802,2.107c0,1.553-0.61,1.858-2.828,1.858
			c-1.22,0-2.773-0.055-6.322-0.139l-0.25,3.05c2.939,0.638,5.352,0.721,6.572,0.721c5.213,0,7.099-1.165,7.099-5.518
			C84.763,34.214,83.765,32.467,80.715,31.386z"/>
		<path fill="#58646D" d="M104.562,28.121c-1.83,0-3.41,0.728-5.046,2.225c-0.499-1.47-1.692-2.204-3.522-2.204
			c-1.941,0-3.494,0.833-5.213,2.413l-0.277-1.94h-3.077v13.455h3.767v-9.298c1.615-0.915,2.311-1.193,3.198-1.193
			c1.026,0,1.646,0.389,1.646,1.609v8.882h3.767V32.8c1.615-0.915,2.042-1.22,2.957-1.22c1.109,0,1.349,0.444,1.349,1.609v8.882
			h4.306V31.913C108.417,29.445,107.03,28.121,104.562,28.121z"/>
		<path fill="#58646D" d="M118.523,28.114c-1.913,0-5.252,0.305-7.249,0.666l0.399,2.773c2.191-0.139,4.475-0.222,5.778-0.222
			c1.747,0,2.267,0.388,2.267,1.775v0.354h-4.923c-2.607,0-4.227,1.532-4.227,3.722v1.387c0,2.551,1.933,3.912,4.484,3.912
			c2.412,0,4.096-1.301,5.067-2.438l0.416,2.029h3.489v-8.938C124.024,29.279,122.044,28.114,118.523,28.114z M119.719,38.096
			c-1.076,0.887-2.38,1.331-3.323,1.331c-1.109,0-1.521-0.444-1.521-1.414v-0.527c0-0.776,0.115-1.336,1.113-1.336h3.731V38.096z"/>
		<path fill="#58646D" d="M130.297,30.537l-0.361-1.922h-3.221v13.455h4.306v-7.785c0-1.913,2.853-2.441,4.017-2.441h1.365v-3.767
			h-0.56C134.069,28.077,132.127,28.984,130.297,30.537z"/>
		<path fill="#58646D" d="M151.473,39.039V23.234h-1.076V39.15c0,1.747,1.195,3.022,3.136,3.022c2.524,0,4.937,0,7.628-0.138v-1.04
			h-7.514C152.343,40.994,151.473,40.343,151.473,39.039z"/>
		<rect x="164.39" y="28.616" fill="#58646D" width="1.076" height="13.455"/>
		<path fill="#58646D" d="M164.932,23.234h-0.499c-0.305,0-0.582,0.167-0.582,0.444v1.664c0,0.305,0.277,0.583,0.582,0.583h0.499
			c0.277,0,0.534-0.278,0.534-0.583v-1.664C165.466,23.4,165.21,23.234,164.932,23.234z"/>
		<path fill="#58646D" d="M175.858,38.817l-1.026,2.715h-0.361c-0.333-1.076-0.665-1.883-0.998-2.687l-3.993-10.23h-1.192
			l5.324,13.105c0.083,0.194,0.25,0.35,0.471,0.35h1.109c0.222,0,0.388-0.156,0.499-0.35l5.324-13.105h-1.192L175.858,38.817z"/>
		<path fill="#58646D" d="M184.898,23.234h-0.5c-0.305,0-0.634,0.167-0.634,0.444v1.664c0,0.305,0.329,0.583,0.634,0.583h0.5
			c0.277,0,0.482-0.278,0.482-0.583v-1.664C185.38,23.4,185.175,23.234,184.898,23.234z"/>
		<rect x="184.303" y="28.616" fill="#58646D" width="1.076" height="13.455"/>
		<path fill="#58646D" d="M197.379,28.426c-2.052,0-4.135,0.895-6.381,2.642l-0.083-2.453h-0.692v13.455h1.076V32.024
			c2.153-1.664,4.028-2.551,5.942-2.551c1.858,0,2.67,0.859,2.67,2.884v9.714h1.076v-9.936
			C200.988,29.722,199.736,28.426,197.379,28.426z"/>
		<path fill="#58646D" d="M217.563,28.616h-4.187c-0.721,0-1.664-0.237-2.773-0.237c-3.965,0-5.463,1.483-5.463,4.283
			c0,1.553,0.471,2.662,1.553,3.328c-1.359,1.109-1.58,3.327,0.278,4.187l-0.389,0.222c-1.608,0.832-1.996,1.858-1.996,3.688
			c0,2.884,1.608,3.883,6.156,3.883c4.353,0,5.99-0.998,5.99-3.91c0-2.135-0.638-3.189-3.022-3.577l-5.269-0.915
			c-2.19-0.388-2.19-2.052-1.137-3.272c0.832,0.333,1.913,0.499,3.272,0.499c3.938,0,5.407-1.331,5.407-4.132
			c0-1.331-0.305-2.329-1.082-3.023l2.579-0.206L217.563,28.616z M207.276,40.815l0.583-0.359h0.056l5.351,0.886
			c1.969,0.36,2.385,1.025,2.385,2.688c0,2.218-1.303,2.967-4.936,2.967c-3.743,0-5.047-0.721-5.047-2.967
			C205.668,42.423,206.001,41.619,207.276,40.815z M214.929,32.662c0,2.191-1.137,3.217-4.353,3.217
			c-3.189,0-4.381-1.026-4.381-3.217c0-2.191,1.165-3.272,4.381-3.272C213.82,29.389,214.929,30.471,214.929,32.662z"/>
	</g>
</g>
</svg>
