<?xml version="1.0" encoding="utf-8"?>
<!-- Generator: Adobe Illustrator 19.0.0, SVG Export Plug-In . SVG Version: 6.00 Build 0)  -->
<svg version="1.1" id="Layer_1" xmlns="http://www.w3.org/2000/svg" xmlns:xlink="http://www.w3.org/1999/xlink" x="0px" y="0px"
	 viewBox="0 0 1920 800" style="enable-background:new 0 0 1920 800;" xml:space="preserve">
<style type="text/css">
	.st0{opacity:8.000000e-002;}
	.st1{fill:#545454;}
	.st2{fill:#A5A5A5;}
	.st3{fill:#DDDDDD;}
	.st4{fill:#B2B2B2;}
	.st5{fill:#828282;}
	.st6{fill:#3D3D3D;}
</style>
<g id="XMLID_1_" class="st0">
	<path id="XMLID_14_" class="st1" d="M0,0c0,35,0,70.7,0,106.4c84.1-38.8,174.2-60.9,271.3-71.2C389.5,22.6,511,20.1,627.7,35.6
		C683.9,43,738.9,54.7,792,71.4c92.4,29,181.1,67,268.5,105.1c2.8,1.2,5.6,2.5,8.5,3.7c85.2,37.2,170.9,81.4,268.9,98.6
		c230.5,40.5,409.8-33.3,582.2-136.6c0-47.7,0-95.2,0-142.2C1280,0,640,0,0,0z"/>
	<path id="XMLID_15_" class="st2" d="M1337.8,278.8c-98-17.2-183.7-61.4-268.9-98.6c-2.8-1.2-5.6-2.5-8.5-3.7
		C973.1,138.4,884.4,100.4,792,71.4C738.9,54.7,683.9,43,627.7,35.6c-116.8-15.5-238.2-13-356.4-0.4C174.2,45.5,84.1,67.6,0,106.4
		c0,3.3,0,5,0,8.3c0,34.6,0,69.2,0,103.8C63.7,161.5,140.2,114,236.8,91.2c64.1-15.1,131.3-22.5,199.4-22.5c23.7,0,47.4,1,71.2,2.8
		c3,0.2,5.9,0.5,8.9,0.7c97.6,8.5,173.7,34.4,250,75.6c38.3,20.7,75.4,44.3,110.3,68.2c2.6,1.8,5.2,3.5,7.7,5.3
		c104.9,72.7,201.6,156.4,313.8,222.3c42,24.7,87.4,47,136.5,62.7c111.2,35.4,228.8,36,335.8-15.2c106.3-50.9,181.3-131,249.7-206.3
		c0-45.2,0-90.5,0-135.7c0-2.8,0-4.2,0-7.1C1747.7,245.4,1568.3,319.2,1337.8,278.8z"/>
	<path id="XMLID_16_" class="st3" d="M1670.3,491.3c-107,51.1-224.6,50.6-335.8,15.2c-49.1-15.7-94.4-38-136.5-62.7
		c-112.1-65.9-208.8-149.6-313.8-222.3c-2.6-1.8-5.1-3.6-7.7-5.3c-34.9-23.9-72-47.6-110.3-68.2c-76.3-41.2-152.4-67.1-250-75.6
		c-3-0.3-5.9-0.5-8.9-0.7c-23.8-1.8-47.5-2.8-71.2-2.8c-68-0.1-135.2,7.4-199.4,22.5C140.2,114,63.7,161.5,0,218.4c0,3,0,4.4,0,7.4
		c0,35.2,0,70.4,0,105.7c37.1-53,88.7-102.9,153-138.4c100.5-55.4,226.1-73.9,353.2-52c129.7,22.4,222.1,85.3,312,151.5
		c175.2,129,337,333.9,605.3,367.8c67.2,8.5,128.4,4.7,183.8-8.2c135.8-31.8,236.3-118.9,305.8-215.5c2.4-4.7,4.7-9.3,6.9-14
		c0-43.7,0-87.3,0-131c0-2.7,0-4,0-6.7C1851.6,360.3,1776.7,440.5,1670.3,491.3z"/>
	<path id="XMLID_17_" class="st4" d="M1607.3,652.2c-55.4,12.9-116.6,16.7-183.8,8.2c-268.3-33.9-430.1-238.8-605.3-367.8
		c-89.9-66.2-182.3-129.1-312-151.5c-127.1-22-252.7-3.5-353.2,52c-64.4,35.5-116,85.4-153,138.4c0,3.5,0,5.2,0,8.7
		c0,46.7,0,93.4,0,140.1c64.7-71.5,136.8-149.7,236.8-194c5.9-2.6,11.8-5.1,17.8-7.4c183.9-70.9,372.8,17.8,511.6,114
		c92,63.7,174.5,135.5,269.2,198c83.4,55.1,184.8,115.4,299.2,127.5c236.7,25.1,444.7-28.7,585.5-171.6c0-40,0-80.1,0-120.1
		c-2.3,3.4-4.5,6.7-6.9,10C1844.9,533.1,1743.8,620.4,1607.3,652.2z"/>
	<path id="XMLID_18_" class="st5" d="M1334.5,718.5c-114.4-12.1-215.7-72.4-299.2-127.5c-94.7-62.6-177.2-134.4-269.2-198
		c-138.9-96.1-327.8-184.8-511.6-114c-5.9,2.3-11.9,4.7-17.8,7.4C136.8,330.6,64.7,408.7,0,480.3c0,4.3,0,6.5,0,10.8
		c0,48.3,0,96.6,0,144.9c70.5-42.3,143.4-81.5,225.4-109.8c14.9-5.2,30.7-9.9,45.9-13.8c81.2-20.5,165.1-28.4,252.1-18.1
		c103.9,12.3,183.1,50,268.6,91.6c142.4,69.3,289.9,133.9,457.9,166.2c151.1,29,341.6,20.1,485.6-11.2
		c42.3-9.2,83.7-22.4,122.5-38.3c1.7-0.7,3.4-1.4,5.2-2.2c1.8-0.8,3.6-1.6,5.4-2.4c4.7-2.1,9.4-4.2,14.1-6.5
		c0.3-0.1,0.6-0.3,0.9-0.4c5.1-2.4,10.1-5,15.2-7.6c7.1-3.7,14.1-7.5,21.2-11.6c0-38.3,0-76.5,0-114.8c0-4,0-6.1,0-10.1
		C1779.2,689.8,1571.2,743.6,1334.5,718.5z"/>
	<path id="XMLID_19_" class="st6" d="M1883.5,691c-0.3,0.1-0.6,0.3-0.9,0.4c-4.7,2.3-9.4,4.4-14.1,6.5c-1.8,0.8-3.6,1.6-5.4,2.4
		c-1.7,0.8-3.4,1.5-5.2,2.2c-38.8,15.8-80.2,29.1-122.5,38.3c-144.1,31.3-334.5,40.3-485.6,11.2c-168-32.3-315.5-96.9-457.9-166.2
		c-85.5-41.6-164.7-79.3-268.6-91.6c-87-10.3-170.9-2.5-252.1,18.1c-15.2,3.8-31,8.6-45.9,13.8C143.4,554.5,70.5,593.6,0,635.9
		c0,1.4,0,2.7,0,4.1c0,53,0,106,0,160c640,0,1280,0,1920,0c0-43,0-83.9,0-125.4c0-1,0-1.9,0-2.9c-7.1,4.1-14.2,7.9-21.2,11.6
		C1893.7,686,1888.6,688.6,1883.5,691z"/>
</g>
</svg>
