<?xml version="1.0" encoding="utf-8"?>
<!-- Generator: Adobe Illustrator 16.0.0, SVG Export Plug-In . SVG Version: 6.00 Build 0)  -->
<!DOCTYPE svg PUBLIC "-//W3C//DTD SVG 1.1//EN" "http://www.w3.org/Graphics/SVG/1.1/DTD/svg11.dtd">
<svg version="1.1" id="Layer_1" xmlns="http://www.w3.org/2000/svg" xmlns:xlink="http://www.w3.org/1999/xlink" x="0px" y="0px"
	 width="55.938px" height="64px" viewBox="0 0 55.938 64" enable-background="new 0 0 55.938 64" xml:space="preserve">
<g>
	<defs>
		<rect id="SVGID_1_" width="55.939" height="64"/>
	</defs>
	<clipPath id="SVGID_2_">
		<use xlink:href="#SVGID_1_"  overflow="visible"/>
	</clipPath>
	
		<path clip-path="url(#SVGID_2_)" fill="none" stroke="#56646D" stroke-width="4" stroke-linecap="round" stroke-linejoin="round" stroke-miterlimit="10" d="
		M53.938,59.403c0,1.434-1.163,2.597-2.597,2.597H4.597C3.163,62,2,60.837,2,59.403V27.621c0-1.434,1.163-2.597,2.597-2.597h46.745
		c1.434,0,2.597,1.163,2.597,2.597V59.403z"/>
	
		<path clip-path="url(#SVGID_2_)" fill="none" stroke="#56646D" stroke-width="4" stroke-linecap="round" stroke-linejoin="round" stroke-miterlimit="10" d="
		M11.561,24.775v-6.366C11.561,9.347,18.907,2,27.97,2c9.062,0,16.409,7.347,16.409,16.409v6.366"/>
	
		<path clip-path="url(#SVGID_2_)" fill="none" stroke="#56646D" stroke-width="2" stroke-linecap="round" stroke-linejoin="round" stroke-miterlimit="10" d="
		M32.613,39.228c0-2.565-2.079-4.644-4.644-4.644c-2.565,0-4.645,2.078-4.645,4.644c0,1.553,0.765,2.925,1.937,3.768l-0.879,8.827
		h7.172l-0.878-8.827C31.849,42.152,32.613,40.78,32.613,39.228z"/>
</g>
</svg>
