<?xml version="1.0" encoding="utf-8"?>
<!-- Generator: Adobe Illustrator 17.0.0, SVG Export Plug-In . SVG Version: 6.00 Build 0)  -->
<!DOCTYPE svg PUBLIC "-//W3C//DTD SVG 1.1//EN" "http://www.w3.org/Graphics/SVG/1.1/DTD/svg11.dtd">
<svg version="1.1" id="Layer_1" xmlns="http://www.w3.org/2000/svg" xmlns:xlink="http://www.w3.org/1999/xlink" x="0px" y="0px"
	 width="70px" height="70px" viewBox="0 0 70 70" enable-background="new 0 0 70 70" xml:space="preserve">
<path fill="#FFFFFF" d="M54,23.205v22.826c0,1.262-1.023,2.286-2.285,2.286l-1.756,0.004c-0.676,0-1.223,0.545-1.229,1.219v5.508
	c0,0-0.111,3.763-3.825,0c-2.603-2.636-4.889-6.731-17.143-6.731H16.285c-1.262,0-2.285-1.024-2.285-2.286V23.205
	c0-1.262,1.023-2.285,2.285-2.285l1.756-0.003c0.676,0,1.223-0.547,1.229-1.22v-4.745c0,0,0.111-3.762,3.825,0
	c2.603,2.636,4.889,5.967,17.143,5.967h11.476C52.977,20.919,54,21.943,54,23.205z M23.314,35.409l4.79,8.296
	c0.228,0.395,0.65,0.639,1.106,0.639h9.58c0.456,0,0.878-0.243,1.106-0.639l4.79-8.296c0.114-0.198,0.171-0.418,0.171-0.639
	c0-0.221-0.057-0.441-0.171-0.639l-4.79-8.296c-0.228-0.395-0.65-0.639-1.106-0.639h-9.58c-0.456,0-0.878,0.243-1.106,0.639
	l-4.79,8.296c-0.114,0.198-0.171,0.418-0.171,0.639C23.143,34.991,23.2,35.212,23.314,35.409z M29.741,34.771
	c0-2.352,1.907-4.259,4.259-4.259s4.259,1.907,4.259,4.259S36.352,39.029,34,39.029S29.741,37.123,29.741,34.771z"/>
</svg>
