<?xml version="1.0" encoding="utf-8"?>
<!-- Generator: Adobe Illustrator 19.0.0, SVG Export Plug-In . SVG Version: 6.00 Build 0)  -->
<svg version="1.1" id="Layer_1" xmlns="http://www.w3.org/2000/svg" xmlns:xlink="http://www.w3.org/1999/xlink" x="0px" y="0px"
	 viewBox="-229 131 500 300" style="enable-background:new -229 131 500 300;" xml:space="preserve">
<style type="text/css">
	.st0{fill:#FFFFFF;}
</style>
<path class="st0" d="M103.6,200.5v94.4c0,5.2-4.2,9.4-9.4,9.4h-7.2c-2.8,0-5,2.3-5,5v22.7c0,0-0.5,15.5-15.8,0
	c-10.8-10.9-20.2-27.8-70.9-27.8h-47.6c-5.2,0-9.4-4.2-9.4-9.4v-94.4c0-5.2,4.2-9.4,9.4-9.4h7.2c2.8,0,5-2.3,5-5v-19.6
	c0,0,0.5-15.5,15.8,0c10.8,10.9,20.2,24.6,70.9,24.6h47.5C99.3,191.1,103.6,195.3,103.6,200.5z M-23.3,250.9l19.8,34.3
	c1,1.6,2.7,2.7,4.6,2.7h39.6c1.9,0,3.6-1,4.6-2.7l19.8-34.3c0.5-0.9,0.7-1.7,0.7-2.7s-0.2-1.8-0.7-2.7l-19.8-34.3
	c-1-1.6-2.7-2.7-4.6-2.7H1.2c-1.9,0-3.6,1-4.6,2.7l-19.8,34.3c-0.5,0.9-0.7,1.7-0.7,2.7C-24,249.2-23.7,250.2-23.3,250.9z
	 M3.3,248.3c0-9.7,7.9-17.6,17.6-17.6s17.6,7.9,17.6,17.6s-7.9,17.6-17.6,17.6S3.3,258.1,3.3,248.3z"/>
<g>
	<g>
		<path class="st0" d="M132.1,352c1,0,1.6,0.6,1.6,1.6l1.6,36.9h-3.5l-1.5-35.4h-1.2l-10,30.1c-0.3,0.9-0.7,1.2-1.6,1.2h-3.7
			c-0.9,0-1.3-0.4-1.6-1.2l-10-30.1h-1.3l-1.5,35.4h-3.7l1.6-36.9c0-1,0.6-1.6,1.6-1.6h4.4c0.9,0,1.3,0.4,1.6,1.3l8.4,25.1
			c0.6,1.8,1,3.4,1.6,5.3h1.2c0.4-1.8,1-3.5,1.6-5.3l8.4-25.1c0.3-0.9,0.7-1.3,1.6-1.3H132.1L132.1,352z"/>
		<path class="st0" d="M144,364c3.7-0.6,8.4-1.2,13-1.2c5.5,0,8.7,2.1,8.7,8.3v19.5h-2.8l-0.4-4.7c-2.2,2.2-6.8,5.2-11.8,5.2
			c-4.7,0-7.7-2.5-7.7-7.4v-3.1c0-4.1,2.5-6.6,7.1-6.6h12.1v-2.8c0-3.4-1.3-5.3-5.8-5.3c-3.2,0-7.8,0.3-12,0.7L144,364z
			 M146.5,383.3c0,3.1,1.6,4.6,4.7,4.6c3.2,0,7.7-1.6,10.9-4.6v-6.5h-11.5c-2.8,0.1-4.1,1.6-4.1,4.1L146.5,383.3L146.5,383.3z"/>
		<path class="st0" d="M178.1,376.5c0.1,1.6,0.3,3.1,0.3,4.6v9.5h-3.5v-39.1h3.7v17.7c0,1.8-0.1,3.1-0.3,4.6h4l9.3-10.3h4.1l-9,10
			c-0.4,0.6-1.2,1.3-1.6,1.6v0.1c0.4,0.3,1.2,1.2,1.6,1.9l9.9,13.3h-4.1l-10.3-14L178.1,376.5L178.1,376.5z"/>
		<path class="st0" d="M204.3,378.7c0.4,7.4,3.2,9.3,9.5,9.3c3.2,0,6.8-0.3,9.3-0.7l0.4,2.4c-2.2,0.9-7.1,1.3-10.2,1.3
			c-9,0-12.6-3.8-12.6-14.3s3.5-14.2,12.1-14.2c7.8,0,11.2,2.8,11.2,8.4c0,4.9-1.8,7.5-6.2,7.5L204.3,378.7L204.3,378.7z
			 M216.8,375.9c2.8,0,3.5-2.1,3.4-4.7c0-3.8-2.2-5.5-7.5-5.5c-6.4,0-8.4,2.5-8.6,10h12.7V375.9z"/>
		<path class="st0" d="M247.4,366.2h-1.3c-3.4,0-6.4,1.5-10.9,4.1v20.2h-3.5v-27h2.8l0.4,4.4c4.1-3.2,8.1-5.2,12-5.2h1.2
			L247.4,366.2z"/>
	</g>
	<path class="st0" d="M-198.3,373.3c-5.6-2.1-7.7-5.5-7.7-10.9c0-8.6,4-10.3,13.6-10.3c3.7,0,8.1,0.3,12.3,1.5l-0.6,5.6
		c-3.1-0.1-7.7-0.1-11.7-0.1s-5.5,0.1-5.5,3.4c0,2.7,1,3.2,3.8,4.3l7.1,2.4c5.9,2.1,7.8,5.5,7.8,10.9c0,8.4-3.7,10.8-13.9,10.8
		c-2.4,0-7.1-0.1-12.8-1.5l0.4-5.9c6.9,0.1,9.9,0.3,12.3,0.3c4.3,0,5.5-0.6,5.5-3.7c0-2.7-1-3.2-3.5-4.1L-198.3,373.3z
		 M-167.3,367.4c3.4-3.1,6.4-4.7,10.2-4.7c3.5,0,5.9,1.5,6.8,4.3c3.2-3,6.2-4.3,9.9-4.3c4.9,0,7.5,2.5,7.5,7.4v19.8h-8.4v-17.3
		c0-2.2-0.4-3.1-2.7-3.1c-1.8,0-2.7,0.6-5.8,2.4v18h-7.4v-17.3c0-2.4-1.2-3.1-3.2-3.1c-1.8,0-3.1,0.6-6.2,2.4V390h-7.4v-26.3h6.1
		L-167.3,367.4z M-127.3,364c3.8-0.7,10.3-1.3,14.2-1.3c6.8,0,10.8,2.2,10.8,9.7v17.4h-6.8l-0.7-4c-1.9,2.2-5.2,4.7-9.9,4.7
		c-5,0-8.7-2.7-8.7-7.7v-2.7c0-4.3,3.1-7.2,8.3-7.2h9.6v-0.7c0-2.7-1-3.4-4.4-3.4c-2.5,0-6.9,0.1-11.2,0.4L-127.3,364z
		 M-120.3,381.8c0,1.9,0.7,2.8,3,2.8c1.8,0,4.4-0.9,6.5-2.7v-3.8h-7.2c-1.9,0-2.2,1-2.2,2.7V381.8L-120.3,381.8z M-78.4,369.9h-2.7
		c-2.2,0-7.8,1-7.8,4.7v15.2h-8.4v-26.3h6.4l0.7,3.7c3.5-3,7.4-4.7,10.8-4.7h1V369.9L-78.4,369.9z M-56.2,369.9v-5.3h-8.4v-6.4h-4.7
		l-2.4,5.9l-4.4,2.5v3.2h4.1V383c0,4.9,2.7,7.7,7.5,7.7c1.9,0,5.5-0.6,7.4-1.3l-0.9-5.8h-3.4c-2.2,0-3.2-0.1-3.2-2.2V370
		L-56.2,369.9L-56.2,369.9z M-46.3,383c0,2.7,1.3,4,4,4h14l0.1,2.7c-4.7,0.3-9.7,0.3-14.6,0.3c-4.7,0-6.9-2.8-6.9-6.5v-31h3.5
		L-46.3,383L-46.3,383z M-20.8,352.6c0.7,0,1.2,0.4,1.2,1.2v3.1c0,0.7-0.4,1.2-1.2,1.2h-1.6c-0.9,0-1.2-0.4-1.2-1.2v-3.1
		c0-0.7,0.3-1.2,1.2-1.2H-20.8z M-23.5,390v-26.3h3.4V390H-23.5z M0.9,389.1c-0.1,0.6-0.6,0.9-1.3,0.9h-3.2c-0.6,0-1-0.3-1.3-0.9
		l-10-25.4h3.7l7.2,19.1c0.6,1.5,1.2,3.1,1.8,4.7h0.7l1.8-4.7l7.2-19.1h3.7L0.9,389.1z M18.3,352.6c0.7,0,1.2,0.4,1.2,1.2v3.1
		c0,0.7-0.4,1.2-1.2,1.2h-1.8c-0.9,0-1.2-0.4-1.2-1.2v-3.1c0-0.7,0.3-1.2,1.2-1.2H18.3z M15.8,390v-26.3h3.4V390H15.8z M30.6,368
		c4.1-3.2,8.1-5,12.3-5c4.6,0,7.1,2.5,7.1,7.2V390h-3.4v-18.9c0-3.7-1.3-5.2-4.6-5.2c-3.4,0-6.5,1.6-10.9,4.6V390h-3.5v-26.3h3
		L30.6,368z M77.4,365.9c1,1.3,1.5,3.1,1.5,5.3c0,5.6-3,8.3-10.9,8.3c-2.5,0-4.4-0.1-6.1-0.7c-1.6,2.1-1.5,4.9,2.1,5.5l10.2,1.6
		c4.9,0.7,6.4,3,6.4,7.2c0,6.1-3.1,8-12.3,8c-9.3,0-12.4-1.9-12.4-7.8c0-3.5,1-5.3,4.4-7.1c-3.2-1.9-2.7-6.2-0.1-8.3
		c-2.4-1.3-3.2-3.5-3.2-6.8c0-5.8,3-8.4,11.1-8.4c2.4,0,4.3,0.1,5.8,0.7H82l-0.1,1.9L77.4,365.9z M62.2,387.3
		c-2.4,1.6-3.2,3.1-3.2,5.9c0,4,2.1,5.2,9,5.2c6.8,0,8.9-1.2,8.9-5.2c0-3-0.9-4-4.6-4.6l-9.9-1.5L62.2,387.3z M75.5,371.3
		c0-4-1.9-5.6-7.7-5.6s-7.8,1.6-7.8,5.6c0,3.8,2.1,5.6,7.8,5.6S75.5,375.2,75.5,371.3z"/>
</g>
</svg>
