<?xml version="1.0" encoding="utf-8"?>
<!-- Generator: Adobe Illustrator 17.0.0, SVG Export Plug-In . SVG Version: 6.00 Build 0)  -->
<!DOCTYPE svg PUBLIC "-//W3C//DTD SVG 1.1//EN" "http://www.w3.org/Graphics/SVG/1.1/DTD/svg11.dtd">
<svg version="1.1" id="Layer_1" xmlns="http://www.w3.org/2000/svg" xmlns:xlink="http://www.w3.org/1999/xlink" x="0px" y="0px"
	 width="184.094px" height="70px" viewBox="0 0 184.094 70" enable-background="new 0 0 184.094 70" xml:space="preserve">
<g>
	<g opacity="0.6">
		<path fill="#fff" d="M137.217,27.034c0.427,0,0.651,0.247,0.651,0.651l0.651,14.84h-1.459l-0.606-14.256h-0.494l-4.019,12.145
			c-0.112,0.337-0.314,0.494-0.673,0.494h-1.482c-0.336,0-0.561-0.158-0.673-0.494l-4.041-12.145h-0.471l-0.584,14.256h-1.459
			l0.629-14.84c0-0.404,0.224-0.651,0.651-0.651h1.774c0.337,0,0.539,0.179,0.651,0.516l3.39,10.102
			c0.224,0.719,0.426,1.392,0.628,2.111h0.494c0.202-0.719,0.426-1.415,0.651-2.133l3.39-10.08c0.09-0.337,0.314-0.516,0.651-0.516
			H137.217z"/>
		<path fill="#fff" d="M142.013,31.861c1.482-0.225,3.39-0.494,5.231-0.494c2.223,0,3.48,0.853,3.48,3.345v7.813h-1.122
			l-0.179-1.908c-0.898,0.897-2.739,2.087-4.76,2.087c-1.885,0-3.098-1.033-3.098-2.941v-1.257c0-1.683,1.032-2.649,2.851-2.649
			h4.871v-1.145c0-1.37-0.516-2.109-2.312-2.109c-1.303,0-3.165,0.134-4.827,0.314L142.013,31.861z M143.001,39.628
			c0,1.234,0.628,1.818,1.908,1.818c1.279,0.023,3.098-0.673,4.378-1.841v-2.604h-4.647c-1.145,0.045-1.639,0.629-1.639,1.683
			V39.628z"/>
		<path fill="#fff" d="M155.726,36.889c0.067,0.629,0.09,1.234,0.09,1.819v3.816h-1.414V26.809h1.459v7.139
			c0,0.696-0.045,1.257-0.112,1.863h1.594l3.749-4.153h1.684l-3.637,4.064c-0.179,0.225-0.494,0.516-0.673,0.629v0.044
			c0.179,0.136,0.494,0.494,0.673,0.764l3.997,5.365h-1.661l-4.131-5.635H155.726z"/>
		<path fill="#fff" d="M166.16,37.788c0.18,2.963,1.28,3.771,3.772,3.771c1.279,0,2.716-0.134,3.749-0.268l0.158,0.964
			c-0.92,0.36-2.874,0.54-4.108,0.54c-3.637,0-5.052-1.572-5.052-5.747c0-4.243,1.414-5.68,4.871-5.68
			c3.121,0,4.513,1.145,4.535,3.39c0.023,1.953-0.718,3.031-2.492,3.031H166.16z M171.257,36.664c1.122,0,1.414-0.808,1.392-1.886
			c-0.023-1.526-0.92-2.176-3.031-2.176c-2.537,0-3.413,0.988-3.458,4.063H171.257z"/>
		<path fill="#fff" d="M183.555,32.714h-0.539c-1.347,0-2.559,0.605-4.378,1.683v8.127h-1.437V31.658h1.1l0.157,1.796
			c1.661-1.301,3.278-2.087,4.805-2.087h0.471L183.555,32.714z"/>
	</g>
	<path fill="#fff" d="M4.296,35.585c-2.283-0.826-3.109-2.174-3.109-4.392c0-3.435,1.587-4.153,5.458-4.153
		c1.479,0,3.262,0.109,4.936,0.587l-0.217,2.262c-1.261-0.044-3.109-0.065-4.697-0.065c-1.609,0-2.174,0.087-2.174,1.37
		c0,1.044,0.435,1.326,1.566,1.696l2.848,0.979c2.392,0.848,3.175,2.218,3.175,4.414c0,3.414-1.479,4.327-5.566,4.327
		c-0.957,0-2.848-0.065-5.153-0.565l0.196-2.392c2.783,0.065,4.001,0.109,4.958,0.109c1.74,0,2.218-0.239,2.218-1.457
		c0-1.065-0.413-1.326-1.413-1.652L4.296,35.585z M16.799,33.216c1.348-1.24,2.566-1.892,4.088-1.892
		c1.435,0,2.37,0.576,2.762,1.728c1.283-1.174,2.522-1.745,3.957-1.745c1.935,0,3.022,1.038,3.022,2.974v7.965h-3.376v-6.965
		c0-0.913-0.188-1.261-1.058-1.261c-0.718,0-1.053,0.239-2.319,0.957v7.269h-2.954v-6.965c0-0.957-0.486-1.261-1.29-1.261
		c-0.696,0-1.242,0.218-2.508,0.935v7.291h-2.954V31.695h2.413L16.799,33.216z M32.868,31.823c1.566-0.283,4.184-0.522,5.684-0.522
		c2.761,0,4.314,0.913,4.314,3.936v7.008h-2.736l-0.326-1.591c-0.761,0.892-2.081,1.912-3.973,1.912c-2,0-3.516-1.067-3.516-3.068
		v-1.087c0-1.718,1.27-2.919,3.314-2.919h3.86v-0.278c0-1.087-0.408-1.391-1.778-1.391c-1.022,0-2.813,0.065-4.531,0.174
		L32.868,31.823z M35.692,39.064c0,0.761,0.323,1.109,1.193,1.109c0.739,0,1.762-0.348,2.606-1.044v-1.526h-2.925
		c-0.783,0-0.873,0.439-0.873,1.048V39.064z M52.573,34.227h-1.07c-0.913,0-3.15,0.414-3.15,1.914v6.105h-3.376V31.695h2.526
		l0.283,1.507c1.435-1.218,2.957-1.929,4.349-1.929h0.439V34.227z M61.436,34.227v-2.11H58.06v-2.532h-1.89l-0.963,2.369
		l-1.789,0.987v1.286h1.688v5.272c0,1.957,1.08,3.088,3.015,3.088c0.761,0,2.193-0.252,2.997-0.534l-0.373-2.339h-1.37
		c-0.87,0-1.315-0.084-1.315-0.889v-4.598H61.436z M65.419,39.523c0,1.05,0.547,1.597,1.575,1.597h5.624l0.044,1.094
		c-1.926,0.11-3.939,0.131-5.908,0.131c-1.904,0-2.779-1.116-2.779-2.626V27.225h1.444V39.523z M75.677,27.269
		c0.307,0,0.46,0.153,0.46,0.46v1.269c0,0.307-0.153,0.46-0.46,0.46h-0.634c-0.328,0-0.46-0.153-0.46-0.46v-1.269
		c0-0.307,0.132-0.46,0.46-0.46H75.677z M74.671,42.323V31.733h1.378v10.591H74.671z M84.386,41.973
		c-0.088,0.219-0.263,0.35-0.525,0.35h-1.292c-0.241,0-0.437-0.131-0.525-0.35l-4.048-10.241h1.488l2.888,7.659
		c0.241,0.612,0.46,1.268,0.7,1.903h0.285l0.722-1.926l2.889-7.636h1.466L84.386,41.973z M91.427,27.269
		c0.306,0,0.46,0.153,0.46,0.46v1.269c0,0.307-0.154,0.46-0.46,0.46h-0.635c-0.328,0-0.46-0.153-0.46-0.46v-1.269
		c0-0.307,0.132-0.46,0.46-0.46H91.427z M90.421,42.323V31.733h1.378v10.591H90.421z M96.37,33.483
		c1.685-1.291,3.282-2.035,4.901-2.035c1.86,0,2.845,1.007,2.845,2.91v7.965h-1.379v-7.593c0-1.51-0.547-2.079-1.838-2.079
		c-1.379,0-2.604,0.657-4.399,1.839v7.833h-1.4V31.733h1.16L96.37,33.483z M115.163,32.652c0.438,0.525,0.613,1.247,0.613,2.167
		c0,2.276-1.16,3.304-4.42,3.304c-0.985,0-1.772-0.087-2.407-0.285c-0.635,0.81-0.613,1.948,0.81,2.189l4.069,0.678
		c1.97,0.306,2.56,1.182,2.56,2.91c0,2.407-1.268,3.195-4.923,3.195c-3.72,0-4.989-0.788-4.989-3.151c0-1.4,0.438-2.122,1.795-2.822
		c-1.291-0.744-1.094-2.517-0.044-3.304c-0.941-0.525-1.312-1.422-1.312-2.713c0-2.32,1.16-3.37,4.442-3.37
		c0.963,0,1.729,0.088,2.341,0.285h3.326l-0.087,0.788L115.163,32.652z M109.124,41.208c-0.963,0.656-1.291,1.225-1.291,2.363
		c0,1.619,0.853,2.058,3.632,2.058c2.713,0,3.567-0.46,3.567-2.058c0-1.203-0.329-1.575-1.86-1.816l-3.961-0.612L109.124,41.208z
		 M114.463,34.818c0-1.597-0.787-2.276-3.107-2.276c-2.341,0-3.151,0.678-3.151,2.276c0,1.553,0.831,2.232,3.151,2.232
		C113.675,37.05,114.463,36.372,114.463,34.818z"/>
</g>
</svg>
