<?xml version="1.0" encoding="utf-8"?>
<!-- Generator: Adobe Illustrator 17.0.0, SVG Export Plug-In . SVG Version: 6.00 Build 0)  -->
<!DOCTYPE svg PUBLIC "-//W3C//DTD SVG 1.1//EN" "http://www.w3.org/Graphics/SVG/1.1/DTD/svg11.dtd">
<svg version="1.1" id="Layer_1" xmlns="http://www.w3.org/2000/svg" xmlns:xlink="http://www.w3.org/1999/xlink" x="0px" y="0px"
	 width="600px" height="400px" viewBox="0 0 600 400" style="enable-background:new 0 0 600 400;" xml:space="preserve">
<style type="text/css">
	.st0{fill:#EDEDED;}
	.st1{fill:#FFFFFF;}
	.st2{fill:#48D1A4;}
	.st3{fill:#43C399;}
	.st4{fill:#3BAB86;}
	.st5{fill:#B4CF53;}
	.st6{fill:#A8C14D;}
	.st7{fill:#93A943;}
	.st8{fill:#FFCD5F;}
	.st9{fill:#F4C45B;}
	.st10{fill:#DCB152;}
	.st11{fill:#FF9E5C;}
	.st12{fill:#FF855A;}
	.st13{fill:#E77851;}
	.st14{fill:#FF6B5C;}
	.st15{fill:#F16557;}
	.st16{fill:#D95B4E;}
	.st17{fill:#FB527A;}
	.st18{fill:#ED4D73;}
	.st19{fill:#D54567;}
	.st20{fill:#9A6FD6;}
	.st21{fill:#9068C8;}
	.st22{fill:#7F5BB0;}
	.st23{fill:#61717B;}
	.st24{fill:#56646D;}
	.st25{fill:#434E55;}
	.st26{fill:#2877EE;}
	.st27{fill:#2670E0;}
	.st28{fill:#27CFE3;}
	.st29{fill:#25C2D5;}
	.st30{fill:#21ACBD;}
	.st31{fill:#DDDDDD;}
	.st32{fill:#CECECE;}
	.st33{fill:#F96353;}
</style>
<path id="XMLID_1_" class="st0" d="M570.4,381H31.8c-3.2,0-5.7-2.6-5.7-5.7V30.1c0-3.2,2.6-5.7,5.7-5.7h538.5c3.2,0,5.7,2.6,5.7,5.7
	v345.2C576.1,378.4,573.5,381,570.4,381z"/>
<path id="XMLID_2_" class="st1" d="M518.8,151.3H85.7c-0.6,0-1.1-0.5-1.1-1.1V60.7c0-0.6,0.5-1.1,1.1-1.1h433.1
	c0.6,0,1.1,0.5,1.1,1.1v89.4C520,150.7,519.4,151.3,518.8,151.3z"/>
<path id="XMLID_4_" class="st0" d="M283.4,114.5h-88.6c-0.6,0-1.1-0.5-1.1-1.1v-13c0-0.6,0.5-1.1,1.1-1.1h88.6
	c0.6,0,1.1,0.5,1.1,1.1v13C284.5,114,284,114.5,283.4,114.5z"/>
<g id="XMLID_26_">
	<path id="XMLID_23_" class="st1" d="M295.9,345.5H85.3c-0.4,0-0.8-0.4-0.8-0.8v-50c0-0.4,0.4-0.8,0.8-0.8h210.5
		c0.4,0,0.8,0.4,0.8,0.8v50C296.7,345.1,296.3,345.5,295.9,345.5z"/>
	<path id="XMLID_22_" class="st0" d="M127.6,337.7H93.1c-0.4,0-0.8-0.4-0.8-0.8v-34.5c0-0.4,0.4-0.8,0.8-0.8h34.5
		c0.4,0,0.8,0.4,0.8,0.8v34.5C128.4,337.4,128,337.7,127.6,337.7z"/>
	<path id="XMLID_21_" class="st0" d="M221.6,324.2h-79.4c-0.6,0-1.1-0.5-1.1-1.1v-6.9c0-0.6,0.5-1.1,1.1-1.1h79.4
		c0.6,0,1.1,0.5,1.1,1.1v6.9C222.8,323.7,222.3,324.2,221.6,324.2z"/>
</g>
<g id="XMLID_154_">
	<path id="XMLID_157_" class="st1" d="M519.2,345.5H308.6c-0.4,0-0.8-0.4-0.8-0.8v-50c0-0.4,0.4-0.8,0.8-0.8h210.5
		c0.4,0,0.8,0.4,0.8,0.8v50C520,345.1,519.6,345.5,519.2,345.5z"/>
	<path id="XMLID_156_" class="st0" d="M350.9,337.7h-34.5c-0.4,0-0.8-0.4-0.8-0.8v-34.5c0-0.4,0.4-0.8,0.8-0.8h34.5
		c0.4,0,0.8,0.4,0.8,0.8v34.5C351.7,337.4,351.3,337.7,350.9,337.7z"/>
	<path id="XMLID_155_" class="st0" d="M444.9,324.2h-79.4c-0.6,0-1.1-0.5-1.1-1.1v-6.9c0-0.6,0.5-1.1,1.1-1.1h79.4
		c0.6,0,1.1,0.5,1.1,1.1v6.9C446.1,323.7,445.6,324.2,444.9,324.2z"/>
</g>
<g id="XMLID_61_">
	<path id="XMLID_59_" class="st2" d="M-270.8,102.3c-7.3-2.4-14.9-3.6-22.6-3.6c-7.7,0-15.3,1.2-22.6,3.6l-0.3,0.1L-327.7,67
		l0.3-0.1c11-3.6,22.5-5.4,34.1-5.4c11.6,0,23.1,1.8,34.1,5.4l0.3,0.1l-11.5,35.5L-270.8,102.3z"/>
	<path id="XMLID_58_" class="st3" d="M-282.1,137.2c-3.7-1.2-7.4-1.8-11.2-1.8s-7.6,0.6-11.2,1.8l-0.3,0.1l-11.5-35.5l0.3-0.1
		c7.4-2.4,15-3.6,22.8-3.6c7.7,0,15.4,1.2,22.8,3.6l0.3,0.1l-11.5,35.5L-282.1,137.2z"/>
	<path id="XMLID_57_" class="st4" d="M-305.1,136.7l0.3-0.1c3.7-1.2,7.6-1.8,11.4-1.8c3.9,0,7.7,0.6,11.4,1.8l0.3,0.1l-11.7,36.1
		L-305.1,136.7z"/>
	<path id="XMLID_56_" class="st5" d="M-234.3,128.9c-9-12.4-22-21.8-36.5-26.5l-0.3-0.1l11.5-35.5l0.3,0.1
		c21.9,7.1,41.5,21.3,55.2,40.1l0.2,0.3l-30.2,21.9L-234.3,128.9z"/>
	<path id="XMLID_55_" class="st6" d="M-263.9,150.4c-4.6-6.3-10.8-10.8-18.1-13.2l-0.3-0.1l11.5-35.5l0.3,0.1
		c14.6,4.7,27.7,14.3,36.8,26.8l0.2,0.3l-30.2,21.9L-263.9,150.4z"/>
	<path id="XMLID_54_" class="st7" d="M-282.2,136.5l0.3,0.1c7.4,2.4,13.8,7.1,18.5,13.4l0.2,0.3l-30.7,22.3L-282.2,136.5z"/>
	<path id="XMLID_53_" class="st8" d="M-220.3,172.1v-0.3c0-15.5-4.8-30.4-13.9-42.9l-0.2-0.3l30.2-21.9l0.2,0.3
		c13.8,18.9,21.1,41.4,21.1,64.8v0.3H-220.3z"/>
	<path id="XMLID_52_" class="st9" d="M-257,172.1v-0.3c0-7.7-2.4-15.1-7-21.3l-0.2-0.3l30.2-21.9l0.2,0.3
		c9.2,12.6,14.1,27.6,14.1,43.3v0.3H-257z"/>
	<path id="XMLID_51_" class="st10" d="M-294.3,172.1l30.7-22.3l0.2,0.3c4.6,6.4,7.1,13.9,7.1,21.7v0.3H-294.3z"/>
	<path id="XMLID_50_" class="st11" d="M-234.4,215l0.2-0.3c9.1-12.5,13.9-27.4,13.9-42.9v-0.3h37.3v0.3c0,23.5-7.3,45.9-21.1,64.8
		l-0.2,0.3L-234.4,215z"/>
	<path id="XMLID_49_" class="st12" d="M-264.1,193.4l0.2-0.3c4.6-6.3,7-13.6,7-21.3v-0.3h37.3v0.3c0,15.7-4.9,30.6-14.1,43.3
		l-0.2,0.3L-264.1,193.4z"/>
	<path id="XMLID_48_" class="st13" d="M-294.3,171.5h38v0.3c0,7.8-2.5,15.3-7.1,21.7l-0.2,0.3L-294.3,171.5z"/>
	<path id="XMLID_47_" class="st14" d="M-271.1,241.3l0.3-0.1c14.5-4.7,27.5-14.1,36.5-26.5l0.2-0.3l30.2,21.9l-0.2,0.3
		c-13.6,18.7-33.2,33-55.2,40.1l-0.3,0.1L-271.1,241.3z"/>
	<path id="XMLID_46_" class="st15" d="M-282.4,206.4l0.3-0.1c7.3-2.4,13.6-6.9,18.1-13.2l0.2-0.3l30.2,21.9l-0.2,0.3
		c-9.1,12.5-22.2,22-36.8,26.8l-0.3,0.1L-282.4,206.4z"/>
	<path id="XMLID_45_" class="st16" d="M-293.9,170.9l30.7,22.3l-0.2,0.3c-4.6,6.4-11,11-18.5,13.4l-0.3,0.1L-293.9,170.9z"/>
	<path id="XMLID_44_" class="st17" d="M-293.3,282.1c-11.6,0-23.1-1.8-34.1-5.4l-0.3-0.1l11.5-35.5l0.3,0.1
		c7.3,2.4,14.9,3.6,22.6,3.6c7.7,0,15.3-1.2,22.6-3.6l0.3-0.1l11.5,35.5l-0.3,0.1C-270.3,280.3-281.7,282.1-293.3,282.1z"/>
	<path id="XMLID_43_" class="st18" d="M-293.3,245.4c-7.7,0-15.4-1.2-22.8-3.6l-0.3-0.1l11.5-35.5l0.3,0.1c3.7,1.2,7.4,1.8,11.2,1.8
		s7.6-0.6,11.2-1.8l0.3-0.1l11.5,35.5l-0.3,0.1C-277.9,244.2-285.6,245.4-293.3,245.4z"/>
	<path id="XMLID_42_" class="st19" d="M-293.3,208.8c-3.9,0-7.7-0.6-11.4-1.8l-0.3-0.1l11.7-36.1l11.7,36.1l-0.3,0.1
		C-285.6,208.2-289.5,208.8-293.3,208.8z"/>
	<path id="XMLID_41_" class="st20" d="M-327.4,276.7c-21.9-7.1-41.5-21.3-55.2-40.1l-0.2-0.3l30.2-21.9l0.2,0.3
		c9,12.4,22,21.8,36.5,26.5l0.3,0.1l-11.5,35.5L-327.4,276.7z"/>
	<path id="XMLID_40_" class="st21" d="M-316.1,241.8c-14.6-4.8-27.7-14.3-36.8-26.8l-0.2-0.3l30.2-21.9l0.2,0.3
		c4.6,6.3,10.8,10.8,18.1,13.2l0.3,0.1l-11.5,35.5L-316.1,241.8z"/>
	<path id="XMLID_39_" class="st22" d="M-304.7,206.9c-7.4-2.4-13.8-7.1-18.5-13.4l-0.2-0.3l30.7-22.3l-11.7,36.1L-304.7,206.9z"/>
	<path id="XMLID_38_" class="st23" d="M-382.6,236.6c-13.8-18.9-21.1-41.4-21.1-64.8v-0.3h37.3v0.3c0,15.5,4.8,30.4,13.9,42.9
		l0.2,0.3l-30.2,21.9L-382.6,236.6z"/>
	<path id="XMLID_37_" class="st24" d="M-352.9,215.1c-9.2-12.6-14.1-27.6-14.1-43.3v-0.3h37.3v0.3c0,7.7,2.4,15.1,7,21.3l0.2,0.3
		l-30.2,21.9L-352.9,215.1z"/>
	<path id="XMLID_36_" class="st25" d="M-323.2,193.5c-4.6-6.4-7.1-13.9-7.1-21.7v-0.3h38l-30.7,22.3L-323.2,193.5z"/>
	<path id="XMLID_35_" class="st26" d="M-403.6,172.1v-0.3c0-23.5,7.3-45.9,21.1-64.8l0.2-0.3l30.2,21.9l-0.2,0.3
		c-9.1,12.5-13.9,27.4-13.9,42.9v0.3H-403.6z"/>
	<path id="XMLID_34_" class="st27" d="M-367,172.1v-0.3c0-15.7,4.9-30.6,14.1-43.3l0.2-0.3l30.2,21.9l-0.2,0.3
		c-4.6,6.3-7,13.6-7,21.3v0.3H-367z"/>
	<path id="XMLID_33_" class="st26" d="M-330.3,172.1v-0.3c0-7.8,2.5-15.3,7.1-21.7l0.2-0.3l30.7,22.3H-330.3z"/>
	<path id="XMLID_32_" class="st28" d="M-382.8,107.2l0.2-0.3c13.6-18.7,33.2-33,55.2-40.1l0.3-0.1l11.5,35.5l-0.3,0.1
		c-14.5,4.7-27.5,14.1-36.5,26.5l-0.2,0.3L-382.8,107.2z"/>
	<path id="XMLID_31_" class="st29" d="M-353.1,128.8l0.2-0.3c9.1-12.5,22.2-22,36.8-26.8l0.3-0.1l11.5,35.5l-0.3,0.1
		c-7.3,2.4-13.6,6.9-18.1,13.2l-0.2,0.3L-353.1,128.8z"/>
	<path id="XMLID_30_" class="st30" d="M-323.4,150.3l0.2-0.3c4.6-6.4,11-11,18.5-13.4l0.3-0.1l11.7,36.1L-323.4,150.3z"/>
</g>
<path id="XMLID_320_" class="st0" d="M1199.5,349H683c-3.1,0-5.6-2.5-5.6-5.6V68c0-3.1,2.5-5.6,5.6-5.6h516.4c3.1,0,5.6,2.5,5.6,5.6
	v275.4C1205.1,346.5,1202.6,349,1199.5,349z"/>
<path id="XMLID_319_" class="st1" d="M1172.8,186.3H739.7c-0.6,0-1.1-0.5-1.1-1.1V95.7c0-0.6,0.5-1.1,1.1-1.1h433.1
	c0.6,0,1.1,0.5,1.1,1.1v89.4C1174,185.7,1173.4,186.3,1172.8,186.3z"/>
<path id="XMLID_318_" class="st0" d="M820.1,177.1h-71.5c-0.5,0-0.9-0.4-0.9-0.9v-71.5c0-0.5,0.4-0.9,0.9-0.9h71.5
	c0.5,0,0.9,0.4,0.9,0.9v71.5C821,176.7,820.6,177.1,820.1,177.1z"/>
<path id="XMLID_317_" class="st0" d="M931.4,146.5h-88.6c-0.6,0-1.1-0.5-1.1-1.1v-13c0-0.6,0.5-1.1,1.1-1.1h88.6
	c0.6,0,1.1,0.5,1.1,1.1v13C932.5,146,932,146.5,931.4,146.5z"/>
<path id="XMLID_537_" class="st0" d="M1153.4,146.5H1139c-0.3,0-0.5-0.2-0.5-0.5v-14.3c0-0.3,0.2-0.5,0.5-0.5h14.4
	c0.3,0,0.5,0.2,0.5,0.5V146C1153.9,146.3,1153.7,146.5,1153.4,146.5z"/>
<path id="XMLID_316_" class="st1" d="M874.1,318H739.5c-0.5,0-1-0.4-1-1V200c0-0.5,0.4-1,1-1h134.6c0.5,0,1,0.4,1,1v117
	C875.1,317.6,874.7,318,874.1,318z"/>
<path id="XMLID_302_" class="st1" d="M1023.6,318H888.9c-0.5,0-1-0.4-1-1V200c0-0.5,0.4-1,1-1h134.6c0.5,0,1,0.4,1,1v117
	C1024.5,317.6,1024.1,318,1023.6,318z"/>
<path id="XMLID_314_" class="st0" d="M794.3,213h-46.1c-0.4,0-0.7-0.3-0.7-0.7v-4c0-0.4,0.3-0.7,0.7-0.7h46.1c0.4,0,0.7,0.3,0.7,0.7
	v4C795,212.7,794.7,213,794.3,213z"/>
<path id="XMLID_353_" class="st0" d="M570.4,811H31.8c-3.2,0-5.7-2.6-5.7-5.7V460.1c0-3.2,2.6-5.7,5.7-5.7h538.5
	c3.2,0,5.7,2.6,5.7,5.7v345.2C576.1,808.4,573.5,811,570.4,811z"/>
<path id="XMLID_386_" class="st0" d="M1110.4,811H754.8c-3.2,0-5.7-2.6-5.7-5.7V460.1c0-3.2,2.6-5.7,5.7-5.7h355.5
	c3.2,0,5.7,2.6,5.7,5.7v345.2C1116.1,808.4,1113.5,811,1110.4,811z"/>
<path id="XMLID_382_" class="st1" d="M1061.2,749.7H818c-1.2,0-2.1-0.9-2.1-2.1V520.1c0-1.2,0.9-2.1,2.1-2.1h243.2
	c1.2,0,2.1,0.9,2.1,2.1v227.5C1063.3,748.7,1062.4,749.7,1061.2,749.7z"/>
<path id="XMLID_381_" class="st0" d="M863.9,567.8h-34.5c-0.4,0-0.8-0.4-0.8-0.8v-34.5c0-0.4,0.4-0.8,0.8-0.8h34.5
	c0.4,0,0.8,0.4,0.8,0.8V567C864.7,567.4,864.3,567.8,863.9,567.8z"/>
<g id="XMLID_75_">
	<path id="XMLID_380_" class="st31" d="M923.9,546.6h-45.7c-0.4,0-0.8-0.4-0.8-0.8v-6c0-0.4,0.4-0.8,0.8-0.8h45.7
		c0.4,0,0.8,0.4,0.8,0.8v6C924.7,546.2,924.4,546.6,923.9,546.6z"/>
	<path id="XMLID_355_" class="st31" d="M944.7,553.6H878c-0.3,0-0.6-0.3-0.6-0.6V551c0-0.3,0.3-0.6,0.6-0.6h66.7
		c0.3,0,0.6,0.3,0.6,0.6v1.9C945.3,553.3,945.1,553.6,944.7,553.6z"/>
	<path id="XMLID_73_" class="st31" d="M986.5,560.6H878.2c-0.4,0-0.8-0.3-0.8-0.8v-1.6c0-0.4,0.3-0.8,0.8-0.8h108.4
		c0.4,0,0.8,0.3,0.8,0.8v1.6C987.3,560.2,987,560.6,986.5,560.6z"/>
</g>
<g id="XMLID_77_">
	<path id="XMLID_80_" class="st31" d="M958,602.3h-79.5c-0.6,0-1-0.5-1-1v-5.5c0-0.6,0.5-1,1-1H958c0.6,0,1,0.5,1,1v5.5
		C959,601.9,958.5,602.3,958,602.3z"/>
	<path id="XMLID_79_" class="st31" d="M917.7,609.3h-39.9c-0.3,0-0.5-0.2-0.5-0.5v-2.2c0-0.3,0.2-0.5,0.5-0.5h39.9
		c0.3,0,0.5,0.2,0.5,0.5v2.2C918.2,609.1,918,609.3,917.7,609.3z"/>
	<path id="XMLID_78_" class="st31" d="M1028.1,616.3H878.3c-0.5,0-0.9-0.4-0.9-0.9v-1.3c0-0.5,0.4-0.9,0.9-0.9h149.8
		c0.5,0,0.9,0.4,0.9,0.9v1.3C1029,615.9,1028.6,616.3,1028.1,616.3z"/>
</g>
<g id="XMLID_81_">
	<path id="XMLID_84_" class="st31" d="M908.4,658.1H878c-0.4,0-0.6-0.3-0.6-0.6v-6.2c0-0.4,0.3-0.6,0.6-0.6h30.3
		c0.4,0,0.6,0.3,0.6,0.6v6.2C909,657.8,908.7,658.1,908.4,658.1z"/>
	<path id="XMLID_83_" class="st31" d="M969.9,665.1h-91.8c-0.4,0-0.7-0.3-0.7-0.7v-1.7c0-0.4,0.3-0.7,0.7-0.7h91.8
		c0.4,0,0.7,0.3,0.7,0.7v1.7C970.7,664.8,970.3,665.1,969.9,665.1z"/>
	<path id="XMLID_82_" class="st31" d="M940.1,672.1H878c-0.3,0-0.6-0.3-0.6-0.6v-2c0-0.3,0.3-0.6,0.6-0.6h62.1
		c0.3,0,0.6,0.3,0.6,0.6v2C940.7,671.8,940.4,672.1,940.1,672.1z"/>
</g>
<path id="XMLID_378_" class="st0" d="M863.9,622.7h-34.5c-0.4,0-0.8-0.4-0.8-0.8v-34.5c0-0.4,0.4-0.8,0.8-0.8h34.5
	c0.4,0,0.8,0.4,0.8,0.8v34.5C864.7,622.4,864.3,622.7,863.9,622.7z"/>
<path id="XMLID_375_" class="st0" d="M863.9,677.6h-34.5c-0.4,0-0.8-0.4-0.8-0.8v-34.5c0-0.4,0.4-0.8,0.8-0.8h34.5
	c0.4,0,0.8,0.4,0.8,0.8v34.5C864.7,677.3,864.3,677.6,863.9,677.6z"/>
<g id="XMLID_86_">
	<path id="XMLID_89_" class="st31" d="M908.4,710.5H878c-0.4,0-0.6-0.3-0.6-0.6v-6.2c0-0.4,0.3-0.6,0.6-0.6h30.3
		c0.4,0,0.6,0.3,0.6,0.6v6.2C909,710.2,908.7,710.5,908.4,710.5z"/>
	<path id="XMLID_88_" class="st31" d="M969.9,717.5h-91.8c-0.4,0-0.7-0.3-0.7-0.7V715c0-0.4,0.3-0.7,0.7-0.7h91.8
		c0.4,0,0.7,0.3,0.7,0.7v1.7C970.7,717.2,970.3,717.5,969.9,717.5z"/>
	<path id="XMLID_87_" class="st31" d="M940.1,724.5H878c-0.3,0-0.6-0.3-0.6-0.6v-2c0-0.3,0.3-0.6,0.6-0.6h62.1
		c0.3,0,0.6,0.3,0.6,0.6v2C940.7,724.2,940.4,724.5,940.1,724.5z"/>
</g>
<path id="XMLID_85_" class="st0" d="M863.9,730h-34.5c-0.4,0-0.8-0.4-0.8-0.8v-34.5c0-0.4,0.4-0.8,0.8-0.8h34.5
	c0.4,0,0.8,0.4,0.8,0.8v34.5C864.7,729.7,864.3,730,863.9,730z"/>
<g id="XMLID_315_">
	<path id="XMLID_305_" class="st0" d="M837.1,262.6c0,17.5-14.2,31.7-31.7,31.7c-17.5,0-31.7-14.2-31.7-31.7s14.2-31.7,31.7-31.7
		C822.9,230.9,837.1,245.1,837.1,262.6z M805.4,237.5c-13.8,0-25,11.2-25,25c0,13.8,11.2,25,25,25c13.8,0,25-11.2,25-25
		C830.5,248.8,819.2,237.5,805.4,237.5z"/>
	<path id="XMLID_444_" class="st8" d="M780.4,262.6c0-7.3,3.1-13.9,8.1-18.5h-8.8c-3.7,5.2-5.9,11.6-5.9,18.5
		c0,17.2,13.8,31.3,30.9,31.6v-6.6C791.2,287.2,780.4,276.2,780.4,262.6z"/>
	<circle id="XMLID_306_" class="st9" cx="784.8" cy="242.9" r="6.4"/>
	<g id="XMLID_454_">
		<path id="XMLID_455_" class="st31" d="M800.5,257c0.6,0,1.2,0.1,1.7,0.3c0.5,0.2,0.9,0.4,1.3,0.7c0.3,0.3,0.6,0.7,0.8,1.1
			c0.2,0.4,0.3,0.8,0.3,1.3c0,0.4,0,0.8-0.1,1.1c-0.1,0.3-0.2,0.6-0.4,0.8c-0.2,0.2-0.4,0.4-0.6,0.6c-0.2,0.2-0.5,0.3-0.8,0.4
			c1.4,0.5,2.2,1.5,2.2,2.9c0,0.7-0.1,1.3-0.4,1.8c-0.3,0.5-0.6,0.9-1,1.3c-0.4,0.3-0.9,0.6-1.5,0.8c-0.6,0.2-1.1,0.3-1.7,0.3
			c-0.6,0-1.2-0.1-1.6-0.2c-0.5-0.1-0.9-0.3-1.3-0.6c-0.4-0.3-0.7-0.6-1-1.1c-0.3-0.4-0.5-1-0.7-1.6l1.2-0.5c0.1,0,0.2-0.1,0.3-0.1
			c0.1,0,0.2,0,0.3,0c0.2,0,0.4,0,0.5,0.1c0.2,0.1,0.3,0.2,0.3,0.3c0.3,0.5,0.6,0.9,0.9,1.1c0.3,0.2,0.7,0.3,1.1,0.3
			c0.3,0,0.6-0.1,0.8-0.2c0.2-0.1,0.4-0.2,0.6-0.4c0.2-0.2,0.3-0.3,0.3-0.6c0.1-0.2,0.1-0.4,0.1-0.6c0-0.3,0-0.5-0.1-0.8
			c0-0.2-0.1-0.4-0.3-0.6c-0.2-0.2-0.4-0.3-0.8-0.4c-0.4-0.1-0.9-0.1-1.5-0.1v-1.9c0.5,0,1,0,1.3-0.1c0.3-0.1,0.6-0.2,0.8-0.3
			c0.2-0.1,0.3-0.3,0.4-0.5c0.1-0.2,0.1-0.4,0.1-0.7c0-0.5-0.1-0.9-0.4-1.2c-0.2-0.3-0.6-0.4-1.1-0.4c-0.2,0-0.4,0-0.6,0.1
			c-0.2,0.1-0.3,0.1-0.5,0.2c-0.1,0.1-0.3,0.2-0.4,0.4c-0.1,0.1-0.2,0.3-0.2,0.4c-0.1,0.3-0.2,0.5-0.4,0.6c-0.1,0.1-0.3,0.2-0.6,0.2
			c-0.1,0-0.1,0-0.2,0c-0.1,0-0.1,0-0.2,0l-1.5-0.3c0.1-0.6,0.3-1.2,0.5-1.7c0.3-0.5,0.6-0.9,1-1.2c0.4-0.3,0.9-0.6,1.4-0.7
			C799.4,257,800,257,800.5,257z"/>
		<path id="XMLID_457_" class="st31" d="M815.2,263.6c0,1.1-0.1,2.1-0.4,2.9c-0.2,0.8-0.6,1.5-1,2.1c-0.4,0.5-0.9,1-1.5,1.2
			c-0.6,0.3-1.2,0.4-1.9,0.4c-0.7,0-1.3-0.1-1.9-0.4c-0.6-0.3-1.1-0.7-1.5-1.2c-0.4-0.5-0.8-1.2-1-2.1c-0.2-0.8-0.4-1.8-0.4-2.9
			s0.1-2.1,0.4-2.9c0.2-0.8,0.6-1.5,1-2.1c0.4-0.5,0.9-1,1.5-1.2c0.6-0.3,1.2-0.4,1.9-0.4c0.7,0,1.3,0.1,1.9,0.4
			c0.6,0.3,1.1,0.7,1.5,1.2c0.4,0.5,0.8,1.2,1,2.1S815.2,262.4,815.2,263.6z M812.4,263.6c0-0.9-0.1-1.6-0.2-2.2
			c-0.1-0.6-0.3-1-0.4-1.3c-0.2-0.3-0.4-0.6-0.6-0.7c-0.2-0.1-0.5-0.2-0.7-0.2s-0.5,0.1-0.7,0.2c-0.2,0.1-0.4,0.3-0.6,0.7
			c-0.2,0.3-0.3,0.8-0.4,1.3c-0.1,0.6-0.2,1.3-0.2,2.2c0,0.9,0.1,1.6,0.2,2.2c0.1,0.6,0.3,1,0.4,1.3c0.2,0.3,0.4,0.6,0.6,0.7
			c0.2,0.1,0.5,0.2,0.7,0.2s0.5-0.1,0.7-0.2s0.4-0.3,0.6-0.7c0.2-0.3,0.3-0.8,0.4-1.3C812.3,265.2,812.4,264.5,812.4,263.6z"/>
	</g>
</g>
<path id="XMLID_472_" class="st0" d="M943.3,213h-46.1c-0.4,0-0.7-0.3-0.7-0.7v-4c0-0.4,0.3-0.7,0.7-0.7h46.1c0.4,0,0.7,0.3,0.7,0.7
	v4C944,212.7,943.7,213,943.3,213z"/>
<path id="XMLID_3_" class="st0" d="M166.1,142.1H94.6c-0.5,0-0.9-0.4-0.9-0.9V69.7c0-0.5,0.4-0.9,0.9-0.9h71.5
	c0.5,0,0.9,0.4,0.9,0.9v71.5C167,141.7,166.6,142.1,166.1,142.1z"/>
<g id="XMLID_488_">
	<path id="XMLID_453_" class="st0" d="M964.1,270.8h-19c-6.2,0-11.2-5-11.2-11.2v0c0-6.2,5-11.2,11.2-11.2h19
		c6.2,0,11.2,5,11.2,11.2v0C975.3,265.7,970.3,270.8,964.1,270.8z"/>
	<circle id="XMLID_473_" class="st2" cx="964.1" cy="259.6" r="9.8"/>
	<g id="XMLID_487_">
		<path id="XMLID_489_" class="st1" d="M963.3,264.3l-3.9-3.9c-0.1-0.1-0.1-0.2,0-0.3l1.6-1.6c0.1-0.1,0.2-0.1,0.3,0l1.9,1.9
			c0.1,0.1,0.2,0.1,0.3,0l4.2-4.2c0.1-0.1,0.2-0.1,0.3,0l1.6,1.6c0.1,0.1,0.1,0.2,0,0.3l-6.1,6.1
			C963.5,264.4,963.4,264.4,963.3,264.3z"/>
	</g>
</g>
<circle id="XMLID_539_" class="st32" cx="677.4" cy="209.3" r="22.8"/>
<circle id="XMLID_547_" class="st1" cx="677.4" cy="209.3" r="18.8"/>
<g id="XMLID_543_">
	<circle id="XMLID_546_" class="st32" cx="738.8" cy="209.5" r="4.7"/>
	<circle id="XMLID_545_" class="st32" cx="724.8" cy="209.5" r="4.7"/>
	<circle id="XMLID_544_" class="st32" cx="710.9" cy="209.5" r="4.7"/>
</g>
<circle id="XMLID_67_" class="st32" cx="677.4" cy="273.3" r="22.8"/>
<circle id="XMLID_66_" class="st1" cx="677.4" cy="273.3" r="18.8"/>
<g id="XMLID_62_">
	<circle id="XMLID_65_" class="st32" cx="738.8" cy="273.5" r="4.7"/>
	<circle id="XMLID_64_" class="st32" cx="724.8" cy="273.5" r="4.7"/>
	<circle id="XMLID_63_" class="st32" cx="710.9" cy="273.5" r="4.7"/>
</g>
<g id="XMLID_252_">
	<circle id="XMLID_255_" class="st32" cx="187.8" cy="601" r="4.7"/>
	<circle id="XMLID_254_" class="st32" cx="187.8" cy="587" r="4.7"/>
	<circle id="XMLID_253_" class="st32" cx="187.8" cy="573" r="4.7"/>
</g>
<g id="XMLID_256_">
	<circle id="XMLID_273_" class="st32" cx="412.8" cy="601" r="4.7"/>
	<circle id="XMLID_272_" class="st32" cx="412.8" cy="587" r="4.7"/>
	<circle id="XMLID_257_" class="st32" cx="412.8" cy="573" r="4.7"/>
</g>
<g id="XMLID_283_">
	<path id="XMLID_284_" class="st31" d="M110.7,514.8h6.8c0.7,0,1.3,0.2,1.8,0.5c0.5,0.3,0.8,0.8,0.9,1.3l7.4,25.9
		c0.2,0.6,0.3,1.3,0.5,2.1c0.2,0.8,0.3,1.5,0.4,2.4c0.2-0.8,0.3-1.6,0.5-2.4s0.4-1.4,0.6-2.1l8.5-25.9c0.2-0.5,0.5-0.9,0.9-1.3
		c0.5-0.4,1-0.6,1.7-0.6h2.4c0.7,0,1.3,0.2,1.7,0.5c0.5,0.3,0.8,0.8,1,1.3l8.5,25.9c0.4,1.3,0.8,2.7,1.1,4.3
		c0.1-0.8,0.3-1.5,0.4-2.3c0.1-0.7,0.3-1.4,0.5-2l7.4-25.9c0.1-0.5,0.4-0.9,0.9-1.3c0.5-0.4,1.1-0.5,1.7-0.5h6.3l-13.5,43.4H152
		l-9.5-29.6c-0.1-0.4-0.2-0.8-0.4-1.2c-0.1-0.4-0.3-0.9-0.4-1.4c-0.1,0.5-0.2,1-0.4,1.4c-0.1,0.4-0.3,0.9-0.4,1.2l-9.6,29.6h-7.3
		L110.7,514.8z"/>
	<path id="XMLID_286_" class="st31" d="M177.1,558.1v-44.6h7.4v17.1c1.2-1.1,2.5-2.1,4-2.8c1.4-0.7,3.1-1,5.1-1
		c1.7,0,3.2,0.3,4.5,0.9c1.3,0.6,2.4,1.4,3.3,2.4c0.9,1,1.5,2.3,2,3.7c0.5,1.4,0.7,3,0.7,4.7v19.6h-7.4v-19.6c0-1.9-0.4-3.3-1.3-4.4
		c-0.9-1-2.2-1.5-3.9-1.5c-1.3,0-2.5,0.3-3.6,0.9s-2.2,1.4-3.2,2.4v22.3H177.1z"/>
	<path id="XMLID_288_" class="st31" d="M223.9,526.9c1.9,0,3.7,0.3,5.4,0.9c1.6,0.6,3,1.5,4.2,2.7c1.2,1.2,2.1,2.7,2.8,4.4
		c0.7,1.7,1,3.7,1,5.9c0,0.6,0,1-0.1,1.4c0,0.4-0.1,0.7-0.3,0.9s-0.3,0.4-0.5,0.4c-0.2,0.1-0.5,0.1-0.8,0.1h-19
		c0.2,3.2,1.1,5.5,2.5,7c1.5,1.5,3.4,2.2,5.9,2.2c1.2,0,2.2-0.1,3.1-0.4c0.9-0.3,1.6-0.6,2.3-0.9c0.6-0.3,1.2-0.6,1.7-0.9
		c0.5-0.3,1-0.4,1.4-0.4c0.3,0,0.6,0.1,0.8,0.2c0.2,0.1,0.4,0.3,0.6,0.5l2.2,2.7c-0.8,1-1.7,1.8-2.8,2.4c-1,0.7-2.1,1.2-3.2,1.6
		c-1.1,0.4-2.2,0.7-3.4,0.8s-2.3,0.2-3.3,0.2c-2.1,0-4.1-0.4-6-1.1c-1.8-0.7-3.4-1.8-4.8-3.1c-1.4-1.4-2.4-3.1-3.2-5.2
		c-0.8-2-1.2-4.4-1.2-7.1c0-2.1,0.3-4.1,1-5.9c0.7-1.8,1.7-3.5,2.9-4.8c1.3-1.4,2.8-2.5,4.6-3.3
		C219.5,527.3,221.6,526.9,223.9,526.9z M224.1,532.2c-2.2,0-3.9,0.6-5.1,1.8c-1.2,1.2-2,3-2.3,5.2h13.9c0-1-0.1-1.9-0.4-2.7
		c-0.3-0.8-0.7-1.6-1.2-2.2s-1.2-1.1-2-1.5C226.1,532.4,225.2,532.2,224.1,532.2z"/>
	<path id="XMLID_291_" class="st31" d="M243.3,558.1v-30.8h4.5c1,0,1.6,0.4,1.9,1.3l0.5,2.4c0.6-0.6,1.3-1.2,2-1.7
		c0.7-0.5,1.4-1,2.2-1.3c0.8-0.4,1.6-0.7,2.5-0.9c0.9-0.2,1.8-0.3,2.9-0.3c1.7,0,3.2,0.3,4.5,0.9c1.3,0.6,2.4,1.4,3.3,2.4
		c0.9,1,1.5,2.3,2,3.7c0.5,1.4,0.7,3,0.7,4.7v19.6h-7.4v-19.6c0-1.9-0.4-3.3-1.3-4.4c-0.9-1-2.2-1.5-3.9-1.5c-1.3,0-2.5,0.3-3.6,0.9
		s-2.2,1.4-3.2,2.4v22.3H243.3z"/>
</g>
<circle id="XMLID_20_" class="st32" cx="677.4" cy="145.3" r="22.8"/>
<circle id="XMLID_19_" class="st1" cx="677.4" cy="145.3" r="18.8"/>
<g id="XMLID_10_">
	<circle id="XMLID_15_" class="st32" cx="738.8" cy="145.5" r="4.7"/>
	<circle id="XMLID_14_" class="st32" cx="724.8" cy="145.5" r="4.7"/>
	<circle id="XMLID_11_" class="st32" cx="710.9" cy="145.5" r="4.7"/>
</g>
<path id="XMLID_303_" class="st32" d="M1173,318h-134.6c-0.5,0-1-0.4-1-1V200c0-0.5,0.4-1,1-1H1173c0.5,0,1,0.4,1,1v117
	C1174,317.6,1173.5,318,1173,318z"/>
<g id="XMLID_101_">
	<path id="XMLID_103_" class="st1" d="M1188.9,338L1058,306.2c-0.5-0.1-0.8-0.7-0.7-1.2l27.6-113.7c0.1-0.5,0.7-0.8,1.2-0.7
		l130.8,31.8c0.5,0.1,0.8,0.7,0.7,1.2L1190,337.3C1189.9,337.8,1189.4,338.2,1188.9,338z"/>
	<path id="XMLID_486_" class="st0" d="M1135.3,216.9l-44.8-10.9c-0.4-0.1-0.6-0.4-0.5-0.8l0.9-3.9c0.1-0.4,0.4-0.6,0.8-0.5
		l44.8,10.9c0.4,0.1,0.6,0.4,0.5,0.8l-0.9,3.9C1136,216.8,1135.6,217,1135.3,216.9z"/>
	<g id="XMLID_475_">
		<path id="XMLID_479_" class="st31" d="M1147.3,255.9c0.6,0.2,1.2,0.4,1.6,0.7c0.4,0.3,0.8,0.6,1.1,1c0.3,0.4,0.4,0.8,0.5,1.2
			c0.1,0.4,0.1,0.9,0,1.3c-0.1,0.4-0.2,0.7-0.4,1c-0.2,0.3-0.3,0.5-0.6,0.7c-0.2,0.2-0.5,0.3-0.7,0.4c-0.3,0.1-0.6,0.2-0.9,0.2
			c1.3,0.8,1.7,1.9,1.4,3.4c-0.2,0.7-0.4,1.2-0.8,1.7c-0.4,0.4-0.8,0.8-1.3,1c-0.5,0.2-1,0.4-1.6,0.4c-0.6,0-1.2,0-1.7-0.2
			c-0.6-0.1-1.1-0.3-1.6-0.6c-0.4-0.2-0.8-0.5-1.1-0.9s-0.5-0.8-0.7-1.3c-0.2-0.5-0.3-1.1-0.3-1.7l1.3-0.2c0.1,0,0.2,0,0.3,0
			c0.1,0,0.2,0,0.3,0c0.2,0,0.3,0.1,0.5,0.2c0.1,0.1,0.2,0.2,0.3,0.4c0.1,0.5,0.3,1,0.6,1.2c0.2,0.3,0.6,0.5,0.9,0.6
			c0.3,0.1,0.6,0.1,0.8,0c0.2,0,0.5-0.1,0.6-0.3c0.2-0.1,0.3-0.3,0.5-0.5s0.2-0.4,0.3-0.6c0.1-0.3,0.1-0.5,0.1-0.7
			c0-0.2,0-0.4-0.2-0.6c-0.1-0.2-0.4-0.4-0.7-0.5c-0.3-0.2-0.8-0.3-1.4-0.5l0.4-1.8c0.5,0.1,1,0.2,1.3,0.2c0.3,0,0.6-0.1,0.8-0.2
			c0.2-0.1,0.4-0.2,0.5-0.4c0.1-0.2,0.2-0.4,0.2-0.6c0.1-0.5,0.1-0.9-0.1-1.2s-0.5-0.5-1-0.7c-0.2,0-0.4-0.1-0.6,0
			c-0.2,0-0.3,0.1-0.5,0.1c-0.2,0.1-0.3,0.2-0.4,0.3c-0.1,0.1-0.2,0.2-0.3,0.4c-0.2,0.2-0.3,0.4-0.5,0.5c-0.2,0.1-0.4,0.1-0.6,0
			c-0.1,0-0.1,0-0.2-0.1c-0.1,0-0.1,0-0.2-0.1l-1.4-0.6c0.2-0.6,0.6-1.1,0.9-1.5c0.4-0.4,0.8-0.7,1.3-0.9c0.5-0.2,1-0.3,1.5-0.4
			C1146.2,255.7,1146.7,255.7,1147.3,255.9z"/>
		<path id="XMLID_476_" class="st31" d="M1139.6,260.8c-0.3,1.1-0.6,2-1.1,2.8c-0.4,0.7-0.9,1.3-1.5,1.8c-0.5,0.4-1.1,0.7-1.8,0.8
			c-0.6,0.1-1.3,0.1-2-0.1c-0.7-0.2-1.3-0.4-1.8-0.8c-0.5-0.4-0.9-0.9-1.2-1.5c-0.3-0.6-0.4-1.4-0.5-2.2c0-0.9,0.1-1.8,0.3-2.9
			s0.6-2,1-2.8c0.4-0.8,0.9-1.3,1.5-1.8c0.5-0.4,1.1-0.7,1.8-0.8c0.6-0.1,1.3-0.1,1.9,0.1c0.7,0.2,1.3,0.4,1.8,0.8
			c0.5,0.4,0.9,0.9,1.2,1.5c0.3,0.6,0.5,1.4,0.5,2.2S1139.9,259.7,1139.6,260.8z M1136.8,260.1c0.2-0.9,0.3-1.6,0.4-2.2
			c0-0.6,0-1.1-0.1-1.4c-0.1-0.4-0.3-0.6-0.5-0.8c-0.2-0.2-0.4-0.3-0.7-0.3c-0.2-0.1-0.5-0.1-0.7,0c-0.3,0.1-0.5,0.2-0.8,0.5
			c-0.3,0.3-0.5,0.7-0.7,1.2c-0.2,0.5-0.5,1.2-0.7,2.1c-0.2,0.9-0.3,1.6-0.4,2.2c0,0.6,0,1.1,0.1,1.4c0.1,0.4,0.2,0.6,0.4,0.8
			c0.2,0.2,0.4,0.3,0.7,0.3c0.2,0.1,0.5,0.1,0.7,0s0.5-0.2,0.8-0.5c0.3-0.3,0.5-0.7,0.8-1.2C1136.4,261.7,1136.6,261,1136.8,260.1z"
			/>
	</g>
	<g id="XMLID_69_">
		<path id="XMLID_71_" class="st0" d="M1177.2,288.9l-82.9-20.2c-1.8-0.4-2.9-2.2-2.4-4v0c0.4-1.8,2.2-2.9,4-2.4l82.9,20.2
			c1.8,0.4,2.9,2.2,2.4,4l0,0C1180.8,288.2,1179,289.3,1177.2,288.9z"/>
		<path id="XMLID_7_" class="st29" d="M1108.2,272.1l-14-3.4c-1.8-0.4-2.9-2.2-2.4-4v0c0.4-1.8,2.2-2.9,4-2.4l14,3.4
			c1.8,0.4,2.9,2.2,2.4,4l0,0C1111.8,271.4,1110,272.5,1108.2,272.1z"/>
	</g>
</g>
<g id="XMLID_102_">
	<g id="XMLID_100_">
		<circle id="XMLID_72_" class="st0" cx="677.8" cy="139.6" r="4.2"/>
		<path id="XMLID_74_" class="st0" d="M670,153c0-5,3.5-7.8,7.8-7.8s7.8,2.8,7.8,7.8H670z"/>
	</g>
</g>
<g id="XMLID_104_">
	<g id="XMLID_108_">
		<circle id="XMLID_110_" class="st0" cx="677.8" cy="204.6" r="4.2"/>
		<path id="XMLID_109_" class="st0" d="M670,218c0-5,3.5-7.8,7.8-7.8s7.8,2.8,7.8,7.8H670z"/>
	</g>
</g>
<g id="XMLID_111_">
	<g id="XMLID_115_">
		<circle id="XMLID_118_" class="st0" cx="677.8" cy="269.6" r="4.2"/>
		<path id="XMLID_117_" class="st0" d="M670,283c0-5,3.5-7.8,7.8-7.8s7.8,2.8,7.8,7.8H670z"/>
	</g>
</g>
<path id="XMLID_206_" class="st1" d="M292.8,738h-207c-0.7,0-1.2-0.5-1.2-1.2V620.3c0-0.7,0.5-1.2,1.2-1.2h207
	c0.7,0,1.2,0.5,1.2,1.2v116.5C294,737.5,293.5,738,292.8,738z"/>
<path id="XMLID_205_" class="st1" d="M518.7,738h-212c-0.7,0-1.2-0.5-1.2-1.2V620.3c0-0.7,0.5-1.2,1.2-1.2h212
	c0.7,0,1.2,0.5,1.2,1.2v116.5C520,737.5,519.4,738,518.7,738z"/>
<path id="XMLID_204_" class="st0" d="M140.3,633H94.2c-0.4,0-0.7-0.3-0.7-0.7v-4c0-0.4,0.3-0.7,0.7-0.7h46.1c0.4,0,0.7,0.3,0.7,0.7
	v4C141,632.7,140.7,633,140.3,633z"/>
<g id="XMLID_192_">
	<path id="XMLID_201_" class="st0" d="M214.1,682.6c0,17.5-14.2,31.7-31.7,31.7s-31.7-14.2-31.7-31.7c0-17.5,14.2-31.7,31.7-31.7
		S214.1,665.1,214.1,682.6z M182.4,657.5c-13.8,0-25,11.2-25,25c0,13.8,11.2,25,25,25c13.8,0,25-11.2,25-25
		C207.5,668.8,196.2,657.5,182.4,657.5z"/>
	<path id="XMLID_295_" class="st8" d="M157.4,682.6c0-5.4,1.7-10.5,4.7-14.6c-1.9-1.1-3.7-2.4-5.4-3.9c-3.7,5.2-5.9,11.6-5.9,18.4
		c0,17.2,13.8,31.3,30.9,31.6v-6.6C168.2,707.2,157.4,696.2,157.4,682.6z"/>
	<g id="XMLID_193_">
		<path id="XMLID_197_" class="st31" d="M177.5,677c0.6,0,1.2,0.1,1.7,0.3c0.5,0.2,0.9,0.4,1.3,0.7c0.3,0.3,0.6,0.7,0.8,1.1
			c0.2,0.4,0.3,0.8,0.3,1.3c0,0.4,0,0.8-0.1,1.1c-0.1,0.3-0.2,0.6-0.4,0.8c-0.2,0.2-0.4,0.4-0.6,0.6c-0.2,0.2-0.5,0.3-0.8,0.4
			c1.4,0.5,2.2,1.5,2.2,2.9c0,0.7-0.1,1.3-0.4,1.8c-0.3,0.5-0.6,0.9-1,1.3c-0.4,0.3-0.9,0.6-1.5,0.8c-0.6,0.2-1.1,0.3-1.7,0.3
			c-0.6,0-1.2-0.1-1.6-0.2c-0.5-0.1-0.9-0.3-1.3-0.6c-0.4-0.3-0.7-0.6-1-1.1c-0.3-0.4-0.5-1-0.7-1.6l1.2-0.5c0.1,0,0.2-0.1,0.3-0.1
			c0.1,0,0.2,0,0.3,0c0.2,0,0.4,0,0.5,0.1c0.2,0.1,0.3,0.2,0.3,0.3c0.3,0.5,0.6,0.9,0.9,1.1s0.7,0.3,1.1,0.3c0.3,0,0.6-0.1,0.8-0.2
			c0.2-0.1,0.4-0.2,0.6-0.4c0.2-0.2,0.3-0.3,0.3-0.6s0.1-0.4,0.1-0.6c0-0.3,0-0.5-0.1-0.8c0-0.2-0.1-0.4-0.3-0.6
			c-0.2-0.2-0.4-0.3-0.8-0.4c-0.4-0.1-0.9-0.1-1.5-0.1v-1.9c0.5,0,1,0,1.3-0.1c0.3-0.1,0.6-0.2,0.8-0.3c0.2-0.1,0.3-0.3,0.4-0.5
			c0.1-0.2,0.1-0.4,0.1-0.7c0-0.5-0.1-0.9-0.4-1.2c-0.2-0.3-0.6-0.4-1.1-0.4c-0.2,0-0.4,0-0.6,0.1c-0.2,0.1-0.3,0.1-0.5,0.2
			c-0.1,0.1-0.3,0.2-0.4,0.4c-0.1,0.1-0.2,0.3-0.2,0.4c-0.1,0.3-0.2,0.5-0.4,0.6c-0.1,0.1-0.3,0.2-0.6,0.2c-0.1,0-0.1,0-0.2,0
			c-0.1,0-0.1,0-0.2,0l-1.5-0.3c0.1-0.6,0.3-1.2,0.5-1.7c0.3-0.5,0.6-0.9,1-1.2c0.4-0.3,0.9-0.6,1.4-0.7
			C176.4,677,177,677,177.5,677z"/>
		<path id="XMLID_194_" class="st31" d="M192.2,683.6c0,1.1-0.1,2.1-0.4,2.9c-0.2,0.8-0.6,1.5-1,2.1c-0.4,0.5-0.9,1-1.5,1.2
			c-0.6,0.3-1.2,0.4-1.9,0.4c-0.7,0-1.3-0.1-1.9-0.4c-0.6-0.3-1.1-0.7-1.5-1.2c-0.4-0.5-0.8-1.2-1-2.1c-0.2-0.8-0.4-1.8-0.4-2.9
			c0-1.1,0.1-2.1,0.4-2.9c0.2-0.8,0.6-1.5,1-2.1s0.9-1,1.5-1.2c0.6-0.3,1.2-0.4,1.9-0.4c0.7,0,1.3,0.1,1.9,0.4
			c0.6,0.3,1.1,0.7,1.5,1.2c0.4,0.5,0.8,1.2,1,2.1C192.1,681.5,192.2,682.4,192.2,683.6z M189.4,683.6c0-0.9-0.1-1.6-0.2-2.2
			c-0.1-0.6-0.3-1-0.4-1.3c-0.2-0.3-0.4-0.6-0.6-0.7c-0.2-0.1-0.5-0.2-0.7-0.2s-0.5,0.1-0.7,0.2c-0.2,0.1-0.4,0.3-0.6,0.7
			c-0.2,0.3-0.3,0.8-0.4,1.3c-0.1,0.6-0.2,1.3-0.2,2.2c0,0.9,0.1,1.6,0.2,2.2c0.1,0.6,0.3,1,0.4,1.3c0.2,0.3,0.4,0.6,0.6,0.7
			c0.2,0.1,0.5,0.2,0.7,0.2s0.5-0.1,0.7-0.2s0.4-0.3,0.6-0.7c0.2-0.3,0.3-0.8,0.4-1.3C189.3,685.2,189.4,684.5,189.4,683.6z"/>
	</g>
</g>
<path id="XMLID_191_" class="st0" d="M362.3,633h-46.1c-0.4,0-0.7-0.3-0.7-0.7v-4c0-0.4,0.3-0.7,0.7-0.7h46.1c0.4,0,0.7,0.3,0.7,0.7
	v4C363,632.7,362.7,633,362.3,633z"/>
<g id="XMLID_186_">
	<path id="XMLID_190_" class="st0" d="M424.1,690.8h-19c-6.2,0-11.2-5-11.2-11.2l0,0c0-6.2,5-11.2,11.2-11.2h19
		c6.2,0,11.2,5,11.2,11.2l0,0C435.3,685.7,430.3,690.8,424.1,690.8z"/>
	<circle id="XMLID_189_" class="st2" cx="424.1" cy="679.6" r="9.8"/>
	<g id="XMLID_187_">
		<path id="XMLID_188_" class="st1" d="M423.3,684.3l-3.9-3.9c-0.1-0.1-0.1-0.2,0-0.3l1.6-1.6c0.1-0.1,0.2-0.1,0.3,0l1.9,1.9
			c0.1,0.1,0.2,0.1,0.3,0l4.2-4.2c0.1-0.1,0.2-0.1,0.3,0l1.6,1.6c0.1,0.1,0.1,0.2,0,0.3l-6.1,6.1
			C423.5,684.4,423.4,684.4,423.3,684.3z"/>
	</g>
</g>
<g id="XMLID_251_">
	<path id="XMLID_274_" class="st31" d="M371.5,514.8v6.6h-13.1v36.8h-8.1v-36.8h-13.1v-6.6H371.5z"/>
	<path id="XMLID_276_" class="st31" d="M376.2,558.1v-44.6h7.4v17.1c1.2-1.1,2.5-2.1,4-2.8s3.1-1,5.1-1c1.7,0,3.2,0.3,4.5,0.9
		c1.3,0.6,2.4,1.4,3.3,2.4s1.5,2.3,2,3.7c0.5,1.4,0.7,3,0.7,4.7v19.6h-7.4v-19.6c0-1.9-0.4-3.3-1.3-4.4s-2.2-1.5-3.9-1.5
		c-1.3,0-2.5,0.3-3.6,0.9s-2.2,1.4-3.2,2.4v22.3H376.2z"/>
	<path id="XMLID_278_" class="st31" d="M423.1,526.9c1.9,0,3.7,0.3,5.4,0.9c1.6,0.6,3,1.5,4.2,2.7c1.2,1.2,2.1,2.7,2.8,4.4
		c0.7,1.7,1,3.7,1,5.9c0,0.6,0,1-0.1,1.4s-0.1,0.7-0.3,0.9s-0.3,0.4-0.5,0.4c-0.2,0.1-0.5,0.1-0.8,0.1h-19c0.2,3.2,1.1,5.5,2.5,7
		s3.4,2.2,5.9,2.2c1.2,0,2.2-0.1,3.1-0.4c0.9-0.3,1.6-0.6,2.3-0.9s1.2-0.7,1.7-0.9c0.5-0.3,1-0.4,1.4-0.4c0.3,0,0.6,0.1,0.8,0.2
		c0.2,0.1,0.4,0.3,0.6,0.5l2.2,2.7c-0.8,1-1.7,1.8-2.8,2.4c-1,0.7-2.1,1.2-3.2,1.6c-1.1,0.4-2.2,0.7-3.4,0.8s-2.3,0.2-3.3,0.2
		c-2.1,0-4.1-0.4-6-1.1c-1.8-0.7-3.4-1.8-4.8-3.1c-1.4-1.4-2.4-3.1-3.2-5.2c-0.8-2-1.2-4.4-1.2-7.1c0-2.1,0.3-4.1,1-5.9
		c0.7-1.8,1.7-3.5,2.9-4.8c1.3-1.4,2.8-2.5,4.6-3.3C418.7,527.3,420.8,526.9,423.1,526.9z M423.2,532.2c-2.2,0-3.9,0.6-5.1,1.8
		s-2,3-2.3,5.2h13.9c0-1-0.1-1.9-0.4-2.7c-0.3-0.8-0.7-1.6-1.2-2.2c-0.5-0.6-1.2-1.1-2-1.5C425.3,532.4,424.3,532.2,423.2,532.2z"/>
	<path id="XMLID_281_" class="st31" d="M442.4,558.1v-30.8h4.5c1,0,1.6,0.5,1.9,1.3l0.5,2.4c0.6-0.6,1.3-1.2,2-1.7
		c0.7-0.5,1.4-1,2.2-1.3c0.8-0.4,1.6-0.7,2.5-0.9c0.9-0.2,1.8-0.3,2.9-0.3c1.7,0,3.2,0.3,4.5,0.9c1.3,0.6,2.4,1.4,3.3,2.4
		s1.5,2.3,2,3.7c0.5,1.4,0.7,3,0.7,4.7v19.6h-7.4v-19.6c0-1.9-0.4-3.3-1.3-4.4s-2.2-1.5-3.9-1.5c-1.3,0-2.5,0.3-3.6,0.9
		s-2.2,1.4-3.2,2.4v22.3H442.4z"/>
</g>
<path id="XMLID_25_" class="st33" d="M783.7,621.9c-7.1-13.4-21.2-22.5-37.4-22.5c-23.4,0-42.3,18.9-42.3,42.3s18.9,42.3,42.3,42.3
	c23,0,41.7-18.4,42.3-41.3l18.1-20.8L783.7,621.9L783.7,621.9L783.7,621.9z"/>
<g id="XMLID_354_">
	<path id="XMLID_24_" class="st1" d="M745.9,660.2c2.4,0,4.3-1.9,4.3-4.3h-8.6C741.6,658.2,743.5,660.2,745.9,660.2z"/>
	<path id="XMLID_13_" class="st1" d="M762.8,651c-3.8,0-6.5-0.9-6.5-11.6v-3.3c0-4.9-3.4-9-8-10.2c-0.2-1.2-1.2-2.2-2.5-2.2
		s-2.3,1-2.5,2.2c-4.6,1.1-8,5.2-8,10.2v3.3c0,10.7-2.7,11.6-6.5,11.6c-1.6,0-1.7,3.2,0,3.2h33.9C764.5,654.2,764.4,651,762.8,651z"
		/>
</g>
<g id="XMLID_162_">
	<path id="XMLID_165_" class="st1" d="M295.9,280.5H85.3c-0.4,0-0.8-0.4-0.8-0.8v-50c0-0.4,0.4-0.8,0.8-0.8h210.5
		c0.4,0,0.8,0.4,0.8,0.8v50C296.7,280.2,296.3,280.5,295.9,280.5z"/>
	<path id="XMLID_164_" class="st0" d="M127.6,272.8H93.1c-0.4,0-0.8-0.4-0.8-0.8v-34.5c0-0.4,0.4-0.8,0.8-0.8h34.5
		c0.4,0,0.8,0.4,0.8,0.8V272C128.4,272.4,128,272.8,127.6,272.8z"/>
	<path id="XMLID_163_" class="st0" d="M221.6,259.2h-79.4c-0.6,0-1.1-0.5-1.1-1.1v-6.9c0-0.6,0.5-1.1,1.1-1.1h79.4
		c0.6,0,1.1,0.5,1.1,1.1v6.9C222.8,258.7,222.3,259.2,221.6,259.2z"/>
</g>
<g id="XMLID_158_">
	<path id="XMLID_161_" class="st1" d="M519.2,280.5H308.6c-0.4,0-0.8-0.4-0.8-0.8v-50c0-0.4,0.4-0.8,0.8-0.8h210.5
		c0.4,0,0.8,0.4,0.8,0.8v50C520,280.2,519.6,280.5,519.2,280.5z"/>
	<path id="XMLID_160_" class="st0" d="M350.9,272.8h-34.5c-0.4,0-0.8-0.4-0.8-0.8v-34.5c0-0.4,0.4-0.8,0.8-0.8h34.5
		c0.4,0,0.8,0.4,0.8,0.8V272C351.7,272.4,351.3,272.8,350.9,272.8z"/>
	<path id="XMLID_159_" class="st0" d="M444.9,259.2h-79.4c-0.6,0-1.1-0.5-1.1-1.1v-6.9c0-0.6,0.5-1.1,1.1-1.1h79.4
		c0.6,0,1.1,0.5,1.1,1.1v6.9C446.1,258.7,445.6,259.2,444.9,259.2z"/>
</g>
<path id="XMLID_173_" class="st1" d="M295.9,215.6H85.3c-0.4,0-0.8-0.4-0.8-0.8v-50c0-0.4,0.4-0.8,0.8-0.8h210.5
	c0.4,0,0.8,0.4,0.8,0.8v50C296.7,215.3,296.3,215.6,295.9,215.6z"/>
<path id="XMLID_239_" class="st26" d="M203.2,187H194v-9.1c0-0.3,0.1-0.9-0.2-0.9h-4.4c-0.3,0-0.4,0.7-0.4,0.9v9.1h-8.9
	c-0.3,0-0.1,0-0.1,0.3v4.4c0,0.3-0.2,0.3,0.1,0.3h8.9v9.1c0,0.3,0.1,0.9,0.4,0.9h4.4c0.3,0,0.2-0.7,0.2-0.9V192h9.2
	c0.3,0,0.8,0,0.8-0.3v-4.4C204,187,203.4,187,203.2,187z"/>
<g id="XMLID_166_">
	<path id="XMLID_169_" class="st1" d="M519.2,215.6H308.6c-0.4,0-0.8-0.4-0.8-0.8v-50c0-0.4,0.4-0.8,0.8-0.8h210.5
		c0.4,0,0.8,0.4,0.8,0.8v50C520,215.3,519.6,215.6,519.2,215.6z"/>
	<path id="XMLID_168_" class="st0" d="M350.9,207.9h-34.5c-0.4,0-0.8-0.4-0.8-0.8v-34.5c0-0.4,0.4-0.8,0.8-0.8h34.5
		c0.4,0,0.8,0.4,0.8,0.8v34.5C351.7,207.5,351.3,207.9,350.9,207.9z"/>
	<path id="XMLID_167_" class="st0" d="M444.9,194.3h-79.4c-0.6,0-1.1-0.5-1.1-1.1v-6.9c0-0.6,0.5-1.1,1.1-1.1h79.4
		c0.6,0,1.1,0.5,1.1,1.1v6.9C446.1,193.8,445.6,194.3,444.9,194.3z"/>
</g>
</svg>
