<?xml version="1.0" encoding="utf-8"?>
<!-- Generator: Adobe Illustrator 17.0.0, SVG Export Plug-In . SVG Version: 6.00 Build 0)  -->
<!DOCTYPE svg PUBLIC "-//W3C//DTD SVG 1.1//EN" "http://www.w3.org/Graphics/SVG/1.1/DTD/svg11.dtd">
<svg version="1.1" id="Layer_1" xmlns="http://www.w3.org/2000/svg" xmlns:xlink="http://www.w3.org/1999/xlink" x="0px" y="0px"
	 width="600px" height="400px" viewBox="0 0 600 400" style="enable-background:new 0 0 600 400;" xml:space="preserve">
<style type="text/css">
	.st0{fill:#EDEDED;}
	.st1{fill:#FFFFFF;}
	.st2{fill:#48D1A4;}
	.st3{fill:#43C399;}
	.st4{fill:#3BAB86;}
	.st5{fill:#B4CF53;}
	.st6{fill:#A8C14D;}
	.st7{fill:#93A943;}
	.st8{fill:#FFCD5F;}
	.st9{fill:#F4C45B;}
	.st10{fill:#DCB152;}
	.st11{fill:#FF9E5C;}
	.st12{fill:#FF855A;}
	.st13{fill:#E77851;}
	.st14{fill:#FF6B5C;}
	.st15{fill:#F16557;}
	.st16{fill:#D95B4E;}
	.st17{fill:#FB527A;}
	.st18{fill:#ED4D73;}
	.st19{fill:#D54567;}
	.st20{fill:#9A6FD6;}
	.st21{fill:#9068C8;}
	.st22{fill:#7F5BB0;}
	.st23{fill:#61717B;}
	.st24{fill:#56646D;}
	.st25{fill:#434E55;}
	.st26{fill:#2877EE;}
	.st27{fill:#2670E0;}
	.st28{fill:#27CFE3;}
	.st29{fill:#25C2D5;}
	.st30{fill:#21ACBD;}
	.st31{fill:#DDDDDD;}
	.st32{fill:#CECECE;}
	.st33{fill:#F96353;}
</style>
<path id="XMLID_1_" class="st0" d="M-59.6-49h-538.5c-3.2,0-5.7-2.6-5.7-5.7v-345.2c0-3.2,2.6-5.7,5.7-5.7h538.5
	c3.2,0,5.7,2.6,5.7,5.7v345.2C-53.9-51.6-56.5-49-59.6-49z"/>
<path id="XMLID_2_" class="st1" d="M-111.2-278.7h-433.1c-0.6,0-1.1-0.5-1.1-1.1v-89.4c0-0.6,0.5-1.1,1.1-1.1h433.1
	c0.6,0,1.1,0.5,1.1,1.1v89.4C-110-279.3-110.6-278.7-111.2-278.7z"/>
<path id="XMLID_4_" class="st0" d="M-346.6-315.5h-88.6c-0.6,0-1.1-0.5-1.1-1.1v-13c0-0.6,0.5-1.1,1.1-1.1h88.6
	c0.6,0,1.1,0.5,1.1,1.1v13C-345.5-316-346-315.5-346.6-315.5z"/>
<g id="XMLID_26_">
	<path id="XMLID_23_" class="st1" d="M-334.1-84.5h-210.5c-0.4,0-0.8-0.4-0.8-0.8v-50c0-0.4,0.4-0.8,0.8-0.8h210.5
		c0.4,0,0.8,0.4,0.8,0.8v50C-333.3-84.9-333.7-84.5-334.1-84.5z"/>
	<path id="XMLID_22_" class="st0" d="M-502.4-92.3h-34.5c-0.4,0-0.8-0.4-0.8-0.8v-34.5c0-0.4,0.4-0.8,0.8-0.8h34.5
		c0.4,0,0.8,0.4,0.8,0.8v34.5C-501.6-92.6-502-92.3-502.4-92.3z"/>
	<path id="XMLID_21_" class="st0" d="M-408.4-105.8h-79.4c-0.6,0-1.1-0.5-1.1-1.1v-6.9c0-0.6,0.5-1.1,1.1-1.1h79.4
		c0.6,0,1.1,0.5,1.1,1.1v6.9C-407.2-106.3-407.7-105.8-408.4-105.8z"/>
</g>
<g id="XMLID_154_">
	<path id="XMLID_157_" class="st1" d="M-110.8-84.5h-210.5c-0.4,0-0.8-0.4-0.8-0.8v-50c0-0.4,0.4-0.8,0.8-0.8h210.5
		c0.4,0,0.8,0.4,0.8,0.8v50C-110-84.9-110.4-84.5-110.8-84.5z"/>
	<path id="XMLID_156_" class="st0" d="M-279.1-92.3h-34.5c-0.4,0-0.8-0.4-0.8-0.8v-34.5c0-0.4,0.4-0.8,0.8-0.8h34.5
		c0.4,0,0.8,0.4,0.8,0.8v34.5C-278.3-92.6-278.7-92.3-279.1-92.3z"/>
	<path id="XMLID_155_" class="st0" d="M-185.1-105.8h-79.4c-0.6,0-1.1-0.5-1.1-1.1v-6.9c0-0.6,0.5-1.1,1.1-1.1h79.4
		c0.6,0,1.1,0.5,1.1,1.1v6.9C-183.9-106.3-184.4-105.8-185.1-105.8z"/>
</g>
<g id="XMLID_61_">
	<path id="XMLID_59_" class="st2" d="M-900.8-327.7c-7.3-2.4-14.9-3.6-22.6-3.6s-15.3,1.2-22.6,3.6l-0.3,0.1l-11.5-35.5l0.3-0.1
		c11-3.6,22.5-5.4,34.1-5.4c11.6,0,23.1,1.8,34.1,5.4l0.3,0.1l-11.5,35.5L-900.8-327.7z"/>
	<path id="XMLID_58_" class="st3" d="M-912.1-292.8c-3.7-1.2-7.4-1.8-11.2-1.8c-3.8,0-7.6,0.6-11.2,1.8l-0.3,0.1l-11.5-35.5l0.3-0.1
		c7.4-2.4,15-3.6,22.8-3.6c7.7,0,15.4,1.2,22.8,3.6l0.3,0.1l-11.5,35.5L-912.1-292.8z"/>
	<path id="XMLID_57_" class="st4" d="M-935.1-293.3l0.3-0.1c3.7-1.2,7.6-1.8,11.4-1.8c3.9,0,7.7,0.6,11.4,1.8l0.3,0.1l-11.7,36.1
		L-935.1-293.3z"/>
	<path id="XMLID_56_" class="st5" d="M-864.3-301.1c-9-12.4-22-21.8-36.5-26.5l-0.3-0.1l11.5-35.5l0.3,0.1
		c21.9,7.1,41.5,21.3,55.2,40.1l0.2,0.3l-30.2,21.9L-864.3-301.1z"/>
	<path id="XMLID_55_" class="st6" d="M-893.9-279.6c-4.6-6.3-10.8-10.8-18.1-13.2l-0.3-0.1l11.5-35.5l0.3,0.1
		c14.6,4.7,27.7,14.3,36.8,26.8l0.2,0.3l-30.2,21.9L-893.9-279.6z"/>
	<path id="XMLID_54_" class="st7" d="M-912.2-293.5l0.3,0.1c7.4,2.4,13.8,7.1,18.5,13.4l0.2,0.3l-30.7,22.3L-912.2-293.5z"/>
	<path id="XMLID_53_" class="st8" d="M-850.3-257.9v-0.3c0-15.5-4.8-30.4-13.9-42.9l-0.2-0.3l30.2-21.9l0.2,0.3
		c13.8,18.9,21.1,41.4,21.1,64.8v0.3H-850.3z"/>
	<path id="XMLID_52_" class="st9" d="M-887-257.9v-0.3c0-7.7-2.4-15.1-7-21.3l-0.2-0.3l30.2-21.9l0.2,0.3
		c9.2,12.6,14.1,27.6,14.1,43.3v0.3H-887z"/>
	<path id="XMLID_51_" class="st10" d="M-924.3-257.9l30.7-22.3l0.2,0.3c4.6,6.4,7.1,13.9,7.1,21.7v0.3H-924.3z"/>
	<path id="XMLID_50_" class="st11" d="M-864.4-215l0.2-0.3c9.1-12.5,13.9-27.4,13.9-42.9v-0.3h37.3v0.3c0,23.5-7.3,45.9-21.1,64.8
		l-0.2,0.3L-864.4-215z"/>
	<path id="XMLID_49_" class="st12" d="M-894.1-236.6l0.2-0.3c4.6-6.3,7-13.6,7-21.3v-0.3h37.3v0.3c0,15.7-4.9,30.6-14.1,43.3
		l-0.2,0.3L-894.1-236.6z"/>
	<path id="XMLID_48_" class="st13" d="M-924.3-258.5h38v0.3c0,7.8-2.5,15.3-7.1,21.7l-0.2,0.3L-924.3-258.5z"/>
	<path id="XMLID_47_" class="st14" d="M-901.1-188.7l0.3-0.1c14.5-4.7,27.5-14.1,36.5-26.5l0.2-0.3l30.2,21.9l-0.2,0.3
		c-13.6,18.7-33.2,33-55.2,40.1l-0.3,0.1L-901.1-188.7z"/>
	<path id="XMLID_46_" class="st15" d="M-912.4-223.6l0.3-0.1c7.3-2.4,13.6-6.9,18.1-13.2l0.2-0.3l30.2,21.9l-0.2,0.3
		c-9.1,12.5-22.2,22-36.8,26.8l-0.3,0.1L-912.4-223.6z"/>
	<path id="XMLID_45_" class="st16" d="M-923.9-259.1l30.7,22.3l-0.2,0.3c-4.6,6.4-11,11-18.5,13.4l-0.3,0.1L-923.9-259.1z"/>
	<path id="XMLID_44_" class="st17" d="M-923.3-147.9c-11.6,0-23.1-1.8-34.1-5.4l-0.3-0.1l11.5-35.5l0.3,0.1
		c7.3,2.4,14.9,3.6,22.6,3.6c7.7,0,15.3-1.2,22.6-3.6l0.3-0.1l11.5,35.5l-0.3,0.1C-900.3-149.7-911.7-147.9-923.3-147.9z"/>
	<path id="XMLID_43_" class="st18" d="M-923.3-184.6c-7.7,0-15.4-1.2-22.8-3.6l-0.3-0.1l11.5-35.5l0.3,0.1c3.7,1.2,7.4,1.8,11.2,1.8
		c3.8,0,7.6-0.6,11.2-1.8l0.3-0.1l11.5,35.5l-0.3,0.1C-907.9-185.8-915.6-184.6-923.3-184.6z"/>
	<path id="XMLID_42_" class="st19" d="M-923.3-221.2c-3.9,0-7.7-0.6-11.4-1.8l-0.3-0.1l11.7-36.1l11.7,36.1l-0.3,0.1
		C-915.6-221.8-919.5-221.2-923.3-221.2z"/>
	<path id="XMLID_41_" class="st20" d="M-957.4-153.3c-21.9-7.1-41.5-21.3-55.2-40.1l-0.2-0.3l30.2-21.9l0.2,0.3
		c9,12.4,22,21.8,36.5,26.5l0.3,0.1l-11.5,35.5L-957.4-153.3z"/>
	<path id="XMLID_40_" class="st21" d="M-946.1-188.2c-14.6-4.8-27.7-14.3-36.8-26.8l-0.2-0.3l30.2-21.9l0.2,0.3
		c4.6,6.3,10.8,10.8,18.1,13.2l0.3,0.1l-11.5,35.5L-946.1-188.2z"/>
	<path id="XMLID_39_" class="st22" d="M-934.7-223.1c-7.4-2.4-13.8-7.1-18.5-13.4l-0.2-0.3l30.7-22.3l-11.7,36.1L-934.7-223.1z"/>
	<path id="XMLID_38_" class="st23" d="M-1012.6-193.4c-13.8-18.9-21.1-41.4-21.1-64.8v-0.3h37.3v0.3c0,15.5,4.8,30.4,13.9,42.9
		l0.2,0.3l-30.2,21.9L-1012.6-193.4z"/>
	<path id="XMLID_37_" class="st24" d="M-982.9-214.9c-9.2-12.6-14.1-27.6-14.1-43.3v-0.3h37.3v0.3c0,7.7,2.4,15.1,7,21.3l0.2,0.3
		l-30.2,21.9L-982.9-214.9z"/>
	<path id="XMLID_36_" class="st25" d="M-953.2-236.5c-4.6-6.4-7.1-13.9-7.1-21.7v-0.3h38l-30.7,22.3L-953.2-236.5z"/>
	<path id="XMLID_35_" class="st26" d="M-1033.6-257.9v-0.3c0-23.5,7.3-45.9,21.1-64.8l0.2-0.3l30.2,21.9l-0.2,0.3
		c-9.1,12.5-13.9,27.4-13.9,42.9v0.3H-1033.6z"/>
	<path id="XMLID_34_" class="st27" d="M-997-257.9v-0.3c0-15.7,4.9-30.6,14.1-43.3l0.2-0.3l30.2,21.9l-0.2,0.3
		c-4.6,6.3-7,13.6-7,21.3v0.3H-997z"/>
	<path id="XMLID_33_" class="st26" d="M-960.3-257.9v-0.3c0-7.8,2.5-15.3,7.1-21.7l0.2-0.3l30.7,22.3H-960.3z"/>
	<path id="XMLID_32_" class="st28" d="M-1012.8-322.8l0.2-0.3c13.6-18.7,33.2-33,55.2-40.1l0.3-0.1l11.5,35.5l-0.3,0.1
		c-14.5,4.7-27.5,14.1-36.5,26.5l-0.2,0.3L-1012.8-322.8z"/>
	<path id="XMLID_31_" class="st29" d="M-983.1-301.2l0.2-0.3c9.1-12.5,22.2-22,36.8-26.8l0.3-0.1l11.5,35.5l-0.3,0.1
		c-7.3,2.4-13.6,6.9-18.1,13.2l-0.2,0.3L-983.1-301.2z"/>
	<path id="XMLID_30_" class="st30" d="M-953.4-279.7l0.2-0.3c4.6-6.4,11-11,18.5-13.4l0.3-0.1l11.7,36.1L-953.4-279.7z"/>
</g>
<path id="XMLID_320_" class="st0" d="M569.5-81H53c-3.1,0-5.6-2.5-5.6-5.6V-362c0-3.1,2.5-5.6,5.6-5.6h516.4c3.1,0,5.6,2.5,5.6,5.6
	v275.4C575.1-83.5,572.6-81,569.5-81z"/>
<path id="XMLID_319_" class="st1" d="M542.8-243.7H109.7c-0.6,0-1.1-0.5-1.1-1.1v-89.4c0-0.6,0.5-1.1,1.1-1.1h433.1
	c0.6,0,1.1,0.5,1.1,1.1v89.4C544-244.3,543.4-243.7,542.8-243.7z"/>
<path id="XMLID_318_" class="st0" d="M190.1-252.9h-71.5c-0.5,0-0.9-0.4-0.9-0.9v-71.5c0-0.5,0.4-0.9,0.9-0.9h71.5
	c0.5,0,0.9,0.4,0.9,0.9v71.5C191-253.3,190.6-252.9,190.1-252.9z"/>
<path id="XMLID_317_" class="st0" d="M301.4-283.5h-88.6c-0.6,0-1.1-0.5-1.1-1.1v-13c0-0.6,0.5-1.1,1.1-1.1h88.6
	c0.6,0,1.1,0.5,1.1,1.1v13C302.5-284,302-283.5,301.4-283.5z"/>
<path id="XMLID_537_" class="st0" d="M523.4-283.5H509c-0.3,0-0.5-0.2-0.5-0.5v-14.3c0-0.3,0.2-0.5,0.5-0.5h14.4
	c0.3,0,0.5,0.2,0.5,0.5v14.3C523.9-283.7,523.7-283.5,523.4-283.5z"/>
<path id="XMLID_316_" class="st1" d="M244.1-112H109.5c-0.5,0-1-0.4-1-1v-117c0-0.5,0.4-1,1-1h134.6c0.5,0,1,0.4,1,1v117
	C245.1-112.4,244.7-112,244.1-112z"/>
<path id="XMLID_302_" class="st1" d="M393.6-112H258.9c-0.5,0-1-0.4-1-1v-117c0-0.5,0.4-1,1-1h134.6c0.5,0,1,0.4,1,1v117
	C394.5-112.4,394.1-112,393.6-112z"/>
<path id="XMLID_314_" class="st0" d="M164.3-217h-46.1c-0.4,0-0.7-0.3-0.7-0.7v-4c0-0.4,0.3-0.7,0.7-0.7h46.1c0.4,0,0.7,0.3,0.7,0.7
	v4C165-217.3,164.7-217,164.3-217z"/>
<path id="XMLID_353_" class="st0" d="M-59.6,381h-538.5c-3.2,0-5.7-2.6-5.7-5.7V30.1c0-3.2,2.6-5.7,5.7-5.7h538.5
	c3.2,0,5.7,2.6,5.7,5.7v345.2C-53.9,378.4-56.5,381-59.6,381z"/>
<path id="XMLID_386_" class="st0" d="M480.4,381H124.8c-3.2,0-5.7-2.6-5.7-5.7V30.1c0-3.2,2.6-5.7,5.7-5.7h355.5
	c3.2,0,5.7,2.6,5.7,5.7v345.2C486.1,378.4,483.5,381,480.4,381z"/>
<path id="XMLID_382_" class="st1" d="M431.2,319.7H188c-1.2,0-2.1-0.9-2.1-2.1V90.1c0-1.2,0.9-2.1,2.1-2.1h243.2
	c1.2,0,2.1,0.9,2.1,2.1v227.5C433.3,318.7,432.4,319.7,431.2,319.7z"/>
<path id="XMLID_381_" class="st0" d="M233.9,137.8h-34.5c-0.4,0-0.8-0.4-0.8-0.8v-34.5c0-0.4,0.4-0.8,0.8-0.8h34.5
	c0.4,0,0.8,0.4,0.8,0.8V137C234.7,137.4,234.3,137.8,233.9,137.8z"/>
<g id="XMLID_75_">
	<path id="XMLID_380_" class="st31" d="M293.9,116.6h-45.7c-0.4,0-0.8-0.4-0.8-0.8v-6c0-0.4,0.4-0.8,0.8-0.8h45.7
		c0.4,0,0.8,0.4,0.8,0.8v6C294.7,116.2,294.4,116.6,293.9,116.6z"/>
	<path id="XMLID_355_" class="st31" d="M314.7,123.6H248c-0.3,0-0.6-0.3-0.6-0.6V121c0-0.3,0.3-0.6,0.6-0.6h66.7
		c0.3,0,0.6,0.3,0.6,0.6v1.9C315.3,123.3,315.1,123.6,314.7,123.6z"/>
	<path id="XMLID_73_" class="st31" d="M356.5,130.6H248.2c-0.4,0-0.8-0.3-0.8-0.8v-1.6c0-0.4,0.3-0.8,0.8-0.8h108.4
		c0.4,0,0.8,0.3,0.8,0.8v1.6C357.3,130.2,357,130.6,356.5,130.6z"/>
</g>
<g id="XMLID_77_">
	<path id="XMLID_80_" class="st31" d="M328,172.3h-79.5c-0.6,0-1-0.5-1-1v-5.5c0-0.6,0.5-1,1-1H328c0.6,0,1,0.5,1,1v5.5
		C329,171.9,328.5,172.3,328,172.3z"/>
	<path id="XMLID_79_" class="st31" d="M287.7,179.3h-39.9c-0.3,0-0.5-0.2-0.5-0.5v-2.2c0-0.3,0.2-0.5,0.5-0.5h39.9
		c0.3,0,0.5,0.2,0.5,0.5v2.2C288.2,179.1,288,179.3,287.7,179.3z"/>
	<path id="XMLID_78_" class="st31" d="M398.1,186.3H248.3c-0.5,0-0.9-0.4-0.9-0.9v-1.3c0-0.5,0.4-0.9,0.9-0.9h149.8
		c0.5,0,0.9,0.4,0.9,0.9v1.3C399,185.9,398.6,186.3,398.1,186.3z"/>
</g>
<g id="XMLID_81_">
	<path id="XMLID_84_" class="st31" d="M278.4,228.1H248c-0.4,0-0.6-0.3-0.6-0.6v-6.2c0-0.4,0.3-0.6,0.6-0.6h30.3
		c0.4,0,0.6,0.3,0.6,0.6v6.2C279,227.8,278.7,228.1,278.4,228.1z"/>
	<path id="XMLID_83_" class="st31" d="M339.9,235.1h-91.8c-0.4,0-0.7-0.3-0.7-0.7v-1.7c0-0.4,0.3-0.7,0.7-0.7h91.8
		c0.4,0,0.7,0.3,0.7,0.7v1.7C340.7,234.8,340.3,235.1,339.9,235.1z"/>
	<path id="XMLID_82_" class="st31" d="M310.1,242.1H248c-0.3,0-0.6-0.3-0.6-0.6v-2c0-0.3,0.3-0.6,0.6-0.6h62.1
		c0.3,0,0.6,0.3,0.6,0.6v2C310.7,241.8,310.4,242.1,310.1,242.1z"/>
</g>
<path id="XMLID_378_" class="st0" d="M233.9,192.7h-34.5c-0.4,0-0.8-0.4-0.8-0.8v-34.5c0-0.4,0.4-0.8,0.8-0.8h34.5
	c0.4,0,0.8,0.4,0.8,0.8v34.5C234.7,192.4,234.3,192.7,233.9,192.7z"/>
<path id="XMLID_375_" class="st0" d="M233.9,247.6h-34.5c-0.4,0-0.8-0.4-0.8-0.8v-34.5c0-0.4,0.4-0.8,0.8-0.8h34.5
	c0.4,0,0.8,0.4,0.8,0.8v34.5C234.7,247.3,234.3,247.6,233.9,247.6z"/>
<g id="XMLID_86_">
	<path id="XMLID_89_" class="st31" d="M278.4,280.5H248c-0.4,0-0.6-0.3-0.6-0.6v-6.2c0-0.4,0.3-0.6,0.6-0.6h30.3
		c0.4,0,0.6,0.3,0.6,0.6v6.2C279,280.2,278.7,280.5,278.4,280.5z"/>
	<path id="XMLID_88_" class="st31" d="M339.9,287.5h-91.8c-0.4,0-0.7-0.3-0.7-0.7V285c0-0.4,0.3-0.7,0.7-0.7h91.8
		c0.4,0,0.7,0.3,0.7,0.7v1.7C340.7,287.2,340.3,287.5,339.9,287.5z"/>
	<path id="XMLID_87_" class="st31" d="M310.1,294.5H248c-0.3,0-0.6-0.3-0.6-0.6v-2c0-0.3,0.3-0.6,0.6-0.6h62.1
		c0.3,0,0.6,0.3,0.6,0.6v2C310.7,294.2,310.4,294.5,310.1,294.5z"/>
</g>
<path id="XMLID_85_" class="st0" d="M233.9,300h-34.5c-0.4,0-0.8-0.4-0.8-0.8v-34.5c0-0.4,0.4-0.8,0.8-0.8h34.5
	c0.4,0,0.8,0.4,0.8,0.8v34.5C234.7,299.7,234.3,300,233.9,300z"/>
<g id="XMLID_315_">
	<path id="XMLID_305_" class="st0" d="M207.1-167.4c0,17.5-14.2,31.7-31.7,31.7s-31.7-14.2-31.7-31.7s14.2-31.7,31.7-31.7
		S207.1-184.9,207.1-167.4z M175.4-192.5c-13.8,0-25,11.2-25,25c0,13.8,11.2,25,25,25c13.8,0,25-11.2,25-25
		C200.5-181.2,189.2-192.5,175.4-192.5z"/>
	<path id="XMLID_444_" class="st8" d="M150.4-167.4c0-7.3,3.1-13.9,8.1-18.5h-8.8c-3.7,5.2-5.9,11.6-5.9,18.5
		c0,17.2,13.8,31.3,30.9,31.6v-6.6C161.2-142.8,150.4-153.8,150.4-167.4z"/>
	<circle id="XMLID_306_" class="st9" cx="154.8" cy="-187.1" r="6.4"/>
	<g id="XMLID_454_">
		<path id="XMLID_455_" class="st31" d="M170.5-173c0.6,0,1.2,0.1,1.7,0.3c0.5,0.2,0.9,0.4,1.3,0.7c0.3,0.3,0.6,0.7,0.8,1.1
			c0.2,0.4,0.3,0.8,0.3,1.3c0,0.4,0,0.8-0.1,1.1c-0.1,0.3-0.2,0.6-0.4,0.8c-0.2,0.2-0.4,0.4-0.6,0.6c-0.2,0.2-0.5,0.3-0.8,0.4
			c1.4,0.5,2.2,1.5,2.2,2.9c0,0.7-0.1,1.3-0.4,1.8c-0.3,0.5-0.6,0.9-1,1.3c-0.4,0.3-0.9,0.6-1.5,0.8c-0.6,0.2-1.1,0.3-1.7,0.3
			c-0.6,0-1.2-0.1-1.6-0.2s-0.9-0.3-1.3-0.6c-0.4-0.3-0.7-0.6-1-1.1c-0.3-0.4-0.5-1-0.7-1.6l1.2-0.5c0.1,0,0.2-0.1,0.3-0.1
			c0.1,0,0.2,0,0.3,0c0.2,0,0.4,0,0.5,0.1c0.2,0.1,0.3,0.2,0.3,0.3c0.3,0.5,0.6,0.9,0.9,1.1c0.3,0.2,0.7,0.3,1.1,0.3
			c0.3,0,0.6-0.1,0.8-0.2c0.2-0.1,0.4-0.2,0.6-0.4c0.2-0.2,0.3-0.3,0.3-0.6c0.1-0.2,0.1-0.4,0.1-0.6c0-0.3,0-0.5-0.1-0.8
			c0-0.2-0.1-0.4-0.3-0.6c-0.2-0.2-0.4-0.3-0.8-0.4c-0.4-0.1-0.9-0.1-1.5-0.1v-1.9c0.5,0,1,0,1.3-0.1c0.3-0.1,0.6-0.2,0.8-0.3
			c0.2-0.1,0.3-0.3,0.4-0.5c0.1-0.2,0.1-0.4,0.1-0.7c0-0.5-0.1-0.9-0.4-1.2c-0.2-0.3-0.6-0.4-1.1-0.4c-0.2,0-0.4,0-0.6,0.1
			c-0.2,0.1-0.3,0.1-0.5,0.2c-0.1,0.1-0.3,0.2-0.4,0.4c-0.1,0.1-0.2,0.3-0.2,0.4c-0.1,0.3-0.2,0.5-0.4,0.6c-0.1,0.1-0.3,0.2-0.6,0.2
			c-0.1,0-0.1,0-0.2,0c-0.1,0-0.1,0-0.2,0l-1.5-0.3c0.1-0.6,0.3-1.2,0.5-1.7c0.3-0.5,0.6-0.9,1-1.2c0.4-0.3,0.9-0.6,1.4-0.7
			C169.4-173,170-173,170.5-173z"/>
		<path id="XMLID_457_" class="st31" d="M185.2-166.4c0,1.1-0.1,2.1-0.4,2.9c-0.2,0.8-0.6,1.5-1,2.1c-0.4,0.5-0.9,1-1.5,1.2
			c-0.6,0.3-1.2,0.4-1.9,0.4c-0.7,0-1.3-0.1-1.9-0.4c-0.6-0.3-1.1-0.7-1.5-1.2c-0.4-0.5-0.8-1.2-1-2.1c-0.2-0.8-0.4-1.8-0.4-2.9
			s0.1-2.1,0.4-2.9c0.2-0.8,0.6-1.5,1-2.1s0.9-1,1.5-1.2c0.6-0.3,1.2-0.4,1.9-0.4c0.7,0,1.3,0.1,1.9,0.4c0.6,0.3,1.1,0.7,1.5,1.2
			c0.4,0.5,0.8,1.2,1,2.1C185.1-168.5,185.2-167.6,185.2-166.4z M182.4-166.4c0-0.9-0.1-1.6-0.2-2.2c-0.1-0.6-0.3-1-0.4-1.3
			c-0.2-0.3-0.4-0.6-0.6-0.7c-0.2-0.1-0.5-0.2-0.7-0.2s-0.5,0.1-0.7,0.2c-0.2,0.1-0.4,0.3-0.6,0.7c-0.2,0.3-0.3,0.8-0.4,1.3
			c-0.1,0.6-0.2,1.3-0.2,2.2c0,0.9,0.1,1.6,0.2,2.2c0.1,0.6,0.3,1,0.4,1.3c0.2,0.3,0.4,0.6,0.6,0.7c0.2,0.1,0.5,0.2,0.7,0.2
			s0.5-0.1,0.7-0.2s0.4-0.3,0.6-0.7s0.3-0.8,0.4-1.3C182.3-164.8,182.4-165.5,182.4-166.4z"/>
	</g>
</g>
<path id="XMLID_472_" class="st0" d="M313.3-217h-46.1c-0.4,0-0.7-0.3-0.7-0.7v-4c0-0.4,0.3-0.7,0.7-0.7h46.1c0.4,0,0.7,0.3,0.7,0.7
	v4C314-217.3,313.7-217,313.3-217z"/>
<path id="XMLID_3_" class="st0" d="M-463.9-287.9h-71.5c-0.5,0-0.9-0.4-0.9-0.9v-71.5c0-0.5,0.4-0.9,0.9-0.9h71.5
	c0.5,0,0.9,0.4,0.9,0.9v71.5C-463-288.3-463.4-287.9-463.9-287.9z"/>
<g id="XMLID_488_">
	<path id="XMLID_453_" class="st0" d="M334.1-159.2h-19c-6.2,0-11.2-5-11.2-11.2v0c0-6.2,5-11.2,11.2-11.2h19
		c6.2,0,11.2,5,11.2,11.2v0C345.3-164.3,340.3-159.2,334.1-159.2z"/>
	<circle id="XMLID_473_" class="st2" cx="334.1" cy="-170.4" r="9.8"/>
	<g id="XMLID_487_">
		<path id="XMLID_489_" class="st1" d="M333.3-165.7l-3.9-3.9c-0.1-0.1-0.1-0.2,0-0.3l1.6-1.6c0.1-0.1,0.2-0.1,0.3,0l1.9,1.9
			c0.1,0.1,0.2,0.1,0.3,0l4.2-4.2c0.1-0.1,0.2-0.1,0.3,0l1.6,1.6c0.1,0.1,0.1,0.2,0,0.3l-6.1,6.1
			C333.5-165.6,333.4-165.6,333.3-165.7z"/>
	</g>
</g>
<circle id="XMLID_539_" class="st32" cx="47.4" cy="-220.8" r="22.8"/>
<circle id="XMLID_547_" class="st1" cx="47.4" cy="-220.8" r="18.8"/>
<g id="XMLID_543_">
	<circle id="XMLID_546_" class="st32" cx="108.8" cy="-220.5" r="4.7"/>
	<circle id="XMLID_545_" class="st32" cx="94.8" cy="-220.5" r="4.7"/>
	<circle id="XMLID_544_" class="st32" cx="80.9" cy="-220.5" r="4.7"/>
</g>
<circle id="XMLID_67_" class="st32" cx="47.4" cy="-156.8" r="22.8"/>
<circle id="XMLID_66_" class="st1" cx="47.4" cy="-156.8" r="18.8"/>
<g id="XMLID_62_">
	<circle id="XMLID_65_" class="st32" cx="108.8" cy="-156.5" r="4.7"/>
	<circle id="XMLID_64_" class="st32" cx="94.8" cy="-156.5" r="4.7"/>
	<circle id="XMLID_63_" class="st32" cx="80.9" cy="-156.5" r="4.7"/>
</g>
<g id="XMLID_252_">
	<circle id="XMLID_255_" class="st32" cx="-442.2" cy="171" r="4.7"/>
	<circle id="XMLID_254_" class="st32" cx="-442.2" cy="157" r="4.7"/>
	<circle id="XMLID_253_" class="st32" cx="-442.2" cy="143" r="4.7"/>
</g>
<g id="XMLID_256_">
	<circle id="XMLID_273_" class="st32" cx="-217.2" cy="171" r="4.7"/>
	<circle id="XMLID_272_" class="st32" cx="-217.2" cy="157" r="4.7"/>
	<circle id="XMLID_257_" class="st32" cx="-217.2" cy="143" r="4.7"/>
</g>
<g id="XMLID_283_">
	<path id="XMLID_284_" class="st31" d="M-519.3,84.8h6.8c0.7,0,1.3,0.2,1.8,0.5c0.5,0.3,0.8,0.8,0.9,1.3l7.4,25.9
		c0.2,0.6,0.3,1.3,0.5,2.1c0.2,0.8,0.3,1.5,0.4,2.4c0.2-0.8,0.3-1.6,0.5-2.4s0.4-1.4,0.6-2.1l8.5-25.9c0.2-0.5,0.5-0.9,0.9-1.3
		c0.5-0.4,1-0.6,1.7-0.6h2.4c0.7,0,1.3,0.2,1.7,0.5c0.5,0.3,0.8,0.8,1,1.3l8.5,25.9c0.4,1.3,0.8,2.7,1.1,4.3
		c0.1-0.8,0.3-1.5,0.4-2.3c0.1-0.7,0.3-1.4,0.5-2l7.4-25.9c0.1-0.5,0.4-0.9,0.9-1.3c0.5-0.4,1.1-0.5,1.7-0.5h6.3l-13.5,43.4h-7.3
		l-9.5-29.6c-0.1-0.4-0.2-0.8-0.4-1.2c-0.1-0.4-0.3-0.9-0.4-1.4c-0.1,0.5-0.2,1-0.4,1.4c-0.1,0.4-0.3,0.9-0.4,1.2l-9.6,29.6h-7.3
		L-519.3,84.8z"/>
	<path id="XMLID_286_" class="st31" d="M-452.9,128.1V83.6h7.4v17.1c1.2-1.1,2.5-2.1,4-2.8c1.4-0.7,3.1-1,5.1-1
		c1.7,0,3.2,0.3,4.5,0.9c1.3,0.6,2.4,1.4,3.3,2.4c0.9,1,1.5,2.3,2,3.7c0.5,1.4,0.7,3,0.7,4.7v19.6h-7.4v-19.6c0-1.9-0.4-3.3-1.3-4.4
		c-0.9-1-2.2-1.5-3.9-1.5c-1.3,0-2.5,0.3-3.6,0.9s-2.2,1.4-3.2,2.4v22.3H-452.9z"/>
	<path id="XMLID_288_" class="st31" d="M-406.1,96.9c1.9,0,3.7,0.3,5.4,0.9c1.6,0.6,3,1.5,4.2,2.7c1.2,1.2,2.1,2.7,2.8,4.4
		c0.7,1.7,1,3.7,1,5.9c0,0.6,0,1-0.1,1.4c0,0.4-0.1,0.7-0.3,0.9s-0.3,0.4-0.5,0.4c-0.2,0.1-0.5,0.1-0.8,0.1h-19
		c0.2,3.2,1.1,5.5,2.5,7c1.5,1.5,3.4,2.2,5.9,2.2c1.2,0,2.2-0.1,3.1-0.4c0.9-0.3,1.6-0.6,2.3-0.9c0.6-0.3,1.2-0.6,1.7-0.9
		c0.5-0.3,1-0.4,1.4-0.4c0.3,0,0.6,0.1,0.8,0.2c0.2,0.1,0.4,0.3,0.6,0.5l2.2,2.7c-0.8,1-1.7,1.8-2.8,2.4c-1,0.7-2.1,1.2-3.2,1.6
		c-1.1,0.4-2.2,0.7-3.4,0.8s-2.3,0.2-3.3,0.2c-2.1,0-4.1-0.4-6-1.1c-1.8-0.7-3.4-1.8-4.8-3.1c-1.4-1.4-2.4-3.1-3.2-5.2
		c-0.8-2-1.2-4.4-1.2-7.1c0-2.1,0.3-4.1,1-5.9c0.7-1.8,1.7-3.5,2.9-4.8c1.3-1.4,2.8-2.5,4.6-3.3C-410.5,97.3-408.4,96.9-406.1,96.9z
		 M-405.9,102.2c-2.2,0-3.9,0.6-5.1,1.8c-1.2,1.2-2,3-2.3,5.2h13.9c0-1-0.1-1.9-0.4-2.7c-0.3-0.8-0.7-1.6-1.2-2.2s-1.2-1.1-2-1.5
		C-403.9,102.4-404.8,102.2-405.9,102.2z"/>
	<path id="XMLID_291_" class="st31" d="M-386.7,128.1V97.4h4.5c1,0,1.6,0.4,1.9,1.3l0.5,2.4c0.6-0.6,1.3-1.2,2-1.7
		c0.7-0.5,1.4-1,2.2-1.3c0.8-0.4,1.6-0.7,2.5-0.9c0.9-0.2,1.8-0.3,2.9-0.3c1.7,0,3.2,0.3,4.5,0.9c1.3,0.6,2.4,1.4,3.3,2.4
		c0.9,1,1.5,2.3,2,3.7c0.5,1.4,0.7,3,0.7,4.7v19.6h-7.4v-19.6c0-1.9-0.4-3.3-1.3-4.4c-0.9-1-2.2-1.5-3.9-1.5c-1.3,0-2.5,0.3-3.6,0.9
		s-2.2,1.4-3.2,2.4v22.3H-386.7z"/>
</g>
<circle id="XMLID_20_" class="st32" cx="47.4" cy="-284.8" r="22.8"/>
<circle id="XMLID_19_" class="st1" cx="47.4" cy="-284.8" r="18.8"/>
<g id="XMLID_10_">
	<circle id="XMLID_15_" class="st32" cx="108.8" cy="-284.5" r="4.7"/>
	<circle id="XMLID_14_" class="st32" cx="94.8" cy="-284.5" r="4.7"/>
	<circle id="XMLID_11_" class="st32" cx="80.9" cy="-284.5" r="4.7"/>
</g>
<path id="XMLID_303_" class="st32" d="M543-112H408.4c-0.5,0-1-0.4-1-1v-117c0-0.5,0.4-1,1-1H543c0.5,0,1,0.4,1,1v117
	C544-112.4,543.5-112,543-112z"/>
<g id="XMLID_101_">
	<path id="XMLID_103_" class="st1" d="M558.9-92L428-123.8c-0.5-0.1-0.8-0.7-0.7-1.2L455-238.6c0.1-0.5,0.7-0.8,1.2-0.7L587-207.5
		c0.5,0.1,0.8,0.7,0.7,1.2L560-92.7C559.9-92.2,559.4-91.8,558.9-92z"/>
	<path id="XMLID_486_" class="st0" d="M505.3-213.1L460.5-224c-0.4-0.1-0.6-0.4-0.5-0.8l0.9-3.9c0.1-0.4,0.4-0.6,0.8-0.5l44.8,10.9
		c0.4,0.1,0.6,0.4,0.5,0.8l-0.9,3.9C506-213.2,505.6-213,505.3-213.1z"/>
	<g id="XMLID_475_">
		<path id="XMLID_479_" class="st31" d="M517.3-174.1c0.6,0.2,1.2,0.4,1.6,0.7c0.4,0.3,0.8,0.6,1.1,1c0.3,0.4,0.4,0.8,0.5,1.2
			c0.1,0.4,0.1,0.9,0,1.3c-0.1,0.4-0.2,0.7-0.4,1c-0.2,0.3-0.3,0.5-0.5,0.7c-0.2,0.2-0.5,0.3-0.7,0.4c-0.3,0.1-0.6,0.2-0.9,0.2
			c1.3,0.8,1.7,1.9,1.4,3.4c-0.2,0.7-0.4,1.2-0.8,1.7c-0.4,0.4-0.8,0.8-1.3,1c-0.5,0.2-1,0.4-1.6,0.4c-0.6,0-1.2,0-1.7-0.2
			c-0.6-0.1-1.1-0.3-1.6-0.6c-0.4-0.2-0.8-0.5-1.1-0.9c-0.3-0.4-0.5-0.8-0.7-1.3c-0.2-0.5-0.3-1.1-0.3-1.7l1.3-0.2
			c0.1,0,0.2,0,0.3,0c0.1,0,0.2,0,0.3,0c0.2,0,0.3,0.1,0.5,0.2c0.1,0.1,0.2,0.2,0.3,0.4c0.1,0.5,0.3,1,0.6,1.2
			c0.2,0.3,0.6,0.5,0.9,0.6c0.3,0.1,0.6,0.1,0.8,0c0.2,0,0.5-0.1,0.6-0.3c0.2-0.1,0.3-0.3,0.5-0.5c0.1-0.2,0.2-0.4,0.3-0.6
			c0.1-0.3,0.1-0.5,0.1-0.7c0-0.2,0-0.4-0.2-0.6c-0.1-0.2-0.4-0.4-0.7-0.5c-0.3-0.2-0.8-0.3-1.4-0.5l0.4-1.8c0.5,0.1,1,0.2,1.3,0.2
			c0.3,0,0.6-0.1,0.8-0.2c0.2-0.1,0.4-0.2,0.5-0.4c0.1-0.2,0.2-0.4,0.2-0.6c0.1-0.5,0.1-0.9-0.1-1.2c-0.2-0.3-0.5-0.5-1-0.7
			c-0.2,0-0.4-0.1-0.6,0c-0.2,0-0.3,0.1-0.5,0.1c-0.2,0.1-0.3,0.2-0.4,0.3c-0.1,0.1-0.2,0.2-0.3,0.4c-0.2,0.2-0.3,0.4-0.5,0.5
			c-0.2,0.1-0.4,0.1-0.6,0c-0.1,0-0.1,0-0.2-0.1c-0.1,0-0.1,0-0.2-0.1l-1.4-0.6c0.2-0.6,0.6-1.1,0.9-1.5c0.4-0.4,0.8-0.7,1.3-0.9
			c0.5-0.2,1-0.3,1.5-0.4C516.2-174.3,516.7-174.3,517.3-174.1z"/>
		<path id="XMLID_476_" class="st31" d="M509.6-169.2c-0.3,1.1-0.6,2-1.1,2.8c-0.4,0.7-0.9,1.3-1.5,1.8c-0.5,0.4-1.1,0.7-1.8,0.8
			c-0.6,0.1-1.3,0.1-2-0.1s-1.3-0.4-1.8-0.8c-0.5-0.4-0.9-0.9-1.2-1.5c-0.3-0.6-0.4-1.4-0.5-2.2c0-0.9,0.1-1.8,0.3-2.9
			c0.3-1.1,0.6-2,1-2.8c0.4-0.8,0.9-1.3,1.5-1.8c0.5-0.4,1.1-0.7,1.8-0.8c0.6-0.1,1.3-0.1,1.9,0.1c0.7,0.2,1.3,0.4,1.8,0.8
			c0.5,0.4,0.9,0.9,1.2,1.5s0.5,1.4,0.5,2.2C510-171.3,509.9-170.3,509.6-169.2z M506.8-169.9c0.2-0.9,0.3-1.6,0.4-2.2
			c0-0.6,0-1.1-0.1-1.4c-0.1-0.4-0.3-0.6-0.5-0.8c-0.2-0.2-0.4-0.3-0.7-0.3c-0.2-0.1-0.5-0.1-0.7,0c-0.3,0.1-0.5,0.2-0.8,0.5
			c-0.3,0.3-0.5,0.7-0.7,1.2c-0.2,0.5-0.5,1.2-0.7,2.1c-0.2,0.9-0.3,1.6-0.4,2.2c0,0.6,0,1.1,0.1,1.4c0.1,0.4,0.2,0.6,0.4,0.8
			c0.2,0.2,0.4,0.3,0.7,0.3c0.2,0.1,0.5,0.1,0.7,0c0.3-0.1,0.5-0.2,0.8-0.5c0.3-0.3,0.5-0.7,0.8-1.2
			C506.4-168.3,506.6-169,506.8-169.9z"/>
	</g>
	<g id="XMLID_69_">
		<path id="XMLID_71_" class="st0" d="M547.2-141.1l-82.9-20.2c-1.8-0.4-2.9-2.2-2.4-4l0,0c0.4-1.8,2.2-2.9,4-2.4l82.9,20.2
			c1.8,0.4,2.9,2.2,2.4,4v0C550.8-141.8,549-140.7,547.2-141.1z"/>
		<path id="XMLID_7_" class="st29" d="M478.2-157.9l-14-3.4c-1.8-0.4-2.9-2.2-2.4-4l0,0c0.4-1.8,2.2-2.9,4-2.4l14,3.4
			c1.8,0.4,2.9,2.2,2.4,4v0C481.8-158.6,480-157.5,478.2-157.9z"/>
	</g>
</g>
<g id="XMLID_102_">
	<g id="XMLID_100_">
		<circle id="XMLID_72_" class="st0" cx="47.8" cy="-290.4" r="4.2"/>
		<path id="XMLID_74_" class="st0" d="M40-277c0-5,3.5-7.8,7.8-7.8s7.8,2.8,7.8,7.8H40z"/>
	</g>
</g>
<g id="XMLID_104_">
	<g id="XMLID_108_">
		<circle id="XMLID_110_" class="st0" cx="47.8" cy="-225.4" r="4.2"/>
		<path id="XMLID_109_" class="st0" d="M40-212c0-5,3.5-7.8,7.8-7.8s7.8,2.8,7.8,7.8H40z"/>
	</g>
</g>
<g id="XMLID_111_">
	<g id="XMLID_115_">
		<circle id="XMLID_118_" class="st0" cx="47.8" cy="-160.4" r="4.2"/>
		<path id="XMLID_117_" class="st0" d="M40-147c0-5,3.5-7.8,7.8-7.8s7.8,2.8,7.8,7.8H40z"/>
	</g>
</g>
<path id="XMLID_206_" class="st1" d="M-337.2,308h-207c-0.7,0-1.2-0.5-1.2-1.2V190.3c0-0.7,0.5-1.2,1.2-1.2h207
	c0.7,0,1.2,0.5,1.2,1.2v116.5C-336,307.5-336.5,308-337.2,308z"/>
<path id="XMLID_205_" class="st1" d="M-111.3,308h-212c-0.7,0-1.2-0.5-1.2-1.2V190.3c0-0.7,0.5-1.2,1.2-1.2h212
	c0.7,0,1.2,0.5,1.2,1.2v116.5C-110,307.5-110.6,308-111.3,308z"/>
<path id="XMLID_204_" class="st0" d="M-489.7,203h-46.1c-0.4,0-0.7-0.3-0.7-0.7v-4c0-0.4,0.3-0.7,0.7-0.7h46.1
	c0.4,0,0.7,0.3,0.7,0.7v4C-489,202.7-489.3,203-489.7,203z"/>
<g id="XMLID_192_">
	<path id="XMLID_201_" class="st0" d="M-415.9,252.6c0,17.5-14.2,31.7-31.7,31.7s-31.7-14.2-31.7-31.7s14.2-31.7,31.7-31.7
		S-415.9,235.1-415.9,252.6z M-447.6,227.5c-13.8,0-25,11.2-25,25c0,13.8,11.2,25,25,25c13.8,0,25-11.2,25-25
		C-422.5,238.8-433.8,227.5-447.6,227.5z"/>
	<path id="XMLID_295_" class="st8" d="M-472.6,252.6c0-5.4,1.7-10.5,4.7-14.6c-1.9-1.1-3.7-2.4-5.4-3.9c-3.7,5.2-5.9,11.6-5.9,18.4
		c0,17.2,13.8,31.3,30.9,31.6v-6.6C-461.8,277.2-472.6,266.2-472.6,252.6z"/>
	<g id="XMLID_193_">
		<path id="XMLID_197_" class="st31" d="M-452.5,247c0.6,0,1.2,0.1,1.7,0.3c0.5,0.2,0.9,0.4,1.3,0.7c0.3,0.3,0.6,0.7,0.8,1.1
			c0.2,0.4,0.3,0.8,0.3,1.3c0,0.4,0,0.8-0.1,1.1c-0.1,0.3-0.2,0.6-0.4,0.8c-0.2,0.2-0.4,0.4-0.6,0.6s-0.5,0.3-0.8,0.4
			c1.4,0.5,2.2,1.5,2.2,2.9c0,0.7-0.1,1.3-0.4,1.8c-0.3,0.5-0.6,0.9-1,1.3c-0.4,0.3-0.9,0.6-1.5,0.8c-0.6,0.2-1.1,0.3-1.7,0.3
			c-0.6,0-1.2-0.1-1.6-0.2c-0.5-0.1-0.9-0.3-1.3-0.6c-0.4-0.3-0.7-0.6-1-1.1c-0.3-0.4-0.5-1-0.7-1.6l1.2-0.5c0.1,0,0.2-0.1,0.3-0.1
			c0.1,0,0.2,0,0.3,0c0.2,0,0.4,0,0.5,0.1c0.2,0.1,0.3,0.2,0.3,0.3c0.3,0.5,0.6,0.9,0.9,1.1c0.3,0.2,0.7,0.3,1.1,0.3
			c0.3,0,0.6-0.1,0.8-0.2c0.2-0.1,0.4-0.2,0.6-0.4c0.2-0.2,0.3-0.3,0.3-0.6c0.1-0.2,0.1-0.4,0.1-0.6c0-0.3,0-0.5-0.1-0.8
			c0-0.2-0.1-0.4-0.3-0.6c-0.2-0.2-0.4-0.3-0.8-0.4c-0.4-0.1-0.9-0.1-1.5-0.1v-1.9c0.5,0,1,0,1.3-0.1c0.3-0.1,0.6-0.2,0.8-0.3
			c0.2-0.1,0.3-0.3,0.4-0.5c0.1-0.2,0.1-0.4,0.1-0.7c0-0.5-0.1-0.9-0.4-1.2s-0.6-0.4-1.1-0.4c-0.2,0-0.4,0-0.6,0.1
			c-0.2,0.1-0.3,0.1-0.5,0.2c-0.1,0.1-0.3,0.2-0.4,0.4c-0.1,0.1-0.2,0.3-0.2,0.4c-0.1,0.3-0.2,0.5-0.4,0.6c-0.1,0.1-0.3,0.2-0.6,0.2
			c-0.1,0-0.1,0-0.2,0c-0.1,0-0.1,0-0.2,0l-1.5-0.3c0.1-0.6,0.3-1.2,0.5-1.7c0.3-0.5,0.6-0.9,1-1.2c0.4-0.3,0.9-0.6,1.4-0.7
			C-453.6,247-453,247-452.5,247z"/>
		<path id="XMLID_194_" class="st31" d="M-437.8,253.6c0,1.1-0.1,2.1-0.4,2.9c-0.2,0.8-0.6,1.5-1,2.1c-0.4,0.5-0.9,1-1.5,1.2
			c-0.6,0.3-1.2,0.4-1.9,0.4s-1.3-0.1-1.9-0.4c-0.6-0.3-1.1-0.7-1.5-1.2c-0.4-0.5-0.8-1.2-1-2.1c-0.2-0.8-0.4-1.8-0.4-2.9
			s0.1-2.1,0.4-2.9c0.2-0.8,0.6-1.5,1-2.1c0.4-0.5,0.9-1,1.5-1.2c0.6-0.3,1.2-0.4,1.9-0.4s1.3,0.1,1.9,0.4c0.6,0.3,1.1,0.7,1.5,1.2
			c0.4,0.5,0.8,1.2,1,2.1S-437.8,252.4-437.8,253.6z M-440.6,253.6c0-0.9-0.1-1.6-0.2-2.2c-0.1-0.6-0.3-1-0.4-1.3
			c-0.2-0.3-0.4-0.6-0.6-0.7c-0.2-0.1-0.5-0.2-0.7-0.2s-0.5,0.1-0.7,0.2c-0.2,0.1-0.4,0.3-0.6,0.7c-0.2,0.3-0.3,0.8-0.4,1.3
			c-0.1,0.6-0.2,1.3-0.2,2.2c0,0.9,0.1,1.6,0.2,2.2c0.1,0.6,0.3,1,0.4,1.3c0.2,0.3,0.4,0.6,0.6,0.7c0.2,0.1,0.5,0.2,0.7,0.2
			s0.5-0.1,0.7-0.2s0.4-0.3,0.6-0.7c0.2-0.3,0.3-0.8,0.4-1.3C-440.7,255.2-440.6,254.5-440.6,253.6z"/>
	</g>
</g>
<path id="XMLID_191_" class="st0" d="M-267.7,203h-46.1c-0.4,0-0.7-0.3-0.7-0.7v-4c0-0.4,0.3-0.7,0.7-0.7h46.1
	c0.4,0,0.7,0.3,0.7,0.7v4C-267,202.7-267.3,203-267.7,203z"/>
<g id="XMLID_186_">
	<path id="XMLID_190_" class="st0" d="M-205.9,260.8h-19c-6.2,0-11.2-5-11.2-11.2v0c0-6.2,5-11.2,11.2-11.2h19
		c6.2,0,11.2,5,11.2,11.2v0C-194.7,255.7-199.7,260.8-205.9,260.8z"/>
	<circle id="XMLID_189_" class="st2" cx="-205.9" cy="249.6" r="9.8"/>
	<g id="XMLID_187_">
		<path id="XMLID_188_" class="st1" d="M-206.7,254.3l-3.9-3.9c-0.1-0.1-0.1-0.2,0-0.3l1.6-1.6c0.1-0.1,0.2-0.1,0.3,0l1.9,1.9
			c0.1,0.1,0.2,0.1,0.3,0l4.2-4.2c0.1-0.1,0.2-0.1,0.3,0l1.6,1.6c0.1,0.1,0.1,0.2,0,0.3l-6.1,6.1
			C-206.5,254.4-206.6,254.4-206.7,254.3z"/>
	</g>
</g>
<g id="XMLID_251_">
	<path id="XMLID_274_" class="st31" d="M-258.5,84.8v6.6h-13.1v36.8h-8.1V91.4h-13.1v-6.6H-258.5z"/>
	<path id="XMLID_276_" class="st31" d="M-253.8,128.1V83.6h7.4v17.1c1.2-1.1,2.5-2.1,4-2.8s3.1-1,5.1-1c1.7,0,3.2,0.3,4.5,0.9
		c1.3,0.6,2.4,1.4,3.3,2.4s1.5,2.3,2,3.7c0.5,1.4,0.7,3,0.7,4.7v19.6h-7.4v-19.6c0-1.9-0.4-3.3-1.3-4.4s-2.2-1.5-3.9-1.5
		c-1.3,0-2.5,0.3-3.6,0.9s-2.2,1.4-3.2,2.4v22.3H-253.8z"/>
	<path id="XMLID_278_" class="st31" d="M-206.9,96.9c1.9,0,3.7,0.3,5.4,0.9c1.6,0.6,3,1.5,4.2,2.7c1.2,1.2,2.1,2.7,2.8,4.4
		c0.7,1.7,1,3.7,1,5.9c0,0.6,0,1-0.1,1.4s-0.1,0.7-0.3,0.9s-0.3,0.4-0.5,0.4c-0.2,0.1-0.5,0.1-0.8,0.1h-19c0.2,3.2,1.1,5.5,2.5,7
		s3.4,2.2,5.9,2.2c1.2,0,2.2-0.1,3.1-0.4c0.9-0.3,1.6-0.6,2.3-0.9s1.2-0.7,1.7-0.9c0.5-0.3,1-0.4,1.4-0.4c0.3,0,0.6,0.1,0.8,0.2
		c0.2,0.1,0.4,0.3,0.6,0.5l2.2,2.7c-0.8,1-1.7,1.8-2.8,2.4c-1,0.7-2.1,1.2-3.2,1.6c-1.1,0.4-2.2,0.7-3.4,0.8s-2.3,0.2-3.3,0.2
		c-2.1,0-4.1-0.4-6-1.1c-1.8-0.7-3.4-1.8-4.8-3.1c-1.4-1.4-2.4-3.1-3.2-5.2c-0.8-2-1.2-4.4-1.2-7.1c0-2.1,0.3-4.1,1-5.9
		c0.7-1.8,1.7-3.5,2.9-4.8c1.3-1.4,2.8-2.5,4.6-3.3C-211.3,97.3-209.2,96.9-206.9,96.9z M-206.8,102.2c-2.2,0-3.9,0.6-5.1,1.8
		s-2,3-2.3,5.2h13.9c0-1-0.1-1.9-0.4-2.7c-0.3-0.8-0.7-1.6-1.2-2.2c-0.5-0.6-1.2-1.1-2-1.5C-204.7,102.4-205.7,102.2-206.8,102.2z"
		/>
	<path id="XMLID_281_" class="st31" d="M-187.6,128.1V97.4h4.5c1,0,1.6,0.5,1.9,1.3l0.5,2.4c0.6-0.6,1.3-1.2,2-1.7
		c0.7-0.5,1.4-1,2.2-1.3c0.8-0.4,1.6-0.7,2.5-0.9c0.9-0.2,1.8-0.3,2.9-0.3c1.7,0,3.2,0.3,4.5,0.9c1.3,0.6,2.4,1.4,3.3,2.4
		s1.5,2.3,2,3.7c0.5,1.4,0.7,3,0.7,4.7v19.6h-7.4v-19.6c0-1.9-0.4-3.3-1.3-4.4s-2.2-1.5-3.9-1.5c-1.3,0-2.5,0.3-3.6,0.9
		s-2.2,1.4-3.2,2.4v22.3H-187.6z"/>
</g>
<path id="XMLID_25_" class="st33" d="M153.7,191.9c-7.1-13.4-21.2-22.5-37.4-22.5c-23.4,0-42.3,18.9-42.3,42.3S92.9,254,116.3,254
	c23,0,41.7-18.4,42.3-41.3l18.1-20.8L153.7,191.9L153.7,191.9L153.7,191.9z"/>
<g id="XMLID_354_">
	<path id="XMLID_24_" class="st1" d="M115.9,230.2c2.4,0,4.3-1.9,4.3-4.3h-8.6C111.6,228.2,113.5,230.2,115.9,230.2z"/>
	<path id="XMLID_13_" class="st1" d="M132.8,221c-3.8,0-6.5-0.9-6.5-11.6v-3.3c0-4.9-3.4-9-8-10.2c-0.2-1.2-1.2-2.2-2.5-2.2
		c-1.3,0-2.3,1-2.5,2.2c-4.6,1.1-8,5.2-8,10.2v3.3c0,10.7-2.7,11.6-6.5,11.6c-1.6,0-1.7,3.2,0,3.2h33.9
		C134.5,224.2,134.4,221,132.8,221z"/>
</g>
<g id="XMLID_162_">
	<path id="XMLID_165_" class="st1" d="M-334.1-149.5h-210.5c-0.4,0-0.8-0.4-0.8-0.8v-50c0-0.4,0.4-0.8,0.8-0.8h210.5
		c0.4,0,0.8,0.4,0.8,0.8v50C-333.3-149.8-333.7-149.5-334.1-149.5z"/>
	<path id="XMLID_164_" class="st0" d="M-502.4-157.2h-34.5c-0.4,0-0.8-0.4-0.8-0.8v-34.5c0-0.4,0.4-0.8,0.8-0.8h34.5
		c0.4,0,0.8,0.4,0.8,0.8v34.5C-501.6-157.6-502-157.2-502.4-157.2z"/>
	<path id="XMLID_163_" class="st0" d="M-408.4-170.8h-79.4c-0.6,0-1.1-0.5-1.1-1.1v-6.9c0-0.6,0.5-1.1,1.1-1.1h79.4
		c0.6,0,1.1,0.5,1.1,1.1v6.9C-407.2-171.3-407.7-170.8-408.4-170.8z"/>
</g>
<g id="XMLID_158_">
	<path id="XMLID_161_" class="st1" d="M-110.8-149.5h-210.5c-0.4,0-0.8-0.4-0.8-0.8v-50c0-0.4,0.4-0.8,0.8-0.8h210.5
		c0.4,0,0.8,0.4,0.8,0.8v50C-110-149.8-110.4-149.5-110.8-149.5z"/>
	<path id="XMLID_160_" class="st0" d="M-279.1-157.2h-34.5c-0.4,0-0.8-0.4-0.8-0.8v-34.5c0-0.4,0.4-0.8,0.8-0.8h34.5
		c0.4,0,0.8,0.4,0.8,0.8v34.5C-278.3-157.6-278.7-157.2-279.1-157.2z"/>
	<path id="XMLID_159_" class="st0" d="M-185.1-170.8h-79.4c-0.6,0-1.1-0.5-1.1-1.1v-6.9c0-0.6,0.5-1.1,1.1-1.1h79.4
		c0.6,0,1.1,0.5,1.1,1.1v6.9C-183.9-171.3-184.4-170.8-185.1-170.8z"/>
</g>
<path id="XMLID_173_" class="st1" d="M-334.1-214.4h-210.5c-0.4,0-0.8-0.4-0.8-0.8v-50c0-0.4,0.4-0.8,0.8-0.8h210.5
	c0.4,0,0.8,0.4,0.8,0.8v50C-333.3-214.7-333.7-214.4-334.1-214.4z"/>
<path id="XMLID_239_" class="st26" d="M-426.8-243h-9.2v-9.1c0-0.3,0.1-0.9-0.2-0.9h-4.4c-0.3,0-0.4,0.7-0.4,0.9v9.1h-8.9
	c-0.3,0-0.1,0-0.1,0.3v4.4c0,0.3-0.2,0.3,0.1,0.3h8.9v9.1c0,0.3,0.1,0.9,0.4,0.9h4.4c0.3,0,0.2-0.7,0.2-0.9v-9.1h9.2
	c0.3,0,0.8,0,0.8-0.3v-4.4C-426-243-426.6-243-426.8-243z"/>
<g id="XMLID_166_">
	<path id="XMLID_169_" class="st1" d="M-110.8-214.4h-210.5c-0.4,0-0.8-0.4-0.8-0.8v-50c0-0.4,0.4-0.8,0.8-0.8h210.5
		c0.4,0,0.8,0.4,0.8,0.8v50C-110-214.7-110.4-214.4-110.8-214.4z"/>
	<path id="XMLID_168_" class="st0" d="M-279.1-222.1h-34.5c-0.4,0-0.8-0.4-0.8-0.8v-34.5c0-0.4,0.4-0.8,0.8-0.8h34.5
		c0.4,0,0.8,0.4,0.8,0.8v34.5C-278.3-222.5-278.7-222.1-279.1-222.1z"/>
	<path id="XMLID_167_" class="st0" d="M-185.1-235.7h-79.4c-0.6,0-1.1-0.5-1.1-1.1v-6.9c0-0.6,0.5-1.1,1.1-1.1h79.4
		c0.6,0,1.1,0.5,1.1,1.1v6.9C-183.9-236.2-184.4-235.7-185.1-235.7z"/>
</g>
</svg>
