<?xml version="1.0" encoding="utf-8"?>
<!-- Generator: Adobe Illustrator 17.0.0, SVG Export Plug-In . SVG Version: 6.00 Build 0)  -->
<!DOCTYPE svg PUBLIC "-//W3C//DTD SVG 1.1//EN" "http://www.w3.org/Graphics/SVG/1.1/DTD/svg11.dtd">
<svg version="1.1" id="Layer_1" xmlns="http://www.w3.org/2000/svg" xmlns:xlink="http://www.w3.org/1999/xlink" x="0px" y="0px"
	 width="650px" height="350px" viewBox="0 0 650 350" enable-background="new 0 0 650 350" xml:space="preserve">
<g>

		<path fill="#FFFFFF" stroke="#A3ACAF" stroke-width="2" stroke-linecap="round" stroke-linejoin="round" stroke-miterlimit="10" d="
		M455.703,95.915c-0.062-4.47-3.073-6.864-6.779-6.864c-1.038,0-2.021,0.134-2.901,0.551c-1.111-4.57-5.228-8.014-10.14-8.014
		c-4.858,0-8.938,3.493-10.104,7.986c-2.447,0.994-4.179,2.765-4.226,6.341H455.703z"/>

		<path fill="#FFFFFF" stroke="#A3ACAF" stroke-width="2" stroke-linecap="round" stroke-linejoin="round" stroke-miterlimit="10" d="
		M450.275,124.521c0.167-9.833,8.206-17.754,18.103-17.754c2.772,0,5.398,0.647,7.747,1.761
		c2.966-12.205,13.963-21.259,27.079-21.259c12.973,0,23.87,8.822,26.982,20.822c6.534,2.653,11.16,9.277,11.286,16.429H450.275z"/>
	<g>

			<path fill="#FFFFFF" stroke="#A3ACAF" stroke-width="1.5" stroke-linecap="round" stroke-linejoin="round" stroke-miterlimit="10" d="
			M477.365,16.712c12.685,0,22.969,10.284,22.969,22.969c0,12.686-10.284,22.97-22.969,22.97"/>

			<path fill="#FFFFFF" stroke="#A3ACAF" stroke-width="1.5" stroke-linecap="round" stroke-linejoin="round" stroke-miterlimit="10" d="
			M477.365,16.712c7.436,0,13.462,10.284,13.462,22.969c0,12.686-6.027,22.97-13.462,22.97"/>

			<path fill="#FFFFFF" stroke="#A3ACAF" stroke-width="1.5" stroke-linecap="round" stroke-linejoin="round" stroke-miterlimit="10" d="
			M477.365,16.712c2.834,0,5.131,10.284,5.131,22.969c0,12.686-2.297,22.97-5.131,22.97"/>

			<path fill="#FFFFFF" stroke="#A3ACAF" stroke-width="1.5" stroke-linecap="round" stroke-linejoin="round" stroke-miterlimit="10" d="
			M477.165,16.712c-12.685,0-22.969,10.284-22.969,22.969c0,12.686,10.284,22.97,22.969,22.97"/>

			<path fill="#FFFFFF" stroke="#A3ACAF" stroke-width="1.5" stroke-linecap="round" stroke-linejoin="round" stroke-miterlimit="10" d="
			M477.165,16.712c-7.435,0-13.463,10.284-13.463,22.969c0,12.686,6.028,22.97,13.463,22.97"/>

			<path fill="#FFFFFF" stroke="#A3ACAF" stroke-width="1.5" stroke-linecap="round" stroke-linejoin="round" stroke-miterlimit="10" d="
			M477.165,16.712c-2.834,0-5.131,10.284-5.131,22.969c0,12.686,2.297,22.97,5.131,22.97"/>

			<path fill="#FFFFFF" stroke="#A3ACAF" stroke-width="2" stroke-linecap="round" stroke-linejoin="round" stroke-miterlimit="10" d="
			M471.653,70.885c-0.158,0.894-0.246,1.013-0.246,1.553c0,2.768,2.243,5.013,5.009,5.013s5.01-2.247,5.01-5.014
			c0-0.541-0.089-0.658-0.247-1.552H471.653z"/>

			<line fill="#FFFFFF" stroke="#A3ACAF" stroke-width="1.5" stroke-linecap="round" stroke-linejoin="round" stroke-miterlimit="10" x1="491.557" y1="57.828" x2="481.18" y2="70.896"/>

			<line fill="#FFFFFF" stroke="#A3ACAF" stroke-width="1.5" stroke-linecap="round" stroke-linejoin="round" stroke-miterlimit="10" x1="471.653" y1="70.896" x2="462.974" y2="57.828"/>
	</g>
	<g>

			<path fill="none" stroke="#A3ACAF" stroke-width="1.5" stroke-linecap="round" stroke-linejoin="round" stroke-miterlimit="10" d="
			M398.99,168.249h78.902c11,0,20-9,20-20v-22.797"/>
	</g>
	<path fill="none" stroke="#A3ACAF" stroke-width="2" stroke-linecap="round" stroke-linejoin="round" stroke-miterlimit="10" d="
		M534.862,212.32c0,2.637-1.97,4.611-4.607,4.611c-3.296,0-5.884-2.754-5.884-6.05c0-4.12,3.382-7.501,7.502-7.501
		c5.15,0,9.346,4.154,9.346,9.304c0,6.437-5.208,11.646-11.646,11.646c-8.047,0-14.565-6.528-14.565-14.575
		c0-10.059,8.157-18.215,18.215-18.215c12.573,0,22.767,10.519,22.767,23.092c0,15.716-12.739,28.783-28.456,28.783h-76.825"/>
	<path fill="none" stroke="#A3ACAF" stroke-width="2" stroke-linecap="round" stroke-linejoin="round" stroke-miterlimit="10" d="
		M257.196,71.836c0,1.294,0.892,2.324,2.186,2.324c1.618,0,2.85-1.321,2.85-2.939c0-2.022-1.679-3.666-3.701-3.666
		c-2.528,0-4.596,2.047-4.596,4.574c0,3.16,2.551,5.72,5.711,5.72c3.949,0,7.146-3.202,7.146-7.152c0-4.937-4.004-8.939-8.941-8.939
		c-6.171,0-11.175,5.042-11.175,11.212c0,7.714,6.252,14.006,13.966,14.006h35.416"/>
	<g>

			<path fill="#FFFFFF" stroke="#A3ACAF" stroke-width="1.5" stroke-linecap="round" stroke-linejoin="round" stroke-miterlimit="10" d="
			M294.876,300.198c0,19.209,22.434,33.627,22.434,33.627s22.434-15.625,22.434-33.627c0-12.39-10.044-22.434-22.434-22.434
			S294.876,287.808,294.876,300.198z"/>

			<circle fill="#FFFFFF" stroke="#A3ACAF" stroke-width="1.5" stroke-linecap="round" stroke-linejoin="round" stroke-miterlimit="10" cx="317.31" cy="300.198" r="15.164"/>

			<path fill="#FFFFFF" stroke="#A3ACAF" stroke-width="1.5" stroke-linecap="round" stroke-linejoin="round" stroke-miterlimit="10" d="
			M311.754,297.174c1.411-1.411,3.7-1.411,5.113,0l0.443,0.445l0.445-0.445c1.411-1.411,3.7-1.411,5.113,0
			c1.411,1.413,1.411,3.701,0,5.113l-4.468,4.468c-0.324,0.323-0.685,0.744-1.089,0.744c-0.404,0-0.765-0.421-1.089-0.744
			l-4.467-4.468C310.341,300.875,310.341,298.586,311.754,297.174z"/>
	</g>

		<line fill="#FFFFFF" stroke="#A3ACAF" stroke-width="2" stroke-linecap="round" stroke-linejoin="round" stroke-miterlimit="10" x1="207.559" y1="124.521" x2="184.317" y2="124.521"/>

		<line fill="#FFFFFF" stroke="#A3ACAF" stroke-width="2" stroke-linecap="round" stroke-linejoin="round" stroke-miterlimit="10" x1="203.983" y1="302.414" x2="187.892" y2="302.414"/>

		<path fill="#FFFFFF" stroke="#A3ACAF" stroke-width="2" stroke-linecap="round" stroke-linejoin="round" stroke-miterlimit="10" d="
		M137.056,127.27c0-5.826,4.841-10.795,10.668-10.795h96.4c5.826,0,10.813,4.928,10.813,10.755v180.747
		c0,5.826-4.987,10.528-10.813,10.528h-96.4c-5.826,0-10.786-4.701-10.786-10.528v-49.366"/>

		<line fill="#FFFFFF" stroke="#A3ACAF" stroke-width="2" stroke-linecap="round" stroke-linejoin="round" stroke-miterlimit="10" x1="136.938" y1="208.551" x2="136.938" y2="142.4"/>

		<path fill="#FFFFFF" stroke="#A3ACAF" stroke-width="2" stroke-linecap="round" stroke-linejoin="round" stroke-miterlimit="10" d="
		M144.09,206.763v-67.45c0-4.622,3.391-8.535,8.013-8.535h87.644c4.622,0,8.04,3.913,8.04,8.535v138.38
		c0,4.622-3.418,8.63-8.04,8.63h-87.644c-4.622,0-8.013-4.008-8.013-8.63v-20.87"/>
	<g>

			<path fill="#FFFFFF" stroke="#A3ACAF" stroke-width="2" stroke-linecap="round" stroke-linejoin="round" stroke-miterlimit="10" d="
			M397.967,103.897v67.214c0,3.716-2.899,6.731-6.615,6.731l-5.065,0.013c-1.989,0-3.516,1.604-3.516,3.589v16.217
			c0,0-0.372,11.236-11.31,0.158c-7.663-7.765-14.441-19.661-50.525-19.661h-33.794c-3.717,0-7.174-3.33-7.174-7.046v-67.214
			c0-3.716,3.236-6.731,6.952-6.731l5.344-0.009c1.989,0,3.795-1.608,3.795-3.593v-13.97c0,0,0.262-11.256,11.2-0.178
			c7.664,7.76,14.331,17.393,50.415,17.393h33.794C395.184,96.809,397.967,100.181,397.967,103.897z"/>
		<g>

				<circle fill="#FFFFFF" stroke="#A3ACAF" stroke-width="1.5" stroke-linecap="round" stroke-linejoin="round" stroke-miterlimit="10" cx="385.89" cy="109.105" r="5.672"/>
			<g>

					<line fill="#FFFFFF" stroke="#A3ACAF" stroke-width="2" stroke-linecap="round" stroke-linejoin="round" stroke-miterlimit="10" x1="385.452" y1="106.642" x2="385.452" y2="111.112"/>

					<line fill="#FFFFFF" stroke="#A3ACAF" stroke-width="2" stroke-linecap="round" stroke-linejoin="round" stroke-miterlimit="10" x1="388.134" y1="109.324" x2="383.664" y2="109.324"/>
			</g>
		</g>
		<g>

				<circle fill="#FFFFFF" stroke="#A3ACAF" stroke-width="1.5" stroke-linecap="round" stroke-linejoin="round" stroke-miterlimit="10" cx="292.737" cy="109.105" r="5.672"/>
			<g>

					<line fill="#FFFFFF" stroke="#A3ACAF" stroke-width="2" stroke-linecap="round" stroke-linejoin="round" stroke-miterlimit="10" x1="292.483" y1="106.642" x2="292.483" y2="111.112"/>

					<line fill="#FFFFFF" stroke="#A3ACAF" stroke-width="2" stroke-linecap="round" stroke-linejoin="round" stroke-miterlimit="10" x1="295.165" y1="109.324" x2="290.695" y2="109.324"/>
			</g>
		</g>
		<g>

				<circle fill="#FFFFFF" stroke="#A3ACAF" stroke-width="1.5" stroke-linecap="round" stroke-linejoin="round" stroke-miterlimit="10" cx="385.89" cy="164.756" r="5.672"/>
			<g>

					<line fill="#FFFFFF" stroke="#A3ACAF" stroke-width="2" stroke-linecap="round" stroke-linejoin="round" stroke-miterlimit="10" x1="385.452" y1="162.066" x2="385.452" y2="167.43"/>

					<line fill="#FFFFFF" stroke="#A3ACAF" stroke-width="2" stroke-linecap="round" stroke-linejoin="round" stroke-miterlimit="10" x1="388.134" y1="164.748" x2="383.664" y2="164.748"/>
			</g>
		</g>
		<g>

				<circle fill="#FFFFFF" stroke="#A3ACAF" stroke-width="1.5" stroke-linecap="round" stroke-linejoin="round" stroke-miterlimit="10" cx="292.737" cy="164.756" r="5.672"/>
			<g>

					<line fill="#FFFFFF" stroke="#A3ACAF" stroke-width="2" stroke-linecap="round" stroke-linejoin="round" stroke-miterlimit="10" x1="292.483" y1="162.066" x2="292.483" y2="167.43"/>

					<line fill="#FFFFFF" stroke="#A3ACAF" stroke-width="2" stroke-linecap="round" stroke-linejoin="round" stroke-miterlimit="10" x1="295.165" y1="164.748" x2="290.695" y2="164.748"/>
			</g>
		</g>
		<g>
			<path fill="#FFFFFF" d="M305.932,123.155c-1.597,0-2.896-1.299-2.896-2.896c0-1.597,1.299-2.896,2.896-2.896h66.746
				c1.597,0,2.896,1.299,2.896,2.896c0,1.597-1.299,2.896-2.896,2.896H305.932z"/>
			<path fill="#A3ACAF" d="M372.677,118.112c1.183,0,2.146,0.963,2.146,2.146c0,1.183-0.963,2.146-2.146,2.146h-66.746
				c-1.183,0-2.146-0.963-2.146-2.146c0-1.183,0.963-2.146,2.146-2.146H372.677 M372.677,116.612h-66.746
				c-2.014,0-3.646,1.631-3.646,3.646c0,2.012,1.632,3.646,3.646,3.646h66.746c2.014,0,3.646-1.634,3.646-3.646
				C376.323,118.243,374.691,116.612,372.677,116.612L372.677,116.612z"/>
		</g>
		<g>
			<path fill="#FFFFFF" d="M305.932,141.524c-1.597,0-2.896-1.299-2.896-2.896s1.299-2.896,2.896-2.896h66.746
				c1.597,0,2.896,1.299,2.896,2.896s-1.299,2.896-2.896,2.896H305.932z"/>
			<path fill="#A3ACAF" d="M372.677,136.482c1.183,0,2.146,0.963,2.146,2.146c0,1.183-0.963,2.146-2.146,2.146h-66.746
				c-1.183,0-2.146-0.963-2.146-2.146c0-1.183,0.963-2.146,2.146-2.146H372.677 M372.677,134.982h-66.746
				c-2.014,0-3.646,1.63-3.646,3.646c0,2.011,1.632,3.646,3.646,3.646h66.746c2.014,0,3.646-1.635,3.646-3.646
				C376.323,136.612,374.691,134.982,372.677,134.982L372.677,134.982z"/>
		</g>
		<g>
			<path fill="#FFFFFF" d="M305.932,159.893c-1.597,0-2.896-1.299-2.896-2.896s1.299-2.896,2.896-2.896h66.746
				c1.597,0,2.896,1.299,2.896,2.896s-1.299,2.896-2.896,2.896H305.932z"/>
			<path fill="#A3ACAF" d="M372.677,154.851c1.183,0,2.146,0.963,2.146,2.146c0,1.183-0.963,2.145-2.146,2.145h-66.746
				c-1.183,0-2.146-0.962-2.146-2.145c0-1.183,0.963-2.146,2.146-2.146H372.677 M372.677,153.351h-66.746
				c-2.014,0-3.646,1.63-3.646,3.646c0,2.011,1.632,3.645,3.646,3.645h66.746c2.014,0,3.646-1.634,3.646-3.645
				C376.323,154.981,374.691,153.351,372.677,153.351L372.677,153.351z"/>
		</g>
	</g>

		<line fill="#FFFFFF" stroke="#A3ACAF" stroke-width="1.5" stroke-linecap="round" stroke-linejoin="round" stroke-miterlimit="10" x1="166.369" y1="163.184" x2="207.601" y2="204.417"/>

		<line fill="#FFFFFF" stroke="#A3ACAF" stroke-width="1.5" stroke-linecap="round" stroke-linejoin="round" stroke-miterlimit="10" x1="165.41" y1="195.887" x2="208.559" y2="239.036"/>

		<line fill="#FFFFFF" stroke="#A3ACAF" stroke-width="1.5" stroke-linecap="round" stroke-linejoin="round" stroke-miterlimit="10" x1="228.518" y1="211.382" x2="199.088" y2="181.951"/>
	<g>
		<g>
			<path fill="none" stroke="#A3ACAF" stroke-width="1.5" stroke-linecap="round" stroke-linejoin="round" d="M239.633,305.194
				l64.181-64.181c1.945-1.945,3.536-5.786,3.536-8.536v-54.344"/>
			<g>
				<circle fill="#A3ACAF" cx="239.633" cy="305.194" r="2.256"/>
			</g>
			<g>
				<circle fill="#A3ACAF" cx="307.349" cy="178.134" r="2.256"/>
			</g>
		</g>
	</g>
	<g>

			<path fill="#FFFFFF" stroke="#A3ACAF" stroke-width="2" stroke-linecap="round" stroke-linejoin="round" stroke-miterlimit="10" d="
			M136.208,127.203c-3.269-6.258-9.75-10.587-17.216-10.587c-10.756,0-19.476,8.611-19.476,19.368
			c0,10.756,8.72,19.422,19.476,19.422c10.594,0,19.206-8.27,19.464-18.802l8.339-9.401H136.208z"/>
		<g>

				<path fill="#FFFFFF" stroke="#A3ACAF" stroke-width="2" stroke-linecap="round" stroke-linejoin="round" stroke-miterlimit="10" d="
				M118.801,144.382c1.094,0,1.982-1.088,1.982-1.982h-3.964C116.819,143.294,117.706,144.382,118.801,144.382z"/>

				<path fill="#FFFFFF" stroke="#A3ACAF" stroke-width="2" stroke-linecap="round" stroke-linejoin="round" stroke-miterlimit="10" d="
				M126.211,140.163c-1.788,0-2.682-0.395-2.682-5.322v-1.497c0-2.267-1.519-4.163-3.626-4.679
				c-0.073-0.572-0.533-1.017-1.126-1.017c-0.592,0-1.205,0.444-1.278,1.017c-2.108,0.516-3.803,2.412-3.803,4.679v1.497
				c0,4.927-0.894,5.322-2.682,5.322c-0.894,0-0.894,1.343,0,1.343h15.197C127.105,141.506,127.105,140.163,126.211,140.163z"/>
		</g>
	</g>
	<g>
		<g>

				<path fill="#FFFFFF" stroke="#A3ACAF" stroke-width="2" stroke-linecap="round" stroke-linejoin="round" stroke-miterlimit="10" d="
				M421.21,197.382c-0.544-1.159-0.894-2.452-0.894-3.814v-24.673c0-0.827,0.514-1.497,1.341-1.497c0.827,0,1.341,0.67,1.341,1.497
				v24.673c0,0.55,0.212,0.923,0.351,1.43"/>
		</g>

			<path fill="#FFFFFF" stroke="#A3ACAF" stroke-width="2" stroke-linecap="round" stroke-linejoin="round" stroke-miterlimit="10" d="
			M429.138,280.958c4.936,0,8.938-3.574,8.938-8.938H420.2C420.2,277.384,424.202,280.958,429.138,280.958z"/>

			<circle fill="#FFFFFF" stroke="#A3ACAF" stroke-width="1.5" stroke-linecap="round" stroke-linejoin="round" stroke-miterlimit="10" cx="432.084" cy="276.802" r="1.948"/>

			<path fill="#FFFFFF" stroke="#A3ACAF" stroke-width="2" stroke-linecap="round" stroke-linejoin="round" stroke-miterlimit="10" d="
			M424.977,211.248c-0.54,0.715-0.696,1.574-0.815,2.509c-9.506,2.328-16.361,10.88-16.361,21.103v6.75
			c0,22.22-6.258,24.001-13.409,24.001c-3.576,0-3.576,6.409,0,6.409h69.727c3.576,0,3.576-6.409,0-6.409
			c-8.045,0-13.409-1.781-13.409-24.001v-6.75c0-10.223-6.973-18.775-16.479-21.103c-0.119-0.935-0.437-1.795-0.978-2.511"/>

			<path fill="#FFFFFF" stroke="#A3ACAF" stroke-width="1.5" stroke-linecap="round" stroke-linejoin="round" stroke-miterlimit="10" d="
			M437.324,197.872c0.837,1.415,1.317,3.067,1.317,4.83c0,5.249-4.255,9.503-9.503,9.503c-5.249,0-9.503-4.255-9.503-9.503
			c0-5.249,4.255-9.503,9.503-9.503c2.283,0,4.379,0.805,6.018,2.147 M432.654,198.627c-0.943-0.815-2.172-1.307-3.516-1.307
			c-2.973,0-5.383,2.41-5.383,5.383s2.41,5.383,5.383,5.383s5.383-2.41,5.383-5.383c0-0.546-0.081-1.072-0.232-1.568"/>
		<g>

				<path fill="#FFFFFF" stroke="#A3ACAF" stroke-width="2" stroke-linecap="round" stroke-linejoin="round" stroke-miterlimit="10" d="
				M442.217,246.122c-1.645,0-3.129-1.334-3.129-2.979V233.6c0-4.798-3.719-8.701-8.517-8.701c-1.645,0-2.887-1.334-2.887-2.979
				c0-1.645,1.345-2.979,2.991-2.979c8.083,0,14.67,6.576,14.67,14.659v9.543C445.346,244.789,443.862,246.122,442.217,246.122z"/>
		</g>
		<g>

				<path fill="#FFFFFF" stroke="#A3ACAF" stroke-width="2" stroke-linecap="round" stroke-linejoin="round" stroke-miterlimit="10" d="
				M442.664,262.468c-1.645,0-2.682-1.334-2.682-2.979v-5.997c0-1.645,1.037-2.979,2.682-2.979s2.682,1.334,2.682,2.979v5.997
				C445.346,261.134,444.309,262.468,442.664,262.468z"/>
		</g>
		<g>

				<path fill="#FFFFFF" stroke="#A3ACAF" stroke-width="2" stroke-linecap="round" stroke-linejoin="round" stroke-miterlimit="10" d="
				M426.164,198.216c1.532,1.603,3.293,1.363,3.293,1.363c3.315,0,6.055-2.696,6.055-6.011v-24.673c0-0.827,0.514-1.497,1.341-1.497
				c0.827,0,1.341,0.67,1.341,1.497v24.673c0,4.965-3.928,9.005-8.893,9.005c0,0-3.082,0.02-5.179-1.963"/>
		</g>
	</g>
	<g>

			<path fill="#FFFFFF" stroke="#A3ACAF" stroke-width="1.5" stroke-linecap="round" stroke-linejoin="round" stroke-miterlimit="10" d="
			M107.578,263.616l-11.361-40.772c-0.422-1.513,0.465-3.088,1.979-3.51l59.732-16.645c1.512-0.421,3.087,0.467,3.509,1.98
			l11.361,40.772c0.422,1.514-0.467,3.088-1.979,3.509l-59.732,16.645C109.573,266.018,108,265.13,107.578,263.616z"/>

			<polyline fill="#FFFFFF" stroke="#A3ACAF" stroke-width="1.5" stroke-linecap="round" stroke-linejoin="round" stroke-miterlimit="10" points="
			108.348,228.237 137.263,241.796 155.027,215.255 		"/>

			<line fill="#FFFFFF" stroke="#A3ACAF" stroke-width="1.5" stroke-linecap="round" stroke-linejoin="round" stroke-miterlimit="10" x1="124.343" y1="235.737" x2="115.916" y2="253.698"/>

			<line fill="#FFFFFF" stroke="#A3ACAF" stroke-width="1.5" stroke-linecap="round" stroke-linejoin="round" stroke-miterlimit="10" x1="145.649" y1="229.8" x2="162.15" y2="240.815"/>
	</g>
	<g>

			<path fill="none" stroke="#A3ACAF" stroke-width="1.5" stroke-linecap="round" stroke-linejoin="round" stroke-miterlimit="10" d="
			M300.417,216.449v12.465c0,2.75-1.591,6.591-3.536,8.536l-8.129,8.129"/>
	</g>
</g>
</svg>