<?xml version="1.0" encoding="utf-8"?>
<!-- Generator: Adobe Illustrator 17.0.0, SVG Export Plug-In . SVG Version: 6.00 Build 0)  -->
<!DOCTYPE svg PUBLIC "-//W3C//DTD SVG 1.1//EN" "http://www.w3.org/Graphics/SVG/1.1/DTD/svg11.dtd">
<svg version="1.1" id="Layer_1" xmlns="http://www.w3.org/2000/svg" xmlns:xlink="http://www.w3.org/1999/xlink" x="0px" y="0px"
	 width="300px" height="150px" viewBox="75 0 300 150" enable-background="new 75 0 300 150" xml:space="preserve">
<g>
	<circle fill="#EDEDED" cx="150" cy="75" r="75"/>
</g>
<circle opacity="0.3" fill="#35363A" enable-background="new    " cx="150" cy="76.282" r="56.163"/>
<circle fill="#35363A" cx="150" cy="73.743" r="53.859"/>
<circle fill="#4F4F51" cx="150" cy="71.089" r="51.75"/>
<linearGradient id="SVGID_1_" gradientUnits="userSpaceOnUse" x1="381" y1="-189.339" x2="381" y2="-292.839" gradientTransform="matrix(1 0 0 -1 -231 -170)">
	<stop  offset="0.1746" style="stop-color:#FFFFFF"/>
	<stop  offset="0.8026" style="stop-color:#000000"/>
</linearGradient>
<path opacity="0.2" fill="url(#SVGID_1_)" enable-background="new    " d="M201.75,71.089c0,28.581-23.169,51.75-51.75,51.75
	S98.25,99.67,98.25,71.089s23.169-51.75,51.75-51.75S201.75,42.508,201.75,71.089z M150,26.11
	c-24.841,0-44.979,20.138-44.979,44.979s20.138,44.979,44.979,44.979s44.979-20.138,44.979-44.979S174.841,26.11,150,26.11z"/>
<g>
	<circle fill="#EDEDED" cx="300" cy="75" r="75"/>
</g>
<circle opacity="0.3" fill="#35363A" enable-background="new    " cx="300" cy="75" r="56.163"/>
<circle fill="#35363A" cx="300" cy="75" r="53.859"/>
<circle fill="#4F4F51" cx="300" cy="75" r="51.75"/>
<linearGradient id="SVGID_2_" gradientUnits="userSpaceOnUse" x1="520" y1="447.75" x2="520" y2="344.25" gradientTransform="matrix(-1 0 0 1 820 -321)">
	<stop  offset="0.1746" style="stop-color:#FFFFFF"/>
	<stop  offset="0.8026" style="stop-color:#000000"/>
</linearGradient>
<path opacity="0.2" fill="url(#SVGID_2_)" enable-background="new    " d="M248.25,75c0-28.581,23.169-51.75,51.75-51.75
	S351.75,46.419,351.75,75s-23.169,51.75-51.75,51.75S248.25,103.581,248.25,75z M300,119.979c24.841,0,44.979-20.138,44.979-44.979
	S324.841,30.021,300,30.021S255.021,50.159,255.021,75S275.159,119.979,300,119.979z"/>
<path opacity="0.6" fill="#35363A" d="M314.766,65.63h-2.783V64.74c0-5.364-4.365-9.729-9.729-9.729
	c-5.364,0-9.729,4.365-9.729,9.729v0.889h-2.784c-1.596,0-2.895,1.299-2.895,2.894v20.012c0,1.596,1.299,2.894,2.895,2.894h25.025
	c1.596,0,2.895-1.299,2.895-2.894V68.524C317.661,66.928,316.362,65.63,314.766,65.63z M296.303,64.74
	c0-3.281,2.67-5.951,5.951-5.951c3.281,0,5.951,2.67,5.951,5.951v0.889h-11.902V64.74z M305.607,84.507
	c0.023,0.137-0.014,0.278-0.104,0.384c-0.09,0.107-0.222,0.168-0.362,0.168h-5.775c-0.14,0-0.272-0.061-0.362-0.168
	c-0.09-0.106-0.127-0.247-0.104-0.384l1.135-6.541c-0.743-0.642-1.178-1.581-1.178-2.568c0-1.873,1.524-3.397,3.396-3.397
	c1.872,0,3.396,1.524,3.396,3.397c0,0.987-0.435,1.926-1.178,2.568L305.607,84.507z"/>
<path fill="#FF6161" d="M313.766,64.63h-2.783V63.74c0-5.364-4.365-9.729-9.729-9.729c-5.364,0-9.729,4.365-9.729,9.729v0.889
	h-2.784c-1.596,0-2.895,1.299-2.895,2.894v20.012c0,1.596,1.299,2.894,2.895,2.894h25.025c1.596,0,2.895-1.299,2.895-2.894V67.524
	C316.661,65.928,315.362,64.63,313.766,64.63z M295.303,63.74c0-3.281,2.67-5.951,5.951-5.951c3.281,0,5.951,2.67,5.951,5.951v0.889
	h-11.902V63.74z M304.607,83.507c0.023,0.137-0.014,0.278-0.104,0.384c-0.09,0.107-0.222,0.168-0.362,0.168h-5.775
	c-0.14,0-0.272-0.061-0.362-0.168c-0.09-0.106-0.127-0.247-0.104-0.384l1.135-6.541c-0.743-0.642-1.178-1.581-1.178-2.568
	c0-1.873,1.524-3.397,3.396-3.397c1.872,0,3.396,1.524,3.396,3.397c0,0.987-0.435,1.926-1.178,2.568L304.607,83.507z"/>
<path opacity="0.6" fill="#35363A" d="M164.266,65.211h-18.69l-0.636-1.071c-1.675-2.821-0.741-6.48,2.08-8.155
	c2.821-1.675,6.48-0.741,8.155,2.08l0.743,1.252c0.178,0.299,0.564,0.398,0.863,0.22l2.166-1.285
	c0.299-0.178,0.398-0.564,0.22-0.863l-0.743-1.252c-2.738-4.613-8.719-6.139-13.332-3.401c-4.332,2.571-5.94,8.002-3.852,12.475
	h-1.998c-1.596,0-2.895,1.299-2.895,2.894v20.012c0,1.596,1.299,2.894,2.895,2.894h25.025c1.596,0,2.895-1.299,2.895-2.894V68.105
	C167.161,66.51,165.862,65.211,164.266,65.211z M155.107,84.088c0.023,0.137-0.014,0.278-0.104,0.384
	c-0.09,0.107-0.222,0.168-0.362,0.168h-5.775c-0.14,0-0.272-0.061-0.362-0.168c-0.09-0.106-0.127-0.247-0.104-0.384l1.135-6.541
	c-0.743-0.642-1.178-1.581-1.178-2.568c0-1.873,1.524-3.397,3.396-3.397c1.872,0,3.396,1.524,3.396,3.397
	c0,0.987-0.435,1.926-1.178,2.568L155.107,84.088z"/>
<path fill="#20D298" d="M163.266,64.211h-18.69l-0.636-1.071c-1.675-2.821-0.741-6.48,2.08-8.155c2.822-1.675,6.48-0.741,8.155,2.08
	l0.743,1.252c0.178,0.299,0.564,0.398,0.863,0.22l2.166-1.285c0.299-0.178,0.398-0.564,0.22-0.863l-0.743-1.252
	c-2.738-4.613-8.719-6.139-13.332-3.401c-4.332,2.571-5.94,8.002-3.852,12.475h-1.998c-1.596,0-2.895,1.299-2.895,2.894v20.012
	c0,1.596,1.299,2.894,2.895,2.894h25.025c1.596,0,2.895-1.299,2.895-2.894V67.105C166.161,65.509,164.862,64.211,163.266,64.211z
	 M154.107,83.088c0.023,0.137-0.014,0.278-0.104,0.384c-0.09,0.107-0.222,0.168-0.362,0.168h-5.775c-0.14,0-0.272-0.061-0.362-0.168
	c-0.09-0.106-0.127-0.247-0.104-0.384l1.135-6.541c-0.743-0.642-1.178-1.581-1.178-2.568c0-1.873,1.524-3.397,3.396-3.397
	c1.872,0,3.396,1.524,3.396,3.397c0,0.987-0.435,1.926-1.178,2.568L154.107,83.088z"/>
</svg>
