<?xml version="1.0" encoding="utf-8"?>
<!-- Generator: Adobe Illustrator 17.0.0, SVG Export Plug-In . SVG Version: 6.00 Build 0)  -->
<!DOCTYPE svg PUBLIC "-//W3C//DTD SVG 1.1//EN" "http://www.w3.org/Graphics/SVG/1.1/DTD/svg11.dtd">
<svg version="1.1" id="Layer_1" xmlns="http://www.w3.org/2000/svg" xmlns:xlink="http://www.w3.org/1999/xlink" x="0px" y="0px"
	 width="200px" height="200px" viewBox="0 0 200 200" enable-background="new 0 0 200 200" xml:space="preserve">
<path fill="none" stroke="#FF6458" stroke-width="3" stroke-linecap="round" stroke-linejoin="round" stroke-miterlimit="10" d="
	M148.817,65.777h-11.082v-3.542c0-21.358-17.377-38.735-38.735-38.735S60.265,40.877,60.265,62.235v3.542H49.183
	c-6.355,0-11.526,5.171-11.526,11.524v79.676c0,6.353,5.171,11.524,11.526,11.524h99.635c6.355,0,11.526-5.171,11.526-11.524V77.3
	C160.343,70.947,155.173,65.777,148.817,65.777z M75.307,62.235c0-13.063,10.63-23.694,23.694-23.694s23.694,10.63,23.694,23.694
	v3.542H75.307V62.235z M112.35,140.934c0.093,0.546-0.056,1.107-0.414,1.53c-0.357,0.426-0.884,0.671-1.44,0.671H87.504
	c-0.556,0-1.082-0.245-1.44-0.671c-0.357-0.423-0.507-0.984-0.414-1.53l4.519-26.044c-2.957-2.556-4.691-6.297-4.691-10.226
	c0-7.457,6.067-13.524,13.521-13.524s13.521,6.067,13.521,13.524c0,3.929-1.734,7.668-4.688,10.224L112.35,140.934z"/>
</svg>
