<?xml version="1.0" encoding="utf-8"?>
<!-- Generator: Adobe Illustrator 17.0.0, SVG Export Plug-In . SVG Version: 6.00 Build 0)  -->
<!DOCTYPE svg PUBLIC "-//W3C//DTD SVG 1.1//EN" "http://www.w3.org/Graphics/SVG/1.1/DTD/svg11.dtd">
<svg version="1.1" id="Layer_1" xmlns="http://www.w3.org/2000/svg" xmlns:xlink="http://www.w3.org/1999/xlink" x="0px" y="0px"
	 width="200px" height="200px" viewBox="0 0 200 200" enable-background="new 0 0 200 200" xml:space="preserve">
<path fill="none" stroke="#43C399" stroke-width="3" stroke-linecap="round" stroke-linejoin="round" stroke-miterlimit="10" d="
	M149.728,65.783H74.594l-2.556-4.306c-6.732-11.342-2.98-26.05,8.362-32.782c11.343-6.732,26.051-2.98,32.782,8.362l2.989,5.033
	c0.713,1.203,2.265,1.599,3.468,0.885l8.707-5.167c1.203-0.714,1.598-2.266,0.885-3.469l-2.988-5.033
	C115.236,10.762,91.193,4.629,72.649,15.635C55.234,25.971,48.77,47.804,57.162,65.783H49.13c-6.417,0-11.637,5.221-11.637,11.635
	v80.446c0,6.415,5.221,11.635,11.637,11.635h100.598c6.417,0,11.637-5.221,11.637-11.635V77.418
	C161.365,71.004,156.145,65.783,149.728,65.783z M112.908,141.668c0.094,0.551-0.057,1.117-0.418,1.545
	c-0.361,0.43-0.892,0.677-1.454,0.677H87.822c-0.561,0-1.093-0.247-1.454-0.677c-0.361-0.428-0.512-0.994-0.418-1.545l4.563-26.296
	c-2.986-2.581-4.736-6.358-4.736-10.325c0-7.529,6.125-13.654,13.652-13.654s13.652,6.125,13.652,13.654
	c0,3.967-1.75,7.742-4.734,10.322L112.908,141.668z"/>
</svg>
