<?xml version="1.0" encoding="utf-8"?>
<!-- Generator: Adobe Illustrator 17.0.0, SVG Export Plug-In . SVG Version: 6.00 Build 0)  -->
<!DOCTYPE svg PUBLIC "-//W3C//DTD SVG 1.1//EN" "http://www.w3.org/Graphics/SVG/1.1/DTD/svg11.dtd">
<svg version="1.1" id="Layer_1" xmlns="http://www.w3.org/2000/svg" xmlns:xlink="http://www.w3.org/1999/xlink" x="0px" y="0px"
	 width="30px" height="30px" viewBox="4 4 30 30" enable-background="new 4 4 30 30" xml:space="preserve">
<path fill="#55636C" d="M17.712,26.2c-0.096-0.096-0.139-0.199-0.139-0.26v-5.515h-5.515c-0.044,0-0.132-0.042-0.221-0.131
	c-0.116-0.116-0.177-0.255-0.177-0.333v-1.986c0.001-0.161,0.239-0.4,0.4-0.401h5.515V12.06c0-0.137,0.276-0.4,0.463-0.4h1.986
	c0.061,0,0.165,0.044,0.262,0.14c0.096,0.096,0.139,0.199,0.139,0.26v5.515h5.515c0.044,0,0.132,0.04,0.222,0.13
	c0.116,0.116,0.177,0.255,0.177,0.332l0.001,1.986c0,0.161-0.238,0.401-0.4,0.401h-5.515v5.515c0,0.137-0.277,0.399-0.462,0.399
	l-1.986,0.001C17.914,26.34,17.809,26.297,17.712,26.2L17.712,26.2z"/>
</svg>
