<?xml version="1.0" encoding="utf-8"?>
<!-- Generator: Adobe Illustrator 17.0.0, SVG Export Plug-In . SVG Version: 6.00 Build 0)  -->
<!DOCTYPE svg PUBLIC "-//W3C//DTD SVG 1.1//EN" "http://www.w3.org/Graphics/SVG/1.1/DTD/svg11.dtd">
<svg version="1.1" id="Layer_1" xmlns="http://www.w3.org/2000/svg" xmlns:xlink="http://www.w3.org/1999/xlink" x="0px" y="0px"
	 width="38px" height="38px" viewBox="0 0 38 38" enable-background="new 0 0 38 38" xml:space="preserve">
<path fill="#55636C" d="M23.182,25.001c-0.136,0-0.239-0.043-0.282-0.085l-3.9-3.9l-3.9,3.9c-0.031,0.031-0.123,0.064-0.249,0.064
	c-0.164,0-0.306-0.055-0.361-0.11l-1.404-1.404c-0.113-0.114-0.114-0.452-0.001-0.566l3.9-3.9l-3.9-3.9
	c-0.097-0.097-0.087-0.478,0.045-0.61l1.404-1.404c0.043-0.043,0.148-0.086,0.284-0.086c0.136,0,0.239,0.043,0.282,0.085l3.9,3.9
	l3.9-3.9c0.031-0.031,0.122-0.065,0.249-0.065c0.164,0,0.306,0.055,0.36,0.11l1.405,1.404c0.114,0.114,0.115,0.452,0.001,0.566
	l-3.9,3.9l3.9,3.9c0.097,0.097,0.086,0.478-0.045,0.609l-1.404,1.405C23.423,24.957,23.319,25.001,23.182,25.001L23.182,25.001z"/>
</svg>
